<?xml version="1.0" encoding="UTF-8" standalone="no"?>
<!DOCTYPE svg PUBLIC "-//W3C//DTD SVG 1.1//EN"
 "http://www.w3.org/Graphics/SVG/1.1/DTD/svg11.dtd">
<!-- Generated by graphviz version 2.34.0 (20130914.1858)
 -->
<!-- Title: entity Pages: 1 -->
<svg width="36pt" height="50pt"
 viewBox="0.00 0.00 35.89 50.00" xmlns="http://www.w3.org/2000/svg" xmlns:xlink="http://www.w3.org/1999/xlink">
<g id="graph0" class="graph" transform="scale(0.118483 0.118483) rotate(0) translate(4 418)">
<title>entity</title>
<polygon fill="white" stroke="white" points="-4,4 -4,-418 298.875,-418 298.875,4 -4,4"/>
<!-- entity -->
<g id="node1" class="node"><title>entity</title>
<g id="a_node1_0"><a xlink:href="/dictionaries/mmcif_pdbx_v5_next.dic/Categories/entity.html" xlink:title="&lt;TABLE&gt;">
<polygon fill="#f0027f" stroke="none" points="112.875,-244 112.875,-260 251.875,-260 251.875,-244 112.875,-244"/>
<polygon fill="none" stroke="black" points="112.875,-244 112.875,-260 251.875,-260 251.875,-244 112.875,-244"/>
<text text-anchor="start" x="167.375" y="-250.1" font-family="Helvetica,sans-Serif" font-size="8.00">ENTITY</text>
</a>
</g>
<g id="a_node1_1"><a xlink:href="/dictionaries/mmcif_pdbx_v5_next.dic/Items/_entity.id.html" xlink:title="&lt;TABLE&gt;">
<polygon fill="#ffff99" stroke="none" points="112.875,-229 112.875,-244 251.875,-244 251.875,-229 112.875,-229"/>
<polygon fill="none" stroke="black" points="112.875,-229 112.875,-244 251.875,-244 251.875,-229 112.875,-229"/>
<text text-anchor="start" x="178.875" y="-234.6" font-family="Helvetica,sans-Serif" font-size="8.00">id</text>
</a>
</g>
<g id="a_node1_2"><a xlink:href="/dictionaries/mmcif_pdbx_v5_next.dic/Items/_entity.details.html" xlink:title="&lt;TABLE&gt;">
<polygon fill="none" stroke="black" points="112.875,-214 112.875,-229 251.875,-229 251.875,-214 112.875,-214"/>
<text text-anchor="start" x="170.375" y="-219.6" font-family="Helvetica,sans-Serif" font-size="8.00">details</text>
</a>
</g>
<g id="a_node1_3"><a xlink:href="/dictionaries/mmcif_pdbx_v5_next.dic/Items/_entity.formula_weight.html" xlink:title="&lt;TABLE&gt;">
<polygon fill="none" stroke="black" points="112.875,-199 112.875,-214 251.875,-214 251.875,-199 112.875,-199"/>
<text text-anchor="start" x="154.875" y="-204.6" font-family="Helvetica,sans-Serif" font-size="8.00">formula_weight</text>
</a>
</g>
<g id="a_node1_4"><a xlink:href="/dictionaries/mmcif_pdbx_v5_next.dic/Items/_entity.pdbx_description.html" xlink:title="&lt;TABLE&gt;">
<polygon fill="none" stroke="black" points="112.875,-184 112.875,-199 251.875,-199 251.875,-184 112.875,-184"/>
<text text-anchor="start" x="150.375" y="-189.6" font-family="Helvetica,sans-Serif" font-size="8.00">pdbx_description</text>
</a>
</g>
<g id="a_node1_5"><a xlink:href="/dictionaries/mmcif_pdbx_v5_next.dic/Items/_entity.pdbx_ec.html" xlink:title="&lt;TABLE&gt;">
<polygon fill="none" stroke="black" points="112.875,-169 112.875,-184 251.875,-184 251.875,-169 112.875,-169"/>
<text text-anchor="start" x="165.875" y="-174.6" font-family="Helvetica,sans-Serif" font-size="8.00">pdbx_ec</text>
</a>
</g>
<g id="a_node1_6"><a xlink:href="/dictionaries/mmcif_pdbx_v5_next.dic/Items/_entity.pdbx_entities_per_biological_unit.html" xlink:title="&lt;TABLE&gt;">
<polygon fill="none" stroke="black" points="112.875,-154 112.875,-169 251.875,-169 251.875,-154 112.875,-154"/>
<text text-anchor="start" x="121.875" y="-159.6" font-family="Helvetica,sans-Serif" font-size="8.00">pdbx_entities_per_biological_unit</text>
</a>
</g>
<g id="a_node1_7"><a xlink:href="/dictionaries/mmcif_pdbx_v5_next.dic/Items/_entity.pdbx_formula_weight_exptl.html" xlink:title="&lt;TABLE&gt;">
<polygon fill="none" stroke="black" points="112.875,-139 112.875,-154 251.875,-154 251.875,-139 112.875,-139"/>
<text text-anchor="start" x="131.875" y="-144.6" font-family="Helvetica,sans-Serif" font-size="8.00">pdbx_formula_weight_exptl</text>
</a>
</g>
<g id="a_node1_8"><a xlink:href="/dictionaries/mmcif_pdbx_v5_next.dic/Items/_entity.pdbx_formula_weight_exptl_method.html" xlink:title="&lt;TABLE&gt;">
<polygon fill="none" stroke="black" points="112.875,-124 112.875,-139 251.875,-139 251.875,-124 112.875,-124"/>
<text text-anchor="start" x="116.375" y="-129.6" font-family="Helvetica,sans-Serif" font-size="8.00">pdbx_formula_weight_exptl_method</text>
</a>
</g>
<g id="a_node1_9"><a xlink:href="/dictionaries/mmcif_pdbx_v5_next.dic/Items/_entity.pdbx_fragment.html" xlink:title="&lt;TABLE&gt;">
<polygon fill="none" stroke="black" points="112.875,-109 112.875,-124 251.875,-124 251.875,-109 112.875,-109"/>
<text text-anchor="start" x="154.875" y="-114.6" font-family="Helvetica,sans-Serif" font-size="8.00">pdbx_fragment</text>
</a>
</g>
<g id="a_node1_10"><a xlink:href="/dictionaries/mmcif_pdbx_v5_next.dic/Items/_entity.pdbx_modification.html" xlink:title="&lt;TABLE&gt;">
<polygon fill="none" stroke="black" points="112.875,-94 112.875,-109 251.875,-109 251.875,-94 112.875,-94"/>
<text text-anchor="start" x="149.375" y="-99.6" font-family="Helvetica,sans-Serif" font-size="8.00">pdbx_modification</text>
</a>
</g>
<g id="a_node1_11"><a xlink:href="/dictionaries/mmcif_pdbx_v5_next.dic/Items/_entity.pdbx_mutation.html" xlink:title="&lt;TABLE&gt;">
<polygon fill="none" stroke="black" points="112.875,-79 112.875,-94 251.875,-94 251.875,-79 112.875,-79"/>
<text text-anchor="start" x="154.875" y="-84.6" font-family="Helvetica,sans-Serif" font-size="8.00">pdbx_mutation</text>
</a>
</g>
<g id="a_node1_12"><a xlink:href="/dictionaries/mmcif_pdbx_v5_next.dic/Items/_entity.pdbx_number_of_molecules.html" xlink:title="&lt;TABLE&gt;">
<polygon fill="none" stroke="black" points="112.875,-64 112.875,-79 251.875,-79 251.875,-64 112.875,-64"/>
<text text-anchor="start" x="130.875" y="-69.6" font-family="Helvetica,sans-Serif" font-size="8.00">pdbx_number_of_molecules</text>
</a>
</g>
<g id="a_node1_13"><a xlink:href="/dictionaries/mmcif_pdbx_v5_next.dic/Items/_entity.pdbx_parent_entity_id.html" xlink:title="&lt;TABLE&gt;">
<polygon fill="none" stroke="black" points="112.875,-49 112.875,-64 251.875,-64 251.875,-49 112.875,-49"/>
<text text-anchor="start" x="140.875" y="-54.6" font-family="Helvetica,sans-Serif" font-size="8.00">pdbx_parent_entity_id</text>
</a>
</g>
<g id="a_node1_14"><a xlink:href="/dictionaries/mmcif_pdbx_v5_next.dic/Items/_entity.pdbx_target_id.html" xlink:title="&lt;TABLE&gt;">
<polygon fill="none" stroke="black" points="112.875,-34 112.875,-49 251.875,-49 251.875,-34 112.875,-34"/>
<text text-anchor="start" x="154.875" y="-39.6" font-family="Helvetica,sans-Serif" font-size="8.00">pdbx_target_id</text>
</a>
</g>
<g id="a_node1_15"><a xlink:href="/dictionaries/mmcif_pdbx_v5_next.dic/Items/_entity.src_method.html" xlink:title="&lt;TABLE&gt;">
<polygon fill="none" stroke="black" points="112.875,-19 112.875,-34 251.875,-34 251.875,-19 112.875,-19"/>
<text text-anchor="start" x="161.375" y="-24.6" font-family="Helvetica,sans-Serif" font-size="8.00">src_method</text>
</a>
</g>
<g id="a_node1_16"><a xlink:href="/dictionaries/mmcif_pdbx_v5_next.dic/Items/_entity.type.html" xlink:title="&lt;TABLE&gt;">
<polygon fill="none" stroke="black" points="112.875,-4 112.875,-19 251.875,-19 251.875,-4 112.875,-4"/>
<text text-anchor="start" x="173.375" y="-9.6" font-family="Helvetica,sans-Serif" font-size="8.00">type</text>
</a>
</g>
</g>
<!-- entity&#45;&gt;entity -->
<g id="edge2" class="edge"><title>entity:pdbx_parent_entity_id:e&#45;&gt;entity:id:e</title>
<path fill="none" stroke="black" d="M251.875,-56C264.875,-28 276.875,-28 276.875,-146.5 276.875,-250.188 267.688,-263.148 256.682,-246.011"/>
<polygon fill="black" stroke="black" points="259.67,-244.176 251.875,-237 253.494,-247.47 259.67,-244.176"/>
</g>
<!-- entity&#45;&gt;entity -->
<g id="edge4" class="edge"><title>entity:pdbx_parent_entity_id:e&#45;&gt;entity:id:e</title>
<path fill="none" stroke="black" d="M251.875,-56C270.875,-0 294.875,-0 294.875,-146.5 294.875,-284.13 273.694,-292.463 255.375,-246.536"/>
<polygon fill="black" stroke="black" points="258.606,-245.182 251.875,-237 252.035,-247.594 258.606,-245.182"/>
</g>
<!-- pdbx_entity_poly_domain -->
<g id="node2" class="node"><title>pdbx_entity_poly_domain</title>
<g id="a_node2_17"><a xlink:href="/dictionaries/mmcif_pdbx_v5_next.dic/Categories/pdbx_entity_poly_domain.html" xlink:title="&lt;TABLE&gt;">
<polygon fill="#99c49b" stroke="none" points="31.8753,-394 31.8753,-410 160.875,-410 160.875,-394 31.8753,-394"/>
<polygon fill="none" stroke="black" points="31.8753,-394 31.8753,-410 160.875,-410 160.875,-394 31.8753,-394"/>
<text text-anchor="start" x="35.3753" y="-400.1" font-family="Helvetica,sans-Serif" font-size="8.00">PDBX_ENTITY_POLY_DOMAIN</text>
</a>
</g>
<g id="a_node2_18"><a xlink:href="/dictionaries/mmcif_pdbx_v5_next.dic/Items/_pdbx_entity_poly_domain.entity_id.html" xlink:title="&lt;TABLE&gt;">
<polygon fill="#ffff99" stroke="none" points="31.8753,-379 31.8753,-394 160.875,-394 160.875,-379 31.8753,-379"/>
<polygon fill="none" stroke="black" points="31.8753,-379 31.8753,-394 160.875,-394 160.875,-379 31.8753,-379"/>
<text text-anchor="start" x="80.8753" y="-384.6" font-family="Helvetica,sans-Serif" font-size="8.00">entity_id</text>
</a>
</g>
<g id="a_node2_19"><a xlink:href="/dictionaries/mmcif_pdbx_v5_next.dic/Items/_pdbx_entity_poly_domain.id.html" xlink:title="&lt;TABLE&gt;">
<polygon fill="#ffff99" stroke="none" points="31.8753,-364 31.8753,-379 160.875,-379 160.875,-364 31.8753,-364"/>
<polygon fill="none" stroke="black" points="31.8753,-364 31.8753,-379 160.875,-379 160.875,-364 31.8753,-364"/>
<text text-anchor="start" x="92.8753" y="-369.6" font-family="Helvetica,sans-Serif" font-size="8.00">id</text>
</a>
</g>
<g id="a_node2_20"><a xlink:href="/dictionaries/mmcif_pdbx_v5_next.dic/Items/_pdbx_entity_poly_domain.begin_mon_id.html" xlink:title="&lt;TABLE&gt;">
<polygon fill="none" stroke="black" points="31.8753,-349 31.8753,-364 160.875,-364 160.875,-349 31.8753,-349"/>
<text text-anchor="start" x="70.8753" y="-354.6" font-family="Helvetica,sans-Serif" font-size="8.00">begin_mon_id</text>
</a>
</g>
<g id="a_node2_21"><a xlink:href="/dictionaries/mmcif_pdbx_v5_next.dic/Items/_pdbx_entity_poly_domain.begin_seq_num.html" xlink:title="&lt;TABLE&gt;">
<polygon fill="none" stroke="black" points="31.8753,-334 31.8753,-349 160.875,-349 160.875,-334 31.8753,-334"/>
<text text-anchor="start" x="67.3753" y="-339.6" font-family="Helvetica,sans-Serif" font-size="8.00">begin_seq_num</text>
</a>
</g>
<g id="a_node2_22"><a xlink:href="/dictionaries/mmcif_pdbx_v5_next.dic/Items/_pdbx_entity_poly_domain.end_mon_id.html" xlink:title="&lt;TABLE&gt;">
<polygon fill="none" stroke="black" points="31.8753,-319 31.8753,-334 160.875,-334 160.875,-319 31.8753,-319"/>
<text text-anchor="start" x="74.3753" y="-324.6" font-family="Helvetica,sans-Serif" font-size="8.00">end_mon_id</text>
</a>
</g>
<g id="a_node2_23"><a xlink:href="/dictionaries/mmcif_pdbx_v5_next.dic/Items/_pdbx_entity_poly_domain.end_seq_num.html" xlink:title="&lt;TABLE&gt;">
<polygon fill="none" stroke="black" points="31.8753,-304 31.8753,-319 160.875,-319 160.875,-304 31.8753,-304"/>
<text text-anchor="start" x="70.3753" y="-309.6" font-family="Helvetica,sans-Serif" font-size="8.00">end_seq_num</text>
</a>
</g>
</g>
<!-- pdbx_entity_poly_domain&#45;&gt;entity -->
<g id="edge3" class="edge"><title>pdbx_entity_poly_domain:entity_id:w&#45;&gt;entity:id:w</title>
<path fill="none" stroke="black" d="M30.8753,-387C-41.4869,-387 29.1486,-250.174 101.648,-237.881"/>
<polygon fill="black" stroke="black" points="102.213,-241.345 111.875,-237 101.612,-234.371 102.213,-241.345"/>
</g>
<!-- entity_name_sys -->
<g id="node3" class="node"><title>entity_name_sys</title>
<g id="a_node3_24"><a xlink:href="/dictionaries/mmcif_pdbx_v5_next.dic/Categories/entity_name_sys.html" xlink:title="&lt;TABLE&gt;">
<polygon fill="#99c49b" stroke="none" points="194.875,-371 194.875,-387 280.875,-387 280.875,-371 194.875,-371"/>
<polygon fill="none" stroke="black" points="194.875,-371 194.875,-387 280.875,-387 280.875,-371 194.875,-371"/>
<text text-anchor="start" x="198.375" y="-377.1" font-family="Helvetica,sans-Serif" font-size="8.00">ENTITY_NAME_SYS</text>
</a>
</g>
<g id="a_node3_25"><a xlink:href="/dictionaries/mmcif_pdbx_v5_next.dic/Items/_entity_name_sys.entity_id.html" xlink:title="&lt;TABLE&gt;">
<polygon fill="#ffff99" stroke="none" points="194.875,-356 194.875,-371 280.875,-371 280.875,-356 194.875,-356"/>
<polygon fill="none" stroke="black" points="194.875,-356 194.875,-371 280.875,-371 280.875,-356 194.875,-356"/>
<text text-anchor="start" x="222.375" y="-361.6" font-family="Helvetica,sans-Serif" font-size="8.00">entity_id</text>
</a>
</g>
<g id="a_node3_26"><a xlink:href="/dictionaries/mmcif_pdbx_v5_next.dic/Items/_entity_name_sys.name.html" xlink:title="&lt;TABLE&gt;">
<polygon fill="none" stroke="black" points="194.875,-341 194.875,-356 280.875,-356 280.875,-341 194.875,-341"/>
<text text-anchor="start" x="227.875" y="-346.6" font-family="Helvetica,sans-Serif" font-size="8.00">name</text>
</a>
</g>
<g id="a_node3_27"><a xlink:href="/dictionaries/mmcif_pdbx_v5_next.dic/Items/_entity_name_sys.system.html" xlink:title="&lt;TABLE&gt;">
<polygon fill="none" stroke="black" points="194.875,-326 194.875,-341 280.875,-341 280.875,-326 194.875,-326"/>
<text text-anchor="start" x="223.875" y="-331.6" font-family="Helvetica,sans-Serif" font-size="8.00">system</text>
</a>
</g>
</g>
<!-- entity_name_sys&#45;&gt;entity -->
<g id="edge1" class="edge"><title>entity_name_sys:entity_id:w&#45;&gt;entity:id:w</title>
<path fill="none" stroke="black" d="M193.875,-364C164.445,-364 194.897,-323.268 176.875,-300 156.891,-274.198 129.87,-291.862 112.875,-264 109.358,-258.233 105.682,-250.411 105.276,-244.671"/>
<polygon fill="black" stroke="black" points="108.006,-246.863 111.875,-237 102.7,-242.298 108.006,-246.863"/>
</g>
</g>
</svg>
