<?xml version="1.0" encoding="UTF-8" standalone="no"?>
<!DOCTYPE svg PUBLIC "-//W3C//DTD SVG 1.1//EN"
 "http://www.w3.org/Graphics/SVG/1.1/DTD/svg11.dtd">
<!-- Generated by graphviz version 2.34.0 (20130914.1858)
 -->
<!-- Title: atom_site Pages: 1 -->
<svg width="705pt" height="1446pt"
 viewBox="0.00 0.00 705.37 1446.00" xmlns="http://www.w3.org/2000/svg" xmlns:xlink="http://www.w3.org/1999/xlink">
<g id="graph0" class="graph" transform="scale(1 1) rotate(0) translate(4 1442)">
<title>atom_site</title>
<polygon fill="white" stroke="white" points="-4,4 -4,-1442 701.372,-1442 701.372,4 -4,4"/>
<text text-anchor="start" x="345.686" y="-40.6" font-family="Helvetica,sans-Serif" font-size="18.00"> </text>
<text text-anchor="start" x="157.686" y="-22.6" font-family="Helvetica,sans-Serif" font-size="18.00">Selected Relationships for Category </text>
<text text-anchor="start" x="450.686" y="-22.6" font-family="Helvetica,sans-Serif" font-weight="bold" font-size="18.00">atom_site</text>
<text text-anchor="start" x="535.686" y="-22.6" font-family="Helvetica,sans-Serif" font-size="14.00"> </text>
<text text-anchor="start" x="249.186" y="-7.8" font-family="Helvetica,sans-Serif" font-size="14.00"> &#160;in dictionary mmcif_pdbx_v40</text>
<!-- _atom_site -->
<g id="node1" class="node"><title>_atom_site</title>
<g id="a_node1_0"><a xlink:href="/dictionaries/mmcif_pdbx_v40.dic/Categories/atom_site.html" xlink:title="&lt;TABLE&gt;" target="_top">
<polygon fill="#f0027f" stroke="none" points="288.372,-1412 288.372,-1434 402.372,-1434 402.372,-1412 288.372,-1412"/>
<polygon fill="none" stroke="black" points="288.372,-1412 288.372,-1434 402.372,-1434 402.372,-1412 288.372,-1412"/>
<text text-anchor="start" x="317.872" y="-1420.5" font-family="Helvetica,sans-Serif" font-size="10.00">ATOM_SITE</text>
</a>
</g>
<g id="a_node1_1"><a xlink:href="/dictionaries/mmcif_pdbx_v40.dic/Items/_atom_site.id.html" xlink:title="&lt;TABLE&gt;" target="_top">
<polygon fill="#ffff99" stroke="none" points="288.372,-1391 288.372,-1412 402.372,-1412 402.372,-1391 288.372,-1391"/>
<polygon fill="none" stroke="black" points="288.372,-1391 288.372,-1412 402.372,-1412 402.372,-1391 288.372,-1391"/>
<text text-anchor="start" x="293.372" y="-1399" font-family="Helvetica,sans-Serif" font-size="10.00">id</text>
</a>
</g>
<g id="a_node1_2"><a xlink:href="/dictionaries/mmcif_pdbx_v40.dic/Items/_atom_site.auth_asym_id.html" xlink:title="&lt;TABLE&gt;" target="_top">
<polygon fill="none" stroke="black" points="288.372,-1370 288.372,-1391 402.372,-1391 402.372,-1370 288.372,-1370"/>
<text text-anchor="start" x="293.372" y="-1378" font-family="Helvetica,sans-Serif" font-size="10.00">auth_asym_id</text>
</a>
</g>
<g id="a_node1_3"><a xlink:href="/dictionaries/mmcif_pdbx_v40.dic/Items/_atom_site.auth_atom_id.html" xlink:title="&lt;TABLE&gt;" target="_top">
<polygon fill="none" stroke="black" points="288.372,-1349 288.372,-1370 402.372,-1370 402.372,-1349 288.372,-1349"/>
<text text-anchor="start" x="293.372" y="-1357" font-family="Helvetica,sans-Serif" font-size="10.00">auth_atom_id</text>
</a>
</g>
<g id="a_node1_4"><a xlink:href="/dictionaries/mmcif_pdbx_v40.dic/Items/_atom_site.auth_comp_id.html" xlink:title="&lt;TABLE&gt;" target="_top">
<polygon fill="none" stroke="black" points="288.372,-1328 288.372,-1349 402.372,-1349 402.372,-1328 288.372,-1328"/>
<text text-anchor="start" x="293.372" y="-1336" font-family="Helvetica,sans-Serif" font-size="10.00">auth_comp_id</text>
</a>
</g>
<g id="a_node1_5"><a xlink:href="/dictionaries/mmcif_pdbx_v40.dic/Items/_atom_site.auth_seq_id.html" xlink:title="&lt;TABLE&gt;" target="_top">
<polygon fill="none" stroke="black" points="288.372,-1307 288.372,-1328 402.372,-1328 402.372,-1307 288.372,-1307"/>
<text text-anchor="start" x="293.372" y="-1315" font-family="Helvetica,sans-Serif" font-size="10.00">auth_seq_id</text>
</a>
</g>
<g id="a_node1_6"><a xlink:href="/dictionaries/mmcif_pdbx_v40.dic/Items/_atom_site.chemical_conn_number.html" xlink:title="&lt;TABLE&gt;" target="_top">
<polygon fill="none" stroke="black" points="288.372,-1286 288.372,-1307 402.372,-1307 402.372,-1286 288.372,-1286"/>
<text text-anchor="start" x="293.372" y="-1294" font-family="Helvetica,sans-Serif" font-size="10.00">chemical_conn_number</text>
</a>
</g>
<g id="a_node1_7"><a xlink:href="/dictionaries/mmcif_pdbx_v40.dic/Items/_atom_site.footnote_id.html" xlink:title="&lt;TABLE&gt;" target="_top">
<polygon fill="none" stroke="black" points="288.372,-1265 288.372,-1286 402.372,-1286 402.372,-1265 288.372,-1265"/>
<text text-anchor="start" x="293.372" y="-1273" font-family="Helvetica,sans-Serif" font-size="10.00">footnote_id</text>
</a>
</g>
<g id="a_node1_8"><a xlink:href="/dictionaries/mmcif_pdbx_v40.dic/Items/_atom_site.label_alt_id.html" xlink:title="&lt;TABLE&gt;" target="_top">
<polygon fill="none" stroke="black" points="288.372,-1244 288.372,-1265 402.372,-1265 402.372,-1244 288.372,-1244"/>
<text text-anchor="start" x="293.372" y="-1252" font-family="Helvetica,sans-Serif" font-size="10.00">label_alt_id</text>
</a>
</g>
<g id="a_node1_9"><a xlink:href="/dictionaries/mmcif_pdbx_v40.dic/Items/_atom_site.label_asym_id.html" xlink:title="&lt;TABLE&gt;" target="_top">
<polygon fill="none" stroke="black" points="288.372,-1223 288.372,-1244 402.372,-1244 402.372,-1223 288.372,-1223"/>
<text text-anchor="start" x="293.372" y="-1231" font-family="Helvetica,sans-Serif" font-size="10.00">label_asym_id</text>
</a>
</g>
<g id="a_node1_10"><a xlink:href="/dictionaries/mmcif_pdbx_v40.dic/Items/_atom_site.label_atom_id.html" xlink:title="&lt;TABLE&gt;" target="_top">
<polygon fill="none" stroke="black" points="288.372,-1202 288.372,-1223 402.372,-1223 402.372,-1202 288.372,-1202"/>
<text text-anchor="start" x="293.372" y="-1210" font-family="Helvetica,sans-Serif" font-size="10.00">label_atom_id</text>
</a>
</g>
<g id="a_node1_11"><a xlink:href="/dictionaries/mmcif_pdbx_v40.dic/Items/_atom_site.label_comp_id.html" xlink:title="&lt;TABLE&gt;" target="_top">
<polygon fill="none" stroke="black" points="288.372,-1181 288.372,-1202 402.372,-1202 402.372,-1181 288.372,-1181"/>
<text text-anchor="start" x="293.372" y="-1189" font-family="Helvetica,sans-Serif" font-size="10.00">label_comp_id</text>
</a>
</g>
<g id="a_node1_12"><a xlink:href="/dictionaries/mmcif_pdbx_v40.dic/Items/_atom_site.label_entity_id.html" xlink:title="&lt;TABLE&gt;" target="_top">
<polygon fill="none" stroke="black" points="288.372,-1160 288.372,-1181 402.372,-1181 402.372,-1160 288.372,-1160"/>
<text text-anchor="start" x="293.372" y="-1168" font-family="Helvetica,sans-Serif" font-size="10.00">label_entity_id</text>
</a>
</g>
<g id="a_node1_13"><a xlink:href="/dictionaries/mmcif_pdbx_v40.dic/Items/_atom_site.label_seq_id.html" xlink:title="&lt;TABLE&gt;" target="_top">
<polygon fill="none" stroke="black" points="288.372,-1139 288.372,-1160 402.372,-1160 402.372,-1139 288.372,-1139"/>
<text text-anchor="start" x="293.372" y="-1147" font-family="Helvetica,sans-Serif" font-size="10.00">label_seq_id</text>
</a>
</g>
<g id="a_node1_14"><a xlink:href="/dictionaries/mmcif_pdbx_v40.dic/Items/_atom_site.pdbx_PDB_ins_code.html" xlink:title="&lt;TABLE&gt;" target="_top">
<polygon fill="none" stroke="black" points="288.372,-1118 288.372,-1139 402.372,-1139 402.372,-1118 288.372,-1118"/>
<text text-anchor="start" x="293.372" y="-1126" font-family="Helvetica,sans-Serif" font-size="10.00">pdbx_PDB_ins_code</text>
</a>
</g>
<g id="a_node1_15"><a xlink:href="/dictionaries/mmcif_pdbx_v40.dic/Items/_atom_site.pdbx_PDB_model_num.html" xlink:title="&lt;TABLE&gt;" target="_top">
<polygon fill="none" stroke="black" points="288.372,-1097 288.372,-1118 402.372,-1118 402.372,-1097 288.372,-1097"/>
<text text-anchor="start" x="293.372" y="-1105" font-family="Helvetica,sans-Serif" font-size="10.00">pdbx_PDB_model_num</text>
</a>
</g>
<g id="a_node1_16"><a xlink:href="/dictionaries/mmcif_pdbx_v40.dic/Items/_atom_site.pdbx_auth_alt_id.html" xlink:title="&lt;TABLE&gt;" target="_top">
<polygon fill="none" stroke="black" points="288.372,-1076 288.372,-1097 402.372,-1097 402.372,-1076 288.372,-1076"/>
<text text-anchor="start" x="293.372" y="-1084" font-family="Helvetica,sans-Serif" font-size="10.00">pdbx_auth_alt_id</text>
</a>
</g>
<g id="a_node1_17"><a xlink:href="/dictionaries/mmcif_pdbx_v40.dic/Items/_atom_site.pdbx_ncs_dom_id.html" xlink:title="&lt;TABLE&gt;" target="_top">
<polygon fill="none" stroke="black" points="288.372,-1055 288.372,-1076 402.372,-1076 402.372,-1055 288.372,-1055"/>
<text text-anchor="start" x="293.372" y="-1063" font-family="Helvetica,sans-Serif" font-size="10.00">pdbx_ncs_dom_id</text>
</a>
</g>
<g id="a_node1_18"><a xlink:href="/dictionaries/mmcif_pdbx_v40.dic/Items/_atom_site.pdbx_tls_group_id.html" xlink:title="&lt;TABLE&gt;" target="_top">
<polygon fill="none" stroke="black" points="288.372,-1034 288.372,-1055 402.372,-1055 402.372,-1034 288.372,-1034"/>
<text text-anchor="start" x="293.372" y="-1042" font-family="Helvetica,sans-Serif" font-size="10.00">pdbx_tls_group_id</text>
</a>
</g>
<g id="a_node1_19"><a xlink:href="/dictionaries/mmcif_pdbx_v40.dic/Items/_atom_site.type_symbol.html" xlink:title="&lt;TABLE&gt;" target="_top">
<polygon fill="none" stroke="black" points="288.372,-1013 288.372,-1034 402.372,-1034 402.372,-1013 288.372,-1013"/>
<text text-anchor="start" x="293.372" y="-1021" font-family="Helvetica,sans-Serif" font-size="10.00">type_symbol</text>
</a>
</g>
<g id="a_node1_20"><a xlink:href="/dictionaries/mmcif_pdbx_v40.dic/Items/_atom_site.B_iso_or_equiv.html" xlink:title="&lt;TABLE&gt;" target="_top">
<polygon fill="none" stroke="black" points="288.372,-992 288.372,-1013 402.372,-1013 402.372,-992 288.372,-992"/>
<text text-anchor="start" x="293.372" y="-1000" font-family="Helvetica,sans-Serif" font-size="10.00">B_iso_or_equiv</text>
</a>
</g>
<g id="a_node1_21"><a xlink:href="/dictionaries/mmcif_pdbx_v40.dic/Items/_atom_site.B_iso_or_equiv_esd.html" xlink:title="&lt;TABLE&gt;" target="_top">
<polygon fill="none" stroke="black" points="288.372,-971 288.372,-992 402.372,-992 402.372,-971 288.372,-971"/>
<text text-anchor="start" x="293.372" y="-979" font-family="Helvetica,sans-Serif" font-size="10.00">B_iso_or_equiv_esd</text>
</a>
</g>
<g id="a_node1_22"><a xlink:href="/dictionaries/mmcif_pdbx_v40.dic/Items/_atom_site.Cartn_x.html" xlink:title="&lt;TABLE&gt;" target="_top">
<polygon fill="none" stroke="black" points="288.372,-950 288.372,-971 402.372,-971 402.372,-950 288.372,-950"/>
<text text-anchor="start" x="293.372" y="-958" font-family="Helvetica,sans-Serif" font-size="10.00">Cartn_x</text>
</a>
</g>
<g id="a_node1_23"><a xlink:href="/dictionaries/mmcif_pdbx_v40.dic/Items/_atom_site.Cartn_x_esd.html" xlink:title="&lt;TABLE&gt;" target="_top">
<polygon fill="none" stroke="black" points="288.372,-929 288.372,-950 402.372,-950 402.372,-929 288.372,-929"/>
<text text-anchor="start" x="293.372" y="-937" font-family="Helvetica,sans-Serif" font-size="10.00">Cartn_x_esd</text>
</a>
</g>
<g id="a_node1_24"><a xlink:href="/dictionaries/mmcif_pdbx_v40.dic/Items/_atom_site.Cartn_y.html" xlink:title="&lt;TABLE&gt;" target="_top">
<polygon fill="none" stroke="black" points="288.372,-908 288.372,-929 402.372,-929 402.372,-908 288.372,-908"/>
<text text-anchor="start" x="293.372" y="-916" font-family="Helvetica,sans-Serif" font-size="10.00">Cartn_y</text>
</a>
</g>
<g id="a_node1_25"><a xlink:href="/dictionaries/mmcif_pdbx_v40.dic/Items/_atom_site.Cartn_y_esd.html" xlink:title="&lt;TABLE&gt;" target="_top">
<polygon fill="none" stroke="black" points="288.372,-887 288.372,-908 402.372,-908 402.372,-887 288.372,-887"/>
<text text-anchor="start" x="293.372" y="-895" font-family="Helvetica,sans-Serif" font-size="10.00">Cartn_y_esd</text>
</a>
</g>
<g id="a_node1_26"><a xlink:href="/dictionaries/mmcif_pdbx_v40.dic/Items/_atom_site.Cartn_z.html" xlink:title="&lt;TABLE&gt;" target="_top">
<polygon fill="none" stroke="black" points="288.372,-866 288.372,-887 402.372,-887 402.372,-866 288.372,-866"/>
<text text-anchor="start" x="293.372" y="-874" font-family="Helvetica,sans-Serif" font-size="10.00">Cartn_z</text>
</a>
</g>
<g id="a_node1_27"><a xlink:href="/dictionaries/mmcif_pdbx_v40.dic/Items/_atom_site.Cartn_z_esd.html" xlink:title="&lt;TABLE&gt;" target="_top">
<polygon fill="none" stroke="black" points="288.372,-845 288.372,-866 402.372,-866 402.372,-845 288.372,-845"/>
<text text-anchor="start" x="293.372" y="-853" font-family="Helvetica,sans-Serif" font-size="10.00">Cartn_z_esd</text>
</a>
</g>
<g id="a_node1_28"><a xlink:href="/dictionaries/mmcif_pdbx_v40.dic/Items/_atom_site.group_PDB.html" xlink:title="&lt;TABLE&gt;" target="_top">
<polygon fill="none" stroke="black" points="288.372,-824 288.372,-845 402.372,-845 402.372,-824 288.372,-824"/>
<text text-anchor="start" x="293.372" y="-832" font-family="Helvetica,sans-Serif" font-size="10.00">group_PDB</text>
</a>
</g>
<g id="a_node1_29"><a xlink:href="/dictionaries/mmcif_pdbx_v40.dic/Items/_atom_site.occupancy.html" xlink:title="&lt;TABLE&gt;" target="_top">
<polygon fill="none" stroke="black" points="288.372,-803 288.372,-824 402.372,-824 402.372,-803 288.372,-803"/>
<text text-anchor="start" x="293.372" y="-811" font-family="Helvetica,sans-Serif" font-size="10.00">occupancy</text>
</a>
</g>
<g id="a_node1_30"><a xlink:href="/dictionaries/mmcif_pdbx_v40.dic/Items/_atom_site.pdbx_formal_charge.html" xlink:title="&lt;TABLE&gt;" target="_top">
<polygon fill="none" stroke="black" points="288.372,-782 288.372,-803 402.372,-803 402.372,-782 288.372,-782"/>
<text text-anchor="start" x="293.372" y="-790" font-family="Helvetica,sans-Serif" font-size="10.00">pdbx_formal_charge</text>
</a>
</g>
</g>
<!-- _atom_type -->
<g id="node2" class="node"><title>_atom_type</title>
<g id="a_node2_31"><a xlink:href="/dictionaries/mmcif_pdbx_v40.dic/Categories/atom_type.html" xlink:title="&lt;TABLE&gt;" target="_top">
<polygon fill="#99c49b" stroke="none" points="24.3717,-653 24.3717,-675 135.372,-675 135.372,-653 24.3717,-653"/>
<polygon fill="none" stroke="black" points="24.3717,-653 24.3717,-675 135.372,-675 135.372,-653 24.3717,-653"/>
<text text-anchor="start" x="49.8717" y="-661.5" font-family="Helvetica,sans-Serif" font-size="10.00">ATOM_TYPE</text>
</a>
</g>
<g id="a_node2_32"><a xlink:href="/dictionaries/mmcif_pdbx_v40.dic/Items/_atom_type.symbol.html" xlink:title="&lt;TABLE&gt;" target="_top">
<polygon fill="#ffff99" stroke="none" points="24.3717,-632 24.3717,-653 135.372,-653 135.372,-632 24.3717,-632"/>
<polygon fill="none" stroke="black" points="24.3717,-632 24.3717,-653 135.372,-653 135.372,-632 24.3717,-632"/>
<text text-anchor="start" x="29.3717" y="-640" font-family="Helvetica,sans-Serif" font-size="10.00">symbol</text>
</a>
</g>
<g id="a_node2_33"><a xlink:href="/dictionaries/mmcif_pdbx_v40.dic/Items/_atom_type.scat_Cromer_Mann_a1.html" xlink:title="&lt;TABLE&gt;" target="_top">
<polygon fill="none" stroke="black" points="24.3717,-611 24.3717,-632 135.372,-632 135.372,-611 24.3717,-611"/>
<text text-anchor="start" x="29.3717" y="-619" font-family="Helvetica,sans-Serif" font-size="10.00">scat_Cromer_Mann_a1</text>
</a>
</g>
<g id="a_node2_34"><a xlink:href="/dictionaries/mmcif_pdbx_v40.dic/Items/_atom_type.scat_Cromer_Mann_a2.html" xlink:title="&lt;TABLE&gt;" target="_top">
<polygon fill="none" stroke="black" points="24.3717,-590 24.3717,-611 135.372,-611 135.372,-590 24.3717,-590"/>
<text text-anchor="start" x="29.3717" y="-598" font-family="Helvetica,sans-Serif" font-size="10.00">scat_Cromer_Mann_a2</text>
</a>
</g>
<g id="a_node2_35"><a xlink:href="/dictionaries/mmcif_pdbx_v40.dic/Items/_atom_type.scat_Cromer_Mann_a3.html" xlink:title="&lt;TABLE&gt;" target="_top">
<polygon fill="none" stroke="black" points="24.3717,-569 24.3717,-590 135.372,-590 135.372,-569 24.3717,-569"/>
<text text-anchor="start" x="29.3717" y="-577" font-family="Helvetica,sans-Serif" font-size="10.00">scat_Cromer_Mann_a3</text>
</a>
</g>
<g id="a_node2_36"><a xlink:href="/dictionaries/mmcif_pdbx_v40.dic/Items/_atom_type.scat_Cromer_Mann_a4.html" xlink:title="&lt;TABLE&gt;" target="_top">
<polygon fill="none" stroke="black" points="24.3717,-548 24.3717,-569 135.372,-569 135.372,-548 24.3717,-548"/>
<text text-anchor="start" x="29.3717" y="-556" font-family="Helvetica,sans-Serif" font-size="10.00">scat_Cromer_Mann_a4</text>
</a>
</g>
<g id="a_node2_37"><a xlink:href="/dictionaries/mmcif_pdbx_v40.dic/Items/_atom_type.scat_Cromer_Mann_b1.html" xlink:title="&lt;TABLE&gt;" target="_top">
<polygon fill="none" stroke="black" points="24.3717,-527 24.3717,-548 135.372,-548 135.372,-527 24.3717,-527"/>
<text text-anchor="start" x="29.3717" y="-535" font-family="Helvetica,sans-Serif" font-size="10.00">scat_Cromer_Mann_b1</text>
</a>
</g>
<g id="a_node2_38"><a xlink:href="/dictionaries/mmcif_pdbx_v40.dic/Items/_atom_type.scat_Cromer_Mann_b2.html" xlink:title="&lt;TABLE&gt;" target="_top">
<polygon fill="none" stroke="black" points="24.3717,-506 24.3717,-527 135.372,-527 135.372,-506 24.3717,-506"/>
<text text-anchor="start" x="29.3717" y="-514" font-family="Helvetica,sans-Serif" font-size="10.00">scat_Cromer_Mann_b2</text>
</a>
</g>
<g id="a_node2_39"><a xlink:href="/dictionaries/mmcif_pdbx_v40.dic/Items/_atom_type.scat_Cromer_Mann_b3.html" xlink:title="&lt;TABLE&gt;" target="_top">
<polygon fill="none" stroke="black" points="24.3717,-485 24.3717,-506 135.372,-506 135.372,-485 24.3717,-485"/>
<text text-anchor="start" x="29.3717" y="-493" font-family="Helvetica,sans-Serif" font-size="10.00">scat_Cromer_Mann_b3</text>
</a>
</g>
<g id="a_node2_40"><a xlink:href="/dictionaries/mmcif_pdbx_v40.dic/Items/_atom_type.scat_Cromer_Mann_b4.html" xlink:title="&lt;TABLE&gt;" target="_top">
<polygon fill="none" stroke="black" points="24.3717,-464 24.3717,-485 135.372,-485 135.372,-464 24.3717,-464"/>
<text text-anchor="start" x="29.3717" y="-472" font-family="Helvetica,sans-Serif" font-size="10.00">scat_Cromer_Mann_b4</text>
</a>
</g>
<g id="a_node2_41"><a xlink:href="/dictionaries/mmcif_pdbx_v40.dic/Items/_atom_type.scat_Cromer_Mann_c.html" xlink:title="&lt;TABLE&gt;" target="_top">
<polygon fill="none" stroke="black" points="24.3717,-443 24.3717,-464 135.372,-464 135.372,-443 24.3717,-443"/>
<text text-anchor="start" x="29.3717" y="-451" font-family="Helvetica,sans-Serif" font-size="10.00">scat_Cromer_Mann_c</text>
</a>
</g>
<g id="a_node2_42"><a xlink:href="/dictionaries/mmcif_pdbx_v40.dic/Items/_atom_type.scat_dispersion_imag.html" xlink:title="&lt;TABLE&gt;" target="_top">
<polygon fill="none" stroke="black" points="24.3717,-422 24.3717,-443 135.372,-443 135.372,-422 24.3717,-422"/>
<text text-anchor="start" x="29.3717" y="-430" font-family="Helvetica,sans-Serif" font-size="10.00">scat_dispersion_imag</text>
</a>
</g>
<g id="a_node2_43"><a xlink:href="/dictionaries/mmcif_pdbx_v40.dic/Items/_atom_type.scat_dispersion_real.html" xlink:title="&lt;TABLE&gt;" target="_top">
<polygon fill="none" stroke="black" points="24.3717,-401 24.3717,-422 135.372,-422 135.372,-401 24.3717,-401"/>
<text text-anchor="start" x="29.3717" y="-409" font-family="Helvetica,sans-Serif" font-size="10.00">scat_dispersion_real</text>
</a>
</g>
</g>
<!-- _atom_site&#45;&gt;_atom_type -->
<g id="edge6" class="edge"><title>_atom_site:__type_symbol:w&#45;&gt;_atom_type:__symbol:w</title>
<path fill="none" stroke="black" d="M287.372,-1023C188.364,-1023 -60.0798,-670.68 13.4131,-644.531"/>
<polygon fill="black" stroke="black" points="14.0197,-647.979 23.3717,-643 12.956,-641.06 14.0197,-647.979"/>
</g>
<!-- _chem_comp -->
<g id="node3" class="node"><title>_chem_comp</title>
<g id="a_node3_44"><a xlink:href="/dictionaries/mmcif_pdbx_v40.dic/Categories/chem_comp.html" xlink:title="&lt;TABLE&gt;" target="_top">
<polygon fill="#99c49b" stroke="none" points="207.372,-261 207.372,-283 304.372,-283 304.372,-261 207.372,-261"/>
<polygon fill="none" stroke="black" points="207.372,-261 207.372,-283 304.372,-283 304.372,-261 207.372,-261"/>
<text text-anchor="start" x="222.872" y="-269.5" font-family="Helvetica,sans-Serif" font-size="10.00">CHEM_COMP</text>
</a>
</g>
<g id="a_node3_45"><a xlink:href="/dictionaries/mmcif_pdbx_v40.dic/Items/_chem_comp.id.html" xlink:title="&lt;TABLE&gt;" target="_top">
<polygon fill="#ffff99" stroke="none" points="207.372,-240 207.372,-261 304.372,-261 304.372,-240 207.372,-240"/>
<polygon fill="none" stroke="black" points="207.372,-240 207.372,-261 304.372,-261 304.372,-240 207.372,-240"/>
<text text-anchor="start" x="212.372" y="-248" font-family="Helvetica,sans-Serif" font-size="10.00">id</text>
</a>
</g>
<g id="a_node3_46"><a xlink:href="/dictionaries/mmcif_pdbx_v40.dic/Items/_chem_comp.formula.html" xlink:title="&lt;TABLE&gt;" target="_top">
<polygon fill="none" stroke="black" points="207.372,-219 207.372,-240 304.372,-240 304.372,-219 207.372,-219"/>
<text text-anchor="start" x="212.372" y="-227" font-family="Helvetica,sans-Serif" font-size="10.00">formula</text>
</a>
</g>
<g id="a_node3_47"><a xlink:href="/dictionaries/mmcif_pdbx_v40.dic/Items/_chem_comp.formula_weight.html" xlink:title="&lt;TABLE&gt;" target="_top">
<polygon fill="none" stroke="black" points="207.372,-198 207.372,-219 304.372,-219 304.372,-198 207.372,-198"/>
<text text-anchor="start" x="212.372" y="-206" font-family="Helvetica,sans-Serif" font-size="10.00">formula_weight</text>
</a>
</g>
<g id="a_node3_48"><a xlink:href="/dictionaries/mmcif_pdbx_v40.dic/Items/_chem_comp.mon_nstd_flag.html" xlink:title="&lt;TABLE&gt;" target="_top">
<polygon fill="none" stroke="black" points="207.372,-177 207.372,-198 304.372,-198 304.372,-177 207.372,-177"/>
<text text-anchor="start" x="212.372" y="-185" font-family="Helvetica,sans-Serif" font-size="10.00">mon_nstd_flag</text>
</a>
</g>
<g id="a_node3_49"><a xlink:href="/dictionaries/mmcif_pdbx_v40.dic/Items/_chem_comp.name.html" xlink:title="&lt;TABLE&gt;" target="_top">
<polygon fill="none" stroke="black" points="207.372,-156 207.372,-177 304.372,-177 304.372,-156 207.372,-156"/>
<text text-anchor="start" x="212.372" y="-164" font-family="Helvetica,sans-Serif" font-size="10.00">name</text>
</a>
</g>
<g id="a_node3_50"><a xlink:href="/dictionaries/mmcif_pdbx_v40.dic/Items/_chem_comp.pdbx_initial_date.html" xlink:title="&lt;TABLE&gt;" target="_top">
<polygon fill="none" stroke="black" points="207.372,-135 207.372,-156 304.372,-156 304.372,-135 207.372,-135"/>
<text text-anchor="start" x="212.372" y="-143" font-family="Helvetica,sans-Serif" font-size="10.00">pdbx_initial_date</text>
</a>
</g>
<g id="a_node3_51"><a xlink:href="/dictionaries/mmcif_pdbx_v40.dic/Items/_chem_comp.pdbx_modified_date.html" xlink:title="&lt;TABLE&gt;" target="_top">
<polygon fill="none" stroke="black" points="207.372,-114 207.372,-135 304.372,-135 304.372,-114 207.372,-114"/>
<text text-anchor="start" x="212.372" y="-122" font-family="Helvetica,sans-Serif" font-size="10.00">pdbx_modified_date</text>
</a>
</g>
<g id="a_node3_52"><a xlink:href="/dictionaries/mmcif_pdbx_v40.dic/Items/_chem_comp.pdbx_synonyms.html" xlink:title="&lt;TABLE&gt;" target="_top">
<polygon fill="none" stroke="black" points="207.372,-93 207.372,-114 304.372,-114 304.372,-93 207.372,-93"/>
<text text-anchor="start" x="212.372" y="-101" font-family="Helvetica,sans-Serif" font-size="10.00">pdbx_synonyms</text>
</a>
</g>
<g id="a_node3_53"><a xlink:href="/dictionaries/mmcif_pdbx_v40.dic/Items/_chem_comp.type.html" xlink:title="&lt;TABLE&gt;" target="_top">
<polygon fill="none" stroke="black" points="207.372,-72 207.372,-93 304.372,-93 304.372,-72 207.372,-72"/>
<text text-anchor="start" x="212.372" y="-80" font-family="Helvetica,sans-Serif" font-size="10.00">type</text>
</a>
</g>
</g>
<!-- _atom_site&#45;&gt;_chem_comp -->
<g id="edge3" class="edge"><title>_atom_site:__label_comp_id:w&#45;&gt;_chem_comp:__id:w</title>
<path fill="none" stroke="black" d="M287.372,-1192C185.914,-1192 106.835,-312.451 196.528,-254.043"/>
<polygon fill="black" stroke="black" points="197.852,-257.297 206.372,-251 195.784,-250.61 197.852,-257.297"/>
</g>
<!-- _chem_comp_atom -->
<g id="node4" class="node"><title>_chem_comp_atom</title>
<g id="a_node4_54"><a xlink:href="/dictionaries/mmcif_pdbx_v40.dic/Categories/chem_comp_atom.html" xlink:title="&lt;TABLE&gt;" target="_top">
<polygon fill="#99c49b" stroke="none" points="207.372,-716 207.372,-738 335.372,-738 335.372,-716 207.372,-716"/>
<polygon fill="none" stroke="black" points="207.372,-716 207.372,-738 335.372,-738 335.372,-716 207.372,-716"/>
<text text-anchor="start" x="221.372" y="-724.5" font-family="Helvetica,sans-Serif" font-size="10.00">CHEM_COMP_ATOM</text>
</a>
</g>
<g id="a_node4_55"><a xlink:href="/dictionaries/mmcif_pdbx_v40.dic/Items/_chem_comp_atom.atom_id.html" xlink:title="&lt;TABLE&gt;" target="_top">
<polygon fill="#ffff99" stroke="none" points="207.372,-695 207.372,-716 335.372,-716 335.372,-695 207.372,-695"/>
<polygon fill="none" stroke="black" points="207.372,-695 207.372,-716 335.372,-716 335.372,-695 207.372,-695"/>
<text text-anchor="start" x="212.372" y="-703" font-family="Helvetica,sans-Serif" font-size="10.00">atom_id</text>
</a>
</g>
<g id="a_node4_56"><a xlink:href="/dictionaries/mmcif_pdbx_v40.dic/Items/_chem_comp_atom.comp_id.html" xlink:title="&lt;TABLE&gt;" target="_top">
<polygon fill="#ffff99" stroke="none" points="207.372,-674 207.372,-695 335.372,-695 335.372,-674 207.372,-674"/>
<polygon fill="none" stroke="black" points="207.372,-674 207.372,-695 335.372,-695 335.372,-674 207.372,-674"/>
<text text-anchor="start" x="212.372" y="-682" font-family="Helvetica,sans-Serif" font-size="10.00">comp_id</text>
</a>
</g>
<g id="a_node4_57"><a xlink:href="/dictionaries/mmcif_pdbx_v40.dic/Items/_chem_comp_atom.alt_atom_id.html" xlink:title="&lt;TABLE&gt;" target="_top">
<polygon fill="none" stroke="black" points="207.372,-653 207.372,-674 335.372,-674 335.372,-653 207.372,-653"/>
<text text-anchor="start" x="212.372" y="-661" font-family="Helvetica,sans-Serif" font-size="10.00">alt_atom_id</text>
</a>
</g>
<g id="a_node4_58"><a xlink:href="/dictionaries/mmcif_pdbx_v40.dic/Items/_chem_comp_atom.charge.html" xlink:title="&lt;TABLE&gt;" target="_top">
<polygon fill="none" stroke="black" points="207.372,-632 207.372,-653 335.372,-653 335.372,-632 207.372,-632"/>
<text text-anchor="start" x="212.372" y="-640" font-family="Helvetica,sans-Serif" font-size="10.00">charge</text>
</a>
</g>
<g id="a_node4_59"><a xlink:href="/dictionaries/mmcif_pdbx_v40.dic/Items/_chem_comp_atom.model_Cartn_x.html" xlink:title="&lt;TABLE&gt;" target="_top">
<polygon fill="none" stroke="black" points="207.372,-611 207.372,-632 335.372,-632 335.372,-611 207.372,-611"/>
<text text-anchor="start" x="212.372" y="-619" font-family="Helvetica,sans-Serif" font-size="10.00">model_Cartn_x</text>
</a>
</g>
<g id="a_node4_60"><a xlink:href="/dictionaries/mmcif_pdbx_v40.dic/Items/_chem_comp_atom.model_Cartn_y.html" xlink:title="&lt;TABLE&gt;" target="_top">
<polygon fill="none" stroke="black" points="207.372,-590 207.372,-611 335.372,-611 335.372,-590 207.372,-590"/>
<text text-anchor="start" x="212.372" y="-598" font-family="Helvetica,sans-Serif" font-size="10.00">model_Cartn_y</text>
</a>
</g>
<g id="a_node4_61"><a xlink:href="/dictionaries/mmcif_pdbx_v40.dic/Items/_chem_comp_atom.model_Cartn_z.html" xlink:title="&lt;TABLE&gt;" target="_top">
<polygon fill="none" stroke="black" points="207.372,-569 207.372,-590 335.372,-590 335.372,-569 207.372,-569"/>
<text text-anchor="start" x="212.372" y="-577" font-family="Helvetica,sans-Serif" font-size="10.00">model_Cartn_z</text>
</a>
</g>
<g id="a_node4_62"><a xlink:href="/dictionaries/mmcif_pdbx_v40.dic/Items/_chem_comp_atom.pdbx_align.html" xlink:title="&lt;TABLE&gt;" target="_top">
<polygon fill="none" stroke="black" points="207.372,-548 207.372,-569 335.372,-569 335.372,-548 207.372,-548"/>
<text text-anchor="start" x="212.372" y="-556" font-family="Helvetica,sans-Serif" font-size="10.00">pdbx_align</text>
</a>
</g>
<g id="a_node4_63"><a xlink:href="/dictionaries/mmcif_pdbx_v40.dic/Items/_chem_comp_atom.pdbx_aromatic_flag.html" xlink:title="&lt;TABLE&gt;" target="_top">
<polygon fill="none" stroke="black" points="207.372,-527 207.372,-548 335.372,-548 335.372,-527 207.372,-527"/>
<text text-anchor="start" x="212.372" y="-535" font-family="Helvetica,sans-Serif" font-size="10.00">pdbx_aromatic_flag</text>
</a>
</g>
<g id="a_node4_64"><a xlink:href="/dictionaries/mmcif_pdbx_v40.dic/Items/_chem_comp_atom.pdbx_component_atom_id.html" xlink:title="&lt;TABLE&gt;" target="_top">
<polygon fill="none" stroke="black" points="207.372,-506 207.372,-527 335.372,-527 335.372,-506 207.372,-506"/>
<text text-anchor="start" x="212.372" y="-514" font-family="Helvetica,sans-Serif" font-size="10.00">pdbx_component_atom_id</text>
</a>
</g>
<g id="a_node4_65"><a xlink:href="/dictionaries/mmcif_pdbx_v40.dic/Items/_chem_comp_atom.pdbx_component_comp_id.html" xlink:title="&lt;TABLE&gt;" target="_top">
<polygon fill="none" stroke="black" points="207.372,-485 207.372,-506 335.372,-506 335.372,-485 207.372,-485"/>
<text text-anchor="start" x="212.372" y="-493" font-family="Helvetica,sans-Serif" font-size="10.00">pdbx_component_comp_id</text>
</a>
</g>
<g id="a_node4_66"><a xlink:href="/dictionaries/mmcif_pdbx_v40.dic/Items/_chem_comp_atom.pdbx_leaving_atom_flag.html" xlink:title="&lt;TABLE&gt;" target="_top">
<polygon fill="none" stroke="black" points="207.372,-464 207.372,-485 335.372,-485 335.372,-464 207.372,-464"/>
<text text-anchor="start" x="212.372" y="-472" font-family="Helvetica,sans-Serif" font-size="10.00">pdbx_leaving_atom_flag</text>
</a>
</g>
<g id="a_node4_67"><a xlink:href="/dictionaries/mmcif_pdbx_v40.dic/Items/_chem_comp_atom.pdbx_model_Cartn_x_ideal.html" xlink:title="&lt;TABLE&gt;" target="_top">
<polygon fill="none" stroke="black" points="207.372,-443 207.372,-464 335.372,-464 335.372,-443 207.372,-443"/>
<text text-anchor="start" x="212.372" y="-451" font-family="Helvetica,sans-Serif" font-size="10.00">pdbx_model_Cartn_x_ideal</text>
</a>
</g>
<g id="a_node4_68"><a xlink:href="/dictionaries/mmcif_pdbx_v40.dic/Items/_chem_comp_atom.pdbx_model_Cartn_y_ideal.html" xlink:title="&lt;TABLE&gt;" target="_top">
<polygon fill="none" stroke="black" points="207.372,-422 207.372,-443 335.372,-443 335.372,-422 207.372,-422"/>
<text text-anchor="start" x="212.372" y="-430" font-family="Helvetica,sans-Serif" font-size="10.00">pdbx_model_Cartn_y_ideal</text>
</a>
</g>
<g id="a_node4_69"><a xlink:href="/dictionaries/mmcif_pdbx_v40.dic/Items/_chem_comp_atom.pdbx_model_Cartn_z_ideal.html" xlink:title="&lt;TABLE&gt;" target="_top">
<polygon fill="none" stroke="black" points="207.372,-401 207.372,-422 335.372,-422 335.372,-401 207.372,-401"/>
<text text-anchor="start" x="212.372" y="-409" font-family="Helvetica,sans-Serif" font-size="10.00">pdbx_model_Cartn_z_ideal</text>
</a>
</g>
<g id="a_node4_70"><a xlink:href="/dictionaries/mmcif_pdbx_v40.dic/Items/_chem_comp_atom.pdbx_ordinal.html" xlink:title="&lt;TABLE&gt;" target="_top">
<polygon fill="none" stroke="black" points="207.372,-380 207.372,-401 335.372,-401 335.372,-380 207.372,-380"/>
<text text-anchor="start" x="212.372" y="-388" font-family="Helvetica,sans-Serif" font-size="10.00">pdbx_ordinal</text>
</a>
</g>
<g id="a_node4_71"><a xlink:href="/dictionaries/mmcif_pdbx_v40.dic/Items/_chem_comp_atom.pdbx_stereo_config.html" xlink:title="&lt;TABLE&gt;" target="_top">
<polygon fill="none" stroke="black" points="207.372,-359 207.372,-380 335.372,-380 335.372,-359 207.372,-359"/>
<text text-anchor="start" x="212.372" y="-367" font-family="Helvetica,sans-Serif" font-size="10.00">pdbx_stereo_config</text>
</a>
</g>
<g id="a_node4_72"><a xlink:href="/dictionaries/mmcif_pdbx_v40.dic/Items/_chem_comp_atom.type_symbol.html" xlink:title="&lt;TABLE&gt;" target="_top">
<polygon fill="none" stroke="black" points="207.372,-338 207.372,-359 335.372,-359 335.372,-338 207.372,-338"/>
<text text-anchor="start" x="212.372" y="-346" font-family="Helvetica,sans-Serif" font-size="10.00">type_symbol</text>
</a>
</g>
</g>
<!-- _atom_site&#45;&gt;_chem_comp_atom -->
<g id="edge2" class="edge"><title>_atom_site:__label_atom_id:w&#45;&gt;_chem_comp_atom:__atom_id:w</title>
<path fill="none" stroke="black" d="M287.372,-1213C233.778,-1213 159.045,-765.536 197.492,-711.351"/>
<polygon fill="black" stroke="black" points="199.613,-714.159 206.372,-706 196,-708.163 199.613,-714.159"/>
</g>
<!-- _entity -->
<g id="node5" class="node"><title>_entity</title>
<g id="a_node5_73"><a xlink:href="/dictionaries/mmcif_pdbx_v40.dic/Categories/entity.html" xlink:title="&lt;TABLE&gt;" target="_top">
<polygon fill="#99c49b" stroke="none" points="527.372,-272 527.372,-294 657.372,-294 657.372,-272 527.372,-272"/>
<polygon fill="none" stroke="black" points="527.372,-272 527.372,-294 657.372,-294 657.372,-272 527.372,-272"/>
<text text-anchor="start" x="575.372" y="-280.5" font-family="Helvetica,sans-Serif" font-size="10.00">ENTITY</text>
</a>
</g>
<g id="a_node5_74"><a xlink:href="/dictionaries/mmcif_pdbx_v40.dic/Items/_entity.id.html" xlink:title="&lt;TABLE&gt;" target="_top">
<polygon fill="#ffff99" stroke="none" points="527.372,-251 527.372,-272 657.372,-272 657.372,-251 527.372,-251"/>
<polygon fill="none" stroke="black" points="527.372,-251 527.372,-272 657.372,-272 657.372,-251 527.372,-251"/>
<text text-anchor="start" x="532.372" y="-259" font-family="Helvetica,sans-Serif" font-size="10.00">id</text>
</a>
</g>
<g id="a_node5_75"><a xlink:href="/dictionaries/mmcif_pdbx_v40.dic/Items/_entity.details.html" xlink:title="&lt;TABLE&gt;" target="_top">
<polygon fill="none" stroke="black" points="527.372,-230 527.372,-251 657.372,-251 657.372,-230 527.372,-230"/>
<text text-anchor="start" x="532.372" y="-238" font-family="Helvetica,sans-Serif" font-size="10.00">details</text>
</a>
</g>
<g id="a_node5_76"><a xlink:href="/dictionaries/mmcif_pdbx_v40.dic/Items/_entity.formula_weight.html" xlink:title="&lt;TABLE&gt;" target="_top">
<polygon fill="none" stroke="black" points="527.372,-209 527.372,-230 657.372,-230 657.372,-209 527.372,-209"/>
<text text-anchor="start" x="532.372" y="-217" font-family="Helvetica,sans-Serif" font-size="10.00">formula_weight</text>
</a>
</g>
<g id="a_node5_77"><a xlink:href="/dictionaries/mmcif_pdbx_v40.dic/Items/_entity.pdbx_description.html" xlink:title="&lt;TABLE&gt;" target="_top">
<polygon fill="none" stroke="black" points="527.372,-188 527.372,-209 657.372,-209 657.372,-188 527.372,-188"/>
<text text-anchor="start" x="532.372" y="-196" font-family="Helvetica,sans-Serif" font-size="10.00">pdbx_description</text>
</a>
</g>
<g id="a_node5_78"><a xlink:href="/dictionaries/mmcif_pdbx_v40.dic/Items/_entity.pdbx_ec.html" xlink:title="&lt;TABLE&gt;" target="_top">
<polygon fill="none" stroke="black" points="527.372,-167 527.372,-188 657.372,-188 657.372,-167 527.372,-167"/>
<text text-anchor="start" x="532.372" y="-175" font-family="Helvetica,sans-Serif" font-size="10.00">pdbx_ec</text>
</a>
</g>
<g id="a_node5_79"><a xlink:href="/dictionaries/mmcif_pdbx_v40.dic/Items/_entity.pdbx_fragment.html" xlink:title="&lt;TABLE&gt;" target="_top">
<polygon fill="none" stroke="black" points="527.372,-146 527.372,-167 657.372,-167 657.372,-146 527.372,-146"/>
<text text-anchor="start" x="532.372" y="-154" font-family="Helvetica,sans-Serif" font-size="10.00">pdbx_fragment</text>
</a>
</g>
<g id="a_node5_80"><a xlink:href="/dictionaries/mmcif_pdbx_v40.dic/Items/_entity.pdbx_mutation.html" xlink:title="&lt;TABLE&gt;" target="_top">
<polygon fill="none" stroke="black" points="527.372,-125 527.372,-146 657.372,-146 657.372,-125 527.372,-125"/>
<text text-anchor="start" x="532.372" y="-133" font-family="Helvetica,sans-Serif" font-size="10.00">pdbx_mutation</text>
</a>
</g>
<g id="a_node5_81"><a xlink:href="/dictionaries/mmcif_pdbx_v40.dic/Items/_entity.pdbx_number_of_molecules.html" xlink:title="&lt;TABLE&gt;" target="_top">
<polygon fill="none" stroke="black" points="527.372,-104 527.372,-125 657.372,-125 657.372,-104 527.372,-104"/>
<text text-anchor="start" x="532.372" y="-112" font-family="Helvetica,sans-Serif" font-size="10.00">pdbx_number_of_molecules</text>
</a>
</g>
<g id="a_node5_82"><a xlink:href="/dictionaries/mmcif_pdbx_v40.dic/Items/_entity.src_method.html" xlink:title="&lt;TABLE&gt;" target="_top">
<polygon fill="none" stroke="black" points="527.372,-83 527.372,-104 657.372,-104 657.372,-83 527.372,-83"/>
<text text-anchor="start" x="532.372" y="-91" font-family="Helvetica,sans-Serif" font-size="10.00">src_method</text>
</a>
</g>
<g id="a_node5_83"><a xlink:href="/dictionaries/mmcif_pdbx_v40.dic/Items/_entity.type.html" xlink:title="&lt;TABLE&gt;" target="_top">
<polygon fill="none" stroke="black" points="527.372,-62 527.372,-83 657.372,-83 657.372,-62 527.372,-62"/>
<text text-anchor="start" x="532.372" y="-70" font-family="Helvetica,sans-Serif" font-size="10.00">type</text>
</a>
</g>
</g>
<!-- _atom_site&#45;&gt;_entity -->
<g id="edge4" class="edge"><title>_atom_site:__label_entity_id:w&#45;&gt;_entity:__id:w</title>
<path fill="none" stroke="black" d="M287.372,-1171C112.704,-1171 176.05,-911.763 288.372,-778 347.014,-708.163 429.243,-809.671 490.372,-742 523.982,-704.792 479.207,-315.474 517.548,-266.955"/>
<polygon fill="black" stroke="black" points="519.366,-269.948 526.372,-262 515.939,-263.844 519.366,-269.948"/>
</g>
<!-- _entity_poly_seq -->
<g id="node6" class="node"><title>_entity_poly_seq</title>
<g id="a_node6_84"><a xlink:href="/dictionaries/mmcif_pdbx_v40.dic/Categories/entity_poly_seq.html" xlink:title="&lt;TABLE&gt;" target="_top">
<polygon fill="#99c49b" stroke="none" points="369.372,-569 369.372,-591 473.372,-591 473.372,-569 369.372,-569"/>
<polygon fill="none" stroke="black" points="369.372,-569 369.372,-591 473.372,-591 473.372,-569 369.372,-569"/>
<text text-anchor="start" x="374.872" y="-577.5" font-family="Helvetica,sans-Serif" font-size="10.00">ENTITY_POLY_SEQ</text>
</a>
</g>
<g id="a_node6_85"><a xlink:href="/dictionaries/mmcif_pdbx_v40.dic/Items/_entity_poly_seq.entity_id.html" xlink:title="&lt;TABLE&gt;" target="_top">
<polygon fill="#ffff99" stroke="none" points="369.372,-548 369.372,-569 473.372,-569 473.372,-548 369.372,-548"/>
<polygon fill="none" stroke="black" points="369.372,-548 369.372,-569 473.372,-569 473.372,-548 369.372,-548"/>
<text text-anchor="start" x="374.372" y="-556" font-family="Helvetica,sans-Serif" font-size="10.00">entity_id</text>
</a>
</g>
<g id="a_node6_86"><a xlink:href="/dictionaries/mmcif_pdbx_v40.dic/Items/_entity_poly_seq.mon_id.html" xlink:title="&lt;TABLE&gt;" target="_top">
<polygon fill="#ffff99" stroke="none" points="369.372,-527 369.372,-548 473.372,-548 473.372,-527 369.372,-527"/>
<polygon fill="none" stroke="black" points="369.372,-527 369.372,-548 473.372,-548 473.372,-527 369.372,-527"/>
<text text-anchor="start" x="374.372" y="-535" font-family="Helvetica,sans-Serif" font-size="10.00">mon_id</text>
</a>
</g>
<g id="a_node6_87"><a xlink:href="/dictionaries/mmcif_pdbx_v40.dic/Items/_entity_poly_seq.num.html" xlink:title="&lt;TABLE&gt;" target="_top">
<polygon fill="#ffff99" stroke="none" points="369.372,-506 369.372,-527 473.372,-527 473.372,-506 369.372,-506"/>
<polygon fill="none" stroke="black" points="369.372,-506 369.372,-527 473.372,-527 473.372,-506 369.372,-506"/>
<text text-anchor="start" x="374.372" y="-514" font-family="Helvetica,sans-Serif" font-size="10.00">num</text>
</a>
</g>
<g id="a_node6_88"><a xlink:href="/dictionaries/mmcif_pdbx_v40.dic/Items/_entity_poly_seq.hetero.html" xlink:title="&lt;TABLE&gt;" target="_top">
<polygon fill="none" stroke="black" points="369.372,-485 369.372,-506 473.372,-506 473.372,-485 369.372,-485"/>
<text text-anchor="start" x="374.372" y="-493" font-family="Helvetica,sans-Serif" font-size="10.00">hetero</text>
</a>
</g>
</g>
<!-- _atom_site&#45;&gt;_entity_poly_seq -->
<g id="edge5" class="edge"><title>_atom_site:__label_seq_id:w&#45;&gt;_entity_poly_seq:__num:w</title>
<path fill="none" stroke="black" d="M287.372,-1150C122.038,-1150 204.712,-920.606 288.372,-778 304.886,-749.851 334.911,-769.572 352.372,-742 364.315,-723.141 347.864,-560.03 361.535,-523.317"/>
<polygon fill="black" stroke="black" points="364.102,-525.697 368.372,-516 358.987,-520.918 364.102,-525.697"/>
</g>
<!-- _struct_asym -->
<g id="node7" class="node"><title>_struct_asym</title>
<g id="a_node7_89"><a xlink:href="/dictionaries/mmcif_pdbx_v40.dic/Categories/struct_asym.html" xlink:title="&lt;TABLE&gt;" target="_top">
<polygon fill="#99c49b" stroke="none" points="545.372,-569 545.372,-591 689.372,-591 689.372,-569 545.372,-569"/>
<polygon fill="none" stroke="black" points="545.372,-569 545.372,-591 689.372,-591 689.372,-569 545.372,-569"/>
<text text-anchor="start" x="580.872" y="-577.5" font-family="Helvetica,sans-Serif" font-size="10.00">STRUCT_ASYM</text>
</a>
</g>
<g id="a_node7_90"><a xlink:href="/dictionaries/mmcif_pdbx_v40.dic/Items/_struct_asym.id.html" xlink:title="&lt;TABLE&gt;" target="_top">
<polygon fill="#ffff99" stroke="none" points="545.372,-548 545.372,-569 689.372,-569 689.372,-548 545.372,-548"/>
<polygon fill="none" stroke="black" points="545.372,-548 545.372,-569 689.372,-569 689.372,-548 545.372,-548"/>
<text text-anchor="start" x="550.372" y="-556" font-family="Helvetica,sans-Serif" font-size="10.00">id</text>
</a>
</g>
<g id="a_node7_91"><a xlink:href="/dictionaries/mmcif_pdbx_v40.dic/Items/_struct_asym.entity_id.html" xlink:title="&lt;TABLE&gt;" target="_top">
<polygon fill="none" stroke="black" points="545.372,-527 545.372,-548 689.372,-548 689.372,-527 545.372,-527"/>
<text text-anchor="start" x="550.372" y="-535" font-family="Helvetica,sans-Serif" font-size="10.00">entity_id</text>
</a>
</g>
<g id="a_node7_92"><a xlink:href="/dictionaries/mmcif_pdbx_v40.dic/Items/_struct_asym.pdbx_blank_PDB_chainid_flag.html" xlink:title="&lt;TABLE&gt;" target="_top">
<polygon fill="none" stroke="black" points="545.372,-506 545.372,-527 689.372,-527 689.372,-506 545.372,-506"/>
<text text-anchor="start" x="550.372" y="-514" font-family="Helvetica,sans-Serif" font-size="10.00">pdbx_blank_PDB_chainid_flag</text>
</a>
</g>
<g id="a_node7_93"><a xlink:href="/dictionaries/mmcif_pdbx_v40.dic/Items/_struct_asym.pdbx_modified.html" xlink:title="&lt;TABLE&gt;" target="_top">
<polygon fill="none" stroke="black" points="545.372,-485 545.372,-506 689.372,-506 689.372,-485 545.372,-485"/>
<text text-anchor="start" x="550.372" y="-493" font-family="Helvetica,sans-Serif" font-size="10.00">pdbx_modified</text>
</a>
</g>
</g>
<!-- _atom_site&#45;&gt;_struct_asym -->
<g id="edge1" class="edge"><title>_atom_site:__label_asym_id:w&#45;&gt;_struct_asym:__id:w</title>
<path fill="none" stroke="black" d="M287.372,-1234C84.7046,-1234 156.191,-931.63 288.372,-778 357.286,-697.903 450.08,-818.112 523.372,-742 549.103,-715.279 511.825,-586.694 535.076,-562.819"/>
<polygon fill="black" stroke="black" points="536.452,-566.038 544.372,-559 533.792,-559.563 536.452,-566.038"/>
</g>
<!-- _chem_comp_atom&#45;&gt;_chem_comp -->
<g id="edge7" class="edge"><title>_chem_comp_atom:__comp_id:w&#45;&gt;_chem_comp:__id:w</title>
<path fill="none" stroke="black" d="M206.372,-685C184.286,-685 182.431,-320.837 200.807,-259.669"/>
<polygon fill="black" stroke="black" points="203.915,-261.306 206.372,-251 198.024,-257.525 203.915,-261.306"/>
</g>
<!-- _entity_poly_seq&#45;&gt;_chem_comp -->
<g id="edge8" class="edge"><title>_entity_poly_seq:__mon_id:w&#45;&gt;_chem_comp:__id:w</title>
<path fill="none" stroke="black" d="M368.372,-537C345.746,-537 366.442,-351.719 352.372,-334 310.327,-281.053 248.035,-342.014 207.372,-288 200.338,-278.657 194.485,-263.897 197.601,-256.145"/>
<polygon fill="black" stroke="black" points="199.517,-259.079 206.372,-251 195.975,-253.041 199.517,-259.079"/>
</g>
<!-- _struct_asym&#45;&gt;_entity -->
<g id="edge9" class="edge"><title>_struct_asym:__entity_id:w&#45;&gt;_entity:__id:w</title>
<path fill="none" stroke="black" d="M544.372,-537C537.599,-537 522.728,-321.727 524.692,-272.114"/>
<polygon fill="black" stroke="black" points="528.186,-272.438 526.372,-262 521.281,-271.291 528.186,-272.438"/>
</g>
</g>
</svg>
