<?xml version="1.0" encoding="UTF-8" standalone="no"?>
<!DOCTYPE svg PUBLIC "-//W3C//DTD SVG 1.1//EN"
 "http://www.w3.org/Graphics/SVG/1.1/DTD/svg11.dtd">
<!-- Generated by graphviz version 2.34.0 (20130914.1858)
 -->
<!-- Title: entity_poly Pages: 1 -->
<svg width="418pt" height="1304pt"
 viewBox="0.00 0.00 418.00 1304.00" xmlns="http://www.w3.org/2000/svg" xmlns:xlink="http://www.w3.org/1999/xlink">
<g id="graph0" class="graph" transform="scale(1 1) rotate(0) translate(4 1300)">
<title>entity_poly</title>
<polygon fill="white" stroke="white" points="-4,4 -4,-1300 414,-1300 414,4 -4,4"/>
<text text-anchor="start" x="202" y="-40.6" font-family="Helvetica,sans-Serif" font-size="18.00"> </text>
<text text-anchor="start" x="8" y="-22.6" font-family="Helvetica,sans-Serif" font-size="18.00">Selected Relationships for Category </text>
<text text-anchor="start" x="301" y="-22.6" font-family="Helvetica,sans-Serif" font-weight="bold" font-size="18.00">entity_poly</text>
<text text-anchor="start" x="398" y="-22.6" font-family="Helvetica,sans-Serif" font-size="14.00"> </text>
<text text-anchor="start" x="105.5" y="-7.8" font-family="Helvetica,sans-Serif" font-size="14.00"> &#160;in dictionary mmcif_pdbx_v40</text>
<!-- _atom_site -->
<g id="node1" class="node"><title>_atom_site</title>
<g id="a_node1_0"><a xlink:href="/dictionaries/mmcif_pdbx_v5_next.dic/Categories/atom_site.html" xlink:title="&lt;TABLE&gt;" target="_top">
<polygon fill="#99c49b" stroke="none" points="105.112,-1269 105.112,-1291 219.112,-1291 219.112,-1269 105.112,-1269"/>
<polygon fill="none" stroke="black" points="105.112,-1269 105.112,-1291 219.112,-1291 219.112,-1269 105.112,-1269"/>
<text text-anchor="start" x="134.612" y="-1277.5" font-family="Helvetica,sans-Serif" font-size="10.00">ATOM_SITE</text>
</a>
</g>
<g id="a_node1_1"><a xlink:href="/dictionaries/mmcif_pdbx_v5_next.dic/Items/_atom_site.id.html" xlink:title="&lt;TABLE&gt;" target="_top">
<polygon fill="#ffff99" stroke="none" points="105.112,-1248 105.112,-1269 219.112,-1269 219.112,-1248 105.112,-1248"/>
<polygon fill="none" stroke="black" points="105.112,-1248 105.112,-1269 219.112,-1269 219.112,-1248 105.112,-1248"/>
<text text-anchor="start" x="110.112" y="-1256" font-family="Helvetica,sans-Serif" font-size="10.00">id</text>
</a>
</g>
<g id="a_node1_2"><a xlink:href="/dictionaries/mmcif_pdbx_v5_next.dic/Items/_atom_site.B_iso_or_equiv.html" xlink:title="&lt;TABLE&gt;" target="_top">
<polygon fill="none" stroke="black" points="105.112,-1227 105.112,-1248 219.112,-1248 219.112,-1227 105.112,-1227"/>
<text text-anchor="start" x="110.112" y="-1235" font-family="Helvetica,sans-Serif" font-size="10.00">B_iso_or_equiv</text>
</a>
</g>
<g id="a_node1_3"><a xlink:href="/dictionaries/mmcif_pdbx_v5_next.dic/Items/_atom_site.B_iso_or_equiv_esd.html" xlink:title="&lt;TABLE&gt;" target="_top">
<polygon fill="none" stroke="black" points="105.112,-1206 105.112,-1227 219.112,-1227 219.112,-1206 105.112,-1206"/>
<text text-anchor="start" x="110.112" y="-1214" font-family="Helvetica,sans-Serif" font-size="10.00">B_iso_or_equiv_esd</text>
</a>
</g>
<g id="a_node1_4"><a xlink:href="/dictionaries/mmcif_pdbx_v5_next.dic/Items/_atom_site.Cartn_x.html" xlink:title="&lt;TABLE&gt;" target="_top">
<polygon fill="none" stroke="black" points="105.112,-1185 105.112,-1206 219.112,-1206 219.112,-1185 105.112,-1185"/>
<text text-anchor="start" x="110.112" y="-1193" font-family="Helvetica,sans-Serif" font-size="10.00">Cartn_x</text>
</a>
</g>
<g id="a_node1_5"><a xlink:href="/dictionaries/mmcif_pdbx_v5_next.dic/Items/_atom_site.Cartn_x_esd.html" xlink:title="&lt;TABLE&gt;" target="_top">
<polygon fill="none" stroke="black" points="105.112,-1164 105.112,-1185 219.112,-1185 219.112,-1164 105.112,-1164"/>
<text text-anchor="start" x="110.112" y="-1172" font-family="Helvetica,sans-Serif" font-size="10.00">Cartn_x_esd</text>
</a>
</g>
<g id="a_node1_6"><a xlink:href="/dictionaries/mmcif_pdbx_v5_next.dic/Items/_atom_site.Cartn_y.html" xlink:title="&lt;TABLE&gt;" target="_top">
<polygon fill="none" stroke="black" points="105.112,-1143 105.112,-1164 219.112,-1164 219.112,-1143 105.112,-1143"/>
<text text-anchor="start" x="110.112" y="-1151" font-family="Helvetica,sans-Serif" font-size="10.00">Cartn_y</text>
</a>
</g>
<g id="a_node1_7"><a xlink:href="/dictionaries/mmcif_pdbx_v5_next.dic/Items/_atom_site.Cartn_y_esd.html" xlink:title="&lt;TABLE&gt;" target="_top">
<polygon fill="none" stroke="black" points="105.112,-1122 105.112,-1143 219.112,-1143 219.112,-1122 105.112,-1122"/>
<text text-anchor="start" x="110.112" y="-1130" font-family="Helvetica,sans-Serif" font-size="10.00">Cartn_y_esd</text>
</a>
</g>
<g id="a_node1_8"><a xlink:href="/dictionaries/mmcif_pdbx_v5_next.dic/Items/_atom_site.Cartn_z.html" xlink:title="&lt;TABLE&gt;" target="_top">
<polygon fill="none" stroke="black" points="105.112,-1101 105.112,-1122 219.112,-1122 219.112,-1101 105.112,-1101"/>
<text text-anchor="start" x="110.112" y="-1109" font-family="Helvetica,sans-Serif" font-size="10.00">Cartn_z</text>
</a>
</g>
<g id="a_node1_9"><a xlink:href="/dictionaries/mmcif_pdbx_v5_next.dic/Items/_atom_site.Cartn_z_esd.html" xlink:title="&lt;TABLE&gt;" target="_top">
<polygon fill="none" stroke="black" points="105.112,-1080 105.112,-1101 219.112,-1101 219.112,-1080 105.112,-1080"/>
<text text-anchor="start" x="110.112" y="-1088" font-family="Helvetica,sans-Serif" font-size="10.00">Cartn_z_esd</text>
</a>
</g>
<g id="a_node1_10"><a xlink:href="/dictionaries/mmcif_pdbx_v5_next.dic/Items/_atom_site.auth_asym_id.html" xlink:title="&lt;TABLE&gt;" target="_top">
<polygon fill="none" stroke="black" points="105.112,-1059 105.112,-1080 219.112,-1080 219.112,-1059 105.112,-1059"/>
<text text-anchor="start" x="110.112" y="-1067" font-family="Helvetica,sans-Serif" font-size="10.00">auth_asym_id</text>
</a>
</g>
<g id="a_node1_11"><a xlink:href="/dictionaries/mmcif_pdbx_v5_next.dic/Items/_atom_site.auth_atom_id.html" xlink:title="&lt;TABLE&gt;" target="_top">
<polygon fill="none" stroke="black" points="105.112,-1038 105.112,-1059 219.112,-1059 219.112,-1038 105.112,-1038"/>
<text text-anchor="start" x="110.112" y="-1046" font-family="Helvetica,sans-Serif" font-size="10.00">auth_atom_id</text>
</a>
</g>
<g id="a_node1_12"><a xlink:href="/dictionaries/mmcif_pdbx_v5_next.dic/Items/_atom_site.auth_comp_id.html" xlink:title="&lt;TABLE&gt;" target="_top">
<polygon fill="none" stroke="black" points="105.112,-1017 105.112,-1038 219.112,-1038 219.112,-1017 105.112,-1017"/>
<text text-anchor="start" x="110.112" y="-1025" font-family="Helvetica,sans-Serif" font-size="10.00">auth_comp_id</text>
</a>
</g>
<g id="a_node1_13"><a xlink:href="/dictionaries/mmcif_pdbx_v5_next.dic/Items/_atom_site.auth_seq_id.html" xlink:title="&lt;TABLE&gt;" target="_top">
<polygon fill="none" stroke="black" points="105.112,-996 105.112,-1017 219.112,-1017 219.112,-996 105.112,-996"/>
<text text-anchor="start" x="110.112" y="-1004" font-family="Helvetica,sans-Serif" font-size="10.00">auth_seq_id</text>
</a>
</g>
<g id="a_node1_14"><a xlink:href="/dictionaries/mmcif_pdbx_v5_next.dic/Items/_atom_site.group_PDB.html" xlink:title="&lt;TABLE&gt;" target="_top">
<polygon fill="none" stroke="black" points="105.112,-975 105.112,-996 219.112,-996 219.112,-975 105.112,-975"/>
<text text-anchor="start" x="110.112" y="-983" font-family="Helvetica,sans-Serif" font-size="10.00">group_PDB</text>
</a>
</g>
<g id="a_node1_15"><a xlink:href="/dictionaries/mmcif_pdbx_v5_next.dic/Items/_atom_site.label_alt_id.html" xlink:title="&lt;TABLE&gt;" target="_top">
<polygon fill="none" stroke="black" points="105.112,-954 105.112,-975 219.112,-975 219.112,-954 105.112,-954"/>
<text text-anchor="start" x="110.112" y="-962" font-family="Helvetica,sans-Serif" font-size="10.00">label_alt_id</text>
</a>
</g>
<g id="a_node1_16"><a xlink:href="/dictionaries/mmcif_pdbx_v5_next.dic/Items/_atom_site.label_asym_id.html" xlink:title="&lt;TABLE&gt;" target="_top">
<polygon fill="none" stroke="black" points="105.112,-933 105.112,-954 219.112,-954 219.112,-933 105.112,-933"/>
<text text-anchor="start" x="110.112" y="-941" font-family="Helvetica,sans-Serif" font-size="10.00">label_asym_id</text>
</a>
</g>
<g id="a_node1_17"><a xlink:href="/dictionaries/mmcif_pdbx_v5_next.dic/Items/_atom_site.label_atom_id.html" xlink:title="&lt;TABLE&gt;" target="_top">
<polygon fill="none" stroke="black" points="105.112,-912 105.112,-933 219.112,-933 219.112,-912 105.112,-912"/>
<text text-anchor="start" x="110.112" y="-920" font-family="Helvetica,sans-Serif" font-size="10.00">label_atom_id</text>
</a>
</g>
<g id="a_node1_18"><a xlink:href="/dictionaries/mmcif_pdbx_v5_next.dic/Items/_atom_site.label_comp_id.html" xlink:title="&lt;TABLE&gt;" target="_top">
<polygon fill="none" stroke="black" points="105.112,-891 105.112,-912 219.112,-912 219.112,-891 105.112,-891"/>
<text text-anchor="start" x="110.112" y="-899" font-family="Helvetica,sans-Serif" font-size="10.00">label_comp_id</text>
</a>
</g>
<g id="a_node1_19"><a xlink:href="/dictionaries/mmcif_pdbx_v5_next.dic/Items/_atom_site.label_entity_id.html" xlink:title="&lt;TABLE&gt;" target="_top">
<polygon fill="none" stroke="black" points="105.112,-870 105.112,-891 219.112,-891 219.112,-870 105.112,-870"/>
<text text-anchor="start" x="110.112" y="-878" font-family="Helvetica,sans-Serif" font-size="10.00">label_entity_id</text>
</a>
</g>
<g id="a_node1_20"><a xlink:href="/dictionaries/mmcif_pdbx_v5_next.dic/Items/_atom_site.label_seq_id.html" xlink:title="&lt;TABLE&gt;" target="_top">
<polygon fill="none" stroke="black" points="105.112,-849 105.112,-870 219.112,-870 219.112,-849 105.112,-849"/>
<text text-anchor="start" x="110.112" y="-857" font-family="Helvetica,sans-Serif" font-size="10.00">label_seq_id</text>
</a>
</g>
<g id="a_node1_21"><a xlink:href="/dictionaries/mmcif_pdbx_v5_next.dic/Items/_atom_site.occupancy.html" xlink:title="&lt;TABLE&gt;" target="_top">
<polygon fill="none" stroke="black" points="105.112,-828 105.112,-849 219.112,-849 219.112,-828 105.112,-828"/>
<text text-anchor="start" x="110.112" y="-836" font-family="Helvetica,sans-Serif" font-size="10.00">occupancy</text>
</a>
</g>
<g id="a_node1_22"><a xlink:href="/dictionaries/mmcif_pdbx_v5_next.dic/Items/_atom_site.pdbx_PDB_ins_code.html" xlink:title="&lt;TABLE&gt;" target="_top">
<polygon fill="none" stroke="black" points="105.112,-807 105.112,-828 219.112,-828 219.112,-807 105.112,-807"/>
<text text-anchor="start" x="110.112" y="-815" font-family="Helvetica,sans-Serif" font-size="10.00">pdbx_PDB_ins_code</text>
</a>
</g>
<g id="a_node1_23"><a xlink:href="/dictionaries/mmcif_pdbx_v5_next.dic/Items/_atom_site.pdbx_PDB_model_num.html" xlink:title="&lt;TABLE&gt;" target="_top">
<polygon fill="none" stroke="black" points="105.112,-786 105.112,-807 219.112,-807 219.112,-786 105.112,-786"/>
<text text-anchor="start" x="110.112" y="-794" font-family="Helvetica,sans-Serif" font-size="10.00">pdbx_PDB_model_num</text>
</a>
</g>
<g id="a_node1_24"><a xlink:href="/dictionaries/mmcif_pdbx_v5_next.dic/Items/_atom_site.pdbx_formal_charge.html" xlink:title="&lt;TABLE&gt;" target="_top">
<polygon fill="none" stroke="black" points="105.112,-765 105.112,-786 219.112,-786 219.112,-765 105.112,-765"/>
<text text-anchor="start" x="110.112" y="-773" font-family="Helvetica,sans-Serif" font-size="10.00">pdbx_formal_charge</text>
</a>
</g>
<g id="a_node1_25"><a xlink:href="/dictionaries/mmcif_pdbx_v5_next.dic/Items/_atom_site.type_symbol.html" xlink:title="&lt;TABLE&gt;" target="_top">
<polygon fill="none" stroke="black" points="105.112,-744 105.112,-765 219.112,-765 219.112,-744 105.112,-744"/>
<text text-anchor="start" x="110.112" y="-752" font-family="Helvetica,sans-Serif" font-size="10.00">type_symbol</text>
</a>
</g>
</g>
<!-- _chem_comp -->
<g id="node2" class="node"><title>_chem_comp</title>
<g id="a_node2_26"><a xlink:href="/dictionaries/mmcif_pdbx_v5_next.dic/Categories/chem_comp.html" xlink:title="&lt;TABLE&gt;" target="_top">
<polygon fill="#99c49b" stroke="none" points="104.112,-527 104.112,-549 201.112,-549 201.112,-527 104.112,-527"/>
<polygon fill="none" stroke="black" points="104.112,-527 104.112,-549 201.112,-549 201.112,-527 104.112,-527"/>
<text text-anchor="start" x="119.612" y="-535.5" font-family="Helvetica,sans-Serif" font-size="10.00">CHEM_COMP</text>
</a>
</g>
<g id="a_node2_27"><a xlink:href="/dictionaries/mmcif_pdbx_v5_next.dic/Items/_chem_comp.id.html" xlink:title="&lt;TABLE&gt;" target="_top">
<polygon fill="#ffff99" stroke="none" points="104.112,-506 104.112,-527 201.112,-527 201.112,-506 104.112,-506"/>
<polygon fill="none" stroke="black" points="104.112,-506 104.112,-527 201.112,-527 201.112,-506 104.112,-506"/>
<text text-anchor="start" x="109.112" y="-514" font-family="Helvetica,sans-Serif" font-size="10.00">id</text>
</a>
</g>
<g id="a_node2_28"><a xlink:href="/dictionaries/mmcif_pdbx_v5_next.dic/Items/_chem_comp.formula.html" xlink:title="&lt;TABLE&gt;" target="_top">
<polygon fill="none" stroke="black" points="104.112,-485 104.112,-506 201.112,-506 201.112,-485 104.112,-485"/>
<text text-anchor="start" x="109.112" y="-493" font-family="Helvetica,sans-Serif" font-size="10.00">formula</text>
</a>
</g>
<g id="a_node2_29"><a xlink:href="/dictionaries/mmcif_pdbx_v5_next.dic/Items/_chem_comp.formula_weight.html" xlink:title="&lt;TABLE&gt;" target="_top">
<polygon fill="none" stroke="black" points="104.112,-464 104.112,-485 201.112,-485 201.112,-464 104.112,-464"/>
<text text-anchor="start" x="109.112" y="-472" font-family="Helvetica,sans-Serif" font-size="10.00">formula_weight</text>
</a>
</g>
<g id="a_node2_30"><a xlink:href="/dictionaries/mmcif_pdbx_v5_next.dic/Items/_chem_comp.mon_nstd_flag.html" xlink:title="&lt;TABLE&gt;" target="_top">
<polygon fill="none" stroke="black" points="104.112,-443 104.112,-464 201.112,-464 201.112,-443 104.112,-443"/>
<text text-anchor="start" x="109.112" y="-451" font-family="Helvetica,sans-Serif" font-size="10.00">mon_nstd_flag</text>
</a>
</g>
<g id="a_node2_31"><a xlink:href="/dictionaries/mmcif_pdbx_v5_next.dic/Items/_chem_comp.name.html" xlink:title="&lt;TABLE&gt;" target="_top">
<polygon fill="none" stroke="black" points="104.112,-422 104.112,-443 201.112,-443 201.112,-422 104.112,-422"/>
<text text-anchor="start" x="109.112" y="-430" font-family="Helvetica,sans-Serif" font-size="10.00">name</text>
</a>
</g>
<g id="a_node2_32"><a xlink:href="/dictionaries/mmcif_pdbx_v5_next.dic/Items/_chem_comp.pdbx_initial_date.html" xlink:title="&lt;TABLE&gt;" target="_top">
<polygon fill="none" stroke="black" points="104.112,-401 104.112,-422 201.112,-422 201.112,-401 104.112,-401"/>
<text text-anchor="start" x="109.112" y="-409" font-family="Helvetica,sans-Serif" font-size="10.00">pdbx_initial_date</text>
</a>
</g>
<g id="a_node2_33"><a xlink:href="/dictionaries/mmcif_pdbx_v5_next.dic/Items/_chem_comp.pdbx_modified_date.html" xlink:title="&lt;TABLE&gt;" target="_top">
<polygon fill="none" stroke="black" points="104.112,-380 104.112,-401 201.112,-401 201.112,-380 104.112,-380"/>
<text text-anchor="start" x="109.112" y="-388" font-family="Helvetica,sans-Serif" font-size="10.00">pdbx_modified_date</text>
</a>
</g>
<g id="a_node2_34"><a xlink:href="/dictionaries/mmcif_pdbx_v5_next.dic/Items/_chem_comp.pdbx_synonyms.html" xlink:title="&lt;TABLE&gt;" target="_top">
<polygon fill="none" stroke="black" points="104.112,-359 104.112,-380 201.112,-380 201.112,-359 104.112,-359"/>
<text text-anchor="start" x="109.112" y="-367" font-family="Helvetica,sans-Serif" font-size="10.00">pdbx_synonyms</text>
</a>
</g>
<g id="a_node2_35"><a xlink:href="/dictionaries/mmcif_pdbx_v5_next.dic/Items/_chem_comp.type.html" xlink:title="&lt;TABLE&gt;" target="_top">
<polygon fill="none" stroke="black" points="104.112,-338 104.112,-359 201.112,-359 201.112,-338 104.112,-338"/>
<text text-anchor="start" x="109.112" y="-346" font-family="Helvetica,sans-Serif" font-size="10.00">type</text>
</a>
</g>
</g>
<!-- _atom_site&#45;&gt;_chem_comp -->
<g id="edge1" class="edge"><title>_atom_site:__label_comp_id:w&#45;&gt;_chem_comp:__id:w</title>
<path fill="none" stroke="black" d="M104.112,-901C84.6955,-901 82.1226,-582.9 97.9016,-525.742"/>
<polygon fill="black" stroke="black" points="100.999,-527.382 103.112,-517 94.9857,-523.798 100.999,-527.382"/>
</g>
<!-- _entity -->
<g id="node3" class="node"><title>_entity</title>
<g id="a_node3_36"><a xlink:href="/dictionaries/mmcif_pdbx_v5_next.dic/Categories/entity.html" xlink:title="&lt;TABLE&gt;" target="_top">
<polygon fill="#99c49b" stroke="none" points="151.112,-272 151.112,-294 281.112,-294 281.112,-272 151.112,-272"/>
<polygon fill="none" stroke="black" points="151.112,-272 151.112,-294 281.112,-294 281.112,-272 151.112,-272"/>
<text text-anchor="start" x="199.112" y="-280.5" font-family="Helvetica,sans-Serif" font-size="10.00">ENTITY</text>
</a>
</g>
<g id="a_node3_37"><a xlink:href="/dictionaries/mmcif_pdbx_v5_next.dic/Items/_entity.id.html" xlink:title="&lt;TABLE&gt;" target="_top">
<polygon fill="#ffff99" stroke="none" points="151.112,-251 151.112,-272 281.112,-272 281.112,-251 151.112,-251"/>
<polygon fill="none" stroke="black" points="151.112,-251 151.112,-272 281.112,-272 281.112,-251 151.112,-251"/>
<text text-anchor="start" x="156.112" y="-259" font-family="Helvetica,sans-Serif" font-size="10.00">id</text>
</a>
</g>
<g id="a_node3_38"><a xlink:href="/dictionaries/mmcif_pdbx_v5_next.dic/Items/_entity.details.html" xlink:title="&lt;TABLE&gt;" target="_top">
<polygon fill="none" stroke="black" points="151.112,-230 151.112,-251 281.112,-251 281.112,-230 151.112,-230"/>
<text text-anchor="start" x="156.112" y="-238" font-family="Helvetica,sans-Serif" font-size="10.00">details</text>
</a>
</g>
<g id="a_node3_39"><a xlink:href="/dictionaries/mmcif_pdbx_v5_next.dic/Items/_entity.formula_weight.html" xlink:title="&lt;TABLE&gt;" target="_top">
<polygon fill="none" stroke="black" points="151.112,-209 151.112,-230 281.112,-230 281.112,-209 151.112,-209"/>
<text text-anchor="start" x="156.112" y="-217" font-family="Helvetica,sans-Serif" font-size="10.00">formula_weight</text>
</a>
</g>
<g id="a_node3_40"><a xlink:href="/dictionaries/mmcif_pdbx_v5_next.dic/Items/_entity.pdbx_description.html" xlink:title="&lt;TABLE&gt;" target="_top">
<polygon fill="none" stroke="black" points="151.112,-188 151.112,-209 281.112,-209 281.112,-188 151.112,-188"/>
<text text-anchor="start" x="156.112" y="-196" font-family="Helvetica,sans-Serif" font-size="10.00">pdbx_description</text>
</a>
</g>
<g id="a_node3_41"><a xlink:href="/dictionaries/mmcif_pdbx_v5_next.dic/Items/_entity.pdbx_ec.html" xlink:title="&lt;TABLE&gt;" target="_top">
<polygon fill="none" stroke="black" points="151.112,-167 151.112,-188 281.112,-188 281.112,-167 151.112,-167"/>
<text text-anchor="start" x="156.112" y="-175" font-family="Helvetica,sans-Serif" font-size="10.00">pdbx_ec</text>
</a>
</g>
<g id="a_node3_42"><a xlink:href="/dictionaries/mmcif_pdbx_v5_next.dic/Items/_entity.pdbx_fragment.html" xlink:title="&lt;TABLE&gt;" target="_top">
<polygon fill="none" stroke="black" points="151.112,-146 151.112,-167 281.112,-167 281.112,-146 151.112,-146"/>
<text text-anchor="start" x="156.112" y="-154" font-family="Helvetica,sans-Serif" font-size="10.00">pdbx_fragment</text>
</a>
</g>
<g id="a_node3_43"><a xlink:href="/dictionaries/mmcif_pdbx_v5_next.dic/Items/_entity.pdbx_mutation.html" xlink:title="&lt;TABLE&gt;" target="_top">
<polygon fill="none" stroke="black" points="151.112,-125 151.112,-146 281.112,-146 281.112,-125 151.112,-125"/>
<text text-anchor="start" x="156.112" y="-133" font-family="Helvetica,sans-Serif" font-size="10.00">pdbx_mutation</text>
</a>
</g>
<g id="a_node3_44"><a xlink:href="/dictionaries/mmcif_pdbx_v5_next.dic/Items/_entity.pdbx_number_of_molecules.html" xlink:title="&lt;TABLE&gt;" target="_top">
<polygon fill="none" stroke="black" points="151.112,-104 151.112,-125 281.112,-125 281.112,-104 151.112,-104"/>
<text text-anchor="start" x="156.112" y="-112" font-family="Helvetica,sans-Serif" font-size="10.00">pdbx_number_of_molecules</text>
</a>
</g>
<g id="a_node3_45"><a xlink:href="/dictionaries/mmcif_pdbx_v5_next.dic/Items/_entity.src_method.html" xlink:title="&lt;TABLE&gt;" target="_top">
<polygon fill="none" stroke="black" points="151.112,-83 151.112,-104 281.112,-104 281.112,-83 151.112,-83"/>
<text text-anchor="start" x="156.112" y="-91" font-family="Helvetica,sans-Serif" font-size="10.00">src_method</text>
</a>
</g>
<g id="a_node3_46"><a xlink:href="/dictionaries/mmcif_pdbx_v5_next.dic/Items/_entity.type.html" xlink:title="&lt;TABLE&gt;" target="_top">
<polygon fill="none" stroke="black" points="151.112,-62 151.112,-83 281.112,-83 281.112,-62 151.112,-62"/>
<text text-anchor="start" x="156.112" y="-70" font-family="Helvetica,sans-Serif" font-size="10.00">type</text>
</a>
</g>
</g>
<!-- _atom_site&#45;&gt;_entity -->
<g id="edge2" class="edge"><title>_atom_site:__label_entity_id:w&#45;&gt;_entity:__id:w</title>
<path fill="none" stroke="black" d="M104.112,-880C-30.1044,-880 10.1815,-292.984 139.801,-263.175"/>
<polygon fill="black" stroke="black" points="140.573,-266.61 150.112,-262 139.78,-259.655 140.573,-266.61"/>
</g>
<!-- _entity_poly_seq -->
<g id="node5" class="node"><title>_entity_poly_seq</title>
<g id="a_node5_47"><a xlink:href="/dictionaries/mmcif_pdbx_v5_next.dic/Categories/entity_poly_seq.html" xlink:title="&lt;TABLE&gt;" target="_top">
<polygon fill="#99c49b" stroke="none" points="141.112,-678 141.112,-700 245.112,-700 245.112,-678 141.112,-678"/>
<polygon fill="none" stroke="black" points="141.112,-678 141.112,-700 245.112,-700 245.112,-678 141.112,-678"/>
<text text-anchor="start" x="146.612" y="-686.5" font-family="Helvetica,sans-Serif" font-size="10.00">ENTITY_POLY_SEQ</text>
</a>
</g>
<g id="a_node5_48"><a xlink:href="/dictionaries/mmcif_pdbx_v5_next.dic/Items/_entity_poly_seq.entity_id.html" xlink:title="&lt;TABLE&gt;" target="_top">
<polygon fill="#ffff99" stroke="none" points="141.112,-657 141.112,-678 245.112,-678 245.112,-657 141.112,-657"/>
<polygon fill="none" stroke="black" points="141.112,-657 141.112,-678 245.112,-678 245.112,-657 141.112,-657"/>
<text text-anchor="start" x="146.112" y="-665" font-family="Helvetica,sans-Serif" font-size="10.00">entity_id</text>
</a>
</g>
<g id="a_node5_49"><a xlink:href="/dictionaries/mmcif_pdbx_v5_next.dic/Items/_entity_poly_seq.mon_id.html" xlink:title="&lt;TABLE&gt;" target="_top">
<polygon fill="#ffff99" stroke="none" points="141.112,-636 141.112,-657 245.112,-657 245.112,-636 141.112,-636"/>
<polygon fill="none" stroke="black" points="141.112,-636 141.112,-657 245.112,-657 245.112,-636 141.112,-636"/>
<text text-anchor="start" x="146.112" y="-644" font-family="Helvetica,sans-Serif" font-size="10.00">mon_id</text>
</a>
</g>
<g id="a_node5_50"><a xlink:href="/dictionaries/mmcif_pdbx_v5_next.dic/Items/_entity_poly_seq.num.html" xlink:title="&lt;TABLE&gt;" target="_top">
<polygon fill="#ffff99" stroke="none" points="141.112,-615 141.112,-636 245.112,-636 245.112,-615 141.112,-615"/>
<polygon fill="none" stroke="black" points="141.112,-615 141.112,-636 245.112,-636 245.112,-615 141.112,-615"/>
<text text-anchor="start" x="146.112" y="-623" font-family="Helvetica,sans-Serif" font-size="10.00">num</text>
</a>
</g>
<g id="a_node5_51"><a xlink:href="/dictionaries/mmcif_pdbx_v5_next.dic/Items/_entity_poly_seq.hetero.html" xlink:title="&lt;TABLE&gt;" target="_top">
<polygon fill="none" stroke="black" points="141.112,-594 141.112,-615 245.112,-615 245.112,-594 141.112,-594"/>
<text text-anchor="start" x="146.112" y="-602" font-family="Helvetica,sans-Serif" font-size="10.00">hetero</text>
</a>
</g>
</g>
<!-- _atom_site&#45;&gt;_entity_poly_seq -->
<g id="edge3" class="edge"><title>_atom_site:__label_seq_id:w&#45;&gt;_entity_poly_seq:__num:w</title>
<path fill="none" stroke="black" d="M104.112,-859C34.9015,-859 97.6464,-769.798 119.112,-704 129.104,-673.374 109.322,-634.946 130.042,-626.633"/>
<polygon fill="black" stroke="black" points="130.801,-630.055 140.112,-625 129.681,-623.145 130.801,-630.055"/>
</g>
<!-- _entity_poly -->
<g id="node4" class="node"><title>_entity_poly</title>
<g id="a_node4_52"><a xlink:href="/dictionaries/mmcif_pdbx_v5_next.dic/Categories/entity_poly.html" xlink:title="&lt;TABLE&gt;" target="_top">
<polygon fill="#f0027f" stroke="none" points="235.112,-517 235.112,-539 382.112,-539 382.112,-517 235.112,-517"/>
<polygon fill="none" stroke="black" points="235.112,-517 235.112,-539 382.112,-539 382.112,-517 235.112,-517"/>
<text text-anchor="start" x="275.612" y="-525.5" font-family="Helvetica,sans-Serif" font-size="10.00">ENTITY_POLY</text>
</a>
</g>
<g id="a_node4_53"><a xlink:href="/dictionaries/mmcif_pdbx_v5_next.dic/Items/_entity_poly.entity_id.html" xlink:title="&lt;TABLE&gt;" target="_top">
<polygon fill="#ffff99" stroke="none" points="235.112,-496 235.112,-517 382.112,-517 382.112,-496 235.112,-496"/>
<polygon fill="none" stroke="black" points="235.112,-496 235.112,-517 382.112,-517 382.112,-496 235.112,-496"/>
<text text-anchor="start" x="240.112" y="-504" font-family="Helvetica,sans-Serif" font-size="10.00">entity_id</text>
</a>
</g>
<g id="a_node4_54"><a xlink:href="/dictionaries/mmcif_pdbx_v5_next.dic/Items/_entity_poly.nstd_linkage.html" xlink:title="&lt;TABLE&gt;" target="_top">
<polygon fill="none" stroke="black" points="235.112,-475 235.112,-496 382.112,-496 382.112,-475 235.112,-475"/>
<text text-anchor="start" x="240.112" y="-483" font-family="Helvetica,sans-Serif" font-size="10.00">nstd_linkage</text>
</a>
</g>
<g id="a_node4_55"><a xlink:href="/dictionaries/mmcif_pdbx_v5_next.dic/Items/_entity_poly.nstd_monomer.html" xlink:title="&lt;TABLE&gt;" target="_top">
<polygon fill="none" stroke="black" points="235.112,-454 235.112,-475 382.112,-475 382.112,-454 235.112,-454"/>
<text text-anchor="start" x="240.112" y="-462" font-family="Helvetica,sans-Serif" font-size="10.00">nstd_monomer</text>
</a>
</g>
<g id="a_node4_56"><a xlink:href="/dictionaries/mmcif_pdbx_v5_next.dic/Items/_entity_poly.pdbx_seq_one_letter_code.html" xlink:title="&lt;TABLE&gt;" target="_top">
<polygon fill="none" stroke="black" points="235.112,-433 235.112,-454 382.112,-454 382.112,-433 235.112,-433"/>
<text text-anchor="start" x="240.112" y="-441" font-family="Helvetica,sans-Serif" font-size="10.00">pdbx_seq_one_letter_code</text>
</a>
</g>
<g id="a_node4_57"><a xlink:href="/dictionaries/mmcif_pdbx_v5_next.dic/Items/_entity_poly.pdbx_seq_one_letter_code_can.html" xlink:title="&lt;TABLE&gt;" target="_top">
<polygon fill="none" stroke="black" points="235.112,-412 235.112,-433 382.112,-433 382.112,-412 235.112,-412"/>
<text text-anchor="start" x="240.112" y="-420" font-family="Helvetica,sans-Serif" font-size="10.00">pdbx_seq_one_letter_code_can</text>
</a>
</g>
<g id="a_node4_58"><a xlink:href="/dictionaries/mmcif_pdbx_v5_next.dic/Items/_entity_poly.pdbx_strand_id.html" xlink:title="&lt;TABLE&gt;" target="_top">
<polygon fill="none" stroke="black" points="235.112,-391 235.112,-412 382.112,-412 382.112,-391 235.112,-391"/>
<text text-anchor="start" x="240.112" y="-399" font-family="Helvetica,sans-Serif" font-size="10.00">pdbx_strand_id</text>
</a>
</g>
<g id="a_node4_59"><a xlink:href="/dictionaries/mmcif_pdbx_v5_next.dic/Items/_entity_poly.pdbx_target_identifier.html" xlink:title="&lt;TABLE&gt;" target="_top">
<polygon fill="none" stroke="black" points="235.112,-370 235.112,-391 382.112,-391 382.112,-370 235.112,-370"/>
<text text-anchor="start" x="240.112" y="-378" font-family="Helvetica,sans-Serif" font-size="10.00">pdbx_target_identifier</text>
</a>
</g>
<g id="a_node4_60"><a xlink:href="/dictionaries/mmcif_pdbx_v5_next.dic/Items/_entity_poly.type.html" xlink:title="&lt;TABLE&gt;" target="_top">
<polygon fill="none" stroke="black" points="235.112,-349 235.112,-370 382.112,-370 382.112,-349 235.112,-349"/>
<text text-anchor="start" x="240.112" y="-357" font-family="Helvetica,sans-Serif" font-size="10.00">type</text>
</a>
</g>
</g>
<!-- _entity_poly&#45;&gt;_entity -->
<g id="edge5" class="edge"><title>_entity_poly:__entity_id:w&#45;&gt;_entity:__id:w</title>
<path fill="none" stroke="black" d="M234.112,-507C195.483,-507 238.434,-366.212 217.112,-334 198.67,-306.137 168.566,-326.492 151.112,-298 145.364,-288.616 139.482,-275.12 141.568,-267.6"/>
<polygon fill="black" stroke="black" points="143.667,-270.409 150.112,-262 139.83,-264.555 143.667,-270.409"/>
</g>
<!-- _entity_poly_seq&#45;&gt;_chem_comp -->
<g id="edge4" class="edge"><title>_entity_poly_seq:__mon_id:w&#45;&gt;_chem_comp:__id:w</title>
<path fill="none" stroke="black" d="M140.112,-646C113.531,-646 128.892,-614.717 119.112,-590 112.735,-573.883 107.741,-570.949 104.112,-554 101.852,-543.444 95.0432,-530.808 95.2783,-523.368"/>
<polygon fill="black" stroke="black" points="97.5604,-526.024 103.112,-517 93.1449,-520.592 97.5604,-526.024"/>
</g>
<!-- _entity_poly_seq&#45;&gt;_entity_poly -->
<g id="edge6" class="edge"><title>_entity_poly_seq:__entity_id:w&#45;&gt;_entity_poly:__entity_id:w</title>
<path fill="none" stroke="black" d="M140.112,-668C105.443,-668 122.385,-619.177 141.112,-590 161.301,-558.546 191.973,-581.658 217.112,-554 228.785,-541.158 219.037,-519.695 224.806,-510.92"/>
<polygon fill="black" stroke="black" points="226.255,-514.107 234.112,-507 223.538,-507.656 226.255,-514.107"/>
</g>
</g>
</svg>
