<?xml version="1.0" encoding="UTF-8" standalone="no"?>
<!-- Created with Inkscape (http://www.inkscape.org/) -->

<svg
   xmlns:dc="http://purl.org/dc/elements/1.1/"
   xmlns:cc="http://creativecommons.org/ns#"
   xmlns:rdf="http://www.w3.org/1999/02/22-rdf-syntax-ns#"
   xmlns:svg="http://www.w3.org/2000/svg"
   xmlns="http://www.w3.org/2000/svg"
   xmlns:inkscape="http://www.inkscape.org/namespaces/inkscape"
   version="1.1"
   width="765"
   height="990"
   id="svg2"
   xml:space="preserve"><metadata
     id="metadata8"><rdf:RDF><cc:Work
         rdf:about=""><dc:format>image/svg+xml</dc:format><dc:type
           rdf:resource="http://purl.org/dc/dcmitype/StillImage" /></cc:Work></rdf:RDF></metadata><defs
     id="defs6" /><g
     transform="matrix(1.25,0,0,-1.25,0,990)"
     id="g10"><g
       transform="scale(0.1,0.1)"
       id="g12"><g
         transform="scale(10,10)"
         id="g14"><text
           transform="matrix(1,0,0,-1,229.451,687)"
           id="text16"><tspan
             x="0 10.564 21.128 38.019001 54.91 68.627998 73.910004 85.518997 90.801003 103.474 114.038 125.647 131.974 142.53799"
             y="0"
             id="tspan18"
             style="font-size:19px;font-variant:normal;font-weight:bold;writing-mode:lr-tb;fill:#000000;fill-opacity:1;fill-rule:nonzero;stroke:none;font-family:Helvetica CY;-inkscape-font-specification:Helvetica-Bold">1 mmCIF Syntax</tspan></text>
<text
           transform="matrix(1,0,0,-1,71,662.8)"
           id="text20"><tspan
             x="0 6.7210002 12.221 17.105 21.879009 26.15801 31.65801 37.158009 40.216011 45.10001 50.60001 55.37402 60.87402 65.153023 70.037018 75.537018 80.311028 83.369034 88.869034 93.643044 102.20104 110.75904 118.09604 121.75904 127.87504 132.64905 138.14905 143.03305 146.09105 150.97505 155.74905 159.41206 162.47006 165.52806 170.41206 174.69106 179.46507 184.34908 189.84908 195.34908 200.12308 205.62308 208.68108 213.56508 216.62308 219.68108 225.18108 230.68108 235.56508 239.22807 242.28609 247.17007 251.44908 256.22308 259.2811 263.56009 268.33411 273.83411 278.71811 282.3811 285.43909 290.93909 295.82309 301.32309 306.09711 309.7601 313.4231 318.9231 327.48111 332.25513 335.31311 340.81311 345.69711 350.47113 356.58713 363.30814 371.25012 378.58713 383.36115 387.02414 393.14014 398.02414 401.08215 404.74515 408.40814 413.90814 418.79214 422.45514 425.51315 431.01315 434.07114 439.57114 445.07114 449.84515 456.56616 461.45016 466.95016"
             y="0"
             id="tspan22"
             style="font-size:11px;font-variant:normal;font-weight:normal;writing-mode:lr-tb;fill:#000000;fill-opacity:1;fill-rule:nonzero;stroke:none;font-family:Times New Roman;-inkscape-font-specification:Times-Roman">The syntax used in mmCIF data files and dictionaries is derived from the STAR (Self-defining Text</tspan><tspan
             x="0 7.9419999 11.605 16.489 21.989 25.047001 30.547001 35.431 39.241199 44.125198 49.625198 55.125198 58.935398 66.2724 71.156403 74.214401 77.877403 80.935402 85.819397 91.319397 96.2034 99.261398 102.9244 106.7346 112.2346 115.8976 120.7816 129.3396 137.8976 142.7816 146.4446 150.25481 155.13879 160.63879 166.13879 169.94901 173.007 177.286 181.09621 185.3752 188.4332 196.9912 200.04919 204.9332 208.59621 212.4064 215.4644 220.9644 224.7746 233.3326 238.8326 243.1116 246.1696 249.9798 253.64281 258.52679 262.80579 268.30579 273.18979 278.07379 281.13181 285.4108 289.22101 292.27899 297.77899 301.5892 304.64719 310.14719 315.03119 318.8414 323.12039 328.62039 334.12039 337.17841 342.06241 347.56241 351.37259 359.31461 364.81461 367.87259 372.75659 378.25659 382.0668 385.12479 389.40381 393.21399 398.71399 402.99301 407.87701 413.37701 417.18719 420.85019 426.35019 430.01321 433.82339 436.88141 442.38141 447.26541 451.07559 455.95959 461.45959 465.12259 470.00659"
             y="13.2"
             id="tspan24"
             style="font-size:11px;font-variant:normal;font-weight:normal;writing-mode:lr-tb;fill:#000000;fill-opacity:1;fill-rule:nonzero;stroke:none;font-family:Times New Roman;-inkscape-font-specification:Times-Roman">Archive and Retrieval) grammar and is simlar in most respects to the syntax which is used for the core </tspan><tspan
             x="0"
             y="26.4"
             id="tspan26"
             style="font-size:11px;font-variant:normal;font-weight:normal;writing-mode:lr-tb;fill:#000000;fill-opacity:1;fill-rule:nonzero;stroke:none;font-family:Times New Roman;-inkscape-font-specification:Times-Roman">(</tspan></text>
<text
           transform="matrix(1,0,0,-1,74.66289,636.4)"
           id="text28"><tspan
             x="0 4.2789998 12.221 17.721001 20.778999 23.837 26.587 34.528999 40.028999 43.087002 47.971001 52.855 58.355 61.412998"
             y="0"
             id="tspan30"
             style="font-size:11px;font-style:italic;font-variant:normal;writing-mode:lr-tb;fill:#000000;fill-opacity:1;fill-rule:nonzero;stroke:none;font-family:Times New Roman;-inkscape-font-specification:Times-Italic">small molecule</tspan></text>
<text
           transform="matrix(1,0,0,-1,140.96019,636.4)"
           id="text32"><tspan
             x="0 3.6630001 6.4130001 13.75 17.413 23.528999 26.278999"
             y="0"
             id="tspan34"
             style="font-size:11px;font-variant:normal;font-weight:normal;writing-mode:lr-tb;fill:#000000;fill-opacity:1;fill-rule:nonzero;stroke:none;font-family:Times New Roman;-inkscape-font-specification:Times-Roman">) CIF. </tspan><tspan
             x="-69.960197 -66.297203 -60.797199 -56.361172 -53.303169 -50.245171 -45.966171 -41.53014 -37.251141 -34.193138 -25.635139 -20.135139 -17.077141 -12.19314 -7.9141402 -4.8561401 -0.42010999 3.2428899 8.7428904 12.40589 20.96389 25.39992 30.28392 35.78392 40.219952 48.77795 57.335949 64.672951 68.335953 74.45195 78.887978 82.55098 85.608978 88.666977 93.55098 97.987007 101.04501 106.54501 112.04501 117.54501 121.82401 126.26004 129.31804 132.37604 137.87604 142.76004 147.19608 152.08006 156.5161 162.0161 166.9001 169.9581 173.62109 178.5051 184.0051 188.44113 193.32513 198.82513 201.88313 204.94113 209.82513 214.70914 217.76714 220.82513 226.32513 231.82513 236.26115 241.76115 245.42416 249.86018 255.36018 260.2442 263.30219 268.18619 272.62222 275.68021 278.73822 283.62222 292.18021 296.61624 302.11624 307.00024 315.55826 320.44226 324.72125 329.15729 334.04129 339.54129 345.04129 349.47729 354.97729 359.8613 362.91931 368.41931 373.30331 377.58231 380.33231 384.76834 390.88434 396.38434"
             y="24.200001"
             id="tspan36"
             style="font-size:11px;font-variant:normal;font-weight:normal;writing-mode:lr-tb;fill:#000000;fill-opacity:1;fill-rule:nonzero;stroke:none;font-family:Times New Roman;-inkscape-font-specification:Times-Roman">In its simplest form an mmCIF file looks like a paired collection of data item names and values. For</tspan><tspan
             x="-69.960197 -66.902199 -61.402199 -57.123199 -54.065201 -49.181198 -43.681198 -38.797199 -33.9132 -31.1632 -27.81447 -24.75647 -19.25647 -15.90774 -12.84974 -7.34974 -2.46574 0.88299 4.54599 10.04599 13.10399 16.161989 21.661989 29.603991 32.661991 38.161991 43.661991 47.010719 51.894718 57.394718 62.278721 70.836723 76.336723 79.394722 84.278717 87.627449 93.127449 96.790451 100.13918 105.02318 109.30218 113.58118 116.63918 122.13918 127.63918 130.69717 136.19717 141.69717 145.04591 150.54591 155.42992 158.48792 163.98792 168.8719 173.15091 176.49963 179.55763 185.05763 188.40637 193.29037 198.17438 201.23238 204.29037 207.6391 212.5231 218.0231 223.5231 227.80209 230.86011 235.74409 241.24409 244.30209 248.5811 251.92982 254.98782 260.48782 265.37183 268.72055 271.77856 277.27856 280.33655 285.22055 288.88354 294.38354 298.04657 302.93057 305.98856 310.87256 313.93057 316.98856 322.48856 327.98856 331.33728 336.83728 340.50031 343.84903 346.90701 352.40701 357.29102 360.63974 364.91876 370.41876 375.91876 378.97675 383.86075 389.36075 392.70947 395.76749"
             y="37.400002"
             id="tspan38"
             style="font-size:11px;font-variant:normal;font-weight:normal;writing-mode:lr-tb;fill:#000000;fill-opacity:1;fill-rule:nonzero;stroke:none;font-family:Times New Roman;-inkscape-font-specification:Times-Roman">instance, in the following example of assigning values to cell constants the interpretation of the syntax is</tspan><tspan
             x="-69.960197 -64.460197 -58.960201 -53.460201 -50.402199 -44.902199 -39.402199 -35.123199 -32.373199"
             y="50.599998"
             id="tspan40"
             style="font-size:11px;font-variant:normal;font-weight:normal;writing-mode:lr-tb;fill:#000000;fill-opacity:1;fill-rule:nonzero;stroke:none;font-family:Times New Roman;-inkscape-font-specification:Times-Roman">obvious. </tspan></text>
<text
           transform="matrix(1,0,0,-1,70.99999,564)"
           id="text42"><tspan
             x="0 5.4000001 10.8 16.200001 21.6 27 32.400002 37.799999 43.200001 48.599998 54 59.400002 64.800003 70.199997 75.599998 210.60001 216 221.39999 226.8 232.2"
             y="0"
             id="tspan44"
             style="font-size:9px;font-variant:normal;font-weight:normal;writing-mode:lr-tb;fill:#000000;fill-opacity:1;fill-rule:nonzero;stroke:none;font-family:Courier New;-inkscape-font-specification:Courier">_cell.entry_id T100A</tspan><tspan
             x="0 5.4000001 10.8 16.200001 21.6 27 32.400002 37.799999 43.200001 48.599998 54 59.400002 64.800003 70.199997 75.599998 210.60001 216 221.39999 226.8 232.2"
             y="10.8"
             id="tspan46"
             style="font-size:9px;font-variant:normal;font-weight:normal;writing-mode:lr-tb;fill:#000000;fill-opacity:1;fill-rule:nonzero;stroke:none;font-family:Courier New;-inkscape-font-specification:Courier">_cell.length_a 68.39</tspan><tspan
             x="0 5.4000001 10.8 16.200001 21.6 27 32.400002 37.799999 43.200001 48.599998 54 59.400002 64.800003 70.199997 75.599998 81 86.400002 91.800003 97.199997 216 221.39999 226.8 232.2"
             y="21.6"
             id="tspan48"
             style="font-size:9px;font-variant:normal;font-weight:normal;writing-mode:lr-tb;fill:#000000;fill-opacity:1;fill-rule:nonzero;stroke:none;font-family:Courier New;-inkscape-font-specification:Courier">_cell.length_a_esd 0.05</tspan><tspan
             x="0 5.4000001 10.8 16.200001 21.6 27 32.400002 37.799999 43.200001 48.599998 54 59.400002 64.800003 70.199997 75.599998 210.60001 216 221.39999 226.8 232.2"
             y="32.400002"
             id="tspan50"
             style="font-size:9px;font-variant:normal;font-weight:normal;writing-mode:lr-tb;fill:#000000;fill-opacity:1;fill-rule:nonzero;stroke:none;font-family:Courier New;-inkscape-font-specification:Courier">_cell.length_b 88.70</tspan><tspan
             x="0 5.4000001 10.8 16.200001 21.6 27 32.400002 37.799999 43.200001 48.599998 54 59.400002 64.800003 70.199997 75.599998 81 86.400002 91.800003 97.199997 216 221.39999 226.8 232.2"
             y="43.200001"
             id="tspan52"
             style="font-size:9px;font-variant:normal;font-weight:normal;writing-mode:lr-tb;fill:#000000;fill-opacity:1;fill-rule:nonzero;stroke:none;font-family:Courier New;-inkscape-font-specification:Courier">_cell.length_b_esd 0.12</tspan><tspan
             x="0 5.4000001 10.8 16.200001 21.6 27 32.400002 37.799999 43.200001 48.599998 54 59.400002 64.800003 70.199997 75.599998 210.60001 216 221.39999 226.8 232.2"
             y="54"
             id="tspan54"
             style="font-size:9px;font-variant:normal;font-weight:normal;writing-mode:lr-tb;fill:#000000;fill-opacity:1;fill-rule:nonzero;stroke:none;font-family:Courier New;-inkscape-font-specification:Courier">_cell.length_c 76.27</tspan><tspan
             x="0 5.4000001 10.8 16.200001 21.6 27 32.400002 37.799999 43.200001 48.599998 54 59.400002 64.800003 70.199997 75.599998 81 86.400002 91.800003 97.199997 216 221.39999 226.8 232.2"
             y="64.800003"
             id="tspan56"
             style="font-size:9px;font-variant:normal;font-weight:normal;writing-mode:lr-tb;fill:#000000;fill-opacity:1;fill-rule:nonzero;stroke:none;font-family:Courier New;-inkscape-font-specification:Courier">_cell.length_c_esd 0.06</tspan></text>
<text
           transform="matrix(1,0,0,-1,70.99999,475)"
           id="text58"><tspan
             x="0 8.5579996 17.115999 24.452999 28.115999 34.231998 37.033955 42.533955 47.417953 50.475952 55.359955 58.161907 61.219906 64.277908 69.161903 77.71991 80.521858 86.021858 90.905861 99.46386 104.34786 108.62686 111.42881 116.31281 121.19682 126.69682 129.49876 134.99876 139.88277 142.68472 145.74272 151.24272 156.12672 161.62672 164.68472 167.74272 171.40572 174.46371 179.34772 184.84772 187.64967 193.14967 198.64967 201.45163 204.50963 210.00963 214.89363 217.69557 220.75357 225.63757 230.52158 236.02158 239.07957 244.57957 250.07957 252.88153 258.38153 263.88153 269.38153 274.26553 277.92853 282.20752 287.09152 292.59152 296.25452 301.13852 303.94049 308.82449 314.32449 319.2085 322.87149 327.75549 332.6395 335.69748 340.58148 344.24448 346.99448 349.79645 356.51743 362.01743 366.90143 369.7034 375.2034 380.7034 386.2034 391.0874 394.7504 399.02939 403.91339 409.41339 413.07639 417.96039 420.76233 423.82034 428.09933 430.90131 434.5643 440.0643 443.12228 446.1803 451.6803 459.62228 464.50629"
             y="0"
             id="tspan60"
             style="font-size:11px;font-variant:normal;font-weight:normal;writing-mode:lr-tb;fill:#000000;fill-opacity:1;fill-rule:nonzero;stroke:none;font-family:Times New Roman;-inkscape-font-specification:Times-Roman">mmCIF data item names can be identified by the leading underscore character. The underscore is followed</tspan><tspan
             x="0 5.5 11 14.503993 19.387993 22.891987 25.949986 30.833986 36.333984 39.391987 42.895981 47.17498 50.232979 53.895981 56.953979 62.453979 67.953979 71.45797 79.399971 84.899971 87.95797 92.841972 98.341972 101.84596 104.90397 109.18297 112.68696 115.74496 121.24496 124.30296 129.18695 132.84996 138.34996 142.01295 146.89696 149.95496 154.83896 160.33896 163.84296 166.90096 172.40096 175.90494 184.46294 193.02095 200.35794 204.02095 210.13695 213.64093 218.52493 222.80394 226.30794 231.19193 236.69193 242.19193 245.24992 250.13393 253.19193 258.69193 261.74994 267.24994 272.74994 276.25394 281.75394 287.25394 290.31192 295.81192 299.31592 304.19992 307.70392 312.58792 317.47192 320.52991 325.41391 330.91391 336.41391 340.0769 345.5769 349.0809 354.5809 359.4649 368.02289 372.90689 376.41089 381.29489 386.79489 392.29489 395.79889 400.68289 404.18689 409.68689 414.57089 420.07089 428.01288 433.51288 437.17587 442.67587 446.17987 451.67987 456.56387 465.12189"
             y="13.2"
             id="tspan62"
             style="font-size:11px;font-variant:normal;font-weight:normal;writing-mode:lr-tb;fill:#000000;fill-opacity:1;fill-rule:nonzero;stroke:none;font-family:Times New Roman;-inkscape-font-specification:Times-Roman">by a text string which is interpreted in mmCIF as containing both a category name and a keyword name</tspan><tspan
             x="0 4.2789998 9.1630001 14.663 19.547001 23.209999 28.094 31.152 36.035999 41.535999 44.421955 49.921955 55.421955 58.307915 63.191914 66.077873 71.577873 76.461868 80.12487 83.182869 88.682869 94.182869 96.932869 99.818825 106.53983 112.03983 116.92383 119.80978 125.30978 130.19379 135.69379 143.63579 149.13579 152.79878 158.29878 161.18474 166.68474 172.18474 175.84775 178.90575 181.96375 187.46375 192.96375 195.8497 201.3497 205.0127 207.89865 210.95665 216.45665 221.34065 224.22661 229.72661 234.61061 243.16861 248.05261 250.93857 253.99657 258.27557 261.16153 264.21951 269.71951 274.60352 277.48947 282.98947 288.48947 291.54749 297.04749 302.54749 307.43149 310.31744 313.37543 318.87543 323.75943 329.25943 332.31744 335.37543 339.03845 342.09644 346.98044 350.64343 353.52939 359.02939 362.69238 365.57837 368.63635 374.13635 379.02036 381.90631 387.40631 392.29031 395.3483 400.2323 403.11826 406.17627 409.23428 414.11826 422.67627 425.56223 433.50421 436.56223 439.62024 445.12024 448.17822 453.67822 456.56418 459.62219 465.12219"
             y="26.4"
             id="tspan64"
             style="font-size:11px;font-variant:normal;font-weight:normal;writing-mode:lr-tb;fill:#000000;fill-opacity:1;fill-rule:nonzero;stroke:none;font-family:Times New Roman;-inkscape-font-specification:Times-Roman">separated by a period. The keyword portion of the name is the unique identifier of the data item within the</tspan><tspan
             x="0 4.8839998 9.7679996 12.826 17.709999 23.209999 28.709999 32.373001 37.873001 40.623001 44.453381 48.116379 53.616379 57.446758 60.504761 66.004761 70.888763 74.719139 79.603142 85.103142 89.987137 98.545143 104.04514 107.10314 111.98714 115.81752 120.70152 126.20152 131.70152 137.20152 142.08553 144.83553 148.66589 153.5499 156.60789 159.66589 163.49628 168.99628 172.65929 176.48965 179.54765 185.04765 189.93166 193.76204 199.26204 204.14604 207.20404 212.08804 215.91843 218.97643 222.03442 226.91843 235.47643 239.75542 243.5858 249.0858 253.9698 257.0278 262.5278 268.0278 273.5278 277.35818 280.41617 285.91617 289.74655 292.80457 298.30457 303.18857"
             y="39.599998"
             id="tspan66"
             style="font-size:11px;font-variant:normal;font-weight:normal;writing-mode:lr-tb;fill:#000000;fill-opacity:1;fill-rule:nonzero;stroke:none;font-family:Times New Roman;-inkscape-font-specification:Times-Roman">category. In the example above, all of the data items belong to the </tspan></text>
<text
           transform="matrix(1,0,0,-1,378.01899,435.4)"
           id="text68"><tspan
             x="0 6.5999999 13.2 19.799999"
             y="0"
             id="tspan70"
             style="font-size:11px;font-variant:normal;font-weight:normal;writing-mode:lr-tb;fill:#000000;fill-opacity:1;fill-rule:nonzero;stroke:none;font-family:Courier New;-inkscape-font-specification:Courier">CELL</tspan></text>
<text
           transform="matrix(1,0,0,-1,408.24937,435.4)"
           id="text72"><tspan
             x="0 4.8839998 9.7679996 12.826 17.709999 23.209999 28.709999 32.373001 37.873001 40.623001 44.453381 51.174381 56.674381 61.55838 65.388763 70.272758 75.772758 81.272758 86.772758 91.656761 95.487137 100.37114 105.87114 110.75514 119.31314 124.81314 127.87114"
             y="0"
             id="tspan74"
             style="font-size:11px;font-variant:normal;font-weight:normal;writing-mode:lr-tb;fill:#000000;fill-opacity:1;fill-rule:nonzero;stroke:none;font-family:Times New Roman;-inkscape-font-specification:Times-Roman">category. The above example</tspan><tspan
             x="-337.24939 -332.36539 -329.30737 -325.02838 -319.52838 -313.58215 -310.52417 -307.46616 -304.40817 -298.90817 -294.62915 -291.57117 -287.90817 -283.02417 -279.96616 -275.08215 -270.80316 -264.85693 -261.79895 -256.29895 -251.41495 -245.46872 -239.96872 -234.46872 -229.58472 -225.92172 -222.86372 -217.36372 -213.70071 -208.20071 -202.70071 -197.81673 -191.8705 -186.9865 -181.4865 -177.8235 -174.16051 -169.2765 -164.9975 -159.4975 -153.9975 -148.4975 -142.9975 -138.11349 -132.61349 -127.7295 -122.8455 -116.89928 -113.23628 -108.35228 -102.85228 -97.35228 -94.294281 -90.631279 -85.747276 -80.247276 -74.301064 -68.801064 -63.917061 -60.859058 -52.917061 -48.033058 -43.149059 -37.649059 -31.702841 -28.64484 -25.58684 -20.702841 -12.14484 -6.1986198 -0.69862002 4.18538 12.74338 17.62738 21.90638 27.8526 32.736599 38.236599 43.736599 49.682819 52.740822 55.79882 60.682819 69.240822 75.187042 80.687042 85.571037 88.629044 94.129044 99.013039 103.29204 106.04204 111.98826 119.93026 124.81426 127.87226"
             y="13.2"
             id="tspan76"
             style="font-size:11px;font-variant:normal;font-weight:normal;writing-mode:lr-tb;fill:#000000;fill-opacity:1;fill-rule:nonzero;stroke:none;font-family:Times New Roman;-inkscape-font-specification:Times-Roman">also illustrates the one-to-one correspondence required between item names and item values. Data</tspan><tspan
             x="-337.24939 -332.36539 -327.48138 -324.42337 -319.53937 -314.03937 -308.53937 -304.87637 -299.37637 -294.80127 -289.91727 -284.41727 -278.91727 -274.34219 -268.84219 -263.95819 -260.90018 -256.01617 -251.44109 -248.38309 -245.32507 -240.44109 -231.88309 -227.30798 -221.80798 -216.92398 -208.36598 -203.48198 -199.20297 -194.62788 -189.74388 -186.08089 -181.19688 -176.62178 -171.12178 -165.62178 -162.56378 -157.98868 -153.10468 -148.22067 -143.94168 -139.05768 -134.48257 -130.20358 -125.31958 -119.81958 -115.54058 -112.48258 -109.42458 -106.36658 -100.86658 -95.982582 -93.232582 -88.657478 -80.715477 -75.831482 -72.773483 -67.889481 -63.314381 -57.814381 -52.930382 -44.372379 -39.48838 -35.209381 -30.634279 -25.75028 -20.25028 -14.75028 -10.17518 -4.67518 0.20882 3.26682 8.1508198 12.72592 18.22592 23.109921 26.167919 31.667919 36.551922 40.830921 45.406021 49.68502 55.18502 60.68502 66.18502 69.243019 74.743019 79.318123 84.818123 89.702118 94.277222 99.161217 102.82422 106.48722 111.37122 116.87122 122.37122 127.25522"
             y="26.4"
             id="tspan78"
             style="font-size:11px;font-variant:normal;font-weight:normal;writing-mode:lr-tb;fill:#000000;fill-opacity:1;fill-rule:nonzero;stroke:none;font-family:Times New Roman;-inkscape-font-specification:Times-Roman">category and data item names are not case sensitive. Data names and data values should be arranged</tspan><tspan
             x="-337.24939 -329.30737 -326.24939 -323.19138 -317.69138 -314.63339 -309.13339 -306.38339 -301.49939 -298.74939 -295.08636 -292.02838 -288.97037 -284.08636 -281.33636 -277.05737 -271.55737 -266.67337 -261.17337 -258.42337 -255.36539 -249.86539 -244.98138 -241.92339 -239.17339 -233.67339 -228.17339 -225.42339 -222.36539 -219.30737 -213.80737 -208.92339 -206.17339 -203.11539 -198.23138 -192.73138 -187.23138 -184.17339 -178.67339 -175.92339 -171.03938 -165.53938 -160.65538 -155.77138 -150.88737 -145.38737 -141.10838 -138.35838 -132.85838 -127.35838 -124.60838 -119.72438 -114.22438 -109.34038 -105.67738 -100.79338 -95.909378 -92.851379 -87.967377 -84.304382 -80.025383 -77.275383"
             y="39.599998"
             id="tspan80"
             style="font-size:11px;font-variant:normal;font-weight:normal;writing-mode:lr-tb;fill:#000000;fill-opacity:1;fill-rule:nonzero;stroke:none;font-family:Times New Roman;-inkscape-font-specification:Times-Roman">within a file such that no line length exceeds 80 characters. </tspan><tspan
             x="-337.24939 -330.52838 -325.02838 -320.14438 -315.49759 -309.99759 -305.11359 -299.61359 -296.5556 -291.90881 -287.02481 -281.52481 -276.64081 -268.08282 -262.58282 -259.52481 -254.64082 -249.99403 -246.93604 -243.87804 -240.82004 -235.32004 -231.04105 -227.98305 -224.32004 -219.43604 -216.37804 -211.49403 -207.21504 -202.56825 -199.51025 -194.01025 -189.12627 -184.47948 -178.97948 -173.47948 -165.53748 -160.8907 -157.8327 -152.9487 -147.4487 -144.3907 -139.74393 -135.46492 -132.40692 -128.74393 -125.68592 -120.18592 -114.68592 -110.40692 -105.76014 -100.87614 -97.213142 -92.32914 -87.682358 -82.798363 -77.298363 -71.798363 -68.135361 -63.251362 -58.972359 -54.693359 -49.809361 -44.309361 -39.662579 -36.60458 -31.10458 -26.4578 -17.899799 -9.3417997 -2.0048001 1.6582 7.7742 10.5242 15.17098 21.28698 26.78698 32.28698 35.949982 39.00798 43.654758 46.712761 51.59676 57.09676 60.154758 64.801537 69.080544 72.138542 75.801537 78.859543 84.359543 89.859543 94.138542 98.785316 107.34332 112.22732 117.72732 122.3741 127.8741"
             y="63.799999"
             id="tspan82"
             style="font-size:11px;font-variant:normal;font-weight:normal;writing-mode:lr-tb;fill:#000000;fill-opacity:1;fill-rule:nonzero;stroke:none;font-family:Times New Roman;-inkscape-font-specification:Times-Roman">The next example illustrates the how text strings are expressed in mmCIF. Short text strings may be</tspan><tspan
             x="-337.24939 -332.36539 -326.86539 -321.98138 -318.92337 -313.42337 -309.14438 -304.26038 -298.76038 -294.12952 -291.07153 -285.57153 -280.94067 -276.66165 -273.60367 -268.10367 -262.60367 -259.54565 -254.66167 -250.03081 -244.53081 -240.8678 -236.23694 -230.73694 -225.23694 -219.73694 -214.23694 -211.17894 -206.29494 -201.66408 -196.16408 -190.66408 -185.16408 -182.10608 -177.22208 -174.16408 -171.10608 -165.60608 -160.10608 -155.47522 -146.91722 -142.03322 -138.37022 -132.87022 -128.59122 -125.84122 -121.21036 -114.48936 -109.60536 -104.10536 -101.04736 -96.416496 -92.137497 -89.079498 -85.416496 -82.358498 -76.858498 -71.358498 -67.079498 -62.448639 -54.506641 -49.006641 -45.948639 -41.06464 -35.56464 -30.933781 -26.654779 -21.154779 -16.270781 -10.77078 -6.1399202 2.4180801 7.9180799 10.97608 14.03408 17.092079 22.592079 25.65008 30.534081 35.16494 38.222939 41.280941 46.780941 51.66494 55.943939 60.574799 65.458801 69.121803 74.005798 78.636658 83.52066 89.02066 93.904663 96.962662 102.46266 106.74166 111.62566 117.12566 121.75652 127.25652"
             y="77"
             id="tspan84"
             style="font-size:11px;font-variant:normal;font-weight:normal;writing-mode:lr-tb;fill:#000000;fill-opacity:1;fill-rule:nonzero;stroke:none;font-family:Times New Roman;-inkscape-font-specification:Times-Roman">enclosed in single or double quotation marks. Text strings which span multiple lines are enclosed by</tspan><tspan
             x="-337.24939 -332.97037 -328.08636 -319.52838 -316.47037 -312.80737 -307.92337 -302.42337 -299.36539 -293.86539 -288.36539 -284.08636 -278.79843 -273.29843 -270.24045 -265.35645 -260.47244 -255.58844 -250.08844 -244.80051 -241.74249 -236.24249 -231.35851 -226.07056 -222.40756 -219.34956 -215.68655 -211.40756 -208.34956 -203.06161 -198.17763 -192.67763 -187.79362 -184.13062 -179.24661 -174.36263 -171.30463 -166.42062 -162.75761 -157.46968 -151.96968 -146.46968 -142.19067 -139.13268 -136.07468 -133.01668 -127.51668 -122.01668 -116.72874 -111.22874 -107.56574 -102.2778 -99.219803 -93.719803 -88.8358 -83.547859 -80.489861 -77.431862 -71.931862 -67.047859 -64.297859 -59.009918 -52.288921 -46.788921 -41.904919 -38.24192 -33.357922 -28.069981 -23.18598 -19.52298 -14.63898 -9.3510399 -6.2930398 1.64896 7.1489601 12.4369 16.7159 22.2159 27.099899 31.9839 35.041901 39.9259 42.983898 48.271839 53.155842 58.655842 63.539841 67.202843 72.086838 76.97084 80.028839 84.912842 88.575844 92.854843 98.142776 103.64278 107.92178 112.80578 118.30578 123.59372 128.47772"
             y="90.199997"
             id="tspan86"
             style="font-size:11px;font-variant:normal;font-weight:normal;writing-mode:lr-tb;fill:#000000;fill-opacity:1;fill-rule:nonzero;stroke:none;font-family:Times New Roman;-inkscape-font-specification:Times-Roman">semi-colons placed the first character position of the line. There are two special characters used as</tspan><tspan
             x="-337.24939 -331.74939 -328.69138 -323.80737 -318.92337 -314.03937 -308.53937 -303.03937 -299.98138 -294.48138 -289.59738 -285.93439 -281.65536 -277.95792 -274.29492 -268.79492 -265.13193 -261.43445 -252.87645 -244.31845 -236.98146 -233.31845 -227.20245 -223.50499 -220.44699 -217.38899 -212.50499 -203.94699 -200.24953 -194.74953 -189.86554 -186.80753 -181.30753 -176.42354 -172.14453 -168.44707 -160.50507 -155.00507 -151.94707 -147.06306 -141.56306 -137.8656 -134.20261 -128.70261 -125.0396 -121.34215 -117.06315 -111.56315 -103.00514 -98.121147 -94.423683 -90.760681 -85.876686 -80.992683 -76.713684 -71.213684 -65.713684 -62.01622 -57.132221 -52.248222 -46.748222 -41.248222 -35.748222 -32.690224 -28.99276 -23.49276 -18.608761 -14.911298 -10.027298 -4.527298 0.97270203 4.0307021 7.0887022 11.972702 15.030702 18.088701 21.146702 26.646702 30.344164 35.228165 39.507164 43.786163 46.844166 52.344166 57.844166 62.728165 68.228165 70.978165 74.675629 81.396629 86.896629 91.780624 95.478088 100.97809 106.47809 111.36209 115.64109 118.69909 121.75709 127.25709"
             y="103.4"
             id="tspan88"
             style="font-size:11px;font-variant:normal;font-weight:normal;writing-mode:lr-tb;fill:#000000;fill-opacity:1;fill-rule:nonzero;stroke:none;font-family:Times New Roman;-inkscape-font-specification:Times-Roman">placeholders for mmCIF item values which for some reason cannot be explicitly assigned. The question</tspan><tspan
             x="-337.24939 -328.69138 -323.80737 -320.14438 -314.64438 -311.19748"
             y="116.6"
             id="tspan90"
             style="font-size:11px;font-variant:normal;font-weight:normal;writing-mode:lr-tb;fill:#000000;fill-opacity:1;fill-rule:nonzero;stroke:none;font-family:Times New Roman;-inkscape-font-specification:Times-Roman">mark (</tspan></text>
<text
           transform="matrix(1,0,0,-1,100.71479,318.8)"
           id="text92"><tspan
             x="0"
             y="0"
             id="tspan94"
             style="font-size:11px;font-variant:normal;font-weight:normal;writing-mode:lr-tb;fill:#000000;fill-opacity:1;fill-rule:nonzero;stroke:none;font-family:Courier New;-inkscape-font-specification:Courier">?</tspan></text>
<text
           transform="matrix(1,0,0,-1,107.31479,318.8)"
           id="text96"><tspan
             x="0 3.6630001 7.109911 10.167911 14.446911 17.893822 23.393822 27.672823 32.556824 38.056824 41.503735 44.561733 50.061733 53.508644 62.066643 66.950645 70.613647 76.113647 79.560555 84.444557 89.944557 93.391464 96.449463 99.507469 104.39146 112.94946 116.39638 121.89638 126.78038 129.83838 135.33838 140.22238 143.66928 148.55328 152.83229 156.27921 164.8372 167.8952 172.17419 176.4532 179.5112 185.0112 190.5112 193.2612 196.70811 204.65012 208.09702 213.59702 218.48102 222.14403 225.20203 230.70203 236.20203 239.64893"
             y="0"
             id="tspan98"
             style="font-size:11px;font-variant:normal;font-weight:normal;writing-mode:lr-tb;fill:#000000;fill-opacity:1;fill-rule:nonzero;stroke:none;font-family:Times New Roman;-inkscape-font-specification:Times-Roman">) is used to mark an item value as missing. A period (</tspan></text>
<text
           transform="matrix(1,0,0,-1,350.62679,318.8)"
           id="text100"><tspan
             x="0"
             y="0"
             id="tspan102"
             style="font-size:11px;font-variant:normal;font-weight:normal;writing-mode:lr-tb;fill:#000000;fill-opacity:1;fill-rule:nonzero;stroke:none;font-family:Courier New;-inkscape-font-specification:Courier">.</tspan></text>
<text
           transform="matrix(1,0,0,-1,357.22679,318.8)"
           id="text104"><tspan
             x="0 3.6630001 7.109911 15.667911 20.55191 26.05191 29.498821 34.998821 39.88282 43.329735 48.829735 53.108734 57.992733 63.492733 66.939644 69.997643 75.497643 78.944557 82.002556 87.502556 92.386559 97.886559 100.94456 104.00256 107.66556 113.16556 116.61246 119.67046 125.17046 130.05446 133.11247 136.55937 139.61737 145.11737 150.00137 153.66438 158.54837 161.99529 165.05328 169.33229 172.77921 178.27921"
             y="0"
             id="tspan106"
             style="font-size:11px;font-variant:normal;font-weight:normal;writing-mode:lr-tb;fill:#000000;fill-opacity:1;fill-rule:nonzero;stroke:none;font-family:Times New Roman;-inkscape-font-specification:Times-Roman">) may be used to identify that there is no</tspan><tspan
             x="-286.22699 -281.34299 -275.84299 -270.34299 -266.67999 -261.17999 -255.67999 -252.017 -248.959 -244.075 -241.017 -236.133 -233.383 -227.883 -222.99899 -219.94099 -214.44099 -209.55701 -206.80701 -203.144 -197.644 -193.981 -191.231 -188.173 -182.673 -177.789 -175.039 -171.981 -168.923 -164.039 -155.481 -152.731 -147.231 -143.56799 -140.81799 -137.75999 -132.25999 -127.376 -124.318 -121.568 -116.684 -113.934 -108.434 -103.55 -100.492 -94.991997 -90.108002 -87.358002 -81.858002 -76.973999 -72.695 -69.945 -64.445 -59.561001 -54.676998 -49.176998 -46.426998 -43.368999 -37.868999 -34.811001 -29.927 -24.427 -21.368999 -18.311001 -12.811 -7.3109999 -2.427 0.63099998 3.6889999 9.1890001 11.939 17.438999 25.997 29.055 32.112999 35.171001 40.055 45.555 48.305"
             y="13.2"
             id="tspan108"
             style="font-size:11px;font-variant:normal;font-weight:normal;writing-mode:lr-tb;fill:#000000;fill-opacity:1;fill-rule:nonzero;stroke:none;font-family:Times New Roman;-inkscape-font-specification:Times-Roman">appropriate value for the item or that a value has been intentionally omitted. </tspan></text>
<text
           transform="matrix(1,0,0,-1,70.99979,283.8)"
           id="text110"><tspan
             x="0 5.4000001 10.8 16.200001 21.6 27 32.400002 37.799999 43.200001 48.599998 54 59.400002 64.800003 70.199997 75.599998 81 86.400002 91.800003 97.199997 102.6 108 113.4 118.8 124.2 129.60001 135 140.39999 145.8 151.2 156.60001 210.60001 216 221.39999 226.8 232.2 237.60001 243 248.39999 253.8 259.20001 264.60001 270"
             y="0"
             id="tspan112"
             style="font-size:9px;font-variant:normal;font-weight:normal;writing-mode:lr-tb;fill:#000000;fill-opacity:1;fill-rule:nonzero;stroke:none;font-family:Courier New;-inkscape-font-specification:Courier">_diffrn_measurement.diffrn_id ’Data set 1’</tspan><tspan
             x="0 5.4000001 10.8 16.200001 21.6 27 32.400002 37.799999 43.200001 48.599998 54 59.400002 64.800003 70.199997 75.599998 81 86.400002 91.800003 97.199997 102.6 108 113.4 118.8 124.2 129.60001 135 140.39999 210.60001 216 221.39999 226.8 232.2 237.60001 243 248.39999 253.8 259.20001 264.60001 270 275.39999 280.79999 286.20001 291.60001 297"
             y="10.8"
             id="tspan114"
             style="font-size:9px;font-variant:normal;font-weight:normal;writing-mode:lr-tb;fill:#000000;fill-opacity:1;fill-rule:nonzero;stroke:none;font-family:Courier New;-inkscape-font-specification:Courier">_diffrn_measurement.device ’3-circle camera’</tspan><tspan
             x="0 5.4000001 10.8 16.200001 21.6 27 32.400002 37.799999 43.200001 48.599998 54 59.400002 64.800003 70.199997 75.599998 81 86.400002 91.800003 97.199997 102.6 108 113.4 118.8 124.2 129.60001 135 140.39999 210.60001 216 221.39999 226.8 232.2 237.60001 243 248.39999 253.8 259.20001 264.60001 270"
             y="21.6"
             id="tspan116"
             style="font-size:9px;font-variant:normal;font-weight:normal;writing-mode:lr-tb;fill:#000000;fill-opacity:1;fill-rule:nonzero;stroke:none;font-family:Courier New;-inkscape-font-specification:Courier">_diffrn_measurement.method ’omega scan’</tspan><tspan
             x="0 5.4000001 10.8 16.200001 21.6 27 32.400002 37.799999 43.200001 48.599998 54 59.400002 64.800003 70.199997 75.599998 81 86.400002 91.800003 97.199997 102.6 108 113.4 118.8 124.2 129.60001 135 140.39999"
             y="32.400002"
             id="tspan118"
             style="font-size:9px;font-variant:normal;font-weight:normal;writing-mode:lr-tb;fill:#000000;fill-opacity:1;fill-rule:nonzero;stroke:none;font-family:Courier New;-inkscape-font-specification:Courier">_diffrn_measurement.details</tspan><tspan
             x="0 5.4000001 10.8 16.200001 21.6 27 32.400002 37.799999 43.200001 48.599998 54 59.400002 64.800003 70.199997 75.599998 81 86.400002 91.800003 97.199997 102.6 108 113.4 118.8 124.2 129.60001 135 140.39999 145.8 151.2 156.60001 162 167.39999 172.8 178.2 183.60001 189 194.39999 199.8 205.2 210.60001 216 221.39999 226.8 232.2 237.60001 243 248.39999 253.8 259.20001 264.60001 270 275.39999 280.79999 286.20001 291.60001 297 302.39999 307.79999 313.20001 318.60001 324 329.39999 334.79999 340.20001 345.60001 351 356.39999 361.79999 367.20001 372.60001"
             y="43.200001"
             id="tspan120"
             style="font-size:9px;font-variant:normal;font-weight:normal;writing-mode:lr-tb;fill:#000000;fill-opacity:1;fill-rule:nonzero;stroke:none;font-family:Courier New;-inkscape-font-specification:Courier">; 440 frames, 0.20 degrees, 150 sec, detector distance 12 cm, detector</tspan><tspan
             x="0 10.8 16.200001 21.6 27 32.400002 37.799999 43.200001 48.599998 54 59.400002 64.800003 70.199997 75.599998 81 86.400002 91.800003 97.199997 102.6"
             y="54"
             id="tspan122"
             style="font-size:9px;font-variant:normal;font-weight:normal;writing-mode:lr-tb;fill:#000000;fill-opacity:1;fill-rule:nonzero;stroke:none;font-family:Courier New;-inkscape-font-specification:Courier"> angle 22.5 degrees</tspan><tspan
             x="0"
             y="64.800003"
             id="tspan124"
             style="font-size:9px;font-variant:normal;font-weight:normal;writing-mode:lr-tb;fill:#000000;fill-opacity:1;fill-rule:nonzero;stroke:none;font-family:Courier New;-inkscape-font-specification:Courier">;</tspan><tspan
             x="0 5.4000001 10.8 16.200001 21.6 27 32.400002 37.799999 43.200001 48.599998 54 59.400002 64.800003 70.199997 75.599998 81 86.400002 91.800003 97.199997 102.6 108 113.4 118.8 124.2 129.60001 135 140.39999 145.8 151.2 156.60001 162 167.39999 172.8 178.2 183.60001 189 194.39999 216"
             y="75.599998"
             id="tspan126"
             style="font-size:9px;font-variant:normal;font-weight:normal;writing-mode:lr-tb;fill:#000000;fill-opacity:1;fill-rule:nonzero;stroke:none;font-family:Courier New;-inkscape-font-specification:Courier">_diffrn_measurement.specimen_support ?</tspan></text>
<text
           transform="matrix(1,0,0,-1,70.99979,184)"
           id="text128"><tspan
             x="0 7.9419999 12.826 17.709999 20.768 26.268 29.931 34.209999 37.754776 42.638779 48.138779 53.638779 57.183556 60.241554 65.125557 70.625557 73.683556 78.567551 82.846558 86.391335 91.891335 95.554329 99.099106 104.59911 109.48311 112.54111 117.42511 120.96989 129.52788 134.41188 139.91188 143.45667 148.95667 153.84067 157.38544 162.26944 167.76944 172.65344 178.15344 183.65344 188.53745 194.03745 197.58221 200.64021 206.14021 209.685 218.243 226.80099 234.138 237.80099 243.91699 247.46178 252.96178 257.24078 260.29877 265.79877 271.29877 274.84354 279.72754 283.27234 286.33032 291.83032 297.33032 302.83032 308.33032 311.87509 317.37509 320.43311 324.0961 328.9801 333.86411 336.92209 339.9801 345.4801 350.36411 353.11411 356.65887 363.37988 368.87988 372.42465 377.92465 383.42465 386.48267 389.54065 395.04065 398.58542 403.46942 407.01422 410.0722 414.95621 420.45621 423.51422 428.39822 431.14822 434.69299 437.75098 443.25098 448.13498 451.67975 457.17975 462.06375 465.12177"
             y="0"
             id="tspan130"
             style="font-size:11px;font-variant:normal;font-weight:normal;writing-mode:lr-tb;fill:#000000;fill-opacity:1;fill-rule:nonzero;stroke:none;font-family:Times New Roman;-inkscape-font-specification:Times-Roman">Vectors and tables of data may be encoded in mmCIF using a loop_ directive. To build a table, the data</tspan><tspan
             x="0 3.0580001 6.1160002 11 19.558001 23.023504 28.523504 33.407505 41.965504 46.849503 51.128506 54.594009 59.478008 64.978004 68.641006 72.304008 77.188011 81.46701 86.96701 92.46701 97.96701 103.46701 106.52501 112.02501 117.52501 120.99051 124.04852 129.54851 133.01402 136.07202 141.57202 146.45601 149.92152 152.97952 157.86353 163.36353 166.42152 171.30553 174.77103 179.65503 185.15503 188.21303 193.71303 202.27103 207.77103 212.05002 215.51553 220.39952 224.06253 228.94653 232.41203 237.91203 241.57503 246.45903 251.34303 256.22702 261.72702 266.61102 272.11102 275.57654 281.07654 286.57654 290.04205 293.10004 298.60004 303.48404 306.94955 310.00754 315.50754 321.00754 326.50754 332.00754 335.47305 340.97305 344.03104 347.69406 352.57803 357.46204 360.52005 363.57803 369.07803 373.96204 376.71204 380.17755 385.06155 390.56155 396.06155 399.52707 403.19006 408.69006 411.74805 414.80606 420.30606 428.24805 433.13205 438.63205 442.09756 447.59756 453.09756 456.56305 459.62106 465.12106"
             y="13.2"
             id="tspan132"
             style="font-size:11px;font-variant:normal;font-weight:normal;writing-mode:lr-tb;fill:#000000;fill-opacity:1;fill-rule:nonzero;stroke:none;font-family:Times New Roman;-inkscape-font-specification:Times-Roman">item names corresponding to the table columns are preceded by the loop_ directive, and followed by the</tspan><tspan
             x="0 4.8839998 10.384 14.047 17.709999 22.594 26.872999 32.373001 37.873001 43.373001 48.873001 51.931 57.431 62.931 65.681 69.344002 74.844002 82.786003 87.065002 89.815002 95.315002 98.977997 101.728 107.228 112.112 115.17 120.054 122.804 125.554 132.27499 137.77499 142.659 145.409 149.07201 154.57201 157.63 160.688 166.188 174.13 177.188 182.688 188.188 190.938 195.82201 201.32201 206.20599 214.76401 220.26401 223.32201 228.20599 230.95599 236.45599 241.95599 245.01401 248.07201 253.57201 257.85101 260.60101 265.48499 268.23499 271.293 276.177 281.677 284.73499 289.61899 292.36899 297.86899 301.53201 304.28201 309.16599 314.66599 317.724 323.224 328.724 332.38699 335.13699 340.63699 345.521 354.07901 358.96301 363.242 365.992"
             y="26.4"
             id="tspan134"
             style="font-size:11px;font-variant:normal;font-weight:normal;writing-mode:lr-tb;fill:#000000;fill-opacity:1;fill-rule:nonzero;stroke:none;font-family:Times New Roman;-inkscape-font-specification:Times-Roman">corresponding rows of data. The following example builds a table of author names. </tspan></text>
<text
           transform="matrix(1,0,0,-1,70.99979,135.8)"
           id="text136"><tspan
             x="0 5.4000001 10.8 16.200001 21.6"
             y="0"
             id="tspan138"
             style="font-size:9px;font-variant:normal;font-weight:normal;writing-mode:lr-tb;fill:#000000;fill-opacity:1;fill-rule:nonzero;stroke:none;font-family:Courier New;-inkscape-font-specification:Courier">loop_</tspan><tspan
             x="0 5.4000001 10.8 16.200001 21.6 27 32.400002 37.799999 43.200001 48.599998 54 59.400002 64.800003 70.199997 75.599998 81 86.400002 91.800003 97.199997 102.6 108 113.4 118.8 124.2 129.60001 135 140.39999 145.8"
             y="10.8"
             id="tspan140"
             style="font-size:9px;font-variant:normal;font-weight:normal;writing-mode:lr-tb;fill:#000000;fill-opacity:1;fill-rule:nonzero;stroke:none;font-family:Courier New;-inkscape-font-specification:Courier">_citation_author.citation_id</tspan><tspan
             x="0 5.4000001 10.8 16.200001 21.6 27 32.400002 37.799999 43.200001 48.599998 54 59.400002 64.800003 70.199997 75.599998 81 86.400002 91.800003 97.199997 102.6 108 113.4 118.8 124.2"
             y="21.6"
             id="tspan142"
             style="font-size:9px;font-variant:normal;font-weight:normal;writing-mode:lr-tb;fill:#000000;fill-opacity:1;fill-rule:nonzero;stroke:none;font-family:Courier New;-inkscape-font-specification:Courier">_citation_author.ordinal</tspan><tspan
             x="0 5.4000001 10.8 16.200001 21.6 27 32.400002 37.799999 43.200001 48.599998 54 59.400002 64.800003 70.199997 75.599998 81 86.400002 91.800003 97.199997 102.6 108"
             y="32.400002"
             id="tspan144"
             style="font-size:9px;font-variant:normal;font-weight:normal;writing-mode:lr-tb;fill:#000000;fill-opacity:1;fill-rule:nonzero;stroke:none;font-family:Courier New;-inkscape-font-specification:Courier">_citation_author.name</tspan><tspan
             x="0 10.8 16.200001 21.6 27 32.400002 37.799999 43.200001 48.599998 59.400002 64.800003 75.599998 81 86.400002 91.800003 97.199997 102.6 108 113.4 118.8 124.2 129.60001 135 140.39999 145.8 151.2 156.60001 162 167.39999 172.8 178.2"
             y="43.200001"
             id="tspan146"
             style="font-size:9px;font-variant:normal;font-weight:normal;writing-mode:lr-tb;fill:#000000;fill-opacity:1;fill-rule:nonzero;stroke:none;font-family:Courier New;-inkscape-font-specification:Courier"> primary 1 ’Fitzgerald, P.M.D.’</tspan></text>
</g><path
         d="m 570,720 4980,0 0,6480 -4980,0 0,-6480 z"
         inkscape:connector-curvature="0"
         id="path148"
         style="fill:none;stroke:#000000;stroke-width:6;stroke-linecap:butt;stroke-linejoin:round;stroke-miterlimit:10;stroke-opacity:1;stroke-dasharray:none" /><g
         transform="scale(10,10)"
         id="g150"><text
           transform="matrix(1,0,0,-1,298.889,46)"
           id="text152"><tspan
             x="0 2.664 4.888 9.3360004 11.56"
             y="0"
             id="tspan154"
             style="font-size:8px;font-variant:normal;font-weight:normal;writing-mode:lr-tb;fill:#000000;fill-opacity:1;fill-rule:nonzero;stroke:none;font-family:Helvetica CY;-inkscape-font-specification:Helvetica">- 1 -</tspan><tspan
             x="13.6207 20.2847 26.9487 32.724701 34.9487 39.8367 42.060699 47.396702 51.8447 54.068699 56.292702 62.068699 66.516701 69.180702 73.6287 75.852699 81.6287 86.076698 90.076698 94.524696 96.300697 100.7487 105.1967 109.6447 112.3087 116.3087 118.5327 126.0847 130.5327 133.1967 137.1967 141.1967 145.6447 150.0927 154.5407 156.76469 162.5407 166.98869 169.21271 173.66071 178.1087 180.77271 184.77271 186.9967 192.77271 197.2207 198.9967 202.9967 207.4447 210.1087 214.1087 215.8847 218.1087 222.1087 224.3327 228.7807 233.2287 237.6767 -227.88831 -221.2243 -214.5603 -208.7843 -206.5603 -201.6723 -199.4483 -194.1123 -190.1123 -185.66431 -183.44031 -178.99229"
             y="-700"
             id="tspan156"
             style="font-size:8px;font-variant:normal;font-weight:normal;writing-mode:lr-tb;fill:#000000;fill-opacity:1;fill-rule:nonzero;stroke:none;font-family:Helvetica CY;-inkscape-font-specification:Helvetica">mmCIF Software Developers Workshop/Rutgers University 1997mmCIF Syntax</tspan></text>
</g></g></g></svg>