<?xml version="1.0" encoding="UTF-8" standalone="no"?>
<!-- Created with Inkscape (http://www.inkscape.org/) -->

<svg
   xmlns:dc="http://purl.org/dc/elements/1.1/"
   xmlns:cc="http://creativecommons.org/ns#"
   xmlns:rdf="http://www.w3.org/1999/02/22-rdf-syntax-ns#"
   xmlns:svg="http://www.w3.org/2000/svg"
   xmlns="http://www.w3.org/2000/svg"
   xmlns:inkscape="http://www.inkscape.org/namespaces/inkscape"
   version="1.1"
   width="765"
   height="990"
   id="svg2"
   xml:space="preserve"><metadata
     id="metadata8"><rdf:RDF><cc:Work
         rdf:about=""><dc:format>image/svg+xml</dc:format><dc:type
           rdf:resource="http://purl.org/dc/dcmitype/StillImage" /></cc:Work></rdf:RDF></metadata><defs
     id="defs6"><clipPath
       id="clipPath18"><path
         d="m 2230,5519.06 1620.42,0 0,239.133 -1620.42,0 0,-239.133 z"
         inkscape:connector-curvature="0"
         id="path20" /></clipPath><clipPath
       id="clipPath32"><path
         d="m 2540,4655.31 1024.46,0 0,884.711 -1024.46,0 0,-884.711 z"
         inkscape:connector-curvature="0"
         id="path34" /></clipPath><clipPath
       id="clipPath68"><path
         d="m 2265,2584.06 1070.16,0 0,239.133 -1070.16,0 0,-239.133 z"
         inkscape:connector-curvature="0"
         id="path70" /></clipPath><clipPath
       id="clipPath82"><path
         d="m 2760,1790.31 674.602,0 0,744.711 -674.602,0 0,-744.711 z"
         inkscape:connector-curvature="0"
         id="path84" /></clipPath><clipPath
       id="clipPath116"><path
         d="m 2210,4155.31 900.238,0 0,239.133 -900.238,0 0,-239.133 z"
         inkscape:connector-curvature="0"
         id="path118" /></clipPath><clipPath
       id="clipPath130"><path
         d="m 2400,3825.31 814.602,0 0,324.711 -814.602,0 0,-324.711 z"
         inkscape:connector-curvature="0"
         id="path132" /></clipPath><clipPath
       id="clipPath150"><path
         d="m 2190,3329.06 1750.38,0 0,239.133 -1750.38,0 0,-239.133 z"
         inkscape:connector-curvature="0"
         id="path152" /></clipPath><clipPath
       id="clipPath164"><path
         d="m 2480,3015.31 993.66,0 0,324.711 -993.66,0 0,-324.711 z"
         inkscape:connector-curvature="0"
         id="path166" /></clipPath><clipPath
       id="clipPath186"><path
         d="m 2230,6459.06 920.219,0 0,239.133 -920.219,0 0,-239.133 z"
         inkscape:connector-curvature="0"
         id="path188" /></clipPath><clipPath
       id="clipPath200"><path
         d="m 2490,5945.31 915.82,0 0,464.711 -915.82,0 0,-464.711 z"
         inkscape:connector-curvature="0"
         id="path202" /></clipPath></defs><g
     transform="matrix(1.25,0,0,-1.25,0,990)"
     id="g10"><g
       transform="scale(0.1,0.1)"
       id="g12"><g
         id="g14"><g
           clip-path="url(#clipPath18)"
           id="g16"><g
             transform="scale(10,10)"
             id="g22"><text
               transform="matrix(1,0,0,-1,225,557.819)"
               id="text24"><tspan
                 x="0 10.998207 16.002413 26.01062 32.004826 37.009033 48.00724 59.005447 69.013657 76.015862 86.024071 96.032272 107.03048 112.03469 122.04289 128.03711 139.03531 146.03752"
                 y="0"
                 id="tspan26"
                 style="font-size:18px;font-variant:normal;font-weight:bold;writing-mode:lr-tb;fill:#000000;fill-opacity:1;fill-rule:nonzero;stroke:none;font-family:Helvetica CY;-inkscape-font-specification:Helvetica-Bold">dictionary_history</tspan></text>
</g></g></g><g
         id="g28"><g
           clip-path="url(#clipPath32)"
           id="g30"><g
             transform="scale(10,10)"
             id="g36"><text
               transform="matrix(1,0,0,-1,256,540.002)"
               id="text38"><tspan
                 x="0 7.7841053 15.568211 21.014315 28.79842 32.690525 41.244633"
                 y="0"
                 id="tspan40"
                 style="font-size:14px;font-variant:normal;font-weight:bold;writing-mode:lr-tb;fill:#000000;fill-opacity:1;fill-rule:nonzero;stroke:none;font-family:Helvetica CY;-inkscape-font-specification:Helvetica-Bold">version</tspan><tspan
                 x="0 8.5540981 17.108196 25.662296 33.446396 38.108494"
                 y="14"
                 id="tspan42"
                 style="font-size:14px;font-variant:normal;font-weight:bold;writing-mode:lr-tb;fill:#000000;fill-opacity:1;fill-rule:nonzero;stroke:none;font-family:Helvetica CY;-inkscape-font-specification:Helvetica-Bold">update</tspan><tspan
                 x="0 8.5540733 17.108147 25.66222 33.446293 38.108368 45.892441 53.676514 62.230587 70.014656"
                 y="28"
                 id="tspan44"
                 style="font-size:14px;font-variant:normal;font-weight:bold;writing-mode:lr-tb;fill:#000000;fill-opacity:1;fill-rule:nonzero;stroke:none;font-family:Helvetica CY;-inkscape-font-specification:Helvetica-Bold">update_day</tspan><tspan
                 x="0 8.554122 17.108244 25.662367 33.446487 38.108612 45.892731 53.676853 66.122978 74.677101 83.231224 87.893341"
                 y="42"
                 id="tspan46"
                 style="font-size:14px;font-variant:normal;font-weight:bold;writing-mode:lr-tb;fill:#000000;fill-opacity:1;fill-rule:nonzero;stroke:none;font-family:Helvetica CY;-inkscape-font-specification:Helvetica-Bold">update_month</tspan><tspan
                 x="0 8.5540867 17.108173 25.66226 33.446346 38.108433 45.892521 53.676605 61.460693 69.244781 77.02887"
                 y="56"
                 id="tspan48"
                 style="font-size:14px;font-variant:normal;font-weight:bold;writing-mode:lr-tb;fill:#000000;fill-opacity:1;fill-rule:nonzero;stroke:none;font-family:Helvetica CY;-inkscape-font-specification:Helvetica-Bold">update_year</tspan><tspan
                 x="0 5.4461169 13.230233 21.014351 24.906467 32.690582 36.582703 45.136818"
                 y="70"
                 id="tspan50"
                 style="font-size:14px;font-variant:normal;font-weight:bold;writing-mode:lr-tb;fill:#000000;fill-opacity:1;fill-rule:nonzero;stroke:none;font-family:Helvetica CY;-inkscape-font-specification:Helvetica-Bold">revision</tspan></text>
</g></g></g><path
         d="m 2150,4580 1860,0 0,1230 -1860,0 0,-1230 z"
         inkscape:connector-curvature="0"
         id="path52"
         style="fill:none;stroke:#000000;stroke-width:10;stroke-linecap:butt;stroke-linejoin:round;stroke-miterlimit:10;stroke-opacity:1;stroke-dasharray:none" /><path
         d="m 2472.12,5466.06 c 0,19.91 -16.15,36.06 -36.06,36.06 -19.91,0 -36.06,-16.15 -36.06,-36.06 0,-19.91 16.15,-36.06 36.06,-36.06 19.91,0 36.06,16.15 36.06,36.06"
         inkscape:connector-curvature="0"
         id="path54"
         style="fill:#000000;fill-opacity:1;fill-rule:nonzero;stroke:none" /><path
         d="m 3170,5460 220,55 0,-110"
         inkscape:connector-curvature="0"
         id="path56"
         style="fill:#000000;fill-opacity:1;fill-rule:nonzero;stroke:none" /><path
         d="m 3160,6190 1120,0 0,-730 -920,0"
         inkscape:connector-curvature="0"
         id="path58"
         style="fill:none;stroke:#000000;stroke-width:10;stroke-linecap:butt;stroke-linejoin:round;stroke-miterlimit:10;stroke-opacity:1;stroke-dasharray:none" /><path
         d="m 2180,1760 1655,0 0,1080 -1655,0 0,-1080 z"
         inkscape:connector-curvature="0"
         id="path60"
         style="fill:none;stroke:#000000;stroke-width:10;stroke-linecap:butt;stroke-linejoin:round;stroke-miterlimit:10;stroke-opacity:1;stroke-dasharray:none" /><path
         d="m 2725,2445 c 0,30.38 -17.91,55 -40,55 -22.09,0 -40,-24.62 -40,-55 0,-30.37 17.91,-55 40,-55 22.09,0 40,24.63 40,55"
         inkscape:connector-curvature="0"
         id="path62"
         style="fill:#000000;fill-opacity:1;fill-rule:nonzero;stroke:none" /><g
         id="g64"><g
           clip-path="url(#clipPath68)"
           id="g66"><g
             transform="scale(10,10)"
             id="g72"><text
               transform="matrix(1,0,0,-1,228.5,264.319)"
               id="text74"><tspan
                 x="0 16.002211 26.010424 32.004635 43.002846 54.001057 64.999268 75.007484 80.011696 85.015907 95.024117"
                 y="0"
                 id="tspan76"
                 style="font-size:18px;font-variant:normal;font-weight:bold;writing-mode:lr-tb;fill:#000000;fill-opacity:1;fill-rule:nonzero;stroke:none;font-family:Helvetica CY;-inkscape-font-specification:Helvetica-Bold">method_list</tspan></text>
</g></g></g><g
         id="g78"><g
           clip-path="url(#clipPath82)"
           id="g80"><g
             transform="scale(10,10)"
             id="g86"><text
               transform="matrix(1,0,0,-1,278,239.502)"
               id="text88"><tspan
                 x="0 3.8921483"
                 y="0"
                 id="tspan90"
                 style="font-size:14px;font-variant:normal;font-weight:bold;writing-mode:lr-tb;fill:#000000;fill-opacity:1;fill-rule:nonzero;stroke:none;font-family:Helvetica CY;-inkscape-font-specification:Helvetica-Bold">id</tspan><tspan
                 x="0 3.8921354 12.446271 16.338406 20.230541 28.784678"
                 y="14"
                 id="tspan92"
                 style="font-size:14px;font-variant:normal;font-weight:bold;writing-mode:lr-tb;fill:#000000;fill-opacity:1;fill-rule:nonzero;stroke:none;font-family:Helvetica CY;-inkscape-font-specification:Helvetica-Bold">inline</tspan><tspan
                 x="0 7.7840543 16.338108 24.892162"
                 y="28"
                 id="tspan94"
                 style="font-size:14px;font-variant:normal;font-weight:bold;writing-mode:lr-tb;fill:#000000;fill-opacity:1;fill-rule:nonzero;stroke:none;font-family:Helvetica CY;-inkscape-font-specification:Helvetica-Bold">code</tspan><tspan
                 x="0 3.8920782 11.676156 20.230234 28.784313 37.33839 45.122471 53.676548"
                 y="42"
                 id="tspan96"
                 style="font-size:14px;font-variant:normal;font-weight:bold;writing-mode:lr-tb;fill:#000000;fill-opacity:1;fill-rule:nonzero;stroke:none;font-family:Helvetica CY;-inkscape-font-specification:Helvetica-Bold">language</tspan><tspan
                 x="0 8.5541353 16.33827 21.000406 28.784542 32.676678"
                 y="56"
                 id="tspan98"
                 style="font-size:14px;font-variant:normal;font-weight:bold;writing-mode:lr-tb;fill:#000000;fill-opacity:1;fill-rule:nonzero;stroke:none;font-family:Helvetica CY;-inkscape-font-specification:Helvetica-Bold">detail</tspan></text>
</g></g></g><path
         d="m 2259.42,4106.64 -225.68,22.2 36.99,103.59"
         inkscape:connector-curvature="0"
         id="path100"
         style="fill:#000000;fill-opacity:1;fill-rule:nonzero;stroke:none" /><path
         d="m 2280,6060 -310,0 0,-1850 110.49,-39.46"
         inkscape:connector-curvature="0"
         id="path102"
         style="fill:none;stroke:#000000;stroke-width:10;stroke-linecap:butt;stroke-linejoin:round;stroke-miterlimit:10;stroke-opacity:1;stroke-dasharray:none" /><path
         d="M 2249.23,4053.85 2067.31,3918.46 2025,4020"
         inkscape:connector-curvature="0"
         id="path104"
         style="fill:#000000;fill-opacity:1;fill-rule:nonzero;stroke:none" /><path
         d="m 2300,3260 -300,0 0,690 73.85,30.77"
         inkscape:connector-curvature="0"
         id="path106"
         style="fill:none;stroke:#000000;stroke-width:10;stroke-linecap:butt;stroke-linejoin:round;stroke-miterlimit:10;stroke-opacity:1;stroke-dasharray:none" /><path
         d="m 2600,2460 -220,-55 0,110"
         inkscape:connector-curvature="0"
         id="path108"
         style="fill:#000000;fill-opacity:1;fill-rule:nonzero;stroke:none" /><path
         d="m 2330,3110 -330,0 0,-650 410,0"
         inkscape:connector-curvature="0"
         id="path110"
         style="fill:none;stroke:#000000;stroke-width:10;stroke-linecap:butt;stroke-linejoin:round;stroke-miterlimit:10;stroke-opacity:1;stroke-dasharray:none" /><g
         id="g112"><g
           clip-path="url(#clipPath116)"
           id="g114"><g
             transform="scale(10,10)"
             id="g120"><text
               transform="matrix(1,0,0,-1,223,421.444)"
               id="text122"><tspan
                 x="0 10.998237 21.006474 27.00071 37.008945 48.007183 53.011417 64.009659 74.017891"
                 y="0"
                 id="tspan124"
                 style="font-size:18px;font-variant:normal;font-weight:bold;writing-mode:lr-tb;fill:#000000;fill-opacity:1;fill-rule:nonzero;stroke:none;font-family:Helvetica CY;-inkscape-font-specification:Helvetica-Bold">datablock</tspan></text>
</g></g></g><g
         id="g126"><g
           clip-path="url(#clipPath130)"
           id="g128"><g
             transform="scale(10,10)"
             id="g134"><text
               transform="matrix(1,0,0,-1,242,401.002)"
               id="text136"><tspan
                 x="0 3.8921483"
                 y="0"
                 id="tspan138"
                 style="font-size:14px;font-variant:normal;font-weight:bold;writing-mode:lr-tb;fill:#000000;fill-opacity:1;fill-rule:nonzero;stroke:none;font-family:Helvetica CY;-inkscape-font-specification:Helvetica-Bold">id</tspan><tspan
                 x="0 8.5541277 16.338255 24.122383 31.906511 37.352638 41.244766 49.798893 54.461021 58.353149 66.90728"
                 y="14"
                 id="tspan140"
                 style="font-size:14px;font-variant:normal;font-weight:bold;writing-mode:lr-tb;fill:#000000;fill-opacity:1;fill-rule:nonzero;stroke:none;font-family:Helvetica CY;-inkscape-font-specification:Helvetica-Bold">description</tspan></text>
</g></g></g><path
         d="m 2362.12,4076.06 c 0,19.91 -16.15,36.06 -36.06,36.06 -19.91,0 -36.06,-16.15 -36.06,-36.06 0,-19.91 16.15,-36.06 36.06,-36.06 19.91,0 36.06,16.15 36.06,36.06"
         inkscape:connector-curvature="0"
         id="path142"
         style="fill:#000000;fill-opacity:1;fill-rule:nonzero;stroke:none" /><path
         d="m 2145,3735 1845,0 0,720 -1845,0 0,-720 z"
         inkscape:connector-curvature="0"
         id="path144"
         style="fill:none;stroke:#000000;stroke-width:10;stroke-linecap:butt;stroke-linejoin:round;stroke-miterlimit:10;stroke-opacity:1;stroke-dasharray:none" /><g
         id="g146"><g
           clip-path="url(#clipPath150)"
           id="g148"><g
             transform="scale(10,10)"
             id="g154"><text
               transform="matrix(1,0,0,-1,221,338.819)"
               id="text156"><tspan
                 x="0 10.998236 21.006472 27.000708 37.008945 48.007179 53.011417 64.009651 74.017891 84.026123 94.034363 110.0366 120.04483 126.03907 137.03731 148.03554 159.03378"
                 y="0"
                 id="tspan158"
                 style="font-size:18px;font-variant:normal;font-weight:bold;writing-mode:lr-tb;fill:#000000;fill-opacity:1;fill-rule:nonzero;stroke:none;font-family:Helvetica CY;-inkscape-font-specification:Helvetica-Bold">datablock_methods</tspan></text>
</g></g></g><g
         id="g160"><g
           clip-path="url(#clipPath164)"
           id="g162"><g
             transform="scale(10,10)"
             id="g168"><text
               transform="matrix(1,0,0,-1,250,320.002)"
               id="text170"><tspan
                 x="0 8.5540886 16.338177 21.000265 28.784355 36.568443 45.122532 49.014622 57.56871 65.352798 73.136887 80.920975 84.813065"
                 y="0"
                 id="tspan172"
                 style="font-size:14px;font-variant:normal;font-weight:bold;writing-mode:lr-tb;fill:#000000;fill-opacity:1;fill-rule:nonzero;stroke:none;font-family:Helvetica CY;-inkscape-font-specification:Helvetica-Bold">data_block_id</tspan><tspan
                 x="0 12.446132 20.230263 24.892395 33.446526 42.000656 50.554787 58.338921 62.231052"
                 y="14"
                 id="tspan174"
                 style="font-size:14px;font-variant:normal;font-weight:bold;writing-mode:lr-tb;fill:#000000;fill-opacity:1;fill-rule:nonzero;stroke:none;font-family:Helvetica CY;-inkscape-font-specification:Helvetica-Bold">method_id</tspan></text>
</g></g></g><path
         d="m 2460,3245 c 0,24.85 -20.15,45 -45,45 -24.85,0 -45,-20.15 -45,-45 0,-24.85 20.15,-45 45,-45 24.85,0 45,20.15 45,45"
         inkscape:connector-curvature="0"
         id="path176"
         style="fill:#000000;fill-opacity:1;fill-rule:nonzero;stroke:none" /><path
         d="m 2470,3095 c 0,24.85 -20.15,45 -45,45 -24.85,0 -45,-20.15 -45,-45 0,-24.85 20.15,-45 45,-45 24.85,0 45,20.15 45,45"
         inkscape:connector-curvature="0"
         id="path178"
         style="fill:#000000;fill-opacity:1;fill-rule:nonzero;stroke:none" /><path
         d="m 2150,2970 1920,0 0,620 -1920,0 0,-620 z"
         inkscape:connector-curvature="0"
         id="path180"
         style="fill:none;stroke:#000000;stroke-width:10;stroke-linecap:butt;stroke-linejoin:round;stroke-miterlimit:10;stroke-opacity:1;stroke-dasharray:none" /><g
         id="g182"><g
           clip-path="url(#clipPath186)"
           id="g184"><g
             transform="scale(10,10)"
             id="g190"><text
               transform="matrix(1,0,0,-1,225,651.819)"
               id="text192"><tspan
                 x="0 10.998208 16.002417 26.010624 32.004833 37.009041 48.007248 59.005459 69.013664 76.015877"
                 y="0"
                 id="tspan194"
                 style="font-size:18px;font-variant:normal;font-weight:bold;writing-mode:lr-tb;fill:#000000;fill-opacity:1;fill-rule:nonzero;stroke:none;font-family:Helvetica CY;-inkscape-font-specification:Helvetica-Bold">dictionary</tspan></text>
</g></g></g><g
         id="g196"><g
           clip-path="url(#clipPath200)"
           id="g198"><g
             transform="scale(10,10)"
             id="g204"><text
               transform="matrix(1,0,0,-1,251,627.002)"
               id="text206"><tspan
                 x="0 4.6621966 8.5543938 13.216591 17.108788"
                 y="0"
                 id="tspan208"
                 style="font-size:14px;font-variant:normal;font-weight:bold;writing-mode:lr-tb;fill:#000000;fill-opacity:1;fill-rule:nonzero;stroke:none;font-family:Helvetica CY;-inkscape-font-specification:Helvetica-Bold">title</tspan><tspan
                 x="0 7.7841053 15.568211 21.014315 28.79842 32.690525 41.244633"
                 y="14"
                 id="tspan210"
                 style="font-size:14px;font-variant:normal;font-weight:bold;writing-mode:lr-tb;fill:#000000;fill-opacity:1;fill-rule:nonzero;stroke:none;font-family:Helvetica CY;-inkscape-font-specification:Helvetica-Bold">version</tspan><tspan
                 x="0 8.5540953 16.33819 21.000286 28.784382 37.338478 41.230572 49.784668 57.568764 65.352859 73.136955 77.029053"
                 y="28"
                 id="tspan212"
                 style="font-size:14px;font-variant:normal;font-weight:bold;writing-mode:lr-tb;fill:#000000;fill-opacity:1;fill-rule:nonzero;stroke:none;font-family:Helvetica CY;-inkscape-font-specification:Helvetica-Bold">datablock_id</tspan></text>
</g></g></g><path
         d="m 2150,5890 1850,0 0,860 -1850,0 0,-860 z"
         inkscape:connector-curvature="0"
         id="path214"
         style="fill:none;stroke:#000000;stroke-width:10;stroke-linecap:butt;stroke-linejoin:round;stroke-miterlimit:10;stroke-opacity:1;stroke-dasharray:none" /><path
         d="m 2452.12,6056.06 c 0,19.91 -16.15,36.06 -36.06,36.06 -19.91,0 -36.06,-16.15 -36.06,-36.06 0,-19.91 16.15,-36.06 36.06,-36.06 19.91,0 36.06,16.15 36.06,36.06"
         inkscape:connector-curvature="0"
         id="path216"
         style="fill:#000000;fill-opacity:1;fill-rule:nonzero;stroke:none" /></g></g></svg>