<?xml version="1.0" encoding="UTF-8" standalone="no"?>
<!-- Created with Inkscape (http://www.inkscape.org/) -->

<svg
   xmlns:dc="http://purl.org/dc/elements/1.1/"
   xmlns:cc="http://creativecommons.org/ns#"
   xmlns:rdf="http://www.w3.org/1999/02/22-rdf-syntax-ns#"
   xmlns:svg="http://www.w3.org/2000/svg"
   xmlns="http://www.w3.org/2000/svg"
   xmlns:inkscape="http://www.inkscape.org/namespaces/inkscape"
   version="1.1"
   width="765"
   height="990"
   id="svg2"
   xml:space="preserve"><metadata
     id="metadata8"><rdf:RDF><cc:Work
         rdf:about=""><dc:format>image/svg+xml</dc:format><dc:type
           rdf:resource="http://purl.org/dc/dcmitype/StillImage" /></cc:Work></rdf:RDF></metadata><defs
     id="defs6"><clipPath
       id="clipPath18"><path
         d="m 780,3224.06 1310.28,0 0,239.133 -1310.28,0 0,-239.133 z"
         inkscape:connector-curvature="0"
         id="path20" /></clipPath><clipPath
       id="clipPath32"><path
         d="m 1005,2780.31 892.301,0 0,464.711 -892.301,0 0,-464.711 z"
         inkscape:connector-curvature="0"
         id="path34" /></clipPath><clipPath
       id="clipPath54"><path
         d="m 3570,1330.31 674.602,0 0,744.711 -674.602,0 0,-744.711 z"
         inkscape:connector-curvature="0"
         id="path56" /></clipPath><clipPath
       id="clipPath80"><path
         d="m 1095,1640.31 760.141,0 0,464.711 -760.141,0 0,-464.711 z"
         inkscape:connector-curvature="0"
         id="path82" /></clipPath><clipPath
       id="clipPath114"><path
         d="m 3260,2099.06 1070.16,0 0,239.133 -1070.16,0 0,-239.133 z"
         inkscape:connector-curvature="0"
         id="path116" /></clipPath><clipPath
       id="clipPath128"><path
         d="m 3335,3229.06 1280.22,0 0,239.133 -1280.22,0 0,-239.133 z"
         inkscape:connector-curvature="0"
         id="path130" /></clipPath><clipPath
       id="clipPath142"><path
         d="m 3560,2925.31 767.84,0 0,324.711 -767.84,0 0,-324.711 z"
         inkscape:connector-curvature="0"
         id="path144" /></clipPath><clipPath
       id="clipPath168"><path
         d="m 760,2109.06 1670.46,0 0,239.133 -1670.46,0 0,-239.133 z"
         inkscape:connector-curvature="0"
         id="path170" /></clipPath><clipPath
       id="clipPath186"><path
         d="m 3380,4864.06 900.238,0 0,239.133 -900.238,0 0,-239.133 z"
         inkscape:connector-curvature="0"
         id="path188" /></clipPath><clipPath
       id="clipPath200"><path
         d="m 3560,4560.31 425.68,0 0,324.711 -425.68,0 0,-324.711 z"
         inkscape:connector-curvature="0"
         id="path202" /></clipPath><clipPath
       id="clipPath224"><path
         d="m 3380,5854.06 1260.42,0 0,239.133 -1260.42,0 0,-239.133 z"
         inkscape:connector-curvature="0"
         id="path226" /></clipPath><clipPath
       id="clipPath238"><path
         d="m 3560,5270.31 1048.12,0 0,604.711 -1048.12,0 0,-604.711 z"
         inkscape:connector-curvature="0"
         id="path240" /></clipPath><clipPath
       id="clipPath262"><path
         d="m 3300,4104.06 1020.3,0 0,239.133 -1020.3,0 0,-239.133 z"
         inkscape:connector-curvature="0"
         id="path264" /></clipPath><clipPath
       id="clipPath276"><path
         d="m 3570,3660.31 713.52,0 0,464.711 -713.52,0 0,-464.711 z"
         inkscape:connector-curvature="0"
         id="path278" /></clipPath><clipPath
       id="clipPath310"><path
         d="m 1140,6059.06 960.18,0 0,239.133 -960.18,0 0,-239.133 z"
         inkscape:connector-curvature="0"
         id="path312" /></clipPath><clipPath
       id="clipPath324"><path
         d="m 1095,6689.06 1320.36,0 0,239.133 -1320.36,0 0,-239.133 z"
         inkscape:connector-curvature="0"
         id="path326" /></clipPath><clipPath
       id="clipPath338"><path
         d="m 3345,6824.06 2020.56,0 0,239.133 -2020.56,0 0,-239.133 z"
         inkscape:connector-curvature="0"
         id="path340" /></clipPath><clipPath
       id="clipPath352"><path
         d="m 1410,5755.31 425.68,0 0,324.711 -425.68,0 0,-324.711 z"
         inkscape:connector-curvature="0"
         id="path354" /></clipPath><clipPath
       id="clipPath370"><path
         d="m 1120,5349.06 1050.36,0 0,239.133 -1050.36,0 0,-239.133 z"
         inkscape:connector-curvature="0"
         id="path372" /></clipPath><clipPath
       id="clipPath384"><path
         d="m 1380,4995.31 931.359,0 0,324.711 -931.359,0 0,-324.711 z"
         inkscape:connector-curvature="0"
         id="path386" /></clipPath><clipPath
       id="clipPath406"><path
         d="m 1410,6385.31 425.68,0 0,324.711 -425.68,0 0,-324.711 z"
         inkscape:connector-curvature="0"
         id="path408" /></clipPath><clipPath
       id="clipPath426"><path
         d="m 3570,6240.31 775.68,0 0,604.711 -775.68,0 0,-604.711 z"
         inkscape:connector-curvature="0"
         id="path428" /></clipPath><clipPath
       id="clipPath464"><path
         d="m 1050,4444.06 430.078,0 0,239.133 -430.078,0 0,-239.133 z"
         inkscape:connector-curvature="0"
         id="path466" /></clipPath><clipPath
       id="clipPath478"><path
         d="m 1275,4000.31 1180.28,0 0,464.711 -1180.28,0 0,-464.711 z"
         inkscape:connector-curvature="0"
         id="path480" /></clipPath></defs><g
     transform="matrix(1.25,0,0,-1.25,0,990)"
     id="g10"><g
       transform="scale(0.1,0.1)"
       id="g12"><g
         id="g14"><g
           clip-path="url(#clipPath18)"
           id="g16"><g
             transform="scale(10,10)"
             id="g22"><text
               transform="matrix(1,0,0,-1,80,328.319)"
               id="text24"><tspan
                 x="0 5.0041862 10.998373 21.006559 37.008747 47.016933 57.02512 63.019306 70.021492 81.019676 91.027863 97.022049 108.02023 115.02242"
                 y="0"
                 id="tspan26"
                 style="font-size:18px;font-variant:normal;font-weight:bold;writing-mode:lr-tb;fill:#000000;fill-opacity:1;fill-rule:nonzero;stroke:none;font-family:Helvetica CY;-inkscape-font-specification:Helvetica-Bold">item_structure</tspan></text>
</g></g></g><g
         id="g28"><g
           clip-path="url(#clipPath32)"
           id="g30"><g
             transform="scale(10,10)"
             id="g36"><text
               transform="matrix(1,0,0,-1,102.5,310.502)"
               id="text38"><tspan
                 x="0 8.5541058 16.338211 28.784317"
                 y="0"
                 id="tspan40"
                 style="font-size:14px;font-variant:normal;font-weight:bold;writing-mode:lr-tb;fill:#000000;fill-opacity:1;fill-rule:nonzero;stroke:none;font-family:Helvetica CY;-inkscape-font-specification:Helvetica-Bold">name</tspan><tspan
                 x="0 7.7840543 16.338108 24.892162"
                 y="14"
                 id="tspan42"
                 style="font-size:14px;font-variant:normal;font-weight:bold;writing-mode:lr-tb;fill:#000000;fill-opacity:1;fill-rule:nonzero;stroke:none;font-family:Helvetica CY;-inkscape-font-specification:Helvetica-Bold">code</tspan><tspan
                 x="0 8.5541239 14.000248 22.554373 30.338495 38.89262 42.784744 49.784866 57.568993 62.231117 66.123238 74.677361"
                 y="28"
                 id="tspan44"
                 style="font-size:14px;font-variant:normal;font-weight:bold;writing-mode:lr-tb;fill:#000000;fill-opacity:1;fill-rule:nonzero;stroke:none;font-family:Helvetica CY;-inkscape-font-specification:Helvetica-Bold">organization</tspan></text>
</g></g></g><path
         d="m 630,2520 2115,0 0,945 -2115,0 0,-945 z"
         inkscape:connector-curvature="0"
         id="path46"
         style="fill:none;stroke:#000000;stroke-width:10;stroke-linecap:butt;stroke-linejoin:round;stroke-miterlimit:10;stroke-opacity:1;stroke-dasharray:none" /><path
         d="m 990,3150 c 0,24.85 -20.148,45 -45,45 -24.852,0 -45,-20.15 -45,-45 0,-24.85 20.148,-45 45,-45 24.852,0 45,20.15 45,45"
         inkscape:connector-curvature="0"
         id="path48"
         style="fill:#000000;fill-opacity:1;fill-rule:nonzero;stroke:none" /><g
         id="g50"><g
           clip-path="url(#clipPath54)"
           id="g52"><g
             transform="scale(10,10)"
             id="g58"><text
               transform="matrix(1,0,0,-1,359,193.502)"
               id="text60"><tspan
                 x="0 3.8921483"
                 y="0"
                 id="tspan62"
                 style="font-size:14px;font-variant:normal;font-weight:bold;writing-mode:lr-tb;fill:#000000;fill-opacity:1;fill-rule:nonzero;stroke:none;font-family:Helvetica CY;-inkscape-font-specification:Helvetica-Bold">id</tspan><tspan
                 x="0 3.8921354 12.446271 16.338406 20.230541 28.784678"
                 y="14"
                 id="tspan64"
                 style="font-size:14px;font-variant:normal;font-weight:bold;writing-mode:lr-tb;fill:#000000;fill-opacity:1;fill-rule:nonzero;stroke:none;font-family:Helvetica CY;-inkscape-font-specification:Helvetica-Bold">inline</tspan><tspan
                 x="0 7.7840543 16.338108 24.892162"
                 y="28"
                 id="tspan66"
                 style="font-size:14px;font-variant:normal;font-weight:bold;writing-mode:lr-tb;fill:#000000;fill-opacity:1;fill-rule:nonzero;stroke:none;font-family:Helvetica CY;-inkscape-font-specification:Helvetica-Bold">code</tspan><tspan
                 x="0 3.8920782 11.676156 20.230234 28.784313 37.33839 45.122471 53.676548"
                 y="42"
                 id="tspan68"
                 style="font-size:14px;font-variant:normal;font-weight:bold;writing-mode:lr-tb;fill:#000000;fill-opacity:1;fill-rule:nonzero;stroke:none;font-family:Helvetica CY;-inkscape-font-specification:Helvetica-Bold">language</tspan><tspan
                 x="0 8.5541353 16.33827 21.000406 28.784542 32.676678"
                 y="56"
                 id="tspan70"
                 style="font-size:14px;font-variant:normal;font-weight:bold;writing-mode:lr-tb;fill:#000000;fill-opacity:1;fill-rule:nonzero;stroke:none;font-family:Helvetica CY;-inkscape-font-specification:Helvetica-Bold">detail</tspan></text>
</g></g></g><path
         d="m 3230,1200 1595,0 0,1130 -1595,0 0,-1130 z"
         inkscape:connector-curvature="0"
         id="path72"
         style="fill:none;stroke:#000000;stroke-width:10;stroke-linecap:butt;stroke-linejoin:round;stroke-miterlimit:10;stroke-opacity:1;stroke-dasharray:none" /><path
         d="m 3555,2025 c 0,24.85 -20.15,45 -45,45 -24.85,0 -45,-20.15 -45,-45 0,-24.85 20.15,-45 45,-45 24.85,0 45,20.15 45,45"
         inkscape:connector-curvature="0"
         id="path74"
         style="fill:#000000;fill-opacity:1;fill-rule:nonzero;stroke:none" /><g
         id="g76"><g
           clip-path="url(#clipPath80)"
           id="g78"><g
             transform="scale(10,10)"
             id="g84"><text
               transform="matrix(1,0,0,-1,111.5,196.502)"
               id="text86"><tspan
                 x="0 7.7840543 16.338108 24.892162"
                 y="0"
                 id="tspan88"
                 style="font-size:14px;font-variant:normal;font-weight:bold;writing-mode:lr-tb;fill:#000000;fill-opacity:1;fill-rule:nonzero;stroke:none;font-family:Helvetica CY;-inkscape-font-specification:Helvetica-Bold">code</tspan><tspan
                 x="0 3.8921044 7.7842088 16.338312 24.892418 32.676521"
                 y="14"
                 id="tspan90"
                 style="font-size:14px;font-variant:normal;font-weight:bold;writing-mode:lr-tb;fill:#000000;fill-opacity:1;fill-rule:nonzero;stroke:none;font-family:Helvetica CY;-inkscape-font-specification:Helvetica-Bold"> index</tspan><tspan
                 x="0 8.5541229 12.446246 24.892368 32.676491 41.230614 49.014736 52.90686 61.460983"
                 y="28"
                 id="tspan92"
                 style="font-size:14px;font-variant:normal;font-weight:bold;writing-mode:lr-tb;fill:#000000;fill-opacity:1;fill-rule:nonzero;stroke:none;font-family:Helvetica CY;-inkscape-font-specification:Helvetica-Bold">dimension</tspan></text>
</g></g></g><path
         d="m 1080,2025 c 0,24.85 -20.15,45 -45,45 -24.85,0 -45,-20.15 -45,-45 0,-24.85 20.15,-45 45,-45 24.85,0 45,20.15 45,45"
         inkscape:connector-curvature="0"
         id="path94"
         style="fill:#000000;fill-opacity:1;fill-rule:nonzero;stroke:none" /><path
         d="m 710,1540 2285,0 0,810 -2285,0 0,-810 z"
         inkscape:connector-curvature="0"
         id="path96"
         style="fill:none;stroke:#000000;stroke-width:10;stroke-linecap:butt;stroke-linejoin:round;stroke-miterlimit:10;stroke-opacity:1;stroke-dasharray:none" /><path
         d="m 3840,1980 220,55 0,-110"
         inkscape:connector-curvature="0"
         id="path98"
         style="fill:#000000;fill-opacity:1;fill-rule:nonzero;stroke:none" /><path
         d="m 4454.91,2990 555.09,0 0,-1010 -980,0"
         inkscape:connector-curvature="0"
         id="path100"
         style="fill:none;stroke:#000000;stroke-width:10;stroke-linecap:butt;stroke-linejoin:round;stroke-miterlimit:10;stroke-opacity:1;stroke-dasharray:none" /><path
         d="m 890,2020 -220,-55 0,110"
         inkscape:connector-curvature="0"
         id="path102"
         style="fill:#000000;fill-opacity:1;fill-rule:nonzero;stroke:none" /><path
         d="m 930,3000 -530,0 0,-980 300,0"
         inkscape:connector-curvature="0"
         id="path104"
         style="fill:none;stroke:#000000;stroke-width:10;stroke-linecap:butt;stroke-linejoin:round;stroke-miterlimit:10;stroke-opacity:1;stroke-dasharray:none" /><path
         d="m 1530,3150 1350,0 0,1690 540,0"
         inkscape:connector-curvature="0"
         id="path106"
         style="fill:none;stroke:#000000;stroke-width:10;stroke-linecap:butt;stroke-linejoin:round;stroke-miterlimit:10;stroke-opacity:1;stroke-dasharray:none" /><path
         d="m 1080,1890 c 0,24.85 -20.15,45 -45,45 -24.85,0 -45,-20.15 -45,-45 0,-24.85 20.15,-45 45,-45 24.85,0 45,20.15 45,45"
         inkscape:connector-curvature="0"
         id="path108"
         style="fill:#000000;fill-opacity:1;fill-rule:nonzero;stroke:none" /><g
         id="g110"><g
           clip-path="url(#clipPath114)"
           id="g112"><g
             transform="scale(10,10)"
             id="g118"><text
               transform="matrix(1,0,0,-1,328,215.819)"
               id="text120"><tspan
                 x="0 16.002211 26.010424 32.004635 43.002846 54.001057 64.999268 75.007484 80.011696 85.015907 95.024117"
                 y="0"
                 id="tspan122"
                 style="font-size:18px;font-variant:normal;font-weight:bold;writing-mode:lr-tb;fill:#000000;fill-opacity:1;fill-rule:nonzero;stroke:none;font-family:Helvetica CY;-inkscape-font-specification:Helvetica-Bold">method_list</tspan></text>
</g></g></g><g
         id="g124"><g
           clip-path="url(#clipPath128)"
           id="g126"><g
             transform="scale(10,10)"
             id="g132"><text
               transform="matrix(1,0,0,-1,335.5,328.819)"
               id="text134"><tspan
                 x="0 5.0042062 10.998412 21.006618 37.008823 47.017029 63.019238 73.027443 79.021645 90.019852 101.01806 112.01627"
                 y="0"
                 id="tspan136"
                 style="font-size:18px;font-variant:normal;font-weight:bold;writing-mode:lr-tb;fill:#000000;fill-opacity:1;fill-rule:nonzero;stroke:none;font-family:Helvetica CY;-inkscape-font-specification:Helvetica-Bold">item_methods</tspan></text>
</g></g></g><g
         id="g138"><g
           clip-path="url(#clipPath142)"
           id="g140"><g
             transform="scale(10,10)"
             id="g146"><text
               transform="matrix(1,0,0,-1,358,311.002)"
               id="text148"><tspan
                 x="0 8.5541058 16.338211 28.784317"
                 y="0"
                 id="tspan150"
                 style="font-size:14px;font-variant:normal;font-weight:bold;writing-mode:lr-tb;fill:#000000;fill-opacity:1;fill-rule:nonzero;stroke:none;font-family:Helvetica CY;-inkscape-font-specification:Helvetica-Bold">name</tspan><tspan
                 x="0 12.446132 20.230263 24.892395 33.446526 42.000656 50.554787 58.338921 62.231052"
                 y="14"
                 id="tspan152"
                 style="font-size:14px;font-variant:normal;font-weight:bold;writing-mode:lr-tb;fill:#000000;fill-opacity:1;fill-rule:nonzero;stroke:none;font-family:Helvetica CY;-inkscape-font-specification:Helvetica-Bold">method_id</tspan></text>
</g></g></g><path
         d="m 3230,2775 1500,0 0,695 -1500,0 0,-695 z"
         inkscape:connector-curvature="0"
         id="path154"
         style="fill:none;stroke:#000000;stroke-width:10;stroke-linecap:butt;stroke-linejoin:round;stroke-miterlimit:10;stroke-opacity:1;stroke-dasharray:none" /><path
         d="m 3545,3155 c 0,24.85 -20.15,45 -45,45 -24.85,0 -45,-20.15 -45,-45 0,-24.85 20.15,-45 45,-45 24.85,0 45,20.15 45,45"
         inkscape:connector-curvature="0"
         id="path156"
         style="fill:#000000;fill-opacity:1;fill-rule:nonzero;stroke:none" /><path
         d="m 3545,3020 c 0,24.85 -20.15,45 -45,45 -24.85,0 -45,-20.15 -45,-45 0,-24.85 20.15,-45 45,-45 24.85,0 45,20.15 45,45"
         inkscape:connector-curvature="0"
         id="path158"
         style="fill:#000000;fill-opacity:1;fill-rule:nonzero;stroke:none" /><path
         d="m 2880,3150 480,0"
         inkscape:connector-curvature="0"
         id="path160"
         style="fill:none;stroke:#000000;stroke-width:10;stroke-linecap:butt;stroke-linejoin:round;stroke-miterlimit:10;stroke-opacity:1;stroke-dasharray:none" /><path
         d="m 2880,4060 510,0"
         inkscape:connector-curvature="0"
         id="path162"
         style="fill:none;stroke:#000000;stroke-width:10;stroke-linecap:butt;stroke-linejoin:round;stroke-miterlimit:10;stroke-opacity:1;stroke-dasharray:none" /><g
         id="g164"><g
           clip-path="url(#clipPath168)"
           id="g166"><g
             transform="scale(10,10)"
             id="g172"><text
               transform="matrix(1,0,0,-1,78,216.819)"
               id="text174"><tspan
                 x="0 5.0041809 10.998362 21.006542 37.008724 47.016903 57.025085 63.019264 70.021446 81.019623 91.027809 97.021988 108.02017 115.02235 125.03053 135.03871 140.04289 145.04707 155.05525"
                 y="0"
                 id="tspan176"
                 style="font-size:18px;font-variant:normal;font-weight:bold;writing-mode:lr-tb;fill:#000000;fill-opacity:1;fill-rule:nonzero;stroke:none;font-family:Helvetica CY;-inkscape-font-specification:Helvetica-Bold">item_structure_list</tspan></text>
</g></g></g><path
         d="m 1780,4380 220,55 0,-110"
         inkscape:connector-curvature="0"
         id="path178"
         style="fill:#000000;fill-opacity:1;fill-rule:nonzero;stroke:none" /><path
         d="m 2870,4380 -900,0"
         inkscape:connector-curvature="0"
         id="path180"
         style="fill:none;stroke:#000000;stroke-width:10;stroke-linecap:butt;stroke-linejoin:round;stroke-miterlimit:10;stroke-opacity:1;stroke-dasharray:none" /><g
         id="g182"><g
           clip-path="url(#clipPath186)"
           id="g184"><g
             transform="scale(10,10)"
             id="g190"><text
               transform="matrix(1,0,0,-1,340,492.319)"
               id="text192"><tspan
                 x="0 5.0041933 10.998386 21.00658 37.008774 47.016968 53.011158 63.019352 74.017548"
                 y="0"
                 id="tspan194"
                 style="font-size:18px;font-variant:normal;font-weight:bold;writing-mode:lr-tb;fill:#000000;fill-opacity:1;fill-rule:nonzero;stroke:none;font-family:Helvetica CY;-inkscape-font-specification:Helvetica-Bold">item_type</tspan></text>
</g></g></g><g
         id="g196"><g
           clip-path="url(#clipPath200)"
           id="g198"><g
             transform="scale(10,10)"
             id="g204"><text
               transform="matrix(1,0,0,-1,358,474.502)"
               id="text206"><tspan
                 x="0 8.5541058 16.338211 28.784317"
                 y="0"
                 id="tspan208"
                 style="font-size:14px;font-variant:normal;font-weight:bold;writing-mode:lr-tb;fill:#000000;fill-opacity:1;fill-rule:nonzero;stroke:none;font-family:Helvetica CY;-inkscape-font-specification:Helvetica-Bold">name</tspan><tspan
                 x="0 7.7840543 16.338108 24.892162"
                 y="14"
                 id="tspan210"
                 style="font-size:14px;font-variant:normal;font-weight:bold;writing-mode:lr-tb;fill:#000000;fill-opacity:1;fill-rule:nonzero;stroke:none;font-family:Helvetica CY;-inkscape-font-specification:Helvetica-Bold">code</tspan></text>
</g></g></g><path
         d="m 3230,4470 1620,0 0,680 -1620,0 0,-680 z"
         inkscape:connector-curvature="0"
         id="path212"
         style="fill:none;stroke:#000000;stroke-width:10;stroke-linecap:butt;stroke-linejoin:round;stroke-miterlimit:10;stroke-opacity:1;stroke-dasharray:none" /><path
         d="m 3545,4835 c 0,24.85 -20.15,45 -45,45 -24.85,0 -45,-20.15 -45,-45 0,-24.85 20.15,-45 45,-45 24.85,0 45,20.15 45,45"
         inkscape:connector-curvature="0"
         id="path214"
         style="fill:#000000;fill-opacity:1;fill-rule:nonzero;stroke:none" /><path
         d="m 3985,5775 220,55 0,-110"
         inkscape:connector-curvature="0"
         id="path216"
         style="fill:#000000;fill-opacity:1;fill-rule:nonzero;stroke:none" /><path
         d="m 4040,4635 675,0 0,1140 -540,0"
         inkscape:connector-curvature="0"
         id="path218"
         style="fill:none;stroke:#000000;stroke-width:10;stroke-linecap:butt;stroke-linejoin:round;stroke-miterlimit:10;stroke-opacity:1;stroke-dasharray:none" /><g
         id="g220"><g
           clip-path="url(#clipPath224)"
           id="g222"><g
             transform="scale(10,10)"
             id="g228"><text
               transform="matrix(1,0,0,-1,340,591.319)"
               id="text230"><tspan
                 x="0 5.0041819 10.998364 21.006546 37.008728 47.016911 53.011093 63.019276 74.017456 84.025635 94.033821 99.038002 104.04218 114.05037"
                 y="0"
                 id="tspan232"
                 style="font-size:18px;font-variant:normal;font-weight:bold;writing-mode:lr-tb;fill:#000000;fill-opacity:1;fill-rule:nonzero;stroke:none;font-family:Helvetica CY;-inkscape-font-specification:Helvetica-Bold">item_type_list</tspan></text>
</g></g></g><g
         id="g234"><g
           clip-path="url(#clipPath238)"
           id="g236"><g
             transform="scale(10,10)"
             id="g242"><text
               transform="matrix(1,0,0,-1,358,573.502)"
               id="text244"><tspan
                 x="0 7.7840543 16.338108 24.892162"
                 y="0"
                 id="tspan246"
                 style="font-size:14px;font-variant:normal;font-weight:bold;writing-mode:lr-tb;fill:#000000;fill-opacity:1;fill-rule:nonzero;stroke:none;font-family:Helvetica CY;-inkscape-font-specification:Helvetica-Bold">code</tspan><tspan
                 x="0 8.5541315 14.000262 17.892393 30.338526 34.230656 38.892788 42.78492 50.56905 58.353184 66.137314 73.921448 82.475578 91.029709"
                 y="14"
                 id="tspan248"
                 style="font-size:14px;font-variant:normal;font-weight:bold;writing-mode:lr-tb;fill:#000000;fill-opacity:1;fill-rule:nonzero;stroke:none;font-family:Helvetica CY;-inkscape-font-specification:Helvetica-Bold">primitive_code</tspan><tspan
                 x="0 7.784132 16.338264 24.892395 32.676529 37.338657 42.78479 51.338924 59.123055"
                 y="28"
                 id="tspan250"
                 style="font-size:14px;font-variant:normal;font-weight:bold;writing-mode:lr-tb;fill:#000000;fill-opacity:1;fill-rule:nonzero;stroke:none;font-family:Helvetica CY;-inkscape-font-specification:Helvetica-Bold">construct</tspan><tspan
                 x="0 8.5541353 16.33827 21.000406 28.784542 32.676678"
                 y="42"
                 id="tspan252"
                 style="font-size:14px;font-variant:normal;font-weight:bold;writing-mode:lr-tb;fill:#000000;fill-opacity:1;fill-rule:nonzero;stroke:none;font-family:Helvetica CY;-inkscape-font-specification:Helvetica-Bold">detail</tspan></text>
</g></g></g><path
         d="m 3230,5240 1640,0 0,855 -1640,0 0,-855 z"
         inkscape:connector-curvature="0"
         id="path254"
         style="fill:none;stroke:#000000;stroke-width:10;stroke-linecap:butt;stroke-linejoin:round;stroke-miterlimit:10;stroke-opacity:1;stroke-dasharray:none" /><path
         d="m 3545,5825 c 0,24.85 -20.15,45 -45,45 -24.85,0 -45,-20.15 -45,-45 0,-24.85 20.15,-45 45,-45 24.85,0 45,20.15 45,45"
         inkscape:connector-curvature="0"
         id="path256"
         style="fill:#000000;fill-opacity:1;fill-rule:nonzero;stroke:none" /><g
         id="g258"><g
           clip-path="url(#clipPath262)"
           id="g260"><g
             transform="scale(10,10)"
             id="g266"><text
               transform="matrix(1,0,0,-1,332,416.319)"
               id="text268"><tspan
                 x="0 5.0041876 10.998375 21.006563 37.008751 47.016937 54.019127 64.027313 75.025505 86.023689"
                 y="0"
                 id="tspan270"
                 style="font-size:18px;font-variant:normal;font-weight:bold;writing-mode:lr-tb;fill:#000000;fill-opacity:1;fill-rule:nonzero;stroke:none;font-family:Helvetica CY;-inkscape-font-specification:Helvetica-Bold">item_range</tspan></text>
</g></g></g><g
         id="g272"><g
           clip-path="url(#clipPath276)"
           id="g274"><g
             transform="scale(10,10)"
             id="g280"><text
               transform="matrix(1,0,0,-1,359,398.502)"
               id="text282"><tspan
                 x="0 8.5541058 16.338211 28.784317"
                 y="0"
                 id="tspan284"
                 style="font-size:14px;font-variant:normal;font-weight:bold;writing-mode:lr-tb;fill:#000000;fill-opacity:1;fill-rule:nonzero;stroke:none;font-family:Helvetica CY;-inkscape-font-specification:Helvetica-Bold">name</tspan><tspan
                 x="0 12.446212 16.338425 24.892635 28.784847 41.23106 49.785271"
                 y="14"
                 id="tspan286"
                 style="font-size:14px;font-variant:normal;font-weight:bold;writing-mode:lr-tb;fill:#000000;fill-opacity:1;fill-rule:nonzero;stroke:none;font-family:Helvetica CY;-inkscape-font-specification:Helvetica-Bold">minimum</tspan><tspan
                 x="0 12.446174 20.230347 28.014521 31.906693 44.352867 52.90704"
                 y="28"
                 id="tspan288"
                 style="font-size:14px;font-variant:normal;font-weight:bold;writing-mode:lr-tb;fill:#000000;fill-opacity:1;fill-rule:nonzero;stroke:none;font-family:Helvetica CY;-inkscape-font-specification:Helvetica-Bold">maximum</tspan></text>
</g></g></g><path
         d="m 3250,3560 1305,0 0,830 -1305,0 0,-830 z"
         inkscape:connector-curvature="0"
         id="path290"
         style="fill:none;stroke:#000000;stroke-width:10;stroke-linecap:butt;stroke-linejoin:round;stroke-miterlimit:10;stroke-opacity:1;stroke-dasharray:none" /><path
         d="m 3555,4075 c 0,24.85 -20.15,45 -45,45 -24.85,0 -45,-20.15 -45,-45 0,-24.85 20.15,-45 45,-45 24.85,0 45,20.15 45,45"
         inkscape:connector-curvature="0"
         id="path292"
         style="fill:#000000;fill-opacity:1;fill-rule:nonzero;stroke:none" /><path
         d="m 3560,3915 c 0,24.85 -20.15,45 -45,45 -24.85,0 -45,-20.15 -45,-45 0,-24.85 20.15,-45 45,-45 24.85,0 45,20.15 45,45"
         inkscape:connector-curvature="0"
         id="path294"
         style="fill:#000000;fill-opacity:1;fill-rule:nonzero;stroke:none" /><path
         d="m 3560,3775 c 0,24.85 -20.15,45 -45,45 -24.85,0 -45,-20.15 -45,-45 0,-24.85 20.15,-45 45,-45 24.85,0 45,20.15 45,45"
         inkscape:connector-curvature="0"
         id="path296"
         style="fill:#000000;fill-opacity:1;fill-rule:nonzero;stroke:none" /><path
         d="m 1090,4365 -220,-55 0,110"
         inkscape:connector-curvature="0"
         id="path298"
         style="fill:#000000;fill-opacity:1;fill-rule:nonzero;stroke:none" /><path
         d="m 1125,5265 -405,0 0,-900 180,0"
         inkscape:connector-curvature="0"
         id="path300"
         style="fill:none;stroke:#000000;stroke-width:10;stroke-linecap:butt;stroke-linejoin:round;stroke-miterlimit:10;stroke-opacity:1;stroke-dasharray:none" /><path
         d="m 1089.28,4406.29 -224.69,30.64 40.851,102.13"
         inkscape:connector-curvature="0"
         id="path302"
         style="fill:#000000;fill-opacity:1;fill-rule:nonzero;stroke:none" /><path
         d="m 1125,5040 -270,0 0,-540 57.875,-23.15"
         inkscape:connector-curvature="0"
         id="path304"
         style="fill:none;stroke:#000000;stroke-width:10;stroke-linecap:butt;stroke-linejoin:round;stroke-miterlimit:10;stroke-opacity:1;stroke-dasharray:none" /><g
         id="g306"><g
           clip-path="url(#clipPath310)"
           id="g308"><g
             transform="scale(10,10)"
             id="g314"><text
               transform="matrix(1,0,0,-1,116,611.819)"
               id="text316"><tspan
                 x="0 5.0041986 10.998397 21.006596 37.008793 47.016991 58.01519 69.01339 74.017586 80.011787"
                 y="0"
                 id="tspan318"
                 style="font-size:18px;font-variant:normal;font-weight:bold;writing-mode:lr-tb;fill:#000000;fill-opacity:1;fill-rule:nonzero;stroke:none;font-family:Helvetica CY;-inkscape-font-specification:Helvetica-Bold">item_units</tspan></text>
</g></g></g><g
         id="g320"><g
           clip-path="url(#clipPath324)"
           id="g322"><g
             transform="scale(10,10)"
             id="g328"><text
               transform="matrix(1,0,0,-1,111.5,674.819)"
               id="text330"><tspan
                 x="0 5.0041866 10.998373 21.006559 37.008747 47.016933 58.015121 69.013306 74.017494 80.011681 90.019867 100.02805 105.03224 110.03643 120.04462"
                 y="0"
                 id="tspan332"
                 style="font-size:18px;font-variant:normal;font-weight:bold;writing-mode:lr-tb;fill:#000000;fill-opacity:1;fill-rule:nonzero;stroke:none;font-family:Helvetica CY;-inkscape-font-specification:Helvetica-Bold">item_units_list</tspan></text>
</g></g></g><g
         id="g334"><g
           clip-path="url(#clipPath338)"
           id="g336"><g
             transform="scale(10,10)"
             id="g342"><text
               transform="matrix(1,0,0,-1,336.5,688.319)"
               id="text344"><tspan
                 x="0 5.0041976 10.998395 21.006592 37.008789 47.016987 58.015186 69.013382 74.017578 80.01178 90.019974 100.02818 110.03637 121.03457 132.03276 142.04097 152.04916 159.05136 169.05956 174.06 185.05835"
                 y="0"
                 id="tspan346"
                 style="font-size:18px;font-variant:normal;font-weight:bold;writing-mode:lr-tb;fill:#000000;fill-opacity:1;fill-rule:nonzero;stroke:none;font-family:Helvetica CY;-inkscape-font-specification:Helvetica-Bold">item_units_conversion</tspan></text>
</g></g></g><g
         id="g348"><g
           clip-path="url(#clipPath352)"
           id="g350"><g
             transform="scale(10,10)"
             id="g356"><text
               transform="matrix(1,0,0,-1,143,594.002)"
               id="text358"><tspan
                 x="0 8.5541058 16.338211 28.784317"
                 y="0"
                 id="tspan360"
                 style="font-size:14px;font-variant:normal;font-weight:bold;writing-mode:lr-tb;fill:#000000;fill-opacity:1;fill-rule:nonzero;stroke:none;font-family:Helvetica CY;-inkscape-font-specification:Helvetica-Bold">name</tspan><tspan
                 x="0 7.7840543 16.338108 24.892162"
                 y="14"
                 id="tspan362"
                 style="font-size:14px;font-variant:normal;font-weight:bold;writing-mode:lr-tb;fill:#000000;fill-opacity:1;fill-rule:nonzero;stroke:none;font-family:Helvetica CY;-inkscape-font-specification:Helvetica-Bold">code</tspan></text>
</g></g></g><path
         d="m 1395,5985 c 0,24.85 -20.15,45 -45,45 -24.85,0 -45,-20.15 -45,-45 0,-24.85 20.15,-45 45,-45 24.85,0 45,20.15 45,45"
         inkscape:connector-curvature="0"
         id="path364"
         style="fill:#000000;fill-opacity:1;fill-rule:nonzero;stroke:none" /><g
         id="g366"><g
           clip-path="url(#clipPath370)"
           id="g368"><g
             transform="scale(10,10)"
             id="g374"><text
               transform="matrix(1,0,0,-1,114,540.819)"
               id="text376"><tspan
                 x="0 5.0041838 10.998367 21.006552 37.008736 47.016918 52.021103 57.025288 68.023468 78.031654 88.039841"
                 y="0"
                 id="tspan378"
                 style="font-size:18px;font-variant:normal;font-weight:bold;writing-mode:lr-tb;fill:#000000;fill-opacity:1;fill-rule:nonzero;stroke:none;font-family:Helvetica CY;-inkscape-font-specification:Helvetica-Bold">item_linked</tspan></text>
</g></g></g><g
         id="g380"><g
           clip-path="url(#clipPath384)"
           id="g382"><g
             transform="scale(10,10)"
             id="g388"><text
               transform="matrix(1,0,0,-1,140,518.002)"
               id="text390"><tspan
                 x="0 7.7841043 16.338209 20.230314 24.122417 32.676521 40.460629 49.014732 56.798836 69.244942"
                 y="0"
                 id="tspan392"
                 style="font-size:14px;font-variant:normal;font-weight:bold;writing-mode:lr-tb;fill:#000000;fill-opacity:1;fill-rule:nonzero;stroke:none;font-family:Helvetica CY;-inkscape-font-specification:Helvetica-Bold">child_name</tspan><tspan
                 x="0 8.5541124 16.338224 21.784338 29.568449 38.122562 42.784676 50.568787 59.122898 66.907013 79.353127"
                 y="14"
                 id="tspan394"
                 style="font-size:14px;font-variant:normal;font-weight:bold;writing-mode:lr-tb;fill:#000000;fill-opacity:1;fill-rule:nonzero;stroke:none;font-family:Helvetica CY;-inkscape-font-specification:Helvetica-Bold">parent_name</tspan></text>
</g></g></g><path
         d="m 990,4780 1500,0 0,860 -1500,0 0,-860 z"
         inkscape:connector-curvature="0"
         id="path396"
         style="fill:none;stroke:#000000;stroke-width:10;stroke-linecap:butt;stroke-linejoin:round;stroke-miterlimit:10;stroke-opacity:1;stroke-dasharray:none" /><path
         d="m 1350,5255 c 0,24.85 -20.15,45 -45,45 -24.85,0 -45,-20.15 -45,-45 0,-24.85 20.15,-45 45,-45 24.85,0 45,20.15 45,45"
         inkscape:connector-curvature="0"
         id="path398"
         style="fill:#000000;fill-opacity:1;fill-rule:nonzero;stroke:none" /><path
         d="m 990,5715 1485,0 0,585 -1485,0 0,-585 z"
         inkscape:connector-curvature="0"
         id="path400"
         style="fill:none;stroke:#000000;stroke-width:10;stroke-linecap:butt;stroke-linejoin:round;stroke-miterlimit:10;stroke-opacity:1;stroke-dasharray:none" /><g
         id="g402"><g
           clip-path="url(#clipPath406)"
           id="g404"><g
             transform="scale(10,10)"
             id="g410"><text
               transform="matrix(1,0,0,-1,143,657.002)"
               id="text412"><tspan
                 x="0 7.7840543 16.338108 24.892162"
                 y="0"
                 id="tspan414"
                 style="font-size:14px;font-variant:normal;font-weight:bold;writing-mode:lr-tb;fill:#000000;fill-opacity:1;fill-rule:nonzero;stroke:none;font-family:Helvetica CY;-inkscape-font-specification:Helvetica-Bold">code</tspan><tspan
                 x="0 8.5541353 16.33827 21.000406 28.784542 32.676678"
                 y="14"
                 id="tspan416"
                 style="font-size:14px;font-variant:normal;font-weight:bold;writing-mode:lr-tb;fill:#000000;fill-opacity:1;fill-rule:nonzero;stroke:none;font-family:Helvetica CY;-inkscape-font-specification:Helvetica-Bold">detail</tspan></text>
</g></g></g><path
         d="m 1395,6660 c 0,24.85 -20.15,45 -45,45 -24.85,0 -45,-20.15 -45,-45 0,-24.85 20.15,-45 45,-45 24.85,0 45,20.15 45,45"
         inkscape:connector-curvature="0"
         id="path418"
         style="fill:#000000;fill-opacity:1;fill-rule:nonzero;stroke:none" /><path
         d="m 990,6390 1485,0 0,585 -1485,0 0,-585 z"
         inkscape:connector-curvature="0"
         id="path420"
         style="fill:none;stroke:#000000;stroke-width:10;stroke-linecap:butt;stroke-linejoin:round;stroke-miterlimit:10;stroke-opacity:1;stroke-dasharray:none" /><g
         id="g422"><g
           clip-path="url(#clipPath426)"
           id="g424"><g
             transform="scale(10,10)"
             id="g430"><text
               transform="matrix(1,0,0,-1,359,670.502)"
               id="text432"><tspan
                 x="0 4.6620865 13.216173 21.000259 28.784348 37.338432 45.892521"
                 y="0"
                 id="tspan434"
                 style="font-size:14px;font-variant:normal;font-weight:bold;writing-mode:lr-tb;fill:#000000;fill-opacity:1;fill-rule:nonzero;stroke:none;font-family:Helvetica CY;-inkscape-font-specification:Helvetica-Bold">to_code</tspan><tspan
                 x="0 4.6621342 10.108268 18.662401 31.108536 38.89267 46.676804 55.230938 63.785072"
                 y="14"
                 id="tspan436"
                 style="font-size:14px;font-variant:normal;font-weight:bold;writing-mode:lr-tb;fill:#000000;fill-opacity:1;fill-rule:nonzero;stroke:none;font-family:Helvetica CY;-inkscape-font-specification:Helvetica-Bold">from_code</tspan><tspan
                 x="0 8.5541487 17.108297 24.892445 30.338593 38.122742 42.784889 51.339039"
                 y="28"
                 id="tspan438"
                 style="font-size:14px;font-variant:normal;font-weight:bold;writing-mode:lr-tb;fill:#000000;fill-opacity:1;fill-rule:nonzero;stroke:none;font-family:Helvetica CY;-inkscape-font-specification:Helvetica-Bold">operator</tspan><tspan
                 x="0 4.6621642 12.446328 20.230492 24.892656 33.446819"
                 y="42"
                 id="tspan440"
                 style="font-size:14px;font-variant:normal;font-weight:bold;writing-mode:lr-tb;fill:#000000;fill-opacity:1;fill-rule:nonzero;stroke:none;font-family:Helvetica CY;-inkscape-font-specification:Helvetica-Bold">factor</tspan></text>
</g></g></g><path
         d="m 3555,6795 c 0,24.85 -20.15,45 -45,45 -24.85,0 -45,-20.15 -45,-45 0,-24.85 20.15,-45 45,-45 24.85,0 45,20.15 45,45"
         inkscape:connector-curvature="0"
         id="path442"
         style="fill:#000000;fill-opacity:1;fill-rule:nonzero;stroke:none" /><path
         d="m 3555,6660 c 0,24.85 -20.15,45 -45,45 -24.85,0 -45,-20.15 -45,-45 0,-24.85 20.15,-45 45,-45 24.85,0 45,20.15 45,45"
         inkscape:connector-curvature="0"
         id="path444"
         style="fill:#000000;fill-opacity:1;fill-rule:nonzero;stroke:none" /><path
         d="m 3240,6210 2160,0 0,900 -2160,0 0,-900 z"
         inkscape:connector-curvature="0"
         id="path446"
         style="fill:none;stroke:#000000;stroke-width:10;stroke-linecap:butt;stroke-linejoin:round;stroke-miterlimit:10;stroke-opacity:1;stroke-dasharray:none" /><path
         d="m 1935,5940 945,0 0,-1080"
         inkscape:connector-curvature="0"
         id="path448"
         style="fill:none;stroke:#000000;stroke-width:10;stroke-linecap:butt;stroke-linejoin:round;stroke-miterlimit:10;stroke-opacity:1;stroke-dasharray:none" /><path
         d="m 1180,6660 -220,-55 0,110"
         inkscape:connector-curvature="0"
         id="path450"
         style="fill:#000000;fill-opacity:1;fill-rule:nonzero;stroke:none" /><path
         d="m 1350,5850 -540,0 0,810 180,0"
         inkscape:connector-curvature="0"
         id="path452"
         style="fill:none;stroke:#000000;stroke-width:10;stroke-linecap:butt;stroke-linejoin:round;stroke-miterlimit:10;stroke-opacity:1;stroke-dasharray:none" /><path
         d="m 3330,6840 0,-225"
         inkscape:connector-curvature="0"
         id="path454"
         style="fill:none;stroke:#000000;stroke-width:10;stroke-linecap:butt;stroke-linejoin:round;stroke-miterlimit:10;stroke-opacity:1;stroke-dasharray:none" /><path
         d="m 1880,6615 220,55 0,-110"
         inkscape:connector-curvature="0"
         id="path456"
         style="fill:#000000;fill-opacity:1;fill-rule:nonzero;stroke:none" /><path
         d="m 3330,6750 -405,0 0,-135 -855,0"
         inkscape:connector-curvature="0"
         id="path458"
         style="fill:none;stroke:#000000;stroke-width:10;stroke-linecap:butt;stroke-linejoin:round;stroke-miterlimit:10;stroke-opacity:1;stroke-dasharray:none" /><g
         id="g460"><g
           clip-path="url(#clipPath464)"
           id="g462"><g
             transform="scale(10,10)"
             id="g468"><text
               transform="matrix(1,0,0,-1,107,450.319)"
               id="text470"><tspan
                 x="0 5.0041442 10.998288 21.006432"
                 y="0"
                 id="tspan472"
                 style="font-size:18px;font-variant:normal;font-weight:bold;writing-mode:lr-tb;fill:#000000;fill-opacity:1;fill-rule:nonzero;stroke:none;font-family:Helvetica CY;-inkscape-font-specification:Helvetica-Bold">item</tspan></text>
</g></g></g><g
         id="g474"><g
           clip-path="url(#clipPath478)"
           id="g476"><g
             transform="scale(10,10)"
             id="g482"><text
               transform="matrix(1,0,0,-1,129.5,432.502)"
               id="text484"><tspan
                 x="0 8.5541058 16.338211 28.784317"
                 y="0"
                 id="tspan486"
                 style="font-size:14px;font-variant:normal;font-weight:bold;writing-mode:lr-tb;fill:#000000;fill-opacity:1;fill-rule:nonzero;stroke:none;font-family:Helvetica CY;-inkscape-font-specification:Helvetica-Bold">name</tspan><tspan
                 x="0 7.7841039 15.568208 20.230312 28.014416 36.56852 45.122623 50.568729 58.352833 66.13694 70.029037"
                 y="14"
                 id="tspan488"
                 style="font-size:14px;font-variant:normal;font-weight:bold;writing-mode:lr-tb;fill:#000000;fill-opacity:1;fill-rule:nonzero;stroke:none;font-family:Helvetica CY;-inkscape-font-specification:Helvetica-Bold">category_id</tspan><tspan
                 x="0 12.446102 20.230206 28.784307 37.338409 45.122513 49.784615 58.338718 63.784821 71.568924 79.353027 87.137131 95.691231 104.24533"
                 y="28"
                 id="tspan490"
                 style="font-size:14px;font-variant:normal;font-weight:bold;writing-mode:lr-tb;fill:#000000;fill-opacity:1;fill-rule:nonzero;stroke:none;font-family:Helvetica CY;-inkscape-font-specification:Helvetica-Bold">mandatory_code</tspan></text>
</g></g></g><path
         d="m 990,3875 1710,0 0,810 -1710,0 0,-810 z"
         inkscape:connector-curvature="0"
         id="path492"
         style="fill:none;stroke:#000000;stroke-width:10;stroke-linecap:butt;stroke-linejoin:round;stroke-miterlimit:10;stroke-opacity:1;stroke-dasharray:none" /><path
         d="m 1260,4370 c 0,24.85 -20.15,45 -45,45 -24.85,0 -45,-20.15 -45,-45 0,-24.85 20.15,-45 45,-45 24.85,0 45,20.15 45,45"
         inkscape:connector-curvature="0"
         id="path494"
         style="fill:#000000;fill-opacity:1;fill-rule:nonzero;stroke:none" /></g></g></svg>