<?xml version="1.0" encoding="UTF-8" standalone="no"?>
<!-- Created with Inkscape (http://www.inkscape.org/) -->

<svg
   xmlns:dc="http://purl.org/dc/elements/1.1/"
   xmlns:cc="http://creativecommons.org/ns#"
   xmlns:rdf="http://www.w3.org/1999/02/22-rdf-syntax-ns#"
   xmlns:svg="http://www.w3.org/2000/svg"
   xmlns="http://www.w3.org/2000/svg"
   xmlns:inkscape="http://www.inkscape.org/namespaces/inkscape"
   version="1.1"
   width="765"
   height="990"
   id="svg2"
   xml:space="preserve"><metadata
     id="metadata8"><rdf:RDF><cc:Work
         rdf:about=""><dc:format>image/svg+xml</dc:format><dc:type
           rdf:resource="http://purl.org/dc/dcmitype/StillImage" /></cc:Work></rdf:RDF></metadata><defs
     id="defs6"><clipPath
       id="clipPath18"><path
         d="m 3180,4505.31 810.238,0 0,239.133 -810.238,0 0,-239.133 z"
         inkscape:connector-curvature="0"
         id="path20" /></clipPath><clipPath
       id="clipPath32"><path
         d="m 3310,3885.31 1180.28,0 0,604.711 -1180.28,0 0,-604.711 z"
         inkscape:connector-curvature="0"
         id="path34" /></clipPath><clipPath
       id="clipPath54"><path
         d="m 945,4654.06 1210.56,0 0,239.133 -1210.56,0 0,-239.133 z"
         inkscape:connector-curvature="0"
         id="path56" /></clipPath><clipPath
       id="clipPath68"><path
         d="m 1225,4290.31 425.68,0 0,324.711 -425.68,0 0,-324.711 z"
         inkscape:connector-curvature="0"
         id="path70" /></clipPath><clipPath
       id="clipPath86"><path
         d="m 1035,3619.06 430.078,0 0,239.133 -430.078,0 0,-239.133 z"
         inkscape:connector-curvature="0"
         id="path88" /></clipPath><clipPath
       id="clipPath100"><path
         d="m 1230,3185.31 1180.28,0 0,464.711 -1180.28,0 0,-464.711 z"
         inkscape:connector-curvature="0"
         id="path102" /></clipPath><clipPath
       id="clipPath140"><path
         d="m 965,5634.06 1730.76,0 0,239.133 -1730.76,0 0,-239.133 z"
         inkscape:connector-curvature="0"
         id="path142" /></clipPath><clipPath
       id="clipPath154"><path
         d="m 1185,5135.31 425.68,0 0,464.711 -425.68,0 0,-464.711 z"
         inkscape:connector-curvature="0"
         id="path156" /></clipPath><clipPath
       id="clipPath178"><path
         d="m 3105,6204.06 1780.44,0 0,239.133 -1780.44,0 0,-239.133 z"
         inkscape:connector-curvature="0"
         id="path180" /></clipPath><clipPath
       id="clipPath192"><path
         d="m 3375,5715.31 814.602,0 0,464.711 -814.602,0 0,-464.711 z"
         inkscape:connector-curvature="0"
         id="path194" /></clipPath><clipPath
       id="clipPath218"><path
         d="m 3445,5274.06 1420.26,0 0,239.133 -1420.26,0 0,-239.133 z"
         inkscape:connector-curvature="0"
         id="path220" /></clipPath><clipPath
       id="clipPath232"><path
         d="m 3715,4925.31 845.82,0 0,324.711 -845.82,0 0,-324.711 z"
         inkscape:connector-curvature="0"
         id="path234" /></clipPath><clipPath
       id="clipPath262"><path
         d="m 3620,7079.06 900.238,0 0,239.133 -900.238,0 0,-239.133 z"
         inkscape:connector-curvature="0"
         id="path264" /></clipPath><clipPath
       id="clipPath276"><path
         d="m 3780,6745.31 814.602,0 0,324.711 -814.602,0 0,-324.711 z"
         inkscape:connector-curvature="0"
         id="path278" /></clipPath><clipPath
       id="clipPath302"><path
         d="m 1190,1949.06 1230.36,0 0,239.133 -1230.36,0 0,-239.133 z"
         inkscape:connector-curvature="0"
         id="path304" /></clipPath><clipPath
       id="clipPath316"><path
         d="m 1445,1470.31 853.52,0 0,464.711 -853.52,0 0,-464.711 z"
         inkscape:connector-curvature="0"
         id="path318" /></clipPath><clipPath
       id="clipPath336"><path
         d="m 935,1104.06 2150.88,0 0,239.133 -2150.88,0 0,-239.133 z"
         inkscape:connector-curvature="0"
         id="path338" /></clipPath><clipPath
       id="clipPath350"><path
         d="m 1205,660.313 425.68,0 0,464.707 -425.68,0 0,-464.707 z"
         inkscape:connector-curvature="0"
         id="path352" /></clipPath><clipPath
       id="clipPath378"><path
         d="m 3940,2724.06 1070.16,0 0,239.133 -1070.16,0 0,-239.133 z"
         inkscape:connector-curvature="0"
         id="path380" /></clipPath><clipPath
       id="clipPath392"><path
         d="m 4435,1930.31 674.602,0 0,744.711 -674.602,0 0,-744.711 z"
         inkscape:connector-curvature="0"
         id="path394" /></clipPath><clipPath
       id="clipPath414"><path
         d="m 3120,3449.06 1660.38,0 0,239.133 -1660.38,0 0,-239.133 z"
         inkscape:connector-curvature="0"
         id="path416" /></clipPath><clipPath
       id="clipPath428"><path
         d="m 3410,3135.31 845.82,0 0,324.711 -845.82,0 0,-324.711 z"
         inkscape:connector-curvature="0"
         id="path430" /></clipPath><clipPath
       id="clipPath456"><path
         d="m 3440,1409.06 2080.5,0 0,239.133 -2080.5,0 0,-239.133 z"
         inkscape:connector-curvature="0"
         id="path458" /></clipPath><clipPath
       id="clipPath470"><path
         d="m 3700,1065.31 1172.58,0 0,324.711 -1172.58,0 0,-324.711 z"
         inkscape:connector-curvature="0"
         id="path472" /></clipPath><clipPath
       id="clipPath510"><path
         d="m 1015,2725 1700.52,0 0,239.129 -1700.52,0 0,-239.129 z"
         inkscape:connector-curvature="0"
         id="path512" /></clipPath><clipPath
       id="clipPath524"><path
         d="m 1285,2415 425.68,0 0,324.711 -425.68,0 0,-324.711 z"
         inkscape:connector-curvature="0"
         id="path526" /></clipPath></defs><g
     transform="matrix(1.25,0,0,-1.25,0,990)"
     id="g10"><g
       transform="scale(0.1,0.1)"
       id="g12"><g
         id="g14"><g
           clip-path="url(#clipPath18)"
           id="g16"><g
             transform="scale(10,10)"
             id="g22"><text
               transform="matrix(1,0,0,-1,320,456.444)"
               id="text24"><tspan
                 x="0 10.008218 20.016436 26.010653 36.018871 47.017086 58.015305 65.017525"
                 y="0"
                 id="tspan26"
                 style="font-size:18px;font-variant:normal;font-weight:bold;writing-mode:lr-tb;fill:#000000;fill-opacity:1;fill-rule:nonzero;stroke:none;font-family:Helvetica CY;-inkscape-font-specification:Helvetica-Bold">category</tspan></text>
</g></g></g><g
         id="g28"><g
           clip-path="url(#clipPath32)"
           id="g30"><g
             transform="scale(10,10)"
             id="g36"><text
               transform="matrix(1,0,0,-1,333,435.002)"
               id="text38"><tspan
                 x="0 3.8921483"
                 y="0"
                 id="tspan40"
                 style="font-size:14px;font-variant:normal;font-weight:bold;writing-mode:lr-tb;fill:#000000;fill-opacity:1;fill-rule:nonzero;stroke:none;font-family:Helvetica CY;-inkscape-font-specification:Helvetica-Bold">id</tspan><tspan
                 x="0 8.5541277 16.338255 24.122383 31.906511 37.352638 41.244766 49.798893 54.461021 58.353149 66.90728"
                 y="14"
                 id="tspan42"
                 style="font-size:14px;font-variant:normal;font-weight:bold;writing-mode:lr-tb;fill:#000000;fill-opacity:1;fill-rule:nonzero;stroke:none;font-family:Helvetica CY;-inkscape-font-specification:Helvetica-Bold">description</tspan><tspan
                 x="0 3.8921304 16.338261 24.892391 28.784521 32.676651 40.460781 44.352913 49.015041 56.799171 64.583305 72.367432"
                 y="28"
                 id="tspan44"
                 style="font-size:14px;font-variant:normal;font-weight:bold;writing-mode:lr-tb;fill:#000000;fill-opacity:1;fill-rule:nonzero;stroke:none;font-family:Helvetica CY;-inkscape-font-specification:Helvetica-Bold">implicit_key</tspan><tspan
                 x="0 12.446102 20.230206 28.784307 37.338409 45.122513 49.784615 58.338718 63.784821 71.568924 79.353027 87.137131 95.691231 104.24533"
                 y="42"
                 id="tspan46"
                 style="font-size:14px;font-variant:normal;font-weight:bold;writing-mode:lr-tb;fill:#000000;fill-opacity:1;fill-rule:nonzero;stroke:none;font-family:Helvetica CY;-inkscape-font-specification:Helvetica-Bold">mandatory_code</tspan></text>
</g></g></g><path
         d="m 3040,3800 1790,0 0,980 -1790,0 0,-980 z"
         inkscape:connector-curvature="0"
         id="path48"
         style="fill:none;stroke:#000000;stroke-width:10;stroke-linecap:butt;stroke-linejoin:round;stroke-miterlimit:10;stroke-opacity:1;stroke-dasharray:none" /><g
         id="g50"><g
           clip-path="url(#clipPath54)"
           id="g52"><g
             transform="scale(10,10)"
             id="g58"><text
               transform="matrix(1,0,0,-1,96.5,471.319)"
               id="text60"><tspan
                 x="0 10.008207 20.016415 26.010622 36.018829 47.017036 58.015244 65.017448 75.025658 85.033867 95.042076 105.05028"
                 y="0"
                 id="tspan62"
                 style="font-size:18px;font-variant:normal;font-weight:bold;writing-mode:lr-tb;fill:#000000;fill-opacity:1;fill-rule:nonzero;stroke:none;font-family:Helvetica CY;-inkscape-font-specification:Helvetica-Bold">category_key</tspan></text>
</g></g></g><g
         id="g64"><g
           clip-path="url(#clipPath68)"
           id="g66"><g
             transform="scale(10,10)"
             id="g72"><text
               transform="matrix(1,0,0,-1,124.5,447.502)"
               id="text74"><tspan
                 x="0 3.8921483"
                 y="0"
                 id="tspan76"
                 style="font-size:14px;font-variant:normal;font-weight:bold;writing-mode:lr-tb;fill:#000000;fill-opacity:1;fill-rule:nonzero;stroke:none;font-family:Helvetica CY;-inkscape-font-specification:Helvetica-Bold">id</tspan><tspan
                 x="0 8.5541058 16.338211 28.784317"
                 y="14"
                 id="tspan78"
                 style="font-size:14px;font-variant:normal;font-weight:bold;writing-mode:lr-tb;fill:#000000;fill-opacity:1;fill-rule:nonzero;stroke:none;font-family:Helvetica CY;-inkscape-font-specification:Helvetica-Bold">name</tspan></text>
</g></g></g><path
         d="m 915,4185 1450,0 0,770 -1450,0 0,-770 z"
         inkscape:connector-curvature="0"
         id="path80"
         style="fill:none;stroke:#000000;stroke-width:10;stroke-linecap:butt;stroke-linejoin:round;stroke-miterlimit:10;stroke-opacity:1;stroke-dasharray:none" /><g
         id="g82"><g
           clip-path="url(#clipPath86)"
           id="g84"><g
             transform="scale(10,10)"
             id="g90"><text
               transform="matrix(1,0,0,-1,105.5,367.819)"
               id="text92"><tspan
                 x="0 5.0041442 10.998288 21.006432"
                 y="0"
                 id="tspan94"
                 style="font-size:18px;font-variant:normal;font-weight:bold;writing-mode:lr-tb;fill:#000000;fill-opacity:1;fill-rule:nonzero;stroke:none;font-family:Helvetica CY;-inkscape-font-specification:Helvetica-Bold">item</tspan></text>
</g></g></g><g
         id="g96"><g
           clip-path="url(#clipPath100)"
           id="g98"><g
             transform="scale(10,10)"
             id="g104"><text
               transform="matrix(1,0,0,-1,125,351.002)"
               id="text106"><tspan
                 x="0 8.5541058 16.338211 28.784317"
                 y="0"
                 id="tspan108"
                 style="font-size:14px;font-variant:normal;font-weight:bold;writing-mode:lr-tb;fill:#000000;fill-opacity:1;fill-rule:nonzero;stroke:none;font-family:Helvetica CY;-inkscape-font-specification:Helvetica-Bold">name</tspan><tspan
                 x="0 7.7841039 15.568208 20.230312 28.014416 36.56852 45.122623 50.568729 58.352833 66.13694 70.029037"
                 y="14"
                 id="tspan110"
                 style="font-size:14px;font-variant:normal;font-weight:bold;writing-mode:lr-tb;fill:#000000;fill-opacity:1;fill-rule:nonzero;stroke:none;font-family:Helvetica CY;-inkscape-font-specification:Helvetica-Bold">category_id</tspan><tspan
                 x="0 12.446102 20.230206 28.784307 37.338409 45.122513 49.784615 58.338718 63.784821 71.568924 79.353027 87.137131 95.691231 104.24533"
                 y="28"
                 id="tspan112"
                 style="font-size:14px;font-variant:normal;font-weight:bold;writing-mode:lr-tb;fill:#000000;fill-opacity:1;fill-rule:nonzero;stroke:none;font-family:Helvetica CY;-inkscape-font-specification:Helvetica-Bold">mandatory_code</tspan></text>
</g></g></g><path
         d="m 945,3085 1710,0 0,785 -1710,0 0,-785 z"
         inkscape:connector-curvature="0"
         id="path114"
         style="fill:none;stroke:#000000;stroke-width:10;stroke-linecap:butt;stroke-linejoin:round;stroke-miterlimit:10;stroke-opacity:1;stroke-dasharray:none" /><path
         d="m 1760.33,3597.45 198.69,109.32 28.06,-106.36"
         inkscape:connector-curvature="0"
         id="path116"
         style="fill:#000000;fill-opacity:1;fill-rule:nonzero;stroke:none" /><path
         d="m 1780,4360 710,0 0,-570 -545.96,-144.07"
         inkscape:connector-curvature="0"
         id="path118"
         style="fill:none;stroke:#000000;stroke-width:10;stroke-linecap:butt;stroke-linejoin:round;stroke-miterlimit:10;stroke-opacity:1;stroke-dasharray:none" /><path
         d="m 2130.53,3436.78 190.54,122.97 35.45,-104.14"
         inkscape:connector-curvature="0"
         id="path120"
         style="fill:#000000;fill-opacity:1;fill-rule:nonzero;stroke:none" /><path
         d="m 1530,4540 1080,0 0,-940 -299.6,-101.99"
         inkscape:connector-curvature="0"
         id="path122"
         style="fill:none;stroke:#000000;stroke-width:10;stroke-linecap:butt;stroke-linejoin:round;stroke-miterlimit:10;stroke-opacity:1;stroke-dasharray:none" /><path
         d="m 3179.55,4412.96 -193.81,-117.74 -32.61,105.06"
         inkscape:connector-curvature="0"
         id="path124"
         style="fill:#000000;fill-opacity:1;fill-rule:nonzero;stroke:none" /><path
         d="m 2170,3390 710,0 0,930 118.09,36.65"
         inkscape:connector-curvature="0"
         id="path126"
         style="fill:none;stroke:#000000;stroke-width:10;stroke-linecap:butt;stroke-linejoin:round;stroke-miterlimit:10;stroke-opacity:1;stroke-dasharray:none" /><path
         d="m 1215,4545 c 0,24.85 -20.15,45 -45,45 -24.85,0 -45,-20.15 -45,-45 0,-24.85 20.15,-45 45,-45 24.85,0 45,20.15 45,45"
         inkscape:connector-curvature="0"
         id="path128"
         style="fill:#000000;fill-opacity:1;fill-rule:nonzero;stroke:none" /><path
         d="m 1215,4410 c 0,24.85 -20.15,45 -45,45 -24.85,0 -45,-20.15 -45,-45 0,-24.85 20.15,-45 45,-45 24.85,0 45,20.15 45,45"
         inkscape:connector-curvature="0"
         id="path130"
         style="fill:#000000;fill-opacity:1;fill-rule:nonzero;stroke:none" /><path
         d="m 1215,3600 c 0,24.85 -20.15,45 -45,45 -24.85,0 -45,-20.15 -45,-45 0,-24.85 20.15,-45 45,-45 24.85,0 45,20.15 45,45"
         inkscape:connector-curvature="0"
         id="path132"
         style="fill:#000000;fill-opacity:1;fill-rule:nonzero;stroke:none" /><path
         d="m 3330,4455 c 0,24.85 -20.15,45 -45,45 -24.85,0 -45,-20.15 -45,-45 0,-24.85 20.15,-45 45,-45 24.85,0 45,20.15 45,45"
         inkscape:connector-curvature="0"
         id="path134"
         style="fill:#000000;fill-opacity:1;fill-rule:nonzero;stroke:none" /><g
         id="g136"><g
           clip-path="url(#clipPath140)"
           id="g138"><g
             transform="scale(10,10)"
             id="g144"><text
               transform="matrix(1,0,0,-1,98.5,569.319)"
               id="text146"><tspan
                 x="0 10.008197 20.016394 26.01059 36.018787 47.016983 58.015179 65.01738 75.025574 85.033768 95.041969 105.05016 115.05836 131.06056 142.05875 147.06294 157.07115"
                 y="0"
                 id="tspan148"
                 style="font-size:18px;font-variant:normal;font-weight:bold;writing-mode:lr-tb;fill:#000000;fill-opacity:1;fill-rule:nonzero;stroke:none;font-family:Helvetica CY;-inkscape-font-specification:Helvetica-Bold">category_examples</tspan></text>
</g></g></g><g
         id="g150"><g
           clip-path="url(#clipPath154)"
           id="g152"><g
             transform="scale(10,10)"
             id="g158"><text
               transform="matrix(1,0,0,-1,120.5,546.002)"
               id="text160"><tspan
                 x="0 3.8921483"
                 y="0"
                 id="tspan162"
                 style="font-size:14px;font-variant:normal;font-weight:bold;writing-mode:lr-tb;fill:#000000;fill-opacity:1;fill-rule:nonzero;stroke:none;font-family:Helvetica CY;-inkscape-font-specification:Helvetica-Bold">id</tspan><tspan
                 x="0 7.7840157 15.568031 23.352047"
                 y="14"
                 id="tspan164"
                 style="font-size:14px;font-variant:normal;font-weight:bold;writing-mode:lr-tb;fill:#000000;fill-opacity:1;fill-rule:nonzero;stroke:none;font-family:Helvetica CY;-inkscape-font-specification:Helvetica-Bold">case</tspan><tspan
                 x="0 8.5541353 16.33827 21.000406 28.784542 32.676678"
                 y="28"
                 id="tspan166"
                 style="font-size:14px;font-variant:normal;font-weight:bold;writing-mode:lr-tb;fill:#000000;fill-opacity:1;fill-rule:nonzero;stroke:none;font-family:Helvetica CY;-inkscape-font-specification:Helvetica-Bold">detail</tspan></text>
</g></g></g><path
         d="m 900,5055 1845,0 0,855 -1845,0 0,-855 z"
         inkscape:connector-curvature="0"
         id="path168"
         style="fill:none;stroke:#000000;stroke-width:10;stroke-linecap:butt;stroke-linejoin:round;stroke-miterlimit:10;stroke-opacity:1;stroke-dasharray:none" /><path
         d="m 1170,5550 c 0,24.85 -20.15,45 -45,45 -24.85,0 -45,-20.15 -45,-45 0,-24.85 20.15,-45 45,-45 24.85,0 45,20.15 45,45"
         inkscape:connector-curvature="0"
         id="path170"
         style="fill:#000000;fill-opacity:1;fill-rule:nonzero;stroke:none" /><path
         d="m 1160,5375 c 0,24.85 -20.15,45 -45,45 -24.85,0 -45,-20.15 -45,-45 0,-24.85 20.15,-45 45,-45 24.85,0 45,20.15 45,45"
         inkscape:connector-curvature="0"
         id="path172"
         style="fill:#000000;fill-opacity:1;fill-rule:nonzero;stroke:none" /><g
         id="g174"><g
           clip-path="url(#clipPath178)"
           id="g176"><g
             transform="scale(10,10)"
             id="g182"><text
               transform="matrix(1,0,0,-1,312.5,626.319)"
               id="text184"><tspan
                 x="0 10.00822 20.016439 26.010658 36.018875 47.017097 58.015316 65.017532 75.025757 85.033974 96.032196 103.03441 114.03263 125.03085 136.02907 146.03729 151.0415 156.04573 166.05394"
                 y="0"
                 id="tspan186"
                 style="font-size:18px;font-variant:normal;font-weight:bold;writing-mode:lr-tb;fill:#000000;fill-opacity:1;fill-rule:nonzero;stroke:none;font-family:Helvetica CY;-inkscape-font-specification:Helvetica-Bold">category_group_list</tspan></text>
</g></g></g><g
         id="g188"><g
           clip-path="url(#clipPath192)"
           id="g190"><g
             transform="scale(10,10)"
             id="g196"><text
               transform="matrix(1,0,0,-1,339.5,604.002)"
               id="text198"><tspan
                 x="0 3.8921483"
                 y="0"
                 id="tspan200"
                 style="font-size:14px;font-variant:normal;font-weight:bold;writing-mode:lr-tb;fill:#000000;fill-opacity:1;fill-rule:nonzero;stroke:none;font-family:Helvetica CY;-inkscape-font-specification:Helvetica-Bold">id</tspan><tspan
                 x="0 8.5541277 16.338255 24.122383 31.906511 37.352638 41.244766 49.798893 54.461021 58.353149 66.90728"
                 y="14"
                 id="tspan202"
                 style="font-size:14px;font-variant:normal;font-weight:bold;writing-mode:lr-tb;fill:#000000;fill-opacity:1;fill-rule:nonzero;stroke:none;font-family:Helvetica CY;-inkscape-font-specification:Helvetica-Bold">description</tspan><tspan
                 x="0 8.5541229 16.338247 21.78437 29.568493 38.122616 42.78474 50.568863 54.460987"
                 y="28"
                 id="tspan204"
                 style="font-size:14px;font-variant:normal;font-weight:bold;writing-mode:lr-tb;fill:#000000;fill-opacity:1;fill-rule:nonzero;stroke:none;font-family:Helvetica CY;-inkscape-font-specification:Helvetica-Bold">parent_id</tspan></text>
</g></g></g><path
         d="m 3045,5635 1975,0 0,855 -1975,0 0,-855 z"
         inkscape:connector-curvature="0"
         id="path206"
         style="fill:none;stroke:#000000;stroke-width:10;stroke-linecap:butt;stroke-linejoin:round;stroke-miterlimit:10;stroke-opacity:1;stroke-dasharray:none" /><path
         d="m 3360,6130 c 0,24.85 -20.15,45 -45,45 -24.85,0 -45,-20.15 -45,-45 0,-24.85 20.15,-45 45,-45 24.85,0 45,20.15 45,45"
         inkscape:connector-curvature="0"
         id="path208"
         style="fill:#000000;fill-opacity:1;fill-rule:nonzero;stroke:none" /><path
         d="m 3660,6110 220,55 0,-110"
         inkscape:connector-curvature="0"
         id="path210"
         style="fill:#000000;fill-opacity:1;fill-rule:nonzero;stroke:none" /><path
         d="m 4120,5790 700,0 0,320 -970,0"
         inkscape:connector-curvature="0"
         id="path212"
         style="fill:none;stroke:#000000;stroke-width:10;stroke-linecap:butt;stroke-linejoin:round;stroke-miterlimit:10;stroke-opacity:1;stroke-dasharray:none" /><g
         id="g214"><g
           clip-path="url(#clipPath218)"
           id="g216"><g
             transform="scale(10,10)"
             id="g222"><text
               transform="matrix(1,0,0,-1,346.5,533.319)"
               id="text224"><tspan
                 x="0 10.008239 20.016478 26.010715 36.018955 47.017193 58.01543 65.01767 75.025909 85.034149 96.032387 103.03462 114.03287 125.03111"
                 y="0"
                 id="tspan226"
                 style="font-size:18px;font-variant:normal;font-weight:bold;writing-mode:lr-tb;fill:#000000;fill-opacity:1;fill-rule:nonzero;stroke:none;font-family:Helvetica CY;-inkscape-font-specification:Helvetica-Bold">category_group</tspan></text>
</g></g></g><g
         id="g228"><g
           clip-path="url(#clipPath232)"
           id="g230"><g
             transform="scale(10,10)"
             id="g236"><text
               transform="matrix(1,0,0,-1,373.5,511.002)"
               id="text238"><tspan
                 x="0 3.8921483"
                 y="0"
                 id="tspan240"
                 style="font-size:14px;font-variant:normal;font-weight:bold;writing-mode:lr-tb;fill:#000000;fill-opacity:1;fill-rule:nonzero;stroke:none;font-family:Helvetica CY;-inkscape-font-specification:Helvetica-Bold">id</tspan><tspan
                 x="0 7.7841039 15.568208 20.230312 28.014416 36.56852 45.122623 50.568729 58.352833 66.13694 70.029037"
                 y="14"
                 id="tspan242"
                 style="font-size:14px;font-variant:normal;font-weight:bold;writing-mode:lr-tb;fill:#000000;fill-opacity:1;fill-rule:nonzero;stroke:none;font-family:Helvetica CY;-inkscape-font-specification:Helvetica-Bold">category_id</tspan></text>
</g></g></g><path
         d="m 3385,4830 1625,0 0,730 -1625,0 0,-730 z"
         inkscape:connector-curvature="0"
         id="path244"
         style="fill:none;stroke:#000000;stroke-width:10;stroke-linecap:butt;stroke-linejoin:round;stroke-miterlimit:10;stroke-opacity:1;stroke-dasharray:none" /><path
         d="m 3700,5200 c 0,24.85 -20.15,45 -45,45 -24.85,0 -45,-20.15 -45,-45 0,-24.85 20.15,-45 45,-45 24.85,0 45,20.15 45,45"
         inkscape:connector-curvature="0"
         id="path246"
         style="fill:#000000;fill-opacity:1;fill-rule:nonzero;stroke:none" /><path
         d="m 3700,5020 c 0,24.85 -20.15,45 -45,45 -24.85,0 -45,-20.15 -45,-45 0,-24.85 20.15,-45 45,-45 24.85,0 45,20.15 45,45"
         inkscape:connector-curvature="0"
         id="path248"
         style="fill:#000000;fill-opacity:1;fill-rule:nonzero;stroke:none" /><path
         d="m 3245.56,6130 -220,-55 0,110"
         inkscape:connector-curvature="0"
         id="path250"
         style="fill:#000000;fill-opacity:1;fill-rule:nonzero;stroke:none" /><path
         d="m 3510,5200 -570,0 0,930 115.56,0"
         inkscape:connector-curvature="0"
         id="path252"
         style="fill:none;stroke:#000000;stroke-width:10;stroke-linecap:butt;stroke-linejoin:round;stroke-miterlimit:10;stroke-opacity:1;stroke-dasharray:none" /><path
         d="m 3179.92,4458.72 -225.23,-26.4 14.08,109.1"
         inkscape:connector-curvature="0"
         id="path254"
         style="fill:#000000;fill-opacity:1;fill-rule:nonzero;stroke:none" /><path
         d="m 1440,5520 1420,0 0,-1020 131.48,-16.97"
         inkscape:connector-curvature="0"
         id="path256"
         style="fill:none;stroke:#000000;stroke-width:10;stroke-linecap:butt;stroke-linejoin:round;stroke-miterlimit:10;stroke-opacity:1;stroke-dasharray:none" /><g
         id="g258"><g
           clip-path="url(#clipPath262)"
           id="g260"><g
             transform="scale(10,10)"
             id="g266"><text
               transform="matrix(1,0,0,-1,364,713.819)"
               id="text268"><tspan
                 x="0 10.998237 21.006474 27.00071 37.008945 48.007183 53.011417 64.009659 74.017891"
                 y="0"
                 id="tspan270"
                 style="font-size:18px;font-variant:normal;font-weight:bold;writing-mode:lr-tb;fill:#000000;fill-opacity:1;fill-rule:nonzero;stroke:none;font-family:Helvetica CY;-inkscape-font-specification:Helvetica-Bold">datablock</tspan></text>
</g></g></g><g
         id="g272"><g
           clip-path="url(#clipPath276)"
           id="g274"><g
             transform="scale(10,10)"
             id="g280"><text
               transform="matrix(1,0,0,-1,380,693.002)"
               id="text282"><tspan
                 x="0 3.8921483"
                 y="0"
                 id="tspan284"
                 style="font-size:14px;font-variant:normal;font-weight:bold;writing-mode:lr-tb;fill:#000000;fill-opacity:1;fill-rule:nonzero;stroke:none;font-family:Helvetica CY;-inkscape-font-specification:Helvetica-Bold">id</tspan><tspan
                 x="0 8.5541277 16.338255 24.122383 31.906511 37.352638 41.244766 49.798893 54.461021 58.353149 66.90728"
                 y="14"
                 id="tspan286"
                 style="font-size:14px;font-variant:normal;font-weight:bold;writing-mode:lr-tb;fill:#000000;fill-opacity:1;fill-rule:nonzero;stroke:none;font-family:Helvetica CY;-inkscape-font-specification:Helvetica-Bold">description</tspan></text>
</g></g></g><path
         d="m 3740,6995 c 0,24.85 -20.15,45 -45,45 -24.85,0 -45,-20.15 -45,-45 0,-24.85 20.15,-45 45,-45 24.85,0 45,20.15 45,45"
         inkscape:connector-curvature="0"
         id="path288"
         style="fill:#000000;fill-opacity:1;fill-rule:nonzero;stroke:none" /><path
         d="m 3470,6600 1540,0 0,730 -1540,0 0,-730 z"
         inkscape:connector-curvature="0"
         id="path290"
         style="fill:none;stroke:#000000;stroke-width:10;stroke-linecap:butt;stroke-linejoin:round;stroke-miterlimit:10;stroke-opacity:1;stroke-dasharray:none" /><path
         d="m 4250,4120 220,55 0,-110"
         inkscape:connector-curvature="0"
         id="path292"
         style="fill:#000000;fill-opacity:1;fill-rule:nonzero;stroke:none" /><path
         d="m 4010,6960 1190,0 0,-2840 -760,0"
         inkscape:connector-curvature="0"
         id="path294"
         style="fill:none;stroke:#000000;stroke-width:10;stroke-linecap:butt;stroke-linejoin:round;stroke-miterlimit:10;stroke-opacity:1;stroke-dasharray:none" /><path
         d="m 3300,4125 c 0,24.85 -20.15,45 -45,45 -24.85,0 -45,-20.15 -45,-45 0,-24.85 20.15,-45 45,-45 24.85,0 45,20.15 45,45"
         inkscape:connector-curvature="0"
         id="path296"
         style="fill:#000000;fill-opacity:1;fill-rule:nonzero;stroke:none" /><g
         id="g298"><g
           clip-path="url(#clipPath302)"
           id="g300"><g
             transform="scale(10,10)"
             id="g306"><text
               transform="matrix(1,0,0,-1,121,200.819)"
               id="text308"><tspan
                 x="0 10.008233 21.006466 32.0047 42.012932 52.021168 62.0294 68.023636 78.031868 89.030098 100.02834 107.03056"
                 y="0"
                 id="tspan310"
                 style="font-size:18px;font-variant:normal;font-weight:bold;writing-mode:lr-tb;fill:#000000;fill-opacity:1;fill-rule:nonzero;stroke:none;font-family:Helvetica CY;-inkscape-font-specification:Helvetica-Bold">sub_category</tspan></text>
</g></g></g><g
         id="g312"><g
           clip-path="url(#clipPath316)"
           id="g314"><g
             transform="scale(10,10)"
             id="g320"><text
               transform="matrix(1,0,0,-1,146.5,179.502)"
               id="text322"><tspan
                 x="0 3.8921483"
                 y="0"
                 id="tspan324"
                 style="font-size:14px;font-variant:normal;font-weight:bold;writing-mode:lr-tb;fill:#000000;fill-opacity:1;fill-rule:nonzero;stroke:none;font-family:Helvetica CY;-inkscape-font-specification:Helvetica-Bold">id</tspan><tspan
                 x="0 8.5541344 16.338268 24.122402 31.906536 37.352673 41.244804 49.798939 54.461075 58.353207 66.907341 75.461479"
                 y="14"
                 id="tspan326"
                 style="font-size:14px;font-variant:normal;font-weight:bold;writing-mode:lr-tb;fill:#000000;fill-opacity:1;fill-rule:nonzero;stroke:none;font-family:Helvetica CY;-inkscape-font-specification:Helvetica-Bold">description </tspan></text>
</g></g></g><path
         d="m 1130,1550 1620,0 0,685 -1620,0 0,-685 z"
         inkscape:connector-curvature="0"
         id="path328"
         style="fill:none;stroke:#000000;stroke-width:10;stroke-linecap:butt;stroke-linejoin:round;stroke-miterlimit:10;stroke-opacity:1;stroke-dasharray:none" /><path
         d="m 1445,1875 c 0,24.85 -20.15,45 -45,45 -24.85,0 -45,-20.15 -45,-45 0,-24.85 20.15,-45 45,-45 24.85,0 45,20.15 45,45"
         inkscape:connector-curvature="0"
         id="path330"
         style="fill:#000000;fill-opacity:1;fill-rule:nonzero;stroke:none" /><g
         id="g332"><g
           clip-path="url(#clipPath336)"
           id="g334"><g
             transform="scale(10,10)"
             id="g340"><text
               transform="matrix(1,0,0,-1,95.5,116.319)"
               id="text342"><tspan
                 x="0 10.008213 21.006426 32.004639 42.012852 52.021065 62.029278 68.023491 78.0317 89.029915 100.02813 107.03034 117.03855 127.04677 137.05498 147.06319 157.07141 173.07362 184.07184 189.07201 199.08018"
                 y="0"
                 id="tspan344"
                 style="font-size:18px;font-variant:normal;font-weight:bold;writing-mode:lr-tb;fill:#000000;fill-opacity:1;fill-rule:nonzero;stroke:none;font-family:Helvetica CY;-inkscape-font-specification:Helvetica-Bold">sub_category_examples</tspan></text>
</g></g></g><g
         id="g346"><g
           clip-path="url(#clipPath350)"
           id="g348"><g
             transform="scale(10,10)"
             id="g354"><text
               transform="matrix(1,0,0,-1,126.39217,98.502)"
               id="text356"><tspan
                 x="0 3.8921666"
                 y="0"
                 id="tspan358"
                 style="font-size:14px;font-variant:normal;font-weight:bold;writing-mode:lr-tb;fill:#000000;fill-opacity:1;fill-rule:nonzero;stroke:none;font-family:Helvetica CY;-inkscape-font-specification:Helvetica-Bold">id</tspan><tspan
                 x="-3.8921666 3.8918493 11.675865 19.459881"
                 y="14"
                 id="tspan360"
                 style="font-size:14px;font-variant:normal;font-weight:bold;writing-mode:lr-tb;fill:#000000;fill-opacity:1;fill-rule:nonzero;stroke:none;font-family:Helvetica CY;-inkscape-font-specification:Helvetica-Bold">case</tspan><tspan
                 x="-3.8921666 4.6619687 12.446104 17.10824 24.892376 28.78451"
                 y="28"
                 id="tspan362"
                 style="font-size:14px;font-variant:normal;font-weight:bold;writing-mode:lr-tb;fill:#000000;fill-opacity:1;fill-rule:nonzero;stroke:none;font-family:Helvetica CY;-inkscape-font-specification:Helvetica-Bold">detail</tspan></text>
</g></g></g><path
         d="m 875,580 2215,0 0,855 -2215,0 0,-855 z"
         inkscape:connector-curvature="0"
         id="path364"
         style="fill:none;stroke:#000000;stroke-width:10;stroke-linecap:butt;stroke-linejoin:round;stroke-miterlimit:10;stroke-opacity:1;stroke-dasharray:none" /><path
         d="m 1190,1030 c 0,24.85 -20.15,45 -45,45 -24.85,0 -45,-20.15 -45,-45 0,-24.85 20.15,-45 45,-45 24.85,0 45,20.15 45,45"
         inkscape:connector-curvature="0"
         id="path366"
         style="fill:#000000;fill-opacity:1;fill-rule:nonzero;stroke:none" /><path
         d="m 1185,895 c 0,24.852 -20.15,45 -45,45 -24.85,0 -45,-20.148 -45,-45 0,-24.852 20.15,-45 45,-45 24.85,0 45,20.148 45,45"
         inkscape:connector-curvature="0"
         id="path368"
         style="fill:#000000;fill-opacity:1;fill-rule:nonzero;stroke:none" /><path
         d="m 3855,1900 1655,0 0,1080 -1655,0 0,-1080 z"
         inkscape:connector-curvature="0"
         id="path370"
         style="fill:none;stroke:#000000;stroke-width:10;stroke-linecap:butt;stroke-linejoin:round;stroke-miterlimit:10;stroke-opacity:1;stroke-dasharray:none" /><path
         d="m 4400,2585 c 0,30.38 -17.91,55 -40,55 -22.09,0 -40,-24.62 -40,-55 0,-30.37 17.91,-55 40,-55 22.09,0 40,24.63 40,55"
         inkscape:connector-curvature="0"
         id="path372"
         style="fill:#000000;fill-opacity:1;fill-rule:nonzero;stroke:none" /><g
         id="g374"><g
           clip-path="url(#clipPath378)"
           id="g376"><g
             transform="scale(10,10)"
             id="g382"><text
               transform="matrix(1,0,0,-1,396,278.319)"
               id="text384"><tspan
                 x="0 16.002211 26.010424 32.004635 43.002846 54.001057 64.999268 75.007484 80.011696 85.015907 95.024117"
                 y="0"
                 id="tspan386"
                 style="font-size:18px;font-variant:normal;font-weight:bold;writing-mode:lr-tb;fill:#000000;fill-opacity:1;fill-rule:nonzero;stroke:none;font-family:Helvetica CY;-inkscape-font-specification:Helvetica-Bold">method_list</tspan></text>
</g></g></g><g
         id="g388"><g
           clip-path="url(#clipPath392)"
           id="g390"><g
             transform="scale(10,10)"
             id="g396"><text
               transform="matrix(1,0,0,-1,445.5,253.502)"
               id="text398"><tspan
                 x="0 3.8921483"
                 y="0"
                 id="tspan400"
                 style="font-size:14px;font-variant:normal;font-weight:bold;writing-mode:lr-tb;fill:#000000;fill-opacity:1;fill-rule:nonzero;stroke:none;font-family:Helvetica CY;-inkscape-font-specification:Helvetica-Bold">id</tspan><tspan
                 x="0 3.8921354 12.446271 16.338406 20.230541 28.784678"
                 y="14"
                 id="tspan402"
                 style="font-size:14px;font-variant:normal;font-weight:bold;writing-mode:lr-tb;fill:#000000;fill-opacity:1;fill-rule:nonzero;stroke:none;font-family:Helvetica CY;-inkscape-font-specification:Helvetica-Bold">inline</tspan><tspan
                 x="0 7.7840543 16.338108 24.892162"
                 y="28"
                 id="tspan404"
                 style="font-size:14px;font-variant:normal;font-weight:bold;writing-mode:lr-tb;fill:#000000;fill-opacity:1;fill-rule:nonzero;stroke:none;font-family:Helvetica CY;-inkscape-font-specification:Helvetica-Bold">code</tspan><tspan
                 x="0 3.8920782 11.676156 20.230234 28.784313 37.33839 45.122471 53.676548"
                 y="42"
                 id="tspan406"
                 style="font-size:14px;font-variant:normal;font-weight:bold;writing-mode:lr-tb;fill:#000000;fill-opacity:1;fill-rule:nonzero;stroke:none;font-family:Helvetica CY;-inkscape-font-specification:Helvetica-Bold">language</tspan><tspan
                 x="0 8.5541353 16.33827 21.000406 28.784542 32.676678"
                 y="56"
                 id="tspan408"
                 style="font-size:14px;font-variant:normal;font-weight:bold;writing-mode:lr-tb;fill:#000000;fill-opacity:1;fill-rule:nonzero;stroke:none;font-family:Helvetica CY;-inkscape-font-specification:Helvetica-Bold">detail</tspan></text>
</g></g></g><g
         id="g410"><g
           clip-path="url(#clipPath414)"
           id="g412"><g
             transform="scale(10,10)"
             id="g418"><text
               transform="matrix(1,0,0,-1,314,350.819)"
               id="text420"><tspan
                 x="0 10.008226 20.016453 26.010677 36.018906 47.017132 58.015358 65.017586 75.02581 85.034035 101.03626 111.04449 117.03871 128.03694 139.03517 150.03339"
                 y="0"
                 id="tspan422"
                 style="font-size:18px;font-variant:normal;font-weight:bold;writing-mode:lr-tb;fill:#000000;fill-opacity:1;fill-rule:nonzero;stroke:none;font-family:Helvetica CY;-inkscape-font-specification:Helvetica-Bold">category_methods</tspan></text>
</g></g></g><g
         id="g424"><g
           clip-path="url(#clipPath428)"
           id="g426"><g
             transform="scale(10,10)"
             id="g432"><text
               transform="matrix(1,0,0,-1,343,332.002)"
               id="text434"><tspan
                 x="0 7.7841039 15.568208 20.230312 28.014416 36.56852 45.122623 50.568729 58.352833 66.13694 70.029037"
                 y="0"
                 id="tspan436"
                 style="font-size:14px;font-variant:normal;font-weight:bold;writing-mode:lr-tb;fill:#000000;fill-opacity:1;fill-rule:nonzero;stroke:none;font-family:Helvetica CY;-inkscape-font-specification:Helvetica-Bold">category_id</tspan><tspan
                 x="0 12.446132 20.230263 24.892395 33.446526 42.000656 50.554787 58.338921 62.231052"
                 y="14"
                 id="tspan438"
                 style="font-size:14px;font-variant:normal;font-weight:bold;writing-mode:lr-tb;fill:#000000;fill-opacity:1;fill-rule:nonzero;stroke:none;font-family:Helvetica CY;-inkscape-font-specification:Helvetica-Bold">method_id</tspan></text>
</g></g></g><path
         d="m 3390,3365 c 0,24.85 -20.15,45 -45,45 -24.85,0 -45,-20.15 -45,-45 0,-24.85 20.15,-45 45,-45 24.85,0 45,20.15 45,45"
         inkscape:connector-curvature="0"
         id="path440"
         style="fill:#000000;fill-opacity:1;fill-rule:nonzero;stroke:none" /><path
         d="m 3400,3215 c 0,24.85 -20.15,45 -45,45 -24.85,0 -45,-20.15 -45,-45 0,-24.85 20.15,-45 45,-45 24.85,0 45,20.15 45,45"
         inkscape:connector-curvature="0"
         id="path442"
         style="fill:#000000;fill-opacity:1;fill-rule:nonzero;stroke:none" /><path
         d="m 3080,3060 1780,0 0,620 -1780,0 0,-620 z"
         inkscape:connector-curvature="0"
         id="path444"
         style="fill:none;stroke:#000000;stroke-width:10;stroke-linecap:butt;stroke-linejoin:round;stroke-miterlimit:10;stroke-opacity:1;stroke-dasharray:none" /><path
         d="m 3210,3390 -330,0"
         inkscape:connector-curvature="0"
         id="path446"
         style="fill:none;stroke:#000000;stroke-width:10;stroke-linecap:butt;stroke-linejoin:round;stroke-miterlimit:10;stroke-opacity:1;stroke-dasharray:none" /><path
         d="m 1269.78,1847.07 -203.84,-99.37 -22.78,107.62"
         inkscape:connector-curvature="0"
         id="path448"
         style="fill:#000000;fill-opacity:1;fill-rule:nonzero;stroke:none" /><path
         d="m 1050,1030 -290,10.58 0,698.58 323.9,68.56"
         inkscape:connector-curvature="0"
         id="path450"
         style="fill:none;stroke:#000000;stroke-width:10;stroke-linecap:butt;stroke-linejoin:round;stroke-miterlimit:10;stroke-opacity:1;stroke-dasharray:none" /><g
         id="g452"><g
           clip-path="url(#clipPath456)"
           id="g454"><g
             transform="scale(10,10)"
             id="g460"><text
               transform="matrix(1,0,0,-1,346,146.819)"
               id="text462"><tspan
                 x="0 10.008237 21.006474 32.004711 42.012947 52.021183 62.029423 68.023659 78.031898 89.030128 100.02837 107.03061 117.03884 127.04708 143.04932 153.05756 159.05179 170.05003 181.04826 192.04201"
                 y="0"
                 id="tspan464"
                 style="font-size:18px;font-variant:normal;font-weight:bold;writing-mode:lr-tb;fill:#000000;fill-opacity:1;fill-rule:nonzero;stroke:none;font-family:Helvetica CY;-inkscape-font-specification:Helvetica-Bold">sub_category_methods</tspan></text>
</g></g></g><g
         id="g466"><g
           clip-path="url(#clipPath470)"
           id="g468"><g
             transform="scale(10,10)"
             id="g474"><text
               transform="matrix(1,0,0,-1,372,125.002)"
               id="text476"><tspan
                 x="0 12.446132 20.230263 24.892395 33.446526 42.000656 50.554787 58.338921 62.231052"
                 y="0"
                 id="tspan478"
                 style="font-size:14px;font-variant:normal;font-weight:bold;writing-mode:lr-tb;fill:#000000;fill-opacity:1;fill-rule:nonzero;stroke:none;font-family:Helvetica CY;-inkscape-font-specification:Helvetica-Bold">method_id</tspan><tspan
                 x="0 7.784091 16.338182 24.892273 32.676365 40.460457 48.244545 52.906639 60.690727 69.24482 77.798912 83.245003 91.029091 98.813187 102.70528"
                 y="14"
                 id="tspan480"
                 style="font-size:14px;font-variant:normal;font-weight:bold;writing-mode:lr-tb;fill:#000000;fill-opacity:1;fill-rule:nonzero;stroke:none;font-family:Helvetica CY;-inkscape-font-specification:Helvetica-Bold">sub_category_id</tspan></text>
</g></g></g><path
         d="m 3360,840 2200,0 0,850 -2200,0 0,-850 z"
         inkscape:connector-curvature="0"
         id="path482"
         style="fill:none;stroke:#000000;stroke-width:10;stroke-linecap:butt;stroke-linejoin:round;stroke-miterlimit:10;stroke-opacity:1;stroke-dasharray:none" /><path
         d="m 3670,1295 c 0,24.85 -20.15,45 -45,45 -24.85,0 -45,-20.15 -45,-45 0,-24.85 20.15,-45 45,-45 24.85,0 45,20.15 45,45"
         inkscape:connector-curvature="0"
         id="path484"
         style="fill:#000000;fill-opacity:1;fill-rule:nonzero;stroke:none" /><path
         d="m 3670,1145 c 0,24.85 -20.15,45 -45,45 -24.85,0 -45,-20.15 -45,-45 0,-24.85 20.15,-45 45,-45 24.85,0 45,20.15 45,45"
         inkscape:connector-curvature="0"
         id="path486"
         style="fill:#000000;fill-opacity:1;fill-rule:nonzero;stroke:none" /><path
         d="m 4230,2550 -220,-55 0,110"
         inkscape:connector-curvature="0"
         id="path488"
         style="fill:#000000;fill-opacity:1;fill-rule:nonzero;stroke:none" /><path
         d="m 3520,1320 -250,10 0,1220 770,0"
         inkscape:connector-curvature="0"
         id="path490"
         style="fill:none;stroke:#000000;stroke-width:10;stroke-linecap:butt;stroke-linejoin:round;stroke-miterlimit:10;stroke-opacity:1;stroke-dasharray:none" /><path
         d="m 4219.94,2648.91 -224.7,-30.59 12.04,109.34"
         inkscape:connector-curvature="0"
         id="path492"
         style="fill:#000000;fill-opacity:1;fill-rule:nonzero;stroke:none" /><path
         d="m 3240,3220 -120,0 0,-450 911.08,-100.3"
         inkscape:connector-curvature="0"
         id="path494"
         style="fill:none;stroke:#000000;stroke-width:10;stroke-linecap:butt;stroke-linejoin:round;stroke-miterlimit:10;stroke-opacity:1;stroke-dasharray:none" /><path
         d="m 1710,1875 220,55 0,-110"
         inkscape:connector-curvature="0"
         id="path496"
         style="fill:#000000;fill-opacity:1;fill-rule:nonzero;stroke:none" /><path
         d="m 3510,1150 -300,0 0,725 -1310,0"
         inkscape:connector-curvature="0"
         id="path498"
         style="fill:none;stroke:#000000;stroke-width:10;stroke-linecap:butt;stroke-linejoin:round;stroke-miterlimit:10;stroke-opacity:1;stroke-dasharray:none" /><path
         d="m 3550,4440 220,55 0,-110"
         inkscape:connector-curvature="0"
         id="path500"
         style="fill:#000000;fill-opacity:1;fill-rule:nonzero;stroke:none" /><path
         d="m 4620,5020 480,0 0,-580 -1360,0"
         inkscape:connector-curvature="0"
         id="path502"
         style="fill:none;stroke:#000000;stroke-width:10;stroke-linecap:butt;stroke-linejoin:round;stroke-miterlimit:10;stroke-opacity:1;stroke-dasharray:none" /><path
         d="m 945,2385 1890,0 0,585 -1890,0 0,-585 z"
         inkscape:connector-curvature="0"
         id="path504"
         style="fill:none;stroke:#000000;stroke-width:10;stroke-linecap:butt;stroke-linejoin:round;stroke-miterlimit:10;stroke-opacity:1;stroke-dasharray:none" /><g
         id="g506"><g
           clip-path="url(#clipPath510)"
           id="g508"><g
             transform="scale(10,10)"
             id="g514"><text
               transform="matrix(1,0,0,-1,103.5,278.413)"
               id="text516"><tspan
                 x="0 5.00421 10.99842 21.00663 37.008839 47.017052 57.025261 68.023468 79.021683 89.029892 99.038101 109.04631 115.04052 125.04873 136.04694 147.04515 154.04736"
                 y="0"
                 id="tspan518"
                 style="font-size:18px;font-variant:normal;font-weight:bold;writing-mode:lr-tb;fill:#000000;fill-opacity:1;fill-rule:nonzero;stroke:none;font-family:Helvetica CY;-inkscape-font-specification:Helvetica-Bold">item_sub_category</tspan></text>
</g></g></g><g
         id="g520"><g
           clip-path="url(#clipPath524)"
           id="g522"><g
             transform="scale(10,10)"
             id="g528"><text
               transform="matrix(1,0,0,-1,130.5,259.971)"
               id="text530"><tspan
                 x="0 8.5541058 16.338211 28.784317"
                 y="0"
                 id="tspan532"
                 style="font-size:14px;font-variant:normal;font-weight:bold;writing-mode:lr-tb;fill:#000000;fill-opacity:1;fill-rule:nonzero;stroke:none;font-family:Helvetica CY;-inkscape-font-specification:Helvetica-Bold">name</tspan><tspan
                 x="0 3.8921483"
                 y="14"
                 id="tspan534"
                 style="font-size:14px;font-variant:normal;font-weight:bold;writing-mode:lr-tb;fill:#000000;fill-opacity:1;fill-rule:nonzero;stroke:none;font-family:Helvetica CY;-inkscape-font-specification:Helvetica-Bold">id</tspan></text>
</g></g></g><path
         d="m 1260,2655 c 0,24.85 -20.15,45 -45,45 -24.85,0 -45,-20.15 -45,-45 0,-24.85 20.15,-45 45,-45 24.85,0 45,20.15 45,45"
         inkscape:connector-curvature="0"
         id="path536"
         style="fill:#000000;fill-opacity:1;fill-rule:nonzero;stroke:none" /><path
         d="m 1260,2520 c 0,24.85 -20.15,45 -45,45 -24.85,0 -45,-20.15 -45,-45 0,-24.85 20.15,-45 45,-45 24.85,0 45,20.15 45,45"
         inkscape:connector-curvature="0"
         id="path538"
         style="fill:#000000;fill-opacity:1;fill-rule:nonzero;stroke:none" /><path
         d="m 1050,3600 -220,-55 0,110"
         inkscape:connector-curvature="0"
         id="path540"
         style="fill:#000000;fill-opacity:1;fill-rule:nonzero;stroke:none" /><path
         d="m 1080,2655 -360,0 0,945 140,0"
         inkscape:connector-curvature="0"
         id="path542"
         style="fill:none;stroke:#000000;stroke-width:10;stroke-linecap:butt;stroke-linejoin:round;stroke-miterlimit:10;stroke-opacity:1;stroke-dasharray:none" /><path
         d="m 1269.7,1887.57 -226.77,0 26.68,106.72"
         inkscape:connector-curvature="0"
         id="path544"
         style="fill:#000000;fill-opacity:1;fill-rule:nonzero;stroke:none" /><path
         d="m 1080,2520 -360,0 0,-495 365.37,-91.34"
         inkscape:connector-curvature="0"
         id="path546"
         style="fill:none;stroke:#000000;stroke-width:10;stroke-linecap:butt;stroke-linejoin:round;stroke-miterlimit:10;stroke-opacity:1;stroke-dasharray:none" /></g></g></svg>