<?xml version="1.0" encoding="UTF-8" standalone="no"?>
<!-- Created with Inkscape (http://www.inkscape.org/) -->

<svg
   xmlns:dc="http://purl.org/dc/elements/1.1/"
   xmlns:cc="http://creativecommons.org/ns#"
   xmlns:rdf="http://www.w3.org/1999/02/22-rdf-syntax-ns#"
   xmlns:svg="http://www.w3.org/2000/svg"
   xmlns="http://www.w3.org/2000/svg"
   xmlns:inkscape="http://www.inkscape.org/namespaces/inkscape"
   version="1.1"
   width="765"
   height="990"
   id="svg2"
   xml:space="preserve"><metadata
     id="metadata8"><rdf:RDF><cc:Work
         rdf:about=""><dc:format>image/svg+xml</dc:format><dc:type
           rdf:resource="http://purl.org/dc/dcmitype/StillImage" /></cc:Work></rdf:RDF></metadata><defs
     id="defs6"><clipPath
       id="clipPath18"><path
         d="m 940,4749.06 430.078,0 0,239.133 -430.078,0 0,-239.133 z"
         inkscape:connector-curvature="0"
         id="path20" /></clipPath><clipPath
       id="clipPath32"><path
         d="m 1165,4305.31 1180.28,0 0,464.711 -1180.28,0 0,-464.711 z"
         inkscape:connector-curvature="0"
         id="path34" /></clipPath><clipPath
       id="clipPath54"><path
         d="m 3550,5154.06 1120.2,0 0,239.133 -1120.2,0 0,-239.133 z"
         inkscape:connector-curvature="0"
         id="path56" /></clipPath><clipPath
       id="clipPath68"><path
         d="m 3775,4850.31 425.68,0 0,324.711 -425.68,0 0,-324.711 z"
         inkscape:connector-curvature="0"
         id="path70" /></clipPath><clipPath
       id="clipPath88"><path
         d="m 3595,6189.06 1610.34,0 0,239.133 -1610.34,0 0,-239.133 z"
         inkscape:connector-curvature="0"
         id="path90" /></clipPath><clipPath
       id="clipPath102"><path
         d="m 3820,5700.31 425.68,0 0,464.711 -425.68,0 0,-464.711 z"
         inkscape:connector-curvature="0"
         id="path104" /></clipPath><clipPath
       id="clipPath126"><path
         d="m 3550,4299.06 1350.6,0 0,239.133 -1350.6,0 0,-239.133 z"
         inkscape:connector-curvature="0"
         id="path128" /></clipPath><clipPath
       id="clipPath140"><path
         d="m 3730,3810.31 425.68,0 0,464.711 -425.68,0 0,-464.711 z"
         inkscape:connector-curvature="0"
         id="path142" /></clipPath><clipPath
       id="clipPath184"><path
         d="m 3550,3264.06 1120.38,0 0,239.133 -1120.38,0 0,-239.133 z"
         inkscape:connector-curvature="0"
         id="path186" /></clipPath><clipPath
       id="clipPath198"><path
         d="m 3730,2820.31 1016.76,0 0,464.711 -1016.76,0 0,-464.711 z"
         inkscape:connector-curvature="0"
         id="path200" /></clipPath><clipPath
       id="clipPath222"><path
         d="m 3560,2344.06 1910.4,0 0,239.133 -1910.4,0 0,-239.133 z"
         inkscape:connector-curvature="0"
         id="path224" /></clipPath><clipPath
       id="clipPath236"><path
         d="m 3830,2040.31 425.68,0 0,324.711 -425.68,0 0,-324.711 z"
         inkscape:connector-curvature="0"
         id="path238" /></clipPath><clipPath
       id="clipPath256"><path
         d="m 3560,1514.06 1440.24,0 0,239.133 -1440.24,0 0,-239.133 z"
         inkscape:connector-curvature="0"
         id="path258" /></clipPath><clipPath
       id="clipPath270"><path
         d="m 3740,1210.31 1211.36,0 0,324.711 -1211.36,0 0,-324.711 z"
         inkscape:connector-curvature="0"
         id="path272" /></clipPath><clipPath
       id="clipPath298"><path
         d="m 3595,7089.06 1500.36,0 0,239.133 -1500.36,0 0,-239.133 z"
         inkscape:connector-curvature="0"
         id="path300" /></clipPath><clipPath
       id="clipPath312"><path
         d="m 3820,6785.31 814.602,0 0,324.711 -814.602,0 0,-324.711 z"
         inkscape:connector-curvature="0"
         id="path314" /></clipPath><clipPath
       id="clipPath332"><path
         d="m 3615,714.063 1130.64,0 0,239.129 -1130.64,0 0,-239.129 z"
         inkscape:connector-curvature="0"
         id="path334" /></clipPath><clipPath
       id="clipPath346"><path
         d="m 3840,130.313 814.879,0 0,604.707 -814.879,0 0,-604.707 z"
         inkscape:connector-curvature="0"
         id="path348" /></clipPath></defs><g
     transform="matrix(1.25,0,0,-1.25,0,990)"
     id="g10"><g
       transform="scale(0.1,0.1)"
       id="g12"><g
         id="g14"><g
           clip-path="url(#clipPath18)"
           id="g16"><g
             transform="scale(10,10)"
             id="g22"><text
               transform="matrix(1,0,0,-1,96,480.819)"
               id="text24"><tspan
                 x="0 5.0041442 10.998288 21.006432"
                 y="0"
                 id="tspan26"
                 style="font-size:18px;font-variant:normal;font-weight:bold;writing-mode:lr-tb;fill:#000000;fill-opacity:1;fill-rule:nonzero;stroke:none;font-family:Helvetica CY;-inkscape-font-specification:Helvetica-Bold">item</tspan></text>
</g></g></g><g
         id="g28"><g
           clip-path="url(#clipPath32)"
           id="g30"><g
             transform="scale(10,10)"
             id="g36"><text
               transform="matrix(1,0,0,-1,118.5,463.002)"
               id="text38"><tspan
                 x="0 8.5541058 16.338211 28.784317"
                 y="0"
                 id="tspan40"
                 style="font-size:14px;font-variant:normal;font-weight:bold;writing-mode:lr-tb;fill:#000000;fill-opacity:1;fill-rule:nonzero;stroke:none;font-family:Helvetica CY;-inkscape-font-specification:Helvetica-Bold">name</tspan><tspan
                 x="0 7.7841039 15.568208 20.230312 28.014416 36.56852 45.122623 50.568729 58.352833 66.13694 70.029037"
                 y="14"
                 id="tspan42"
                 style="font-size:14px;font-variant:normal;font-weight:bold;writing-mode:lr-tb;fill:#000000;fill-opacity:1;fill-rule:nonzero;stroke:none;font-family:Helvetica CY;-inkscape-font-specification:Helvetica-Bold">category_id</tspan><tspan
                 x="0 12.446102 20.230206 28.784307 37.338409 45.122513 49.784615 58.338718 63.784821 71.568924 79.353027 87.137131 95.691231 104.24533"
                 y="28"
                 id="tspan44"
                 style="font-size:14px;font-variant:normal;font-weight:bold;writing-mode:lr-tb;fill:#000000;fill-opacity:1;fill-rule:nonzero;stroke:none;font-family:Helvetica CY;-inkscape-font-specification:Helvetica-Bold">mandatory_code</tspan></text>
</g></g></g><path
         d="m 880,4135 1710,0 0,855 -1710,0 0,-855 z"
         inkscape:connector-curvature="0"
         id="path46"
         style="fill:none;stroke:#000000;stroke-width:10;stroke-linecap:butt;stroke-linejoin:round;stroke-miterlimit:10;stroke-opacity:1;stroke-dasharray:none" /><path
         d="m 1150,4675 c 0,24.85 -20.15,45 -45,45 -24.85,0 -45,-20.15 -45,-45 0,-24.85 20.15,-45 45,-45 24.85,0 45,20.15 45,45"
         inkscape:connector-curvature="0"
         id="path48"
         style="fill:#000000;fill-opacity:1;fill-rule:nonzero;stroke:none" /><g
         id="g50"><g
           clip-path="url(#clipPath54)"
           id="g52"><g
             transform="scale(10,10)"
             id="g58"><text
               transform="matrix(1,0,0,-1,357,521.319)"
               id="text60"><tspan
                 x="0 5.0042014 10.998404 21.006605 37.008804 47.017006 58.015209 68.023415 74.017609 84.02581 95.024017 100.02821"
                 y="0"
                 id="tspan62"
                 style="font-size:18px;font-variant:normal;font-weight:bold;writing-mode:lr-tb;fill:#000000;fill-opacity:1;fill-rule:nonzero;stroke:none;font-family:Helvetica CY;-inkscape-font-specification:Helvetica-Bold">item_default</tspan></text>
</g></g></g><g
         id="g64"><g
           clip-path="url(#clipPath68)"
           id="g66"><g
             transform="scale(10,10)"
             id="g72"><text
               transform="matrix(1,0,0,-1,379.5,503.502)"
               id="text74"><tspan
                 x="0 8.5541058 16.338211 28.784317"
                 y="0"
                 id="tspan76"
                 style="font-size:14px;font-variant:normal;font-weight:bold;writing-mode:lr-tb;fill:#000000;fill-opacity:1;fill-rule:nonzero;stroke:none;font-family:Helvetica CY;-inkscape-font-specification:Helvetica-Bold">name</tspan><tspan
                 x="0 7.7840686 15.568137 19.460205 28.014275"
                 y="14"
                 id="tspan78"
                 style="font-size:14px;font-variant:normal;font-weight:bold;writing-mode:lr-tb;fill:#000000;fill-opacity:1;fill-rule:nonzero;stroke:none;font-family:Helvetica CY;-inkscape-font-specification:Helvetica-Bold">value</tspan></text>
</g></g></g><path
         d="m 3500,5395 1360,5 0,-720 -1360,-5 0,720 z"
         inkscape:connector-curvature="0"
         id="path80"
         style="fill:none;stroke:#000000;stroke-width:10;stroke-linecap:butt;stroke-linejoin:round;stroke-miterlimit:10;stroke-opacity:1;stroke-dasharray:none" /><path
         d="m 3760,5125 c 0,24.85 -20.15,45 -45,45 -24.85,0 -45,-20.15 -45,-45 0,-24.85 20.15,-45 45,-45 24.85,0 45,20.15 45,45"
         inkscape:connector-curvature="0"
         id="path82"
         style="fill:#000000;fill-opacity:1;fill-rule:nonzero;stroke:none" /><g
         id="g84"><g
           clip-path="url(#clipPath88)"
           id="g86"><g
             transform="scale(10,10)"
             id="g92"><text
               transform="matrix(1,0,0,-1,361.5,624.819)"
               id="text94"><tspan
                 x="0 5.0041966 10.998393 21.00659 37.008785 47.016983 57.025177 68.023376 79.021568 95.023766 105.03197 112.03416 122.04236 128.03656 133.04076 144.03894"
                 y="0"
                 id="tspan96"
                 style="font-size:18px;font-variant:normal;font-weight:bold;writing-mode:lr-tb;fill:#000000;fill-opacity:1;fill-rule:nonzero;stroke:none;font-family:Helvetica CY;-inkscape-font-specification:Helvetica-Bold">item_enumeration</tspan></text>
</g></g></g><g
         id="g98"><g
           clip-path="url(#clipPath102)"
           id="g100"><g
             transform="scale(10,10)"
             id="g106"><text
               transform="matrix(1,0,0,-1,384,602.502)"
               id="text108"><tspan
                 x="0 8.5541058 16.338211 28.784317"
                 y="0"
                 id="tspan110"
                 style="font-size:14px;font-variant:normal;font-weight:bold;writing-mode:lr-tb;fill:#000000;fill-opacity:1;fill-rule:nonzero;stroke:none;font-family:Helvetica CY;-inkscape-font-specification:Helvetica-Bold">name</tspan><tspan
                 x="0 7.7840686 15.568137 19.460205 28.014275"
                 y="14"
                 id="tspan112"
                 style="font-size:14px;font-variant:normal;font-weight:bold;writing-mode:lr-tb;fill:#000000;fill-opacity:1;fill-rule:nonzero;stroke:none;font-family:Helvetica CY;-inkscape-font-specification:Helvetica-Bold">value</tspan><tspan
                 x="0 8.5541353 16.33827 21.000406 28.784542 32.676678"
                 y="28"
                 id="tspan114"
                 style="font-size:14px;font-variant:normal;font-weight:bold;writing-mode:lr-tb;fill:#000000;fill-opacity:1;fill-rule:nonzero;stroke:none;font-family:Helvetica CY;-inkscape-font-specification:Helvetica-Bold">detail</tspan></text>
</g></g></g><path
         d="m 3490,5485 1720,0 0,990 -1720,0 0,-990 z"
         inkscape:connector-curvature="0"
         id="path116"
         style="fill:none;stroke:#000000;stroke-width:10;stroke-linecap:butt;stroke-linejoin:round;stroke-miterlimit:10;stroke-opacity:1;stroke-dasharray:none" /><path
         d="m 3805,6115 c 0,24.85 -20.15,45 -45,45 -24.85,0 -45,-20.15 -45,-45 0,-24.85 20.15,-45 45,-45 24.85,0 45,20.15 45,45"
         inkscape:connector-curvature="0"
         id="path118"
         style="fill:#000000;fill-opacity:1;fill-rule:nonzero;stroke:none" /><path
         d="m 3805,5935 c 0,24.85 -20.15,45 -45,45 -24.85,0 -45,-20.15 -45,-45 0,-24.85 20.15,-45 45,-45 24.85,0 45,20.15 45,45"
         inkscape:connector-curvature="0"
         id="path120"
         style="fill:#000000;fill-opacity:1;fill-rule:nonzero;stroke:none" /><g
         id="g122"><g
           clip-path="url(#clipPath126)"
           id="g124"><g
             transform="scale(10,10)"
             id="g130"><text
               transform="matrix(1,0,0,-1,357,435.819)"
               id="text132"><tspan
                 x="0 5.004168 10.998336 21.006504 37.008671 47.016838 57.025005 67.033173 77.041344 93.04351 104.04168 109.04585 119.05402"
                 y="0"
                 id="tspan134"
                 style="font-size:18px;font-variant:normal;font-weight:bold;writing-mode:lr-tb;fill:#000000;fill-opacity:1;fill-rule:nonzero;stroke:none;font-family:Helvetica CY;-inkscape-font-specification:Helvetica-Bold">item_examples</tspan></text>
</g></g></g><g
         id="g136"><g
           clip-path="url(#clipPath140)"
           id="g138"><g
             transform="scale(10,10)"
             id="g144"><text
               transform="matrix(1,0,0,-1,375,413.502)"
               id="text146"><tspan
                 x="0 8.5541058 16.338211 28.784317"
                 y="0"
                 id="tspan148"
                 style="font-size:14px;font-variant:normal;font-weight:bold;writing-mode:lr-tb;fill:#000000;fill-opacity:1;fill-rule:nonzero;stroke:none;font-family:Helvetica CY;-inkscape-font-specification:Helvetica-Bold">name</tspan><tspan
                 x="0 7.7840157 15.568031 23.352047"
                 y="14"
                 id="tspan150"
                 style="font-size:14px;font-variant:normal;font-weight:bold;writing-mode:lr-tb;fill:#000000;fill-opacity:1;fill-rule:nonzero;stroke:none;font-family:Helvetica CY;-inkscape-font-specification:Helvetica-Bold">case</tspan><tspan
                 x="0 8.5541353 16.33827 21.000406 28.784542 32.676678"
                 y="28"
                 id="tspan152"
                 style="font-size:14px;font-variant:normal;font-weight:bold;writing-mode:lr-tb;fill:#000000;fill-opacity:1;fill-rule:nonzero;stroke:none;font-family:Helvetica CY;-inkscape-font-specification:Helvetica-Bold">detail</tspan></text>
</g></g></g><path
         d="m 3490,3640 1965,0 0,945 -1965,0 0,-945 z"
         inkscape:connector-curvature="0"
         id="path154"
         style="fill:none;stroke:#000000;stroke-width:10;stroke-linecap:butt;stroke-linejoin:round;stroke-miterlimit:10;stroke-opacity:1;stroke-dasharray:none" /><path
         d="m 3715,4225 c 0,24.85 -20.15,45 -45,45 -24.85,0 -45,-20.15 -45,-45 0,-24.85 20.15,-45 45,-45 24.85,0 45,20.15 45,45"
         inkscape:connector-curvature="0"
         id="path156"
         style="fill:#000000;fill-opacity:1;fill-rule:nonzero;stroke:none" /><path
         d="m 3715,4045 c 0,24.85 -20.15,45 -45,45 -24.85,0 -45,-20.15 -45,-45 0,-24.85 20.15,-45 45,-45 24.85,0 45,20.15 45,45"
         inkscape:connector-curvature="0"
         id="path158"
         style="fill:#000000;fill-opacity:1;fill-rule:nonzero;stroke:none" /><path
         d="M 2770,7060 2780,600"
         inkscape:connector-curvature="0"
         id="path160"
         style="fill:none;stroke:#000000;stroke-width:10;stroke-linecap:butt;stroke-linejoin:round;stroke-miterlimit:10;stroke-opacity:1;stroke-dasharray:none" /><path
         d="m 3625,6115 -855,0"
         inkscape:connector-curvature="0"
         id="path162"
         style="fill:none;stroke:#000000;stroke-width:10;stroke-linecap:butt;stroke-linejoin:round;stroke-miterlimit:10;stroke-opacity:1;stroke-dasharray:none" /><path
         d="m 3580,5125 -810,0"
         inkscape:connector-curvature="0"
         id="path164"
         style="fill:none;stroke:#000000;stroke-width:10;stroke-linecap:butt;stroke-linejoin:round;stroke-miterlimit:10;stroke-opacity:1;stroke-dasharray:none" /><path
         d="m 3580,4225 -810,0"
         inkscape:connector-curvature="0"
         id="path166"
         style="fill:none;stroke:#000000;stroke-width:10;stroke-linecap:butt;stroke-linejoin:round;stroke-miterlimit:10;stroke-opacity:1;stroke-dasharray:none" /><path
         d="m 3580,3235 -810,0"
         inkscape:connector-curvature="0"
         id="path168"
         style="fill:none;stroke:#000000;stroke-width:10;stroke-linecap:butt;stroke-linejoin:round;stroke-miterlimit:10;stroke-opacity:1;stroke-dasharray:none" /><path
         d="m 3590,2260 -810,0"
         inkscape:connector-curvature="0"
         id="path170"
         style="fill:none;stroke:#000000;stroke-width:10;stroke-linecap:butt;stroke-linejoin:round;stroke-miterlimit:10;stroke-opacity:1;stroke-dasharray:none" /><path
         d="m 2770,7060 855,0"
         inkscape:connector-curvature="0"
         id="path172"
         style="fill:none;stroke:#000000;stroke-width:10;stroke-linecap:butt;stroke-linejoin:round;stroke-miterlimit:10;stroke-opacity:1;stroke-dasharray:none" /><path
         d="m 1970,4680 220,55 0,-110"
         inkscape:connector-curvature="0"
         id="path174"
         style="fill:#000000;fill-opacity:1;fill-rule:nonzero;stroke:none" /><path
         d="m 2760,4680 -600,0"
         inkscape:connector-curvature="0"
         id="path176"
         style="fill:none;stroke:#000000;stroke-width:10;stroke-linecap:butt;stroke-linejoin:round;stroke-miterlimit:10;stroke-opacity:1;stroke-dasharray:none" /><path
         d="m 2770,3050 790,0"
         inkscape:connector-curvature="0"
         id="path178"
         style="fill:none;stroke:#000000;stroke-width:10;stroke-linecap:butt;stroke-linejoin:round;stroke-miterlimit:10;stroke-opacity:1;stroke-dasharray:none" /><g
         id="g180"><g
           clip-path="url(#clipPath184)"
           id="g182"><g
             transform="scale(10,10)"
             id="g188"><text
               transform="matrix(1,0,0,-1,357,332.319)"
               id="text190"><tspan
                 x="0 5.0041723 10.998344 21.006517 37.00869 47.016861 54.019035 64.027206 69.03138 79.039551 85.033722 95.041893"
                 y="0"
                 id="tspan192"
                 style="font-size:18px;font-variant:normal;font-weight:bold;writing-mode:lr-tb;fill:#000000;fill-opacity:1;fill-rule:nonzero;stroke:none;font-family:Helvetica CY;-inkscape-font-specification:Helvetica-Bold">item_related</tspan></text>
</g></g></g><g
         id="g194"><g
           clip-path="url(#clipPath198)"
           id="g196"><g
             transform="scale(10,10)"
             id="g202"><text
               transform="matrix(1,0,0,-1,375,314.502)"
               id="text204"><tspan
                 x="0 8.5541058 16.338211 28.784317"
                 y="0"
                 id="tspan206"
                 style="font-size:14px;font-variant:normal;font-weight:bold;writing-mode:lr-tb;fill:#000000;fill-opacity:1;fill-rule:nonzero;stroke:none;font-family:Helvetica CY;-inkscape-font-specification:Helvetica-Bold">name</tspan><tspan
                 x="0 5.4461136 13.230227 17.122341 24.906456 29.568569 37.352684 45.906796 53.69091 62.245026 70.029137 82.47525"
                 y="14"
                 id="tspan208"
                 style="font-size:14px;font-variant:normal;font-weight:bold;writing-mode:lr-tb;fill:#000000;fill-opacity:1;fill-rule:nonzero;stroke:none;font-family:Helvetica CY;-inkscape-font-specification:Helvetica-Bold">related_name</tspan><tspan
                 x="0 4.6621075 13.216215 21.770323 29.55443 34.216537 38.108643 46.66275 55.216858 63.000965 70.785072 79.33918 87.893288"
                 y="28"
                 id="tspan210"
                 style="font-size:14px;font-variant:normal;font-weight:bold;writing-mode:lr-tb;fill:#000000;fill-opacity:1;fill-rule:nonzero;stroke:none;font-family:Helvetica CY;-inkscape-font-specification:Helvetica-Bold">function_code</tspan></text>
</g></g></g><path
         d="m 3490,2690 1800,0 0,860 -1800,0 0,-860 z"
         inkscape:connector-curvature="0"
         id="path212"
         style="fill:none;stroke:#000000;stroke-width:10;stroke-linecap:butt;stroke-linejoin:round;stroke-miterlimit:10;stroke-opacity:1;stroke-dasharray:none" /><path
         d="m 3715,3235 c 0,24.85 -20.15,45 -45,45 -24.85,0 -45,-20.15 -45,-45 0,-24.85 20.15,-45 45,-45 24.85,0 45,20.15 45,45"
         inkscape:connector-curvature="0"
         id="path214"
         style="fill:#000000;fill-opacity:1;fill-rule:nonzero;stroke:none" /><path
         d="m 3715,3055 c 0,24.85 -20.15,45 -45,45 -24.85,0 -45,-20.15 -45,-45 0,-24.85 20.15,-45 45,-45 24.85,0 45,20.15 45,45"
         inkscape:connector-curvature="0"
         id="path216"
         style="fill:#000000;fill-opacity:1;fill-rule:nonzero;stroke:none" /><g
         id="g218"><g
           clip-path="url(#clipPath222)"
           id="g220"><g
             transform="scale(10,10)"
             id="g226"><text
               transform="matrix(1,0,0,-1,358,240.319)"
               id="text228"><tspan
                 x="0 5.0042238 10.998448 21.006672 37.008896 47.01712 53.011345 63.019569 74.017792 84.026016 94.034241 104.04247 115.04069 126.03891 137.03714 142.04137 148.03558 153.03981 164.03804 175.032"
                 y="0"
                 id="tspan230"
                 style="font-size:18px;font-variant:normal;font-weight:bold;writing-mode:lr-tb;fill:#000000;fill-opacity:1;fill-rule:nonzero;stroke:none;font-family:Helvetica CY;-inkscape-font-specification:Helvetica-Bold">item_type_conditions</tspan></text>
</g></g></g><g
         id="g232"><g
           clip-path="url(#clipPath236)"
           id="g234"><g
             transform="scale(10,10)"
             id="g240"><text
               transform="matrix(1,0,0,-1,385,222.502)"
               id="text242"><tspan
                 x="0 8.5541058 16.338211 28.784317"
                 y="0"
                 id="tspan244"
                 style="font-size:14px;font-variant:normal;font-weight:bold;writing-mode:lr-tb;fill:#000000;fill-opacity:1;fill-rule:nonzero;stroke:none;font-family:Helvetica CY;-inkscape-font-specification:Helvetica-Bold">name</tspan><tspan
                 x="0 7.7840543 16.338108 24.892162"
                 y="14"
                 id="tspan246"
                 style="font-size:14px;font-variant:normal;font-weight:bold;writing-mode:lr-tb;fill:#000000;fill-opacity:1;fill-rule:nonzero;stroke:none;font-family:Helvetica CY;-inkscape-font-specification:Helvetica-Bold">code</tspan></text>
</g></g></g><path
         d="m 3500,1930 2020,0 0,655 -2020,0 0,-655 z"
         inkscape:connector-curvature="0"
         id="path248"
         style="fill:none;stroke:#000000;stroke-width:10;stroke-linecap:butt;stroke-linejoin:round;stroke-miterlimit:10;stroke-opacity:1;stroke-dasharray:none" /><path
         d="m 3725,2270 c 0,24.85 -20.15,45 -45,45 -24.85,0 -45,-20.15 -45,-45 0,-24.85 20.15,-45 45,-45 24.85,0 45,20.15 45,45"
         inkscape:connector-curvature="0"
         id="path250"
         style="fill:#000000;fill-opacity:1;fill-rule:nonzero;stroke:none" /><g
         id="g252"><g
           clip-path="url(#clipPath256)"
           id="g254"><g
             transform="scale(10,10)"
             id="g260"><text
               transform="matrix(1,0,0,-1,358,157.319)"
               id="text262"><tspan
                 x="0 5.0042353 10.998471 21.006706 37.008942 47.017178 58.015411 68.023651 79.021881 89.030121 100.02835 111.02659 121.03483 132.03307"
                 y="0"
                 id="tspan264"
                 style="font-size:18px;font-variant:normal;font-weight:bold;writing-mode:lr-tb;fill:#000000;fill-opacity:1;fill-rule:nonzero;stroke:none;font-family:Helvetica CY;-inkscape-font-specification:Helvetica-Bold">item_dependent</tspan></text>
</g></g></g><g
         id="g266"><g
           clip-path="url(#clipPath270)"
           id="g268"><g
             transform="scale(10,10)"
             id="g274"><text
               transform="matrix(1,0,0,-1,376,139.502)"
               id="text276"><tspan
                 x="0 8.5541058 16.338211 28.784317"
                 y="0"
                 id="tspan278"
                 style="font-size:14px;font-variant:normal;font-weight:bold;writing-mode:lr-tb;fill:#000000;fill-opacity:1;fill-rule:nonzero;stroke:none;font-family:Helvetica CY;-inkscape-font-specification:Helvetica-Bold">name</tspan><tspan
                 x="0 8.5540886 16.338177 24.892265 32.676353 41.230442 49.784531 57.568619 66.122704 70.784798 78.568886 87.122971 94.907059 107.35315"
                 y="14"
                 id="tspan280"
                 style="font-size:14px;font-variant:normal;font-weight:bold;writing-mode:lr-tb;fill:#000000;fill-opacity:1;fill-rule:nonzero;stroke:none;font-family:Helvetica CY;-inkscape-font-specification:Helvetica-Bold">dependent_name</tspan></text>
</g></g></g><path
         d="m 3500,1090 1800,0 0,710 -1800,0 0,-710 z"
         inkscape:connector-curvature="0"
         id="path282"
         style="fill:none;stroke:#000000;stroke-width:10;stroke-linecap:butt;stroke-linejoin:round;stroke-miterlimit:10;stroke-opacity:1;stroke-dasharray:none" /><path
         d="m 3725,1485 c 0,24.85 -20.15,45 -45,45 -24.85,0 -45,-20.15 -45,-45 0,-24.85 20.15,-45 45,-45 24.85,0 45,20.15 45,45"
         inkscape:connector-curvature="0"
         id="path284"
         style="fill:#000000;fill-opacity:1;fill-rule:nonzero;stroke:none" /><path
         d="m 3725,1305 c 0,24.85 -20.15,45 -45,45 -24.85,0 -45,-20.15 -45,-45 0,-24.85 20.15,-45 45,-45 24.85,0 45,20.15 45,45"
         inkscape:connector-curvature="0"
         id="path286"
         style="fill:#000000;fill-opacity:1;fill-rule:nonzero;stroke:none" /><path
         d="m 2780,1310 790,0"
         inkscape:connector-curvature="0"
         id="path288"
         style="fill:none;stroke:#000000;stroke-width:10;stroke-linecap:butt;stroke-linejoin:round;stroke-miterlimit:10;stroke-opacity:1;stroke-dasharray:none" /><path
         d="m 2790,1460 780,0"
         inkscape:connector-curvature="0"
         id="path290"
         style="fill:none;stroke:#000000;stroke-width:10;stroke-linecap:butt;stroke-linejoin:round;stroke-miterlimit:10;stroke-opacity:1;stroke-dasharray:none" /><path
         d="m 3710,2915 c 0,24.85 -20.15,45 -45,45 -24.85,0 -45,-20.15 -45,-45 0,-24.85 20.15,-45 45,-45 24.85,0 45,20.15 45,45"
         inkscape:connector-curvature="0"
         id="path292"
         style="fill:#000000;fill-opacity:1;fill-rule:nonzero;stroke:none" /><g
         id="g294"><g
           clip-path="url(#clipPath298)"
           id="g296"><g
             transform="scale(10,10)"
             id="g302"><text
               transform="matrix(1,0,0,-1,361.5,714.819)"
               id="text304"><tspan
                 x="0 5.0041995 10.998399 21.006598 37.008797 47.016998 58.015198 68.023392 78.031593 88.039795 95.041992 100.0462 111.0444 117.03859 122.04279 133.04099"
                 y="0"
                 id="tspan306"
                 style="font-size:18px;font-variant:normal;font-weight:bold;writing-mode:lr-tb;fill:#000000;fill-opacity:1;fill-rule:nonzero;stroke:none;font-family:Helvetica CY;-inkscape-font-specification:Helvetica-Bold">item_description</tspan></text>
</g></g></g><g
         id="g308"><g
           clip-path="url(#clipPath312)"
           id="g310"><g
             transform="scale(10,10)"
             id="g316"><text
               transform="matrix(1,0,0,-1,384,697.002)"
               id="text318"><tspan
                 x="0 8.5541058 16.338211 28.784317"
                 y="0"
                 id="tspan320"
                 style="font-size:14px;font-variant:normal;font-weight:bold;writing-mode:lr-tb;fill:#000000;fill-opacity:1;fill-rule:nonzero;stroke:none;font-family:Helvetica CY;-inkscape-font-specification:Helvetica-Bold">name</tspan><tspan
                 x="0 8.5541277 16.338255 24.122383 31.906511 37.352638 41.244766 49.798893 54.461021 58.353149 66.90728"
                 y="14"
                 id="tspan322"
                 style="font-size:14px;font-variant:normal;font-weight:bold;writing-mode:lr-tb;fill:#000000;fill-opacity:1;fill-rule:nonzero;stroke:none;font-family:Helvetica CY;-inkscape-font-specification:Helvetica-Bold">description</tspan></text>
</g></g></g><path
         d="m 3490,6565 1690,0 0,810 -1690,0 0,-810 z"
         inkscape:connector-curvature="0"
         id="path324"
         style="fill:none;stroke:#000000;stroke-width:10;stroke-linecap:butt;stroke-linejoin:round;stroke-miterlimit:10;stroke-opacity:1;stroke-dasharray:none" /><path
         d="m 3805,7060 c 0,24.85 -20.15,45 -45,45 -24.85,0 -45,-20.15 -45,-45 0,-24.85 20.15,-45 45,-45 24.85,0 45,20.15 45,45"
         inkscape:connector-curvature="0"
         id="path326"
         style="fill:#000000;fill-opacity:1;fill-rule:nonzero;stroke:none" /><g
         id="g328"><g
           clip-path="url(#clipPath332)"
           id="g330"><g
             transform="scale(10,10)"
             id="g336"><text
               transform="matrix(1,0,0,-1,363.5,77.3191)"
               id="text338"><tspan
                 x="0 5.0041575 10.998316 21.006474 37.008629 47.016788 57.024944 62.029102 67.033264 77.04142 87.049576 97.057732"
                 y="0"
                 id="tspan340"
                 style="font-size:18px;font-variant:normal;font-weight:bold;writing-mode:lr-tb;fill:#000000;fill-opacity:1;fill-rule:nonzero;stroke:none;font-family:Helvetica CY;-inkscape-font-specification:Helvetica-Bold">item_aliases</tspan></text>
</g></g></g><g
         id="g342"><g
           clip-path="url(#clipPath346)"
           id="g344"><g
             transform="scale(10,10)"
             id="g350"><text
               transform="matrix(1,0,0,-1,386,59.502)"
               id="text352"><tspan
                 x="0 8.5541058 16.338211 28.784317"
                 y="0"
                 id="tspan354"
                 style="font-size:14px;font-variant:normal;font-weight:bold;writing-mode:lr-tb;fill:#000000;fill-opacity:1;fill-rule:nonzero;stroke:none;font-family:Helvetica CY;-inkscape-font-specification:Helvetica-Bold">name</tspan><tspan
                 x="0 7.7840891 11.676179 15.568268 23.352358 31.136446 38.920536 47.474625 55.258713 67.704803"
                 y="14"
                 id="tspan356"
                 style="font-size:14px;font-variant:normal;font-weight:bold;writing-mode:lr-tb;fill:#000000;fill-opacity:1;fill-rule:nonzero;stroke:none;font-family:Helvetica CY;-inkscape-font-specification:Helvetica-Bold">alias_name</tspan><tspan
                 x="0 8.5541315 12.446262 20.230394 24.892525 28.784657 37.338787 45.892918 53.677052 59.12318"
                 y="28"
                 id="tspan358"
                 style="font-size:14px;font-variant:normal;font-weight:bold;writing-mode:lr-tb;fill:#000000;fill-opacity:1;fill-rule:nonzero;stroke:none;font-family:Helvetica CY;-inkscape-font-specification:Helvetica-Bold">dictionary</tspan><tspan
                 x="0 7.7841053 15.568211 21.014315 28.79842 32.690525 41.244633"
                 y="42"
                 id="tspan360"
                 style="font-size:14px;font-variant:normal;font-weight:bold;writing-mode:lr-tb;fill:#000000;fill-opacity:1;fill-rule:nonzero;stroke:none;font-family:Helvetica CY;-inkscape-font-specification:Helvetica-Bold">version</tspan></text>
</g></g></g><path
         d="m 3510,80 1690,0 0,920 -1690,0 0,-920 z"
         inkscape:connector-curvature="0"
         id="path362"
         style="fill:none;stroke:#000000;stroke-width:10;stroke-linecap:butt;stroke-linejoin:round;stroke-miterlimit:10;stroke-opacity:1;stroke-dasharray:none" /><path
         d="m 3820,515 c 0,24.852 -20.15,45 -45,45 -24.85,0 -45,-20.148 -45,-45 0,-24.852 20.15,-45 45,-45 24.85,0 45,20.148 45,45"
         inkscape:connector-curvature="0"
         id="path364"
         style="fill:#000000;fill-opacity:1;fill-rule:nonzero;stroke:none" /><path
         d="m 2790,610 1020,0"
         inkscape:connector-curvature="0"
         id="path366"
         style="fill:none;stroke:#000000;stroke-width:10;stroke-linecap:butt;stroke-linejoin:round;stroke-miterlimit:10;stroke-opacity:1;stroke-dasharray:none" /><path
         d="m 3820,375 c 0,24.852 -20.15,45 -45,45 -24.85,0 -45,-20.148 -45,-45 0,-24.852 20.15,-45 45,-45 24.85,0 45,20.148 45,45"
         inkscape:connector-curvature="0"
         id="path368"
         style="fill:#000000;fill-opacity:1;fill-rule:nonzero;stroke:none" /><path
         d="m 3820,235 c 0,24.852 -20.15,45 -45,45 -24.85,0 -45,-20.148 -45,-45 0,-24.852 20.15,-45 45,-45 24.85,0 45,20.148 45,45"
         inkscape:connector-curvature="0"
         id="path370"
         style="fill:#000000;fill-opacity:1;fill-rule:nonzero;stroke:none" /></g></g></svg>