<?xml version="1.0" encoding="UTF-8" standalone="no"?>
<!-- Created with Inkscape (http://www.inkscape.org/) -->

<svg
   xmlns:dc="http://purl.org/dc/elements/1.1/"
   xmlns:cc="http://creativecommons.org/ns#"
   xmlns:rdf="http://www.w3.org/1999/02/22-rdf-syntax-ns#"
   xmlns:svg="http://www.w3.org/2000/svg"
   xmlns="http://www.w3.org/2000/svg"
   xmlns:inkscape="http://www.inkscape.org/namespaces/inkscape"
   version="1.1"
   width="765"
   height="990"
   id="svg2"
   xml:space="preserve"><metadata
     id="metadata8"><rdf:RDF><cc:Work
         rdf:about=""><dc:format>image/svg+xml</dc:format><dc:type
           rdf:resource="http://purl.org/dc/dcmitype/StillImage" /></cc:Work></rdf:RDF></metadata><defs
     id="defs6" /><g
     transform="matrix(1.25,0,0,-1.25,0,990)"
     id="g10"><g
       transform="scale(0.1,0.1)"
       id="g12"><g
         transform="scale(10,10)"
         id="g14"><text
           transform="matrix(1,0,0,-1,160.825,687)"
           id="text16"><tspan
             x="0 10.564 21.128 38.019001 54.91 68.627998 73.910004 85.518997 90.801003 104.519 109.801 120.365 126.692 131.974 143.58299 155.192 165.756 173.147 183.711 188.993 201.666 212.23 218.55701 229.121 240.73 251.29401 256.57599 268.185 279.79401"
             y="0"
             id="tspan18"
             style="font-size:19px;font-variant:normal;font-weight:bold;writing-mode:lr-tb;fill:#000000;fill-opacity:1;fill-rule:nonzero;stroke:none;font-family:Helvetica CY;-inkscape-font-specification:Helvetica-Bold">1 mmCIF Dictionary Extensions</tspan></text>
<text
           transform="matrix(1,0,0,-1,71.0004,655)"
           id="text20"><tspan
             x="0 8.8959999 13.344 22.24 31.136 40.911999 49.807999 59.584 68.480003 77.375999 81.823997 91.599998 96.928001 101.376 112.048 120.944 126.272 135.168 144.944 153.84 158.28799 168.064 177.84"
             y="0"
             id="tspan22"
             style="font-size:16px;font-variant:normal;font-weight:bold;writing-mode:lr-tb;fill:#000000;fill-opacity:1;fill-rule:nonzero;stroke:none;font-family:Helvetica CY;-inkscape-font-specification:Helvetica-Bold">1.1 Types of Extensions</tspan></text>
<text
           transform="matrix(1,0,0,-1,71.0004,633.8)"
           id="text24"><tspan
             x="0 3.6630001 9.1630001 11.913 17.413 21.076 26.576 31.459999 35.123001 37.873001 43.373001 47.035999 49.785999 52.844002 58.344002 63.228001 66.890999 71.775002 76.658997 80.938004 83.996002 89.496002 94.996002 97.746002 102.63 108.13 116.688 122.188 125.246 130.13 135.63 138.688 141.746 147.246 149.996 152.746 157.63 163.13 171.688 180.246 185.746 191.246 193.996 197.054 202.554 208.054 212.938 217.217 219.967 225.467 229.13 231.88 237.38 240.438 245.32201 248.38 251.438 256.93799 262.43799 267.32199 270.98499 276.48499 279.23499 284.11899 289.61899 292.677 297.561 303.061 307.34 310.39801 315.89801 321.39801 325.677 328.427 333.311 338.19501 343.69501 346.44501 351.94501 356.82901 359.57901 364.46301 367.521 372.405 376.68399 380.96301 384.021 387.68399 390.742 395.62601 401.12601 403.87601 408.76001 413.039 415.789 418.84698 424.34698 429.23099 432.289"
             y="0"
             id="tspan26"
             style="font-size:11px;font-variant:normal;font-weight:normal;writing-mode:lr-tb;fill:#000000;fill-opacity:1;fill-rule:nonzero;stroke:none;font-family:Times New Roman;-inkscape-font-specification:Times-Roman">In order of increasing complexity, common types of dictionary extensions can be classified as the: </tspan></text>
</g><path
         d="m 847.5,6132.3 c 0,15.19 -12.312,27.5 -27.5,27.5 -15.187,0 -27.5,-12.31 -27.5,-27.5 0,-15.19 12.313,-27.5 27.5,-27.5 15.188,0 27.5,12.31 27.5,27.5"
         inkscape:connector-curvature="0"
         id="path28"
         style="fill:#000000;fill-opacity:1;fill-rule:nonzero;stroke:none" /><g
         transform="scale(10,10)"
         id="g30"><text
           transform="matrix(1,0,0,-1,93,609.6)"
           id="text32"><tspan
             x="0 4.8839998 10.384 15.884 18.941999 22 25.058001 30.558001 36.057999 38.807999 44.307999 47.971001 50.721001 55.605 58.355 63.855 68.738998 71.796997 76.681 79.431 82.488998 85.546997 90.431 98.988998 101.739 109.681 115.181 118.239 123.123 128.623 131.373 136.257 141.757 147.257 150.007 154.89101 157.64101 163.14101 168.02499 175.967 178.717 184.217 187.88 193.38 198.88 203.76401 207.427 210.485 215.985 218.735 221.793 227.293 230.043 234.927 240.427 243.177 248.061 253.561 256.61899 260.89801 263.95599 267.01401 272.51401 278.01401 280.76401 285.64801 290.53201 293.59 298.474 303.974 309.474 313.13699 318.63699 321.38699"
             y="0"
             id="tspan34"
             style="font-size:11px;font-variant:normal;font-weight:normal;writing-mode:lr-tb;fill:#000000;fill-opacity:1;fill-rule:nonzero;stroke:none;font-family:Times New Roman;-inkscape-font-specification:Times-Roman">addition of a data item which add a new property to an existing category. </tspan></text>
</g><path
         d="m 847.5,5990.3 c 0,15.19 -12.312,27.5 -27.5,27.5 -15.187,0 -27.5,-12.31 -27.5,-27.5 0,-15.19 12.313,-27.5 27.5,-27.5 15.188,0 27.5,12.31 27.5,27.5"
         inkscape:connector-curvature="0"
         id="path36"
         style="fill:#000000;fill-opacity:1;fill-rule:nonzero;stroke:none" /><g
         transform="scale(10,10)"
         id="g38"><text
           transform="matrix(1,0,0,-1,93,595.4)"
           id="text40"><tspan
             x="0 4.8839998 10.384 15.884 18.941999 22 25.058001 30.558001 36.057999 38.807999 44.307999 47.971001 50.721001 55.605 58.355 63.855 68.738998 76.681 79.431 84.315002 89.198997 92.257004 97.140999 102.641 108.141 111.804 117.304 120.054 127.996 131.054 134.112 139.612 142.362 147.862 153.362 156.112 161.612 166.496 169.554 174.438 177.188 180.246 183.304 188.188 196.746 201.02499 203.77499 206.83299 212.33299 215.08299 219.967 225.467 234.02499 242.58299 248.08299 253.58299 256.33301 264.27499 267.33301 270.39099 275.89099 278.64099 283.52499 289.02499 294.52499 297.27499 302.159 307.659 310.71701 314.996 318.05399 321.112 326.612 332.112 334.862 339.746 344.63 347.68799 352.57199 358.07199 363.57199 367.23499 372.73499 375.48499"
             y="0"
             id="tspan42"
             style="font-size:11px;font-variant:normal;font-weight:normal;writing-mode:lr-tb;fill:#000000;fill-opacity:1;fill-rule:nonzero;stroke:none;font-family:Times New Roman;-inkscape-font-specification:Times-Roman">addition of a new category with no data items in common with any existing category. </tspan></text>
</g><path
         d="m 847.5,5848.3 c 0,15.19 -12.312,27.5 -27.5,27.5 -15.187,0 -27.5,-12.31 -27.5,-27.5 0,-15.19 12.313,-27.5 27.5,-27.5 15.188,0 27.5,12.31 27.5,27.5"
         inkscape:connector-curvature="0"
         id="path44"
         style="fill:#000000;fill-opacity:1;fill-rule:nonzero;stroke:none" /><g
         transform="scale(10,10)"
         id="g46"><text
           transform="matrix(1,0,0,-1,93,581.2)"
           id="text48"><tspan
             x="0 4.8839998 10.384 15.884 18.941999 22 25.058001 30.558001 36.057999 38.807999 44.307999 47.971001 50.721001 55.605 58.355 63.855 68.738998 76.681 79.431 84.315002 89.198997 92.257004 97.140999 102.641 108.141 111.804 117.304 120.054 127.996 131.054 134.112 139.612 142.362 147.862 152.746 155.804 160.688 163.438 166.496 169.554 174.438 182.996 187.27499 190.02499 193.08299 198.58299 201.33299 206.217 211.717 220.27499 228.83299 234.33299 239.83299 242.58299 250.52499 253.58299 256.64099 262.14099 264.89099 269.77499 275.27499 278.02499 282.909 288.409 291.46701 295.746 298.80399 301.862 307.362 312.862 315.612 320.496 325.38 328.43799 333.32199 338.82199 344.32199 347.98499 353.48499 356.23499"
             y="0"
             id="tspan50"
             style="font-size:11px;font-variant:normal;font-weight:normal;writing-mode:lr-tb;fill:#000000;fill-opacity:1;fill-rule:nonzero;stroke:none;font-family:Times New Roman;-inkscape-font-specification:Times-Roman">addition of a new category with data items in common with an existing category. </tspan></text>
</g><path
         d="m 847.5,5706.3 c 0,15.19 -12.312,27.5 -27.5,27.5 -15.187,0 -27.5,-12.31 -27.5,-27.5 0,-15.19 12.313,-27.5 27.5,-27.5 15.188,0 27.5,12.31 27.5,27.5"
         inkscape:connector-curvature="0"
         id="path52"
         style="fill:#000000;fill-opacity:1;fill-rule:nonzero;stroke:none" /><g
         transform="scale(10,10)"
         id="g54"><text
           transform="matrix(1,0,0,-1,93,567)"
           id="text56"><tspan
             x="0 4.8839998 10.384 15.884 18.941999 22 25.058001 30.558001 36.057999 38.807999 44.307999 47.971001 50.721001 55.605 58.355 63.855 68.738998 71.796997 76.681 79.431 82.488998 85.546997 90.431 98.988998 101.739 104.797 110.297 113.047 117.931 123.431 126.181 131.065 136.565 139.623 143.90199 146.96001 150.01801 155.51801 161.01801 163.76801 168.65199 173.536 176.59399 181.478 186.978 192.478 196.14101 201.64101 204.39101 212.33299 217.83299 220.89101 225.77499 231.27499 234.02499 238.909 244.409 249.293 254.793 260.293 265.177 269.45599 272.20599 275.26401 280.76401 285.64801 288.39801 293.28201 298.78201 307.34 312.84 318.34 322.61899 325.677 328.73499 331.793 337.293 342.793 345.543 351.043 354.70599 357.45599 360.51401 366.01401 370.89801 373.64801 378.53201 383.41599 386.474 391.358 396.858 402.358 406.021 411.521 414.271 419.771 424.655 430.155 432.905"
             y="0"
             id="tspan58"
             style="font-size:11px;font-variant:normal;font-weight:normal;writing-mode:lr-tb;fill:#000000;fill-opacity:1;fill-rule:nonzero;stroke:none;font-family:Times New Roman;-inkscape-font-specification:Times-Roman">addition of a data item to an existing category which changes the composition of the category key. </tspan><tspan
             x="-22 -15.279 -9.7790003 -4.895 -2.145 1.518 7.0180001 10.076 13.134 18.634001 26.576 29.634001 35.133999 40.633999 43.383999 47.662998 52.547001 57.431 60.488998 63.547001 69.046997 74.546997 78.825996 81.575996 87.075996 90.738998 96.238998 101.739 104.797 110.297 115.181 117.931 122.815 128.315 133.19901 141.757 147.257 150.315 155.19901 159.478 162.228 167.728 171.39101 174.14101 179.64101 185.14101 193.08299 195.83299 201.33299 206.83299 211.717 214.467 223.02499 226.08299 231.58299 237.08299 240.14101 242.89101 247.77499 253.27499 258.77499 262.43799 267.93799 272.82199 277.70599 283.20599 285.95599 290.84 295.724 300.608 306.108 308.858 314.358 318.021 320.771 323.82901 329.32901 334.21301 338.492 343.37601 346.12601 351.01001 355.89401 360.173 365.05701 369.336 372.086"
             y="24.200001"
             id="tspan60"
             style="font-size:11px;font-variant:normal;font-weight:normal;writing-mode:lr-tb;fill:#000000;fill-opacity:1;fill-rule:nonzero;stroke:none;font-family:Times New Roman;-inkscape-font-specification:Times-Roman">The following sections provide examples of how one might approach each of these cases. </tspan></text>
<text
           transform="matrix(1,0,0,-1,71,510.8)"
           id="text62"><tspan
             x="0 8.8959999 13.344 22.24 31.136 42.688 52.464001 62.240002 66.688004 76.463997 86.239998 90.688004 99.584 104.032 113.808 122.704 135.15199 139.60001 149.37601 155.60001 165.37601 175.15199 184.048 190.272 195.60001 204.496 208.944 214.272 224.048 228.496 237.392 247.168 251.616 260.51199 269.40799 273.85599 282.75201 288.07999 292.52802 302.30399 312.07999 316.52802 325.42401 334.32001 339.64801 348.54401 358.32001 368.09601 374.32001"
             y="0"
             id="tspan64"
             style="font-size:16px;font-variant:normal;font-weight:bold;writing-mode:lr-tb;fill:#000000;fill-opacity:1;fill-rule:nonzero;stroke:none;font-family:Helvetica CY;-inkscape-font-specification:Helvetica-Bold">1.2 Adding a new property to an existing category</tspan></text>
<text
           transform="matrix(1,0,0,-1,71,486.6)"
           id="text66"><tspan
             x="0 6.7210002 12.221 15.279 19.558001 23.229506 26.287504 30.566505 34.23801 37.296009 42.796009 47.680012 51.351517 55.630516 58.688515 67.246513 72.746513 75.804512 80.688515 84.967514 88.025513 91.697021 94.75502 100.25502 105.75502 110.63902 114.31052 119.81052 123.47353 127.14503 135.70303 141.20303 146.70303 149.76103 153.42403 156.48203 161.36603 166.25003 169.30803 172.36603 177.86603 183.36603 187.03754 190.09554 195.59554 199.26704 207.20905 212.70905 215.76704 220.65105 226.15105 229.82254 234.70654 238.37805 243.87805 248.76205 256.70404 260.37555 265.87555 270.75955 273.81757 278.70157 282.37305 285.43106 288.48907 293.37305 301.93106 305.60257 311.10257 315.98657 319.64957 322.70755 328.20755 331.26556 334.32358 337.38156 342.88156 348.38156 352.05307 355.11108 359.39008 363.06158 367.94559 373.44559 378.94559 383.82959 389.32959 394.82959 399.71356 405.21356 408.88507 411.94308 417.44308 421.11459 425.9986 431.4986 435.1701 440.05408 445.55408 448.61209 452.89108 455.9491 459.00708 464.50708"
             y="0"
             id="tspan68"
             style="font-size:11px;font-variant:normal;font-weight:normal;writing-mode:lr-tb;fill:#000000;fill-opacity:1;fill-rule:nonzero;stroke:none;font-family:Times New Roman;-inkscape-font-specification:Times-Roman">This is the simplest type of modification in which a new data item definition is appended to an existing</tspan><tspan
             x="0 4.8839998 9.7679996 12.826 17.709999 23.209999 28.709999 32.373001 37.873001 40.623001 44.95253 51.673531 57.173531 62.057529 66.387062 70.050056 73.108063 76.771057 81.050056 84.108063 88.437592 92.716591 95.77459 100.65859 106.15859 110.48812 113.54612 119.04612 123.37565 128.25964 133.75964 139.25964 142.31766 147.81766 153.31766 157.64719 162.53117 168.03117 172.3607 175.41872 178.47672 183.3607 191.91872 196.24825 199.30624 204.80624 209.13577 214.01978 218.3493 223.8493 226.9073 231.79131 234.8493 237.9073 243.4073 248.9073 253.79131 257.45432 262.95432 267.28384 270.34183 274.62082 278.95035 282.00836 287.50836 291.83789 297.33789 302.22189 305.88489 308.9429 312.6059 318.1059 322.43542 325.49341 330.99341 335.87741 338.93542 343.26495 346.32294 351.82294 356.70694 361.03647 366.53647 371.42047 374.47849 379.36249 383.69202 386.75 389.80801 394.69202 403.25 407.57953 410.63754 414.91653 419.24606 424.74606 430.24606 433.30408 437.63361 442.51761 445.57559 449.23859 454.12259 459.00659 464.50659"
             y="13.2"
             id="tspan70"
             style="font-size:11px;font-variant:normal;font-weight:normal;writing-mode:lr-tb;fill:#000000;fill-opacity:1;fill-rule:nonzero;stroke:none;font-family:Times New Roman;-inkscape-font-specification:Times-Roman">category. The first step in adding an item to a dictionary is to verify that the data item is not already</tspan><tspan
             x="0 5.5 10.384 14.047 17.105 22.605 27.489 32.988998 38.32391 46.265911 49.32391 52.381908 57.881908 60.939911 66.439911 71.774818 74.832817 80.332817 85.21682 90.551727 95.43573 100.93573 104.59873 108.26173 113.14573 118.64573 121.70373 127.03864 132.53864 135.59663 140.48064 143.53864 146.59663 152.09663 157.59663 162.48064 166.14365 171.64365 174.39365 179.72855 183.39156 187.05455 192.38947 195.44746 200.94746 205.83147 211.16637 214.22437 217.28236 222.16637 230.72437 236.05928 240.94328 245.82729 251.32729 256.82727 262.32727 265.38528 270.72018 276.22018 281.10419 286.43909 290.10211 295.60211 301.10211 306.60211 312.10211 317.43701 320.495 325.995 331.32993 334.38791 339.88791 344.77191 350.10684 358.66483 367.22284 374.55984 378.22284 384.33884 389.67374 395.17374 398.23175 403.11575 406.17374 409.23175 414.73175 420.23175 425.11575 428.77875 434.27875 439.61365 442.67166 445.72964 451.06458 459.62256 464.50656"
             y="26.4"
             id="tspan72"
             style="font-size:11px;font-variant:normal;font-weight:normal;writing-mode:lr-tb;fill:#000000;fill-opacity:1;fill-rule:nonzero;stroke:none;font-family:Times New Roman;-inkscape-font-specification:Times-Roman">defined within the current dictionary. If the item cannot be found in the mmCIF dictionary it may</tspan><tspan
             x="0 7.9419999 13.442 17.105 20.163 25.663 33.605 39.105 42.162998 45.221001 50.105 52.855 55.912998 61.412998 64.163002 69.663002 75.163002 79.442001 82.5 85.25 90.134003 92.884003 101.442 106.326 110.605 114.884 119.768 125.268 130.15199 132.90199 135.96001 141.46001 144.21001 147.26801 152.76801 157.65199 160.40199 168.96001 177.51801 184.855 188.51801 194.634 197.384 205.326 208.384 212.66299 217.547 223.047 227.326 231.605 234.66299 240.16299 245.66299 248.41299 255.134 258.19199 262.47101 265.52899"
             y="39.599998"
             id="tspan74"
             style="font-size:11px;font-variant:normal;font-weight:normal;writing-mode:lr-tb;fill:#000000;fill-opacity:1;fill-rule:nonzero;stroke:none;font-family:Times New Roman;-inkscape-font-specification:Times-Roman">worthwhile to post a message to the mmCIF Discussion List </tspan><tspan
             x="0"
             y="52.799999"
             id="tspan76"
             style="font-size:11px;font-variant:normal;font-weight:normal;writing-mode:lr-tb;fill:#000000;fill-opacity:1;fill-rule:nonzero;stroke:none;font-family:Times New Roman;-inkscape-font-specification:Times-Roman">(</tspan></text>
<text
           transform="matrix(1,0,0,-1,74.66289,433.8)"
           id="text78"><tspan
             x="0 6.5999999 13.2 19.799999 26.4 33 39.599998 46.200001 52.799999 59.400002 66 72.599998 79.199997 85.800003 92.400002 99 105.6 112.2 118.8 125.4 132 138.60001 145.2 151.8 158.39999 165 171.60001 178.2 184.8 191.39999 198"
             y="0"
             id="tspan80"
             style="font-size:11px;font-variant:normal;font-weight:normal;writing-mode:lr-tb;fill:#000000;fill-opacity:1;fill-rule:nonzero;stroke:none;font-family:Courier New;-inkscape-font-specification:Courier">mmciflist@ndbserver.rutgers.edu</tspan></text>
<text
           transform="matrix(1,0,0,-1,279.26289,433.8)"
           id="text82"><tspan
             x="0 3.6630001 10.46608 13.52408 19.02408 25.82716 31.32716 36.211159 39.874161 42.932159 46.595161 52.095161 58.898239 61.956242 67.456238 72.34024 75.398239 82.201317 85.259323 90.759323 95.643318 102.4464 105.5044 108.5624 113.4464 122.0044 128.80748 131.86548 136.14449 142.94756 146.00555 151.50555 157.00555 161.88956 166.77356 172.27356 179.07664 187.63464 190.69264 194.97163 199.25064 202.30864 207.80864 213.30864 220.11172 223.77472 227.43771 232.93771 241.49573 248.2988 251.3568 256.85681"
             y="0"
             id="tspan84"
             style="font-size:11px;font-variant:normal;font-weight:normal;writing-mode:lr-tb;fill:#000000;fill-opacity:1;fill-rule:nonzero;stroke:none;font-family:Times New Roman;-inkscape-font-specification:Times-Roman">) to verify that the item is indeed missing from the</tspan><tspan
             x="-208.263 -202.763 -199.705 -194.821 -191.763 -188.705 -183.205 -177.705 -172.821 -169.158 -163.658 -160.908 -156.024 -150.524 -145.024 -142.274 -139.216 -133.716 -128.832 -125.774 -123.024 -119.966 -116.908 -114.158 -108.658 -103.774 -99.495003 -96.745003 -91.245003 -85.745003 -82.686996 -79.936996 -75.053001 -71.995003 -68.332001 -63.448002 -58.563999 -53.063999 -47.563999 -44.813999 -39.313999 -34.43 -29.546 -24.046 -21.296 -15.796 -10.912 -7.2490001 -4.191 1.309 6.1929998 11.693 14.443 17.500999 23.000999 27.885 32.769001 35.827 38.884998 44.384998 47.134998 52.634998 58.134998 60.884998 65.164001 70.664001 79.222 84.106003 89.606003 95.106003 99.989998 102.74 107.624 110.682 114.961 119.845 122.595"
             y="13.2"
             id="tspan86"
             style="font-size:11px;font-variant:normal;font-weight:normal;writing-mode:lr-tb;fill:#000000;fill-opacity:1;fill-rule:nonzero;stroke:none;font-family:Times New Roman;-inkscape-font-specification:Times-Roman">dictionary and that it has not already been defined locally by someone else. </tspan><tspan
             x="-208.263 -200.321 -196.658 -193.60001 -188.716 -185.05299 -181.86435 -176.36435 -171.48035 -168.42235 -163.53836 -159.87535 -151.31735 -148.25935 -142.75935 -139.70135 -134.20135 -128.70135 -125.5127 -122.4547 -116.9547 -112.07071 -109.0127 -105.82406 -102.76606 -97.26606 -92.382057 -89.193413 -83.693413 -78.80941 -75.751411 -70.867409 -67.678764 -64.620766 -61.562763 -56.678764 -48.120766 -44.932117 -41.269119 -36.385117 -30.885118 -27.222118 -22.338118 -18.059118 -13.175118 -7.675118 -4.6171179 -0.33811799 2.850529 8.3505287 13.234529 21.176529 24.365175 29.249176 34.749176 40.249176 43.307175 48.191177 53.691177 56.749176 59.499176 62.687824 65.745827 71.245827 76.129822 79.318466 84.818466 89.702469 95.202469 98.260468 101.44912 105.72812 108.78612 113.67012 119.17012 122.35876 125.41676 129.69577 132.88441 135.94241 141.44241 144.63106 148.91006 153.79405 156.85205 161.73605 166.62006 169.67805 172.8667 177.7507 183.2507"
             y="37.400002"
             id="tspan88"
             style="font-size:11px;font-variant:normal;font-weight:normal;writing-mode:lr-tb;fill:#000000;fill-opacity:1;fill-rule:nonzero;stroke:none;font-family:Times New Roman;-inkscape-font-specification:Times-Roman">After determining that the data item represents new content, the next step is to select an </tspan></text>
<text
           transform="matrix(1,0,0,-1,465.70189,396.4)"
           id="text90"><tspan
             x="0 5.5 11 16.5 20.778999 26.278999 31.778999 36.057999 39.116001 44.616001 47.674"
             y="0"
             id="tspan92"
             style="font-size:11px;font-style:italic;font-variant:normal;writing-mode:lr-tb;fill:#000000;fill-opacity:1;fill-rule:nonzero;stroke:none;font-family:Times New Roman;-inkscape-font-specification:Times-Italic">appropriate</tspan></text>
<text
           transform="matrix(1,0,0,-1,521.44834,396.4)"
           id="text94"><tspan
             x="0 3.0580001 6.1160002 11"
             y="0"
             id="tspan96"
             style="font-size:11px;font-variant:normal;font-weight:normal;writing-mode:lr-tb;fill:#000000;fill-opacity:1;fill-rule:nonzero;stroke:none;font-family:Times New Roman;-inkscape-font-specification:Times-Roman">item</tspan><tspan
             x="-450.44864 -444.94864 -440.06464 -431.50665 -426.62265 -423.87265 -419.81433 -416.15134 -410.65134 -406.59302 -403.53503 -398.03503 -394.97702 -390.69803 -386.63971 -381.75571 -376.25571 -371.3717 -362.81372 -357.31372 -354.25571 -349.3717 -346.6217 -342.56342 -339.5054 -334.0054 -329.1214 -325.06311 -319.56311 -314.67911 -311.62109 -306.73709 -302.67877 -299.62079 -296.56277 -291.67877 -283.12079 -279.06247 -276.00449 -271.72546 -267.66718 -262.16718 -257.28317 -254.22517 -248.72517 -243.22517 -239.16685 -234.28285 -228.78285 -223.28285 -218.39885 -212.89885 -208.84055 -205.78255 -200.28255 -196.22424 -191.34024 -185.84024 -181.78192 -176.89793 -171.39793 -168.33992 -164.06093 -161.00293 -157.94493 -152.44493 -146.94493 -142.88661 -138.00262 -133.11862 -130.06062 -125.17662 -119.67662 -114.17662 -110.51362 -105.01362 -100.95531 -96.676308 -91.176308 -87.117996 -84.059998 -78.559998 -73.675995 -70.617996 -66.559685 -61.059689 -55.559689 -51.896687 -48.838688 -45.780685 -40.280685 -34.780685 -30.722378 -25.222378 -21.559378 -17.501066 -14.443067 -8.9430666 -4.0590668 -0.000757 3.0572431 6.115243 10.999243"
             y="13.2"
             id="tspan98"
             style="font-size:11px;font-variant:normal;font-weight:normal;writing-mode:lr-tb;fill:#000000;fill-opacity:1;fill-rule:nonzero;stroke:none;font-family:Times New Roman;-inkscape-font-specification:Times-Roman">name. In this example, the data item is being added to an existing category so that portion of the item</tspan><tspan
             x="-450.44864 -444.94864 -440.06464 -431.50665 -426.62265 -423.50977 -420.45175 -416.17276 -413.05988 -409.39685 -406.33887 -400.83887 -395.95486 -390.45486 -387.70486 -384.59198 -377.87097 -372.37097 -367.48697 -364.37408 -360.71109 -355.82709 -347.26907 -342.38507 -339.32709 -333.82709 -330.76907 -325.26907 -319.76907 -316.65619 -311.15619 -305.65619 -301.99319 -298.93518 -295.8772 -290.3772 -284.8772 -281.76431 -277.48529 -271.98529 -266.48529 -260.98529 -257.92731 -252.42731 -249.31441 -243.81441 -238.9304 -235.81752 -230.93352 -225.43352 -219.93352 -215.65453 -210.77052 -205.27052 -202.15762 -199.09962 -193.59962 -190.48674 -184.98674 -180.10274 -176.98985 -172.10585 -166.60585 -161.10585 -157.44284 -151.94284 -148.27985 -139.72185 -136.66385 -131.16385 -125.66385 -122.55096 -114.60896 -111.55096 -108.49296 -102.99296 -99.880066 -96.822067 -91.322067 -86.438065 -83.325172 -79.046173 -75.988174 -70.488174 -67.430176 -62.546173 -59.433281 -53.933281 -50.270283 -47.157391 -41.657391 -38.599392 -33.099392 -28.215391 -24.552391 -21.439501 -15.9395 -11.0555 -7.9974999 -3.1135001 -0.00060899998 3.0573909 6.1153908 10.999391"
             y="26.4"
             id="tspan100"
             style="font-size:11px;font-variant:normal;font-weight:normal;writing-mode:lr-tb;fill:#000000;fill-opacity:1;fill-rule:nonzero;stroke:none;font-family:Times New Roman;-inkscape-font-specification:Times-Roman">name is fixed. The remaining portion should be chosen to be conforming with the style of other data item</tspan><tspan
             x="-450.44864 -444.94864 -440.06464 -431.50665 -426.62265 -422.34366 -419.38794 -411.44595 -408.38794 -405.32996 -399.82996 -396.77194 -391.27194 -388.31625 -385.25824 -379.75824 -374.87424 -371.91855 -367.03455 -362.15054 -359.09256 -354.20856 -348.70856 -343.20856 -339.54556 -334.04556 -331.29556 -328.33984 -320.39786 -317.33984 -314.38416 -311.32614 -305.82614 -300.94214 -297.98645 -289.42847 -283.92847 -275.37045 -270.48645 -264.98645 -261.92847 -259.17847 -256.22275 -253.16475 -247.66475 -242.78075 -239.82506 -236.16205 -231.27806 -226.39406 -220.89406 -212.33606 -203.77806 -198.89406 -193.39406 -187.89406 -183.01006 -177.51006 -174.55435 -169.05435 -165.39136 -160.50735 -155.62335 -152.56535 -149.50735 -144.62335 -139.73935 -136.78366 -133.72566 -129.44666 -126.49096 -123.43296 -117.93296 -114.97726 -109.47726 -105.81426 -100.93026 -97.267258 -94.209259 -88.709259 -85.753563 -82.695557 -77.195557 -72.311562 -67.427559 -64.36956 -61.41386 -55.91386 -51.029861 -47.971863 -43.08786 -40.13216 -37.074162 -34.016163 -29.132162 -20.574162 -16.295162 -13.339463 -5.3974628 -2.339463 0.71853697 6.2185369 9.1742363 14.058236"
             y="39.599998"
             id="tspan102"
             style="font-size:11px;font-variant:normal;font-weight:normal;writing-mode:lr-tb;fill:#000000;fill-opacity:1;fill-rule:nonzero;stroke:none;font-family:Times New Roman;-inkscape-font-specification:Times-Roman">names within the category. At the moment, the recommended practice is to prefix local data items with an</tspan><tspan
             x="-450.44864 -447.39066 -441.89066 -437.61163 -434.55365 -431.49564 -428.43765 -422.93765 -419.87964 -416.82166 -411.32166 -405.82166 -400.93765 -397.87964 -394.76987 -389.88589 -385.00189 -381.33887 -375.83887 -370.33887 -364.83887 -356.28088 -353.53088 -350.42111 -343.7001 -338.2001 -333.31613 -329.03711 -324.15311 -321.04337 -316.15936 -311.27536 -307.61237 -302.11237 -296.61237 -291.11237 -282.55435 -278.27536 -275.16559 -270.28159 -265.39758 -259.89758 -256.78781 -251.28783 -246.40382 -243.29405 -239.63106 -234.74706 -229.24706 -226.18906 -221.91005 -218.85205 -213.96806 -210.30505 -205.42105 -199.92105 -196.81129 -191.92729 -186.42729 -180.92729 -177.81752 -174.15453 -169.27052 -164.99153 -160.10753 -156.44453 -150.94453 -146.06053 -140.56053 -137.45076 -129.50876 -126.45076 -123.39276 -117.89276 -114.783 -111.725 -106.225 -101.341 -98.231232 -94.56823 -86.626228 -79.28923 -75.626228 -72.876228 -69.766464 -61.824467 -56.324467 -53.266468 -48.382465 -42.882465 -39.772701 -31.214703 -26.330702 -23.272701 -17.772701 -14.714702 -9.8307018 -6.7727022 -1.272702 3.0062981 6.1160631 9.1740627 14.674063"
             y="52.799999"
             id="tspan104"
             style="font-size:11px;font-variant:normal;font-weight:normal;writing-mode:lr-tb;fill:#000000;fill-opacity:1;fill-rule:nonzero;stroke:none;font-family:Times New Roman;-inkscape-font-specification:Times-Roman">institutional acronym. These acronyms can be registered and reserved with the IUCr, which maintains the</tspan><tspan
             x="-450.44864 -445.56464 -442.50665 -437.62265 -432.73865 -429.07565 -426.01764 -420.51764 -415.01764 -409.51764 -404.01764 -398.51764 -394.23865 -389.35464 -386.60464 -381.10464 -377.44165 -374.69165 -371.63364 -366.13364 -361.24963 -356.97064 -352.08664 -349.33664 -345.67365 -340.78964 -336.51065 -331.62665 -327.96365 -322.46365 -317.57965 -312.07965 -309.32965 -303.82965 -300.16666 -295.28265 -291.61966 -288.56165 -283.06165 -278.17764 -273.89865 -271.14865"
             y="66"
             id="tspan106"
             style="font-size:11px;font-variant:normal;font-weight:normal;writing-mode:lr-tb;fill:#000000;fill-opacity:1;fill-rule:nonzero;stroke:none;font-family:Times New Roman;-inkscape-font-specification:Times-Roman">clearinghouse of these reserved prefixes. </tspan><tspan
             x="-450.44864 -442.50665 -437.62265 -432.12265 -429.06464 -423.56464 -418.06464 -413.28256 -408.39856 -402.89856 -397.39856 -393.11957 -388.23557 -382.73557 -377.95349 -373.06949 -368.28741 -362.78741 -357.90341 -354.8454 -349.9614 -345.17932 -339.67932 -334.79532 -326.23734 -321.35333 -318.60333 -313.82126 -310.76324 -305.26324 -300.37924 -294.87924 -290.09717 -287.03915 -281.53915 -276.65518 -271.87308 -268.81509 -265.75708 -260.87308 -252.31509 -247.533 -242.033 -237.149 -233.48601 -230.42801 -224.92801 -221.87001 -218.81201 -215.75401 -210.25401 -204.75401 -199.97192 -195.08792 -190.20393 -184.70393 -179.92184 -174.42184 -169.53784 -164.75577 -159.87177 -154.37177 -148.87177 -144.59277 -141.53476 -137.87177 -132.37177 -127.48777 -124.42976 -119.54577 -114.04577 -111.29577 -106.51369 -102.85069 -97.350685 -92.568604 -87.068604 -81.568604 -78.510605 -75.452606 -69.952606 -66.894608 -61.394608 -55.894608 -51.112526 -48.054527 -42.554527 -37.670528 -32.888447 -27.388447 -22.504448 -18.841448 -15.783447 -10.283447 -7.2254472 -4.1674471 -1.109447 4.390553 9.8905535 14.672633"
             y="90.199997"
             id="tspan108"
             style="font-size:11px;font-variant:normal;font-weight:normal;writing-mode:lr-tb;fill:#000000;fill-opacity:1;fill-rule:nonzero;stroke:none;font-family:Times New Roman;-inkscape-font-specification:Times-Roman">Having chosen a data name, then the item definition can be constructed. In building the definition a</tspan><tspan
             x="-450.44864 -444.94864 -440.06464 -435.78564 -430.90164 -427.23865 -424.18063 -418.68063 -415.62265 -412.56464 -407.06464 -401.56464 -398.46216 -389.90414 -384.40414 -380.12515 -377.06717 -373.96466 -368.46466 -363.58066 -360.47818 -355.59418 -351.93118 -347.04718 -343.38419 -340.32617 -335.44217 -329.94217 -326.83969 -321.95569 -316.45569 -310.95569 -307.85321 -303.57419 -298.07419 -289.5162 -284.6322 -281.52972 -276.64572 -271.14572 -265.64572 -261.3667 -258.30872 -252.80872 -247.92471 -244.26172 -239.37772 -236.31972 -233.26172 -227.76172 -222.26172 -219.15923 -214.88022 -209.38022 -203.88022 -198.38022 -195.32222 -189.82222 -186.71974 -181.21974 -176.33574 -173.23325 -167.73325 -164.67525 -159.17525 -154.29124 -148.79124 -145.68875 -142.63075 -137.13075 -134.02827 -129.14427 -126.04178 -120.54178 -115.65778 -111.99478 -107.11078 -101.61078 -98.55278 -95.494781 -92.392288 -86.892288 -82.008293 -78.950287 -73.450287 -68.566292 -65.816292 -62.713802 -57.8298 -52.3298 -47.445801 -38.887802 -33.387802 -30.329802 -25.445801 -21.166801 -18.416801 -15.314312 -10.430312 -4.9303122 0.56968802 3.6721771 8.5561771 14.056177"
             y="103.4"
             id="tspan110"
             style="font-size:11px;font-variant:normal;font-weight:normal;writing-mode:lr-tb;fill:#000000;fill-opacity:1;fill-rule:nonzero;stroke:none;font-family:Times New Roman;-inkscape-font-specification:Times-Roman">description must be crafted and some consideration should be given to a default value, examples, and any</tspan><tspan
             x="-450.44864 -446.78564 -441.90164 -436.40164 -430.90164 -426.01764 -420.36627 -416.70328 -411.81927 -407.54028 -404.48227 -400.81927 -397.76129 -392.87729 -389.81927 -386.76129 -381.26129 -375.76129 -371.48227 -368.73227 -363.0809 -355.7439 -350.2439 -345.35989 -340.47592 -334.97592 -329.32452 -326.26654 -320.76654 -315.88254 -310.23117 -307.17316 -302.28915 -296.78915 -293.73117 -288.84717 -283.1958 -277.6958 -274.03281 -268.38144 -262.88144 -257.38144 -251.88142 -243.93942 -238.28806 -232.78806 -227.90405 -224.84605 -219.96205 -214.31068 -211.25269 -205.75269 -200.25269 -195.36868 -191.08969 -185.43832 -182.38031 -176.88031"
             y="116.6"
             id="tspan112"
             style="font-size:11px;font-variant:normal;font-weight:normal;writing-mode:lr-tb;fill:#000000;fill-opacity:1;fill-rule:nonzero;stroke:none;font-family:Times New Roman;-inkscape-font-specification:Times-Roman">range restrictions. Check the table of know data types in </tspan></text>
<text
           transform="matrix(1,0,0,-1,350.21969,279.8)"
           id="text114"><tspan
             x="0 6.5999999 13.2 19.799999 26.4 33 39.599998 46.200001 52.799999 59.400002 66 72.599998 79.199997 85.800003"
             y="0"
             id="tspan116"
             style="font-size:11px;font-variant:normal;font-weight:normal;writing-mode:lr-tb;fill:#000000;fill-opacity:1;fill-rule:nonzero;stroke:none;font-family:Courier New;-inkscape-font-specification:Courier">ITEM_TYPE_LIST</tspan></text>
<text
           transform="matrix(1,0,0,-1,448.27106,279.8)"
           id="text118"><tspan
             x="0 4.8839998 10.384 15.884 21.53537 27.03537 32.53537 38.03537 45.977371 51.477371 57.128738 62.628738 68.128738 71.186737 74.244743 78.523743 84.17511 87.233109 92.733109"
             y="0"
             id="tspan120"
             style="font-size:11px;font-variant:normal;font-weight:normal;writing-mode:lr-tb;fill:#000000;fill-opacity:1;fill-rule:nonzero;stroke:none;font-family:Times New Roman;-inkscape-font-specification:Times-Roman">and known units in </tspan></text>
<text
           transform="matrix(1,0,0,-1,70.99969,266.6)"
           id="text122"><tspan
             x="0 6.5999999 13.2 19.799999 26.4 33 39.599998 46.200001 52.799999 59.400002 66 72.599998 79.199997 85.800003 92.400002"
             y="0"
             id="tspan124"
             style="font-size:11px;font-variant:normal;font-weight:normal;writing-mode:lr-tb;fill:#000000;fill-opacity:1;fill-rule:nonzero;stroke:none;font-family:Courier New;-inkscape-font-specification:Courier">ITEM_UNITS_LIST</tspan></text>
<text
           transform="matrix(1,0,0,-1,173.72496,266.6)"
           id="text126"><tspan
             x="0 3.6630001 9.1630001 12.826 16.551271 21.43527 26.93527 30.660542 35.54454 41.04454 46.54454 50.207542 55.707542 61.207542 64.870544 67.928543 72.812546 75.870544 80.754539 84.479813 89.979813 94.863815 97.921814 103.42181 108.30582 111.05582 114.78108 118.44408 122.10709 125.83235 130.71635 136.21635 139.94162 144.82562 150.32562 155.82562 159.48863 164.98863 170.48863 174.15163 177.20963 182.09363 185.15163 190.03563 193.76089 199.26089 204.1449 207.2029 212.7029 217.5869 221.31216 226.19617 231.08017 236.58017 242.08017 247.58017 250.63817 254.36343 259.86343 264.74744 268.47272 272.13571 277.63571 283.13571 288.63571 294.13571 296.88571 300.61099 303.66898 309.16898 314.05298 319.55298 323.27826 328.16226 333.66226 339.16226 342.22025 345.27826 348.33624 353.83624 359.33624 364.22025"
             y="0"
             id="tspan128"
             style="font-size:11px;font-variant:normal;font-weight:normal;writing-mode:lr-tb;fill:#000000;fill-opacity:1;fill-rule:nonzero;stroke:none;font-family:Times New Roman;-inkscape-font-specification:Times-Roman">for an appropriate value. If an appropriate value cannot be found, then additional</tspan><tspan
             x="-102.72527 -97.84127 -92.34127 -89.283272 -85.62027 -82.562271 -77.678268 -73.399269 -70.416023 -67.358025 -61.858028 -58.874783 -55.816784 -50.316784 -45.432781 -41.153782 -36.269783 -33.286537 -28.402538 -23.518539 -20.460539 -15.576539 -10.076539 -4.576539 -0.91353899 2.1444609 7.028461 11.307461 14.290705 19.174706 22.837706 27.721704 30.704948 34.36795 39.251949 44.751949 50.251949 53.309948 56.97295 61.856949 67.356949 70.340195 73.398193 78.898193 81.881439 86.765434 90.428436 95.312439 100.19643 103.25444 108.13844 111.12168 114.17968 119.67968 124.56368 127.54693 133.04692 137.93092 145.87292 148.85617 154.35617 159.24017 162.29817 167.18217 170.16542 173.22342 178.72342 184.22342 189.10741 192.09065 197.59065 201.25366 204.23691 208.5159 214.0159 218.29491 221.35291 226.23691 234.79491 237.77815 243.27815 246.94115 249.92439 255.42439 260.92438 263.98239 267.04037 271.3194 274.0694 277.05264 283.77362 289.27362 292.33163 297.21564 302.71564 308.21564 311.27362 316.77362 322.27362 325.25687 328.31488 333.81488 338.69888 341.68213 344.74011 347.79813 352.07712 355.13513 358.11838 363.61838"
             y="13.2"
             id="tspan130"
             style="font-size:11px;font-variant:normal;font-weight:normal;writing-mode:lr-tb;fill:#000000;fill-opacity:1;fill-rule:nonzero;stroke:none;font-family:Times New Roman;-inkscape-font-specification:Times-Roman">entries in these categories are required to create the new data type or system of units. Extending the list of</tspan><tspan
             x="-102.72527 -97.225273 -91.725273 -86.225273 -78.283272 -75.533272 -70.033272 -64.533272 -61.475269 -58.417271 -54.138271 -51.388271 -46.504272 -43.44627 -39.167271 -33.667271 -30.917271 -27.254271 -22.370272 -16.870272 -11.370271 -8.3122711 -4.649271 0.23472901 4.5137291 7.2637291 12.147729 17.64773 20.705729 25.589729 31.089729 35.368729 38.426727 43.926727 49.426727 53.70573 56.45573 59.513729 65.013725 67.763725 70.821732 76.321732 81.205727 83.955727 87.013725 91.897728 97.397728 100.45573 105.33973 108.08973 113.58973 117.25273 120.00273 125.50273 131.00273 134.06073 137.11873 139.86873 144.75273 150.25273 155.75273 161.25273 166.13673 169.79973 174.07874 177.13673 182.63673 188.13673 192.41573"
             y="26.4"
             id="tspan132"
             style="font-size:11px;font-variant:normal;font-weight:normal;writing-mode:lr-tb;fill:#000000;fill-opacity:1;fill-rule:nonzero;stroke:none;font-family:Times New Roman;-inkscape-font-specification:Times-Roman">know units also requires extensions to the table of unit conversions </tspan></text>
<text
           transform="matrix(1,0,0,-1,368.89069,240.2)"
           id="text134"><tspan
             x="0 6.5999999 13.2 19.799999 26.4 33 39.599998 46.200001 52.799999 59.400002 66 72.599998 79.199997 85.800003 92.400002 99 105.6 112.2 118.8 125.4 132"
             y="0"
             id="tspan136"
             style="font-size:11px;font-variant:normal;font-weight:normal;writing-mode:lr-tb;fill:#000000;fill-opacity:1;fill-rule:nonzero;stroke:none;font-family:Courier New;-inkscape-font-specification:Courier">ITEM_UNITS_CONVERSION</tspan></text>
<text
           transform="matrix(1,0,0,-1,507.49069,240.2)"
           id="text138"><tspan
             x="0 2.75"
             y="0"
             id="tspan140"
             style="font-size:11px;font-variant:normal;font-weight:normal;writing-mode:lr-tb;fill:#000000;fill-opacity:1;fill-rule:nonzero;stroke:none;font-family:Times New Roman;-inkscape-font-specification:Times-Roman">. </tspan><tspan
             x="-436.491 -428.54901 -423.66501 -420.00201 -415.11801 -412.36801 -409.31 -405.03101 -402.28101 -399.22299 -394.33899 -385.78101 -380.28101 -377.22299 -372.33899 -369.28101 -364.397 -361.647 -357.98401 -352.48401 -348.82101 -346.07101 -343.013 -337.513 -332.629 -329.879 -324.379 -319.495 -311.55301 -308.80301 -305.745 -302.68701 -297.80301 -289.245 -286.495 -280.995 -276.11099 -272.448 -269.39001 -263.89001 -260.832 -257.77399 -254.716 -249.216 -243.716 -240.966"
             y="24.200001"
             id="tspan142"
             style="font-size:11px;font-variant:normal;font-weight:normal;writing-mode:lr-tb;fill:#000000;fill-opacity:1;fill-rule:nonzero;stroke:none;font-family:Times New Roman;-inkscape-font-specification:Times-Roman">Here is template for the new item definition. </tspan></text>
<text
           transform="matrix(1,0,0,-1,70.99969,194.2)"
           id="text144"><tspan
             x="0 5.4000001 10.8 16.200001 21.6 27 32.400002 37.799999 43.200001 48.599998 54 59.400002 64.800003 70.199997 75.599998 81 86.400002 91.800003 97.199997 102.6 108 113.4 118.8 124.2 129.60001 135 140.39999 145.8 151.2 156.60001 162 167.39999 172.8 178.2 183.60001 189 194.39999 199.8 205.2 210.60001 216 221.39999 226.8 232.2 237.60001"
             y="0"
             id="tspan146"
             style="font-size:9px;font-variant:normal;font-weight:normal;writing-mode:lr-tb;fill:#000000;fill-opacity:1;fill-rule:nonzero;stroke:none;font-family:Courier New;-inkscape-font-specification:Courier">save__existing_category.acronym_new_item_name</tspan><tspan
             x="0 21.6 27 32.400002 37.799999 43.200001 48.599998 54 59.400002 64.800003 70.199997 75.599998 81 86.400002 91.800003 97.199997 102.6 108 113.4 118.8 124.2 129.60001 135 140.39999 145.8 151.2 156.60001 162 167.39999 172.8"
             y="10.8"
             id="tspan148"
             style="font-size:9px;font-variant:normal;font-weight:normal;writing-mode:lr-tb;fill:#000000;fill-opacity:1;fill-rule:nonzero;stroke:none;font-family:Courier New;-inkscape-font-specification:Courier"> _item_description.description</tspan><tspan
             x="0 5.4000001 81 86.400002 91.800003 97.199997 102.6 108 113.4 118.8 124.2 129.60001 135 140.39999 145.8 151.2 156.60001 162 167.39999 172.8 178.2 183.60001 189 194.39999 199.8 205.2 210.60001 216"
             y="21.6"
             id="tspan150"
             style="font-size:9px;font-variant:normal;font-weight:normal;writing-mode:lr-tb;fill:#000000;fill-opacity:1;fill-rule:nonzero;stroke:none;font-family:Courier New;-inkscape-font-specification:Courier">; Description goes here ... </tspan><tspan
             x="0"
             y="32.400002"
             id="tspan152"
             style="font-size:9px;font-variant:normal;font-weight:normal;writing-mode:lr-tb;fill:#000000;fill-opacity:1;fill-rule:nonzero;stroke:none;font-family:Courier New;-inkscape-font-specification:Courier">;</tspan><tspan
             x="0 21.6 27 32.400002 37.799999 43.200001 48.599998 54 59.400002 64.800003 70.199997 75.599998 172.8 178.2 183.60001 189 194.39999 199.8 205.2 210.60001 216 221.39999 226.8 232.2 237.60001 243 248.39999 253.8 259.20001 264.60001 270 275.39999 280.79999 286.20001 291.60001 297 302.39999 307.79999 313.20001 318.60001 324 329.39999 334.79999 340.20001 345.60001 351 356.39999 361.79999 367.20001 372.60001 378 383.39999 388.79999 394.20001"
             y="43.200001"
             id="tspan154"
             style="font-size:9px;font-variant:normal;font-weight:normal;writing-mode:lr-tb;fill:#000000;fill-opacity:1;fill-rule:nonzero;stroke:none;font-family:Courier New;-inkscape-font-specification:Courier"> _item.name ’_existing_category.acronym_new_item_name’</tspan><tspan
             x="0 21.6 27 32.400002 37.799999 43.200001 48.599998 54 59.400002 64.800003 70.199997 75.599998 81 86.400002 91.800003 97.199997 102.6 108 113.4 183.60001 189 194.39999 199.8 205.2 210.60001 216 221.39999 226.8 232.2 237.60001 243 248.39999 253.8 259.20001 264.60001 270"
             y="54"
             id="tspan156"
             style="font-size:9px;font-variant:normal;font-weight:normal;writing-mode:lr-tb;fill:#000000;fill-opacity:1;fill-rule:nonzero;stroke:none;font-family:Courier New;-inkscape-font-specification:Courier"> _item.category_id existing_category</tspan><tspan
             x="0 21.6 27 32.400002 37.799999 43.200001 48.599998 54 59.400002 64.800003 70.199997 75.599998 81 86.400002 91.800003 97.199997 102.6 108 113.4 118.8 124.2 129.60001 183.60001 189"
             y="64.800003"
             id="tspan158"
             style="font-size:9px;font-variant:normal;font-weight:normal;writing-mode:lr-tb;fill:#000000;fill-opacity:1;fill-rule:nonzero;stroke:none;font-family:Courier New;-inkscape-font-specification:Courier"> _item.mandatory_code no</tspan><tspan
             x="0 21.6 27 32.400002 37.799999 43.200001 48.599998 54 59.400002 64.800003 70.199997 75.599998 81 86.400002 91.800003 97.199997 102.6 108 113.4 118.8 124.2 183.60001"
             y="75.599998"
             id="tspan160"
             style="font-size:9px;font-variant:normal;font-weight:normal;writing-mode:lr-tb;fill:#000000;fill-opacity:1;fill-rule:nonzero;stroke:none;font-family:Courier New;-inkscape-font-specification:Courier"> _item_default.value ?</tspan><tspan
             x="0 27 32.400002 37.799999 43.200001 48.599998"
             y="86.400002"
             id="tspan162"
             style="font-size:9px;font-variant:normal;font-weight:normal;writing-mode:lr-tb;fill:#000000;fill-opacity:1;fill-rule:nonzero;stroke:none;font-family:Courier New;-inkscape-font-specification:Courier"> loop_</tspan><tspan
             x="0 21.6 27 32.400002 37.799999 43.200001 48.599998 54 59.400002 64.800003 70.199997 75.599998 81 86.400002 91.800003 97.199997 102.6 108 113.4 118.8"
             y="97.199997"
             id="tspan164"
             style="font-size:9px;font-variant:normal;font-weight:normal;writing-mode:lr-tb;fill:#000000;fill-opacity:1;fill-rule:nonzero;stroke:none;font-family:Courier New;-inkscape-font-specification:Courier"> _item_examples.case</tspan><tspan
             x="0 21.6 27 32.400002 37.799999 43.200001 48.599998 54 59.400002 64.800003 70.199997 75.599998 81 86.400002 91.800003 97.199997 102.6 108 113.4 118.8 124.2 129.60001 135 183.60001 189 199.8"
             y="108"
             id="tspan166"
             style="font-size:9px;font-variant:normal;font-weight:normal;writing-mode:lr-tb;fill:#000000;fill-opacity:1;fill-rule:nonzero;stroke:none;font-family:Courier New;-inkscape-font-specification:Courier"> _item_examples.detail ? ?</tspan></text>
</g><path
         d="m 570,720 4980,0 0,6480 -4980,0 0,-6480 z"
         inkscape:connector-curvature="0"
         id="path168"
         style="fill:none;stroke:#000000;stroke-width:6;stroke-linecap:butt;stroke-linejoin:round;stroke-miterlimit:10;stroke-opacity:1;stroke-dasharray:none" /><g
         transform="scale(10,10)"
         id="g170"><text
           transform="matrix(1,0,0,-1,298.889,46)"
           id="text172"><tspan
             x="0 2.664 4.888 9.3360004 11.56"
             y="0"
             id="tspan174"
             style="font-size:8px;font-variant:normal;font-weight:normal;writing-mode:lr-tb;fill:#000000;fill-opacity:1;fill-rule:nonzero;stroke:none;font-family:Helvetica CY;-inkscape-font-specification:Helvetica">- 1 -</tspan><tspan
             x="13.6207 20.2847 26.9487 32.724701 34.9487 39.8367 42.060699 47.396702 51.8447 54.068699 56.292702 62.068699 66.516701 69.180702 73.6287 75.852699 81.6287 86.076698 90.076698 94.524696 96.300697 100.7487 105.1967 109.6447 112.3087 116.3087 118.5327 126.0847 130.5327 133.1967 137.1967 141.1967 145.6447 150.0927 154.5407 156.76469 162.5407 166.98869 169.21271 173.66071 178.1087 180.77271 184.77271 186.9967 192.77271 197.2207 198.9967 202.9967 207.4447 210.1087 214.1087 215.8847 218.1087 222.1087 224.3327 228.7807 233.2287 237.6767 -227.88831 -221.2243 -214.5603 -208.7843 -206.5603 -201.6723 -199.4483 -193.6723 -191.8963 -187.8963 -185.6723 -183.8963 -179.4483 -175.00031 -170.55231 -167.88831 -163.88831 -161.66431 -156.32829 -152.32829 -150.10429 -145.6563 -141.2083 -137.2083 -135.4323 -130.9843 -126.5363"
             y="-700"
             id="tspan176"
             style="font-size:8px;font-variant:normal;font-weight:normal;writing-mode:lr-tb;fill:#000000;fill-opacity:1;fill-rule:nonzero;stroke:none;font-family:Helvetica CY;-inkscape-font-specification:Helvetica">mmCIF Software Developers Workshop/Rutgers University 1997mmCIF Dictionary Extensions</tspan></text>
</g></g></g></svg>