<?xml version="1.0" encoding="UTF-8" standalone="no"?>
<!-- Created with Inkscape (http://www.inkscape.org/) -->

<svg
   xmlns:dc="http://purl.org/dc/elements/1.1/"
   xmlns:cc="http://creativecommons.org/ns#"
   xmlns:rdf="http://www.w3.org/1999/02/22-rdf-syntax-ns#"
   xmlns:svg="http://www.w3.org/2000/svg"
   xmlns="http://www.w3.org/2000/svg"
   xmlns:inkscape="http://www.inkscape.org/namespaces/inkscape"
   version="1.1"
   width="765"
   height="990"
   id="svg2"
   xml:space="preserve"><metadata
     id="metadata8"><rdf:RDF><cc:Work
         rdf:about=""><dc:format>image/svg+xml</dc:format><dc:type
           rdf:resource="http://purl.org/dc/dcmitype/StillImage" /></cc:Work></rdf:RDF></metadata><defs
     id="defs6" /><g
     transform="matrix(1.25,0,0,-1.25,0,990)"
     id="g10"><g
       transform="scale(0.1,0.1)"
       id="g12"><g
         transform="scale(10,10)"
         id="g14"><text
           transform="matrix(1,0,0,-1,204.115,687)"
           id="text16"><tspan
             x="0 10.564 21.128 34.846001 40.127998 50.692001 57.019001 62.300999 73.910004 85.518997 96.083 103.474 114.038 119.32 131.993 138.32001 145.711 157.32001 167.884 174.211 185.82001 193.211"
             y="0"
             id="tspan18"
             style="font-size:19px;font-variant:normal;font-weight:bold;writing-mode:lr-tb;fill:#000000;fill-opacity:1;fill-rule:nonzero;stroke:none;font-family:Helvetica CY;-inkscape-font-specification:Helvetica-Bold">1 Dictionary Structure</tspan></text>
<text
           transform="matrix(1,0,0,-1,71,655)"
           id="text20"><tspan
             x="0 8.8959999 13.344 22.24 31.136 42.688 47.136002 56.032001 61.360001 65.807999 75.584 85.360001 94.255997 100.48 109.376 113.824 125.376 134.272 139.60001 144.048 153.82401 158.272 163.60001 168.048 177.82401 187.60001 192.048 201.82401 210.72 220.496 230.272 240.048 248.944 258.72"
             y="0"
             id="tspan22"
             style="font-size:16px;font-variant:normal;font-weight:bold;writing-mode:lr-tb;fill:#000000;fill-opacity:1;fill-rule:nonzero;stroke:none;font-family:Helvetica CY;-inkscape-font-specification:Helvetica-Bold">1.1 Dictionary Definition Language</tspan></text>
<text
           transform="matrix(1,0,0,-1,71,630.8)"
           id="text24"><tspan
             x="0 6.7210002 12.221 17.105 19.93198 23.59498 27.25798 32.141979 40.699982 45.583981 53.525982 59.025982 62.68898 68.18898 71.015961 74.678963 80.178963 83.841965 86.668945 95.226944 103.78494 111.12194 114.78494 120.90094 123.72792 129.22792 132.28592 137.16992 140.22792 143.28592 148.78592 154.28592 159.16992 162.83292 168.33292 171.1599 174.2179 178.4969 181.32388 186.82388 191.70789 195.37088 198.42888 203.92888 208.81288 214.31288 217.13986 222.63986 228.13986 230.96684 234.02484 239.52484 244.40884 247.23582 255.17783 258.23584 263.11981 266.17783 269.23584 274.73584 280.23584 285.11981 288.78284 294.28284 297.1098 305.05182 309.93579 314.21481 319.09882 322.76181 325.81979 331.31979 334.37781 337.43579 342.93579 348.43579 351.26279 357.9838 362.8678 368.3678 373.8678 379.3678 384.2518 389.7518 394.63577 397.46277 401.12576 409.06778 417.00977 423.73077 427.39377 430.14377 432.97073 439.69174 445.19174 450.07574 452.90274 456.56573 462.06573 465.12372"
             y="0"
             id="tspan26"
             style="font-size:11px;font-variant:normal;font-weight:normal;writing-mode:lr-tb;fill:#000000;fill-opacity:1;fill-rule:nonzero;stroke:none;font-family:Times New Roman;-inkscape-font-specification:Times-Roman">The framework for mmCIF dictionary is defined by the Dictionary Description Language (DDL). The role</tspan><tspan
             x="0 5.5 9.1630001 13.22137 16.279369 21.779369 26.66337 30.721741 38.663738 46.60574 53.32674 57.385109 60.443111 64.722107 68.780479 71.838478 77.338478 81.396851 86.896851 91.780853 95.443848 98.501846 104.00185 108.88585 112.94422 116.00222 121.50222 126.38622 130.4446 135.9446 140.82858 143.8866 148.77058 152.82896 155.88696 158.94496 163.82896 172.38696 176.66595 180.72433 188.66634 194.16634 197.22433 202.10834 207.60834 211.6667 220.2247 225.1087 230.6087 234.66707 240.16707 245.05107 249.10944 254.60944 258.88843 263.77243 269.27243 273.33081 276.38882 281.88882 285.94717 290.83118 296.33118 301.83118 306.11017 309.16818 312.83118 318.33118 323.21518 326.27319 330.33154 335.21555 340.09955 344.98355 350.48355 354.54193 360.04193 364.92593 368.58893 371.64691 377.14691 380.20493 383.26291 386.32092 391.82092 397.32092 401.59991 405.65829 408.71628 414.21628 418.27466 421.33267 426.83267 431.71667 435.77502 444.33304 452.89102 460.22803 463.89102"
             y="13.2"
             id="tspan28"
             style="font-size:11px;font-variant:normal;font-weight:normal;writing-mode:lr-tb;fill:#000000;fill-opacity:1;fill-rule:nonzero;stroke:none;font-family:Times New Roman;-inkscape-font-specification:Times-Roman">of the DDL is to define the data items which may be used to construct each definitions in the mmCIF</tspan><tspan
             x="0 5.5 8.5579996 13.442 16.5 19.558001 25.058001 30.558001 35.442001 39.105 44.605 47.355 50.82724 55.711239 61.211239 66.711243 70.183479 75.067474 78.125481 82.40448 87.90448 91.376717 94.434715 99.934715 103.40696 108.90696 113.79095 117.45396 120.51196 126.01196 130.89595 134.36819 137.42619 142.92619 147.8102 151.28244 154.94543 159.82944 162.88744 167.77144 170.82944 173.88744 179.38744 184.88744 189.16643 194.66643 197.72444 203.22444 207.50343 210.97568 216.47568 221.35968 224.41768 232.35968 237.24367 242.12767 247.62767 251.09991 254.15791 259.6579 264.5419 268.82092 273.70493 277.17715 282.67715 287.56116 291.22415 294.28217 299.78217 302.84015 308.34015 313.84015 317.31238 322.81238 327.69638 330.75439 335.6384 339.11063 342.16864 345.22662 350.11063 358.66864 362.94763 365.69763 369.16986 375.89087 381.39087 386.27487 389.7471 397.68912 405.6311 412.35211 415.82434 418.88235 423.16135 426.63358 431.51758 437.01758 442.51758 446.18057 451.06458 455.3436 459.62259 464.50659"
             y="26.4"
             id="tspan30"
             style="font-size:11px;font-variant:normal;font-weight:normal;writing-mode:lr-tb;fill:#000000;fill-opacity:1;fill-rule:nonzero;stroke:none;font-family:Times New Roman;-inkscape-font-specification:Times-Roman">dictionary, and also to define the relationships between these defining data items. The DDL is expressed</tspan><tspan
             x="0 4.8839998 9.1630001 14.22097 19.104971 24.162939 29.662939 32.72094 37.604939 40.662941 43.72094 49.22094 54.72094 59.604939 63.267941 68.767937 73.825912 79.325912 83.604912 86.66291 92.16291 97.66291 102.72088 105.77888 108.83688 113.11588 118.17385 123.67385 131.61584 137.11584 142.17381 147.67381 152.55782 156.22083 159.27882 164.77882 167.83682 170.89482 173.95282 179.45282 184.95282 189.83682 192.89482 197.95279 202.83679 208.33679 213.83679 216.89479 221.77879 227.27879 230.33679 233.08679 238.14476 244.86575 250.36575 255.24976 260.30774 263.36572 268.24973 273.74973 276.80774 281.86569 285.52869 291.02869 294.69171 303.24969 308.30768 313.80768 317.47067 322.52863 325.58664 331.08664 335.97064 341.02859 345.9126 351.4126 355.07562 358.73862 363.62262 369.12262 372.1806 377.23859 382.73859 387.62259 391.28558 395.56458 398.62259 404.12259 409.62259 414.68054 420.18054 423.84354 428.90152 431.95953 437.45953 442.34351 447.40149 455.34348 463.28549"
             y="39.599998"
             id="tspan32"
             style="font-size:11px;font-variant:normal;font-weight:normal;writing-mode:lr-tb;fill:#000000;fill-opacity:1;fill-rule:nonzero;stroke:none;font-family:Times New Roman;-inkscape-font-specification:Times-Roman">as a dictionary using its own definitional content. The text form of the current version of the DDL</tspan><tspan
             x="0 5.5 8.5579996 13.442 16.5 19.558001 25.058001 30.558001 35.442001 39.105 44.605 47.355 50.412998 54.692001 57.442001 62.942001 67.825996 71.488998 76.373001 79.123001"
             y="52.799999"
             id="tspan34"
             style="font-size:11px;font-variant:normal;font-weight:normal;writing-mode:lr-tb;fill:#000000;fill-opacity:1;fill-rule:nonzero;stroke:none;font-family:Times New Roman;-inkscape-font-specification:Times-Roman">dictionary is here. </tspan><tspan
             x="0 6.7210002 12.221 17.105 20.368004 28.310003 36.252003 42.973003 46.236008 51.120007 56.620007 62.120007 65.178009 70.062004 73.120003 78.620003 82.89901 86.16201 91.66201 97.16201 100.42501 103.48301 108.98301 112.64601 118.14601 121.80901 130.367 135.25101 138.30901 141.367 146.867 152.367 155.63002 160.51401 166.01401 171.51401 177.01401 180.07202 183.33502 191.89302 196.77702 201.66101 205.32402 210.82402 219.38202 224.88202 227.94002 232.82402 237.70802 243.20802 246.26602 251.15002 254.81302 258.07602 262.35501 265.41302 269.07602 274.57602 279.46002 282.51804 288.01804 291.68103 296.56503 299.31503 302.57803 306.24103 311.12503 314.18301 319.68301 324.56702 328.23001 331.49304 334.55103 337.60904 340.87204 346.37204 351.25604 354.91904 357.97702 363.47702 368.36102 372.64005 375.90305 381.40305 386.28702 389.34503 394.22903 397.49203 400.55005 403.60803 408.49203 417.05005 421.32904 424.59204 432.53403 438.03403 441.09204 445.97604 451.47604 454.73904 459.62305 464.50705"
             y="77"
             id="tspan36"
             style="font-size:11px;font-variant:normal;font-weight:normal;writing-mode:lr-tb;fill:#000000;fill-opacity:1;fill-rule:nonzero;stroke:none;font-family:Times New Roman;-inkscape-font-specification:Times-Roman">The DDL contains no information about macromolecular structure, rather it defines data items which can</tspan><tspan
             x="0 5.5 10.384 13.957698 19.457699 23.736698 28.620699 34.120697 37.694397 40.752396 46.252396 49.826096 55.326096 60.210094 64.489098 69.373093 73.036095 76.094093 81.594093 86.478096 90.051788 95.551788 98.609795 104.10979 108.99379 112.65679 116.23049 121.73049 126.61449 129.67249 134.55649 137.30649 140.88019 147.60118 153.10118 157.98518 161.55888 169.50089 177.44289 184.16388 187.73758 190.79558 195.07458 198.64828 203.53229 208.41628 211.47429 216.97429 221.85828 224.91628 227.97429 233.47429 237.04797 242.54797 248.04797 251.10599 254.16399 259.04797 262.62167 268.12167 273.00568 278.50568 283.38968 287.05267 290.11069 294.99469 297.74469 301.31839 304.98138 308.03937 311.61307 317.11307 321.99707 325.66006 328.71808 334.21808 339.10208 343.38107 346.95477 352.45477 357.33878 360.39676 365.28076 368.85446 371.91248 374.97046 379.85446 388.41248 392.69147 396.26517 399.32318 404.82318 409.70715 412.76517 416.33887 421.83887 426.72287 431.00186 435.88586 439.54886 442.60687 448.10687 452.99088 456.56458 459.62256 465.12256"
             y="90.199997"
             id="tspan38"
             style="font-size:11px;font-variant:normal;font-weight:normal;writing-mode:lr-tb;fill:#000000;fill-opacity:1;fill-rule:nonzero;stroke:none;font-family:Times New Roman;-inkscape-font-specification:Times-Roman">be used to describe other data. The DDL is actually quite generic. It defines data items that describe the</tspan><tspan
             x="0 5.5 10.384 15.884 20.768 24.431 29.315001 32.373001 37.319382 40.98238 45.866379 50.750381 53.80838 59.30838 62.971378 67.855377 72.134377 77.080757 82.580757 86.243759 91.19014 96.074142 101.02052 106.52052 111.40452 114.46252 119.34652 124.2929 127.3509 130.40891 135.29289 143.85091 148.79729 151.85529 154.91328 160.41328 165.29729 170.24367 175.12766 180.07404 183.13203 188.01604 193.51604 196.57404 202.07404 206.95804 210.01604 214.96242 220.46242 225.34642 229.62543 234.50941 238.17242 241.23042 246.73042 249.78842 252.84642 258.34641 263.84641 266.59641 271.54279 276.42679 281.37317 286.87317 291.75717 294.81519 299.69919 304.64557 307.70355 313.20355 318.70355 323.58755 326.33755 331.28394 336.16794 341.11432 345.39331 350.27731 353.33533 358.28171 363.78171 367.4447 372.39108 377.27509 382.77509 387.65909 396.21707 401.71707 404.77509 409.65909 413.93808 416.68808 421.63446 426.51846 431.46484 435.12784 440.01184 445.51184 451.01184 455.89584 460.84222 466.34222"
             y="103.4"
             id="tspan40"
             style="font-size:11px;font-variant:normal;font-weight:normal;writing-mode:lr-tb;fill:#000000;fill-opacity:1;fill-rule:nonzero;stroke:none;font-family:Times New Roman;-inkscape-font-specification:Times-Roman">general features of a data item like a textual description, a data type, a set of examples, a range of</tspan><tspan
             x="0 5.5 10.384 14.047 22.605 25.663 29.941999 34.221001 37.278999 42.778999 45.837002 50.721001 53.471001 58.971001 63.855 66.913002 72.413002 77.296997 81.575996 84.325996 87.075996 92.575996 96.238998 98.988998 104.489 109.373 113.036 118.536 123.42 128.92 133.19901 135.94901 140.83299 143.58299 149.08299 152.14101 156.42 161.304 164.967 169.851 172.909 177.793 180.543 184.82201 189.70599 192.76401 195.51401 201.01401 204.677 207.427 212.927 217.811 221.474 230.032 233.09 236.14799 239.20599 244.09 249.59 252.34 257.84 262.724 265.78201 271.28201 276.16599 280.44501 283.19501"
             y="116.6"
             id="tspan42"
             style="font-size:11px;font-variant:normal;font-weight:normal;writing-mode:lr-tb;fill:#000000;fill-opacity:1;fill-rule:nonzero;stroke:none;font-family:Times New Roman;-inkscape-font-specification:Times-Roman">permissible values, or perhaps a discrete set of permitted values. </tspan><tspan
             x="0 6.7210002 12.221 17.105 20.455854 28.397856 36.339855 43.060856 46.411709 51.295712 56.795712 65.353706 70.853706 73.911713 79.411713 84.295708 88.574707 91.925568 96.809563 102.30956 105.36756 108.42557 113.30956 118.19357 121.25156 124.30956 129.80957 135.30957 139.58856 142.93942 148.43942 152.10242 155.45328 159.11627 164.00027 167.05827 171.94228 175.00027 179.88428 185.38428 188.73512 194.23512 199.11913 202.17712 207.06113 210.41199 213.46999 216.52798 221.41199 229.96999 234.24898 237.59984 240.65784 246.15784 249.21584 254.71584 258.06668 262.95068 267.83469 270.8927 275.7767 281.2767 286.7767 290.4397 293.49768 298.38168 302.66071 305.41071 308.76154 316.70355 320.05441 324.93842 329.82242 332.8804 337.7644 343.2644 348.7644 352.4274 355.48541 360.36942 364.64841 367.99927 371.05725 375.33627 378.6871 383.57111 387.85013 392.12912 397.01312 402.51312 405.57111 408.62912 413.51312 416.57111 419.62912 425.12912 428.47998 433.36398 436.71481 439.77283 444.65683 450.15683 453.21481 458.09882 461.44968 464.50769"
             y="140.8"
             id="tspan44"
             style="font-size:11px;font-variant:normal;font-weight:normal;writing-mode:lr-tb;fill:#000000;fill-opacity:1;fill-rule:nonzero;stroke:none;font-family:Times New Roman;-inkscape-font-specification:Times-Roman">The DDL combines collections of related data items into categories. A categories is essentially a table in</tspan><tspan
             x="0 7.9419999 13.442 16.5 21.384001 26.884001 30.015837 34.899837 39.783836 44.667835 50.167835 53.299671 56.962673 61.846672 67.346672 72.230675 75.288673 78.346672 81.404671 84.462669 89.962669 95.462669 98.594505 104.09451 107.75751 110.88934 113.94734 119.44734 124.33134 127.46318 132.96318 136.62617 142.12617 147.62617 153.12617 156.25801 161.75801 165.42102 168.55286 172.21585 177.09985 180.15785 185.04185 188.09985 192.98386 198.48386 201.61569 204.67369 207.73169 212.61569 221.17369 225.45268 228.58452 233.46852 238.96852 244.46852 248.74753 251.87936 256.76337 259.8952 263.5582 269.0582 277.00018 279.75018 282.88202 293.26602 296.32404 299.38202 304.88202 307.94003 313.44003 316.57187 321.45587 324.58771 329.47171 334.35571 337.4137 342.2977 347.7977 353.2977 356.96069 362.46069 365.21069 368.34253 371.40054 376.90054 382.40054 386.67953 391.56354 394.69537 400.19537 405.07938 408.13739 413.02136 416.1532 419.21121 422.26923 427.1532 435.71121 439.9902 443.12204 451.06406 456.56406 459.62204 464.50604"
             y="154"
             id="tspan46"
             style="font-size:11px;font-variant:normal;font-weight:normal;writing-mode:lr-tb;fill:#000000;fill-opacity:1;fill-rule:nonzero;stroke:none;font-family:Times New Roman;-inkscape-font-specification:Times-Roman">which each repetition of the group of related items adds a row. Within a category, those data items which</tspan><tspan
             x="0 5.5 10.384 13.442 18.326 21.989 30.547001 33.605 39.105 43.988998 46.831753 49.889751 55.389751 60.27375 63.116505 68.616501 74.116501 77.1745 82.6745 88.1745 93.058502 98.558502 103.4425 107.7215 112.0005 114.84325 120.34325 124.00626 126.84901 129.90701 135.40701 140.291 143.349 147.01201 149.85475 155.35475 159.01776 164.51776 170.01776 175.51776 178.3605 183.24451 186.9075 191.7915 194.63426 200.13426 205.01826 209.29726 212.35526 217.85526 223.35526 228.23926 231.29726 236.18126 241.68126 244.52402 249.408 253.68701 256.52975 262.02975 266.91376 272.41376 275.2565 278.31451 281.37253 286.2565 294.81451 299.09351 301.93628 304.99426 310.49426 313.33701 316.39502 321.89502 326.77902 329.62177 334.50577 339.38977 342.44775 347.33176 352.83176 358.33176 361.99478 367.49478 370.24478 373.08752 381.02951 386.52951 389.37228 394.87228 399.75626 402.81427 407.69827 410.54102 413.59903 416.65701 421.54102 430.09903 432.94177 438.44177 442.10477 447.60477 453.10477 458.60477 461.44754 464.50552"
             y="167.2"
             id="tspan48"
             style="font-size:11px;font-variant:normal;font-weight:normal;writing-mode:lr-tb;fill:#000000;fill-opacity:1;fill-rule:nonzero;stroke:none;font-family:Times New Roman;-inkscape-font-specification:Times-Roman">determine the uniqueness of their group are designated as key items in the category. No data item group in</tspan><tspan
             x="0 4.8839998 9.8281002 14.7121 19.5961 22.6541 27.538099 33.038101 38.538101 42.201099 47.701099 52.645199 55.703201 59.982201 64.9263 69.810303 72.868301 75.9263 81.4263 89.368301 94.252296 99.752296 104.6964 107.7544 113.2544 118.1985 123.6985 128.5825 134.0825 138.96651 143.9106 148.7946 153.73869 158.0177 162.9017 165.9597 170.90379 176.40379 180.0668 185.01089 190.51089 196.01089 201.51089 204.56889 207.62691 212.51089 217.3949 220.4529 225.3369 230.28101 235.78101 240.66499 243.72301 249.22301 254.10699 258.38599 263.33011 268.83011 272.4931 277.43719 280.49521 283.55319 287.83221 292.77631 298.27631 303.16031 308.66031 313.6044 316.66241 319.7204 324.6044 333.16241 337.44141 340.19141 345.1355 351.85651 356.74051 361.62451 367.12451 372.0686 377.5686 382.45261 385.51059 390.39459 395.33871 398.3967 401.45471 406.33871 414.8967 419.84079 422.8988 427.1778 432.12189 437.00589 441.28491 445.5639 448.62189 454.12189 459.62189 464.50589"
             y="180.39999"
             id="tspan50"
             style="font-size:11px;font-variant:normal;font-weight:normal;writing-mode:lr-tb;fill:#000000;fill-opacity:1;fill-rule:nonzero;stroke:none;font-family:Times New Roman;-inkscape-font-specification:Times-Roman">a category is allowed to have a set of duplicate values of its key items. Each data item is assigned</tspan><tspan
             x="0 8.5579996 13.442 22 27.5 32.383999 36.047001 40.326 45.826 48.883999 54.383999 57.209335 60.267334 65.767334 68.592667 74.092667 79.592667 84.476669 87.302002 92.802002 96.465004 99.290337 107.84834 113.34834 117.01134 121.89534 124.72067 129.60468 134.48868 137.54668 142.43068 147.93068 153.43068 157.09367 160.15167 165.03568 169.31467 172.06467 174.89001 181.00601 185.89001 189.55301 194.43701 199.93701 202.99501 206.658 211.54201 217.04201 220.10001 223.158 228.658 231.48334 235.14635 240.03035 243.08835 247.97235 251.03035 254.08835 259.58835 265.08835 269.36734 274.86734 277.92535 283.42535 287.70435 290.52969 299.08768 303.97168 309.47168 312.29703 317.79703 322.681 325.50635 329.78534 335.28534 340.16934 345.05334 348.11136 351.77435 354.83234 359.71634 365.21634 368.04169 371.70468 377.20468 380.86768 383.69302 386.75101 389.80902 394.69302 403.25101 407.53003 410.35535 418.29736 423.79736 426.85535 431.73935 437.23935 440.0647 445.5647 450.4487 453.50668 459.00668 464.50668"
             y="193.60001"
             id="tspan52"
             style="font-size:11px;font-variant:normal;font-weight:normal;writing-mode:lr-tb;fill:#000000;fill-opacity:1;fill-rule:nonzero;stroke:none;font-family:Times New Roman;-inkscape-font-specification:Times-Roman">membership in one or more categories. Parent-child relationships may be specified for items which belong</tspan><tspan
             x="0 3.0580001 8.5579996 12.305535 20.863535 26.363535 29.421535 32.479534 35.537537 41.037537 44.095535 48.979534 52.72707 57.611069 62.495071 65.55307 70.437073 75.937073 81.437073 85.100067 88.158073 93.042068 97.321068 100.07107 103.8186 110.5396 116.0396 120.92361 125.20261 130.08661 133.83414 137.49715 142.38113 145.43913 150.32314 153.38113 156.43913 161.93913 167.43913 171.71814 177.21814 180.27614 185.77614 190.05515 193.80267 199.30267 204.18668 207.84967 216.40767 219.46567 222.52368 226.27121 229.32921 234.82921 239.71321 243.46074 248.34474 253.84474 259.34476 263.00775 267.89175 272.17075 276.44974 279.50775 285.00775 290.50775 294.25528 299.75528 303.41827 307.1658 310.22382 315.72382 320.60782 324.35535 329.85535 334.73935 338.40234 343.90234 347.64987 352.53387 358.03387 366.59189 372.09189 375.14987 378.20789 383.09189 387.97589 391.03387 395.91788 401.41788 405.16541 410.66541 415.54941 418.60742 423.49142 427.23895 431.51794 434.57596 438.23895 443.73895 448.62296 451.68097 457.18097 460.84396 465.72797"
             y="206.8"
             id="tspan54"
             style="font-size:11px;font-variant:normal;font-weight:normal;writing-mode:lr-tb;fill:#000000;fill-opacity:1;fill-rule:nonzero;stroke:none;font-family:Times New Roman;-inkscape-font-specification:Times-Roman">to multiple categories. These relationships permit the expression of the very complicated data structures</tspan><tspan
             x="0 3.6630001 8.5469999 14.047 19.547001 22.605 26.268 31.152 36.652 39.402 42.459999 47.959999 50.709999 56.209999 61.094002 65.373001 70.257004 73.919998 76.977997 82.477997 87.362 90.112 98.669998 103.554 108.438 112.101 117.601 126.159 131.659 134.717 139.601 144.485 149.985 153.043 157.927 161.59 164.34 168.619 171.677 175.34 180.84 185.724 188.782 194.282 197.94501 202.82899 205.57899"
             y="220"
             id="tspan56"
             style="font-size:11px;font-variant:normal;font-weight:normal;writing-mode:lr-tb;fill:#000000;fill-opacity:1;fill-rule:nonzero;stroke:none;font-family:Times New Roman;-inkscape-font-specification:Times-Roman">required to describe macromolecular structure. </tspan><tspan
             x="0 6.7210002 12.221 17.105 22.43034 30.372339 38.314339 45.035339 50.36068 55.244678 58.302681 62.58168 68.08168 73.407021 78.907021 82.570023 88.070023 93.570023 96.628021 102.12802 107.01202 111.29102 116.61636 120.89536 126.39536 134.95335 139.83736 145.1627 150.6627 153.7207 159.2207 164.10471 167.7677 173.09303 176.15105 181.03503 186.53503 191.41904 194.47704 198.75604 204.08138 209.58138 213.24438 218.56972 224.06972 228.95372 232.01172 236.89572 242.22105 247.72105 251.38406 256.88406 261.76807 267.26807 270.32605 275.21005 280.09406 283.15207 286.21005 291.71005 297.21005 302.5354 305.59341 311.09341 316.41873 321.30273 326.80273 332.30273 335.36075 338.41873 341.47675 346.97675 352.47675 357.80209 360.86008 366.36008 371.68542 374.74341 380.24341 385.12741 390.45276 395.33676 400.22076 403.27875 408.16275 413.66275 419.16275 422.82578 428.32578 431.07578 436.40109 443.7381 448.6221 451.68011 456.56409 459.6221 464.5061"
             y="244.2"
             id="tspan58"
             style="font-size:11px;font-variant:normal;font-weight:normal;writing-mode:lr-tb;fill:#000000;fill-opacity:1;fill-rule:nonzero;stroke:none;font-family:Times New Roman;-inkscape-font-specification:Times-Roman">The DDL also provides some other levels of data organization in addition to the category. Related</tspan><tspan
             x="0 4.8839998 9.7679996 12.826 17.709999 23.209999 28.709999 32.373001 35.431 40.314999 44.594002 48.861801 57.4198 62.303799 67.803802 72.071602 77.571602 82.455597 86.723396 91.607399 97.107399 100.1654 103.2234 108.1074 112.9914 116.0494 120.9334 126.4334 130.7012 133.7592 139.2592 144.7592 149.6432 152.7012 158.2012 163.08521 166.7482 171.01601 174.07401 179.57401 183.8418 188.7258 193.6098 196.6678 201.5518 207.0518 212.5518 216.2148 221.7148 225.9826 231.4826 235.1456 240.6456 246.1456 251.6456 255.92461 258.67459 262.94241 267.82639 273.32639 278.82639 283.09421 288.59421 293.47821 297.1412 302.02521 307.52521 310.58319 314.85101 318.51401 323.39801 326.45599 331.34 334.39801 337.45599 342.95599 348.45599 352.73499 358.23499 361.293 366.793 371.07199 375.33981 383.8978 388.7818 394.2818 398.54959 404.04959 408.93359 413.20139 417.48041 422.98041 427.86441 432.74841 435.8064 439.46939 442.5274 447.41141 452.91141 457.1792 460.84219 466.34219"
             y="257.39999"
             id="tspan60"
             style="font-size:11px;font-variant:normal;font-weight:normal;writing-mode:lr-tb;fill:#000000;fill-opacity:1;fill-rule:nonzero;stroke:none;font-family:Times New Roman;-inkscape-font-specification:Times-Roman">categories may be collected together in category groups, and parent relationships may be specified for</tspan><tspan
             x="0 3.0580001 8.5579996 13.442 17.721001 22.605 25.561502 31.061502 34.724503 40.224503 45.724503 51.224503 55.503502 58.253502 61.210003 67.931007 73.431007 76.489006 80.768005 83.724503 89.224503 92.282509 97.782509 103.28251 108.1665 111.82951 114.78601 117.84401 122.728 128.22801 133.11201 136.17001 139.12651 144.62651 148.28951 151.24602 156.13 160.40901 164.68802 170.18802 175.07201 178.13 183.01401 186.07201 189.13 194.63 200.13 203.08652 208.58652 212.24951 217.74951 223.24951 226.30751 231.80751 236.69151 240.97052 243.92702 248.81102 251.76752 260.32553 265.2095 270.09351 275.59351 279.87253 282.82901 288.32901 291.99203 294.94852 300.44852 304.11151 309.61151 314.49551 319.99551 323.05353 327.93753 330.99551 336.49551 341.99551 344.95203 348.01001 352.89401 356.55704 362.05704 366.94101 369.89752 374.78152 380.28152 388.83954 394.33954 397.39752 400.45554 405.33954 410.22351 413.28152 418.16553 423.66553 426.62204 431.50604 437.00604 440.06403 443.12204 448.00604 452.89001 455.94803 459.00604 464.50604"
             y="270.60001"
             id="tspan62"
             style="font-size:11px;font-variant:normal;font-weight:normal;writing-mode:lr-tb;fill:#000000;fill-opacity:1;fill-rule:nonzero;stroke:none;font-family:Times New Roman;-inkscape-font-specification:Times-Roman">these groups. This higher level of association provides a means of organizing large complicated collection</tspan><tspan
             x="0 5.5 9.1630001 12.025109 16.909109 21.79311 24.851109 29.735109 35.235107 40.735107 44.398109 47.456108 52.340111 56.61911 59.481216 62.539219 68.039215 71.097221 76.597221 79.459328 83.738327 92.296326 97.180328 100.23833 103.29633 108.18033 111.84333 114.70544 123.26344 128.76344 132.42644 137.31044 140.17255 143.83554 148.71954 151.77754 156.66154 162.16154 167.04555 172.54555 175.60355 178.46565 183.34966 188.84966 194.34966 197.21176 202.71176 208.21176 211.26976 216.15376 221.65376 224.71176 227.76976 232.65376 235.71176 238.76976 244.26976 247.13187 250.18987 255.68987 258.74786 263.63187 267.29486 270.95789 275.84186 278.89987 283.78387 286.84186 291.72586 297.22586 300.08798 305.58798 309.25098 314.75098 320.25098 325.75098 330.02997 332.77997 335.64209 346.02609 349.08408 352.14209 357.64209 360.7001 366.2001 369.06219 372.12021 377.62021 382.50421 385.3663 388.42432 393.30832 398.80832 403.69232 406.75031 409.61243 415.11243 418.77542 421.63751 426.52151 429.38364 434.26764 439.15164 442.20963 447.09363 452.59363 458.09363 461.75662 467.25662"
             y="283.79999"
             id="tspan64"
             style="font-size:11px;font-variant:normal;font-weight:normal;writing-mode:lr-tb;fill:#000000;fill-opacity:1;fill-rule:nonzero;stroke:none;font-family:Times New Roman;-inkscape-font-specification:Times-Roman">of categories into smaller more relevant and potentially interrelated groups. Within the level of a category,</tspan><tspan
             x="0 4.2789998 9.7790003 15.279 20.163 25.047001 28.105 32.988998 38.488998 43.988998 47.652 50.709999 55.594002 59.873001 62.83696 68.33696 71.999962 74.963921 80.463921 85.347916 88.405914 93.289917 96.253876 99.311874 102.36988 107.25388 115.81187 120.09087 123.05483 131.61284 136.49684 141.99684 144.9608 150.4608 155.34479 158.30876 163.80876 168.69275 172.35576 175.41376 180.91376 185.79776 191.29776 194.26172 199.14571 207.70372 213.20372 218.70372 224.20372 227.16768 232.66768 236.33067 241.83067 247.33067 252.83067 257.10968 260.07364 265.57364 269.23663 272.20059 275.86359 280.74759 283.8056 288.68958 291.74759 296.63159 302.13159 305.09555 310.59555 315.47955 318.53754 323.42154 326.3855 329.44351 332.5015 337.3855 345.94351 350.2225 352.9725 355.93646 362.65747 368.15747 373.04147 376.00543 380.28442 385.78442 391.28442 396.16843 401.05243 404.11041 408.99442 414.49442 419.99442 423.65744 429.15744 432.1214 437.6214 441.28439 446.78439 452.28439 455.34238 460.84238 465.72638"
             y="297"
             id="tspan66"
             style="font-size:11px;font-variant:normal;font-weight:normal;writing-mode:lr-tb;fill:#000000;fill-opacity:1;fill-rule:nonzero;stroke:none;font-family:Times New Roman;-inkscape-font-specification:Times-Roman">subcategories of data items may be defined among groups of related data items. The subcategory provides</tspan><tspan
             x="0 4.8839998 7.6339998 16.191999 21.076 25.959999 31.459999 36.344002 41.844002 44.902 49.181 57.738998 60.488998 63.547001 69.046997 71.796997 74.855003 80.355003 85.238998 90.738998 93.796997 96.855003 100.518 106.018 108.768 111.826 117.326 122.21 125.268 128.01801 130.76801 134.431 139.931 143.59399 146.34399 151.228 156.728 161.612 170.17 175.67 178.728 183.612 186.362 189.112 192.17 197.67 202.554 205.304 210.804 215.688 218.746 223.63 226.38 229.438 232.496 237.38 245.938 250.217 252.967 261.52499 267.02499 272.52499 275.58301 281.08301 283.83301 286.58301 292.08301 296.96701 302.46701 305.21701 307.96701 312.85101 318.35101 323.85101 326.60101 332.10101 336.98499 341.86899 345.53201 348.28201 353.16599 358.66599 361.724 364.78201 369.66599 374.54999 377.608 380.66599 386.16599 391.04999 394.108 399.608 402.358 407.858 412.742 416.405 419.46301 424.96301 429.84698 432.59698 437.48099 440.23099 445.73099 450.61499 453.673 458.55701 461.30701"
             y="310.20001"
             id="tspan68"
             style="font-size:11px;font-variant:normal;font-weight:normal;writing-mode:lr-tb;fill:#000000;fill-opacity:1;fill-rule:nonzero;stroke:none;font-family:Times New Roman;-inkscape-font-specification:Times-Roman">a mechanism to identify that, for example, the data items month, day, and year collectively define a date. </tspan><tspan
             x="0 6.7210002 12.221 17.105 20.834503 26.334503 29.392504 34.892502 40.392502 45.276505 49.555504 52.613503 56.343006 59.401005 64.285004 69.785004 74.669006 77.727005 82.006004 85.735512 91.235512 94.898506 98.628014 104.12801 109.01201 112.07001 116.95401 120.68352 126.18352 129.84651 135.34651 140.23051 145.73051 148.78851 153.67252 158.55652 161.61452 164.67252 170.17252 175.67252 179.40202 184.90202 188.56502 194.06502 199.56502 202.62302 208.12302 213.00702 218.50702 222.23653 227.73653 233.23653 236.96602 240.02402 245.52402 250.40802 254.13753 262.07953 270.02151 276.74252 280.47202 285.35602 289.01904 293.90302 297.63254 300.69052 306.19052 311.07452 314.80405 320.30405 325.18805 328.24603 333.13004 336.85953 342.35953 345.41754 350.91754 355.80154 361.30154 365.03104 369.91504 375.41504 380.91504 384.64453 387.70255 393.20255 398.08655 401.81604 407.31604 410.37405 415.25806 418.31604 421.37405 426.87405 432.37405 437.25806 440.92105 446.42105 449.17105 452.90054 459.62155 465.12155"
             y="334.39999"
             id="tspan70"
             style="font-size:11px;font-variant:normal;font-weight:normal;writing-mode:lr-tb;fill:#000000;fill-opacity:1;fill-rule:nonzero;stroke:none;font-family:Times New Roman;-inkscape-font-specification:Times-Roman">The highest levels of data organization provided by the DDL are the data block and the dictionary. The</tspan><tspan
             x="0 5.5 8.5579996 13.442 16.5 19.558001 25.058001 30.558001 35.442001 39.105 44.605 47.973518 51.031521 55.91552 61.41552 66.299522 69.357521 72.726036 77.610039 83.110039 86.168037 89.226036 94.110039 98.994041 102.05204 106.33104 109.69955 114.58356 117.95208 122.23108 127.11507 130.17308 133.5416 139.0416 142.70459 146.07312 149.73611 154.62012 157.67812 162.56212 165.62012 170.50412 176.00412 179.37263 184.87263 189.75664 193.41963 196.47763 201.97763 205.03563 208.09363 211.15163 216.65163 222.15163 226.43063 229.79915 232.85715 238.35715 241.41515 246.91515 250.28368 255.16766 258.53619 262.81519 265.8732 271.3732 276.8732 279.93118 284.81519 288.18372 293.68372 299.18372 302.2417 305.29971 308.04971 311.41821 316.30222 321.80222 327.30222 330.67075 336.17075 339.83374 345.33374 350.83374 353.89175 359.39175 364.27576 368.55475 371.92328 375.58627 381.08627 384.74927 388.1178 393.00177 396.3703 401.8703 406.7543 409.81232 414.69629 417.7543 420.81232 425.69629 431.19629 434.56482 438.22781 443.11182 448.61182 451.66983 455.94882 459.00684 464.50684"
             y="347.60001"
             id="tspan72"
             style="font-size:11px;font-variant:normal;font-weight:normal;writing-mode:lr-tb;fill:#000000;fill-opacity:1;fill-rule:nonzero;stroke:none;font-family:Times New Roman;-inkscape-font-specification:Times-Roman">dictionary level collects a set of related definitions into a single unit, and provides for a detailed revision</tspan><tspan
             x="0 5.5 8.5579996 12.837 15.895 21.395 25.058001 30.558001 34.655399 37.713402 43.213402 47.310799 52.810799 57.694801 61.792198 70.350197 75.2342 78.292198 83.792198 86.850197 91.7342 94.792198 100.2922 105.1762 110.6762 114.7736 120.2736 125.7736 129.871 132.929 138.429 143.313 147.4104 152.2944 157.7944 160.8524 163.9104 168.7944 173.67841 176.7364 179.7944 185.2944 190.7944 193.5444 197.6418 204.36279 209.86279 214.7468 218.84419 224.34419 229.2282 232.28619 237.1702 241.26759 246.76759 249.82561 255.32561 260.20959 265.70959 269.80701 272.86499 277.74899 283.24899 288.133 291.19101 295.28839 298.34641 301.40439 306.28839 310.56741 314.66479 317.72281 323.22281 328.10681 332.20419 337.0882 342.5882 348.0882 351.14621 356.03021 361.53021 364.5882 368.86719 372.9646 378.4646 382.12759 386.22501 391.10901 395.20639 400.70639 403.7644 408.64841 411.70639 414.7644 420.2644 425.7644 430.64841 434.3114 439.8114 443.90881 446.9668 452.4668 456.56421 459.62219 465.12219 470.0062"
             y="360.79999"
             id="tspan74"
             style="font-size:11px;font-variant:normal;font-weight:normal;writing-mode:lr-tb;fill:#000000;fill-opacity:1;fill-rule:nonzero;stroke:none;font-family:Times New Roman;-inkscape-font-specification:Times-Roman">history to be maintained on the collection. The data block level ties the contents of a dictionary to the </tspan></text>
<text
           transform="matrix(1,0,0,-1,71,256.8)"
           id="text76"><tspan
             x="0 6.5999999 13.2 19.799999 26.4"
             y="0"
             id="tspan78"
             style="font-size:11px;font-variant:normal;font-weight:normal;writing-mode:lr-tb;fill:#000000;fill-opacity:1;fill-rule:nonzero;stroke:none;font-family:Courier New;-inkscape-font-specification:Courier">data_</tspan></text>
<text
           transform="matrix(1,0,0,-1,106.87637,256.8)"
           id="text80"><tspan
             x="0 4.2789998 9.1630001 14.047 17.105 20.163 25.663 31.163 34.039368 37.097366 42.597366 45.473736 53.415733 58.915733 61.973736 66.857735 72.357735 75.2341 78.292099 81.350098 84.226471 87.28447 91.563469 94.439835 99.323837 104.82384 110.32384 113.38184 118.26584 121.32384 126.82384 131.70784 137.20784 139.95784 142.8342 149.55521 155.05521 159.93921 162.81557 165.87357 171.37357 176.25757 181.75757 184.81557 187.87357 191.53658 194.59457 199.47856 203.14157 206.01793 209.68094 215.18094 218.84393 221.72031 224.77831 230.27831 235.16231 238.03867 243.53867 248.42267 251.48067 256.36469 259.24103 264.74103 267.79904 273.29904 278.18304 283.68304 286.55942 291.44339 296.94339 302.44339 305.31976 310.81976 315.70377 321.20377 326.08777 330.97177 333.84814 336.90613 342.40613 347.29013 350.1665 355.6665 358.72452 363.60849 366.6665 369.72452 375.22452 380.72452 385.60849 389.27151 394.77151 397.64786 400.70587 404.98486 407.86124 412.74524 418.24524 423.74524 428.62924"
             y="0"
             id="tspan82"
             style="font-size:11px;font-variant:normal;font-weight:normal;writing-mode:lr-tb;fill:#000000;fill-opacity:1;fill-rule:nonzero;stroke:none;font-family:Times New Roman;-inkscape-font-specification:Times-Roman">section in which it is contained. The identifier for the data block and hence the dictionary is added</tspan><tspan
             x="-35.876366 -32.818367 -24.260366 -18.760366 -15.702367 -12.644367 -7.7603669 -4.7023668 -1.644367 1.413633 6.9136329 9.6636333 12.721633 18.221634 20.971634 24.029633 29.529633 34.413631 37.163631 42.663631 47.547634 53.047634 55.797634 61.297634 64.960632 67.710632 72.594635 77.47863 82.362633 87.862633 90.612633 95.496635 100.38063 103.43864 108.32263 113.82263 119.32263 122.98563 128.48563 131.23563"
             y="13.2"
             id="tspan84"
             style="font-size:11px;font-variant:normal;font-weight:normal;writing-mode:lr-tb;fill:#000000;fill-opacity:1;fill-rule:nonzero;stroke:none;font-family:Times New Roman;-inkscape-font-specification:Times-Roman">implicitly to the key of each category. </tspan><tspan
             x="-35.876366 -29.155367 -23.655367 -18.771366 -15.660876 -11.997876 -6.4978762 -3.4398761 -0.38187599 5.118124 13.060124 16.118124 21.618124 27.118124 30.228615 34.507614 39.391617 44.275616 47.333614 50.391617 55.891617 61.391617 65.670616 68.781105 74.281105 77.944107 83.444107 88.944107 92.002106 97.502106 102.38611 105.4966 109.7756 114.6596 120.1596 125.04359 133.60159 138.4856 141.54359 144.60159 149.4856 152.59608 158.09608 161.15408 166.03809 171.53809 175.2011 180.08508 188.64308 192.92209 196.03258 201.53258 205.19557 208.30608 213.19006 218.07407 222.95807 228.45807 231.56856 237.06856 240.73157 243.84206 246.90005 252.40005 257.28406 260.39453 265.89453 269.55756 275.05756 279.94153 285.44153 288.49954 293.38354 298.26755 301.32553 304.38354 309.88354 315.38354 320.26755 323.32553 326.43604 330.09903 334.98303 339.86703 342.92505 348.42505 352.08804 356.97205 361.25104 364.36151 369.86151 373.52454 379.02454 384.52454 387.58252 393.08252 397.96652 403.46652 406.57703 412.07703 417.57703 420.6875 423.74551 429.24551"
             y="37.400002"
             id="tspan86"
             style="font-size:11px;font-variant:normal;font-weight:normal;writing-mode:lr-tb;fill:#000000;fill-opacity:1;fill-rule:nonzero;stroke:none;font-family:Times New Roman;-inkscape-font-specification:Times-Roman">The following sections provide schematic diagrams of each of the organizational features provided by the</tspan><tspan
             x="-35.876366 -27.934366 -19.992367 -13.271367 -10.521367 -5.5653172 -1.902317 3.597683 8.5537329 11.611733 17.111732 21.995733 26.274733 31.158733 36.114784 41.614784 44.672783 49.556782 55.056782 58.719784 63.603783 72.161781 76.440781 79.190781 84.146835 89.646835 95.146835 100.64684 105.53083 109.80983 114.76588 119.64988 125.14988 130.03389 133.09189 138.59189 142.87088 147.75488 152.71094 155.76894 161.26894 166.15294 171.10898 174.16698 179.66698 184.55098 189.50703 195.00703 199.89104 202.94904 207.83304 212.78908 215.84708 218.90509 223.78908 232.34708 236.62608 241.58214 249.52414 252.58214 255.64014 261.14014 264.19812 269.69812 274.65417 279.53818 284.42218 289.30618 294.80618 299.76224 304.64624 309.53024 312.58823 317.47223 322.97223 328.47223 332.13522 337.63522 340.38522 345.34128 353.28329 358.1673 363.6673 368.62332 374.12332 379.00732 382.06534 386.94934 391.9054 394.96338 398.02139 402.9054 411.46338 415.74237 420.69843 425.58243 429.24542"
             y="50.599998"
             id="tspan88"
             style="font-size:11px;font-variant:normal;font-weight:normal;writing-mode:lr-tb;fill:#000000;fill-opacity:1;fill-rule:nonzero;stroke:none;font-family:Times New Roman;-inkscape-font-specification:Times-Roman">DDL. In these diagrams, boxes enclose the the data items within each category. Key data items are</tspan><tspan
             x="-35.876366 -30.376368 -26.713367 -21.829367 -16.945368 -12.061367 -6.561367 -1.677367 3.822633 7.764173 13.264173 18.764174 22.705713 27.589712 31.531254 37.031254 41.915253 45.578255 51.078255 55.019794 59.903793 62.961792 66.624794 71.508797 74.566795 79.45079 82.20079 86.142334 94.084335 98.96833 102.02634 106.91033 110.85188 113.90987 116.96787 121.85188 130.40987 134.68887 138.63042 143.51442 149.01442 157.57242 166.13042 171.63042 177.13042 181.07196 184.12996 189.62996 193.57149 202.12949 207.62949 210.6875 213.7455 216.8035 222.3035 225.3615 230.2455 234.18703 239.07103 243.95503 247.01303 251.89703 257.39703 262.89703 266.56003 269.61804 274.50204 278.78104 282.72256 287.60657 291.26956 296.15356 300.09512 303.15311 308.65311 313.53711 319.03711 322.09512 325.15311 328.8161 331.87411 336.75812 342.25812 346.19965 351.69965 357.19965 361.1412 366.02521 371.52521 377.02521 382.52521 387.40918 392.29318 395.3512 398.40918 403.90918 409.40918 413.35074 416.40872 419.46674 424.96674 429.85074"
             y="63.799999"
             id="tspan90"
             style="font-size:11px;font-variant:normal;font-weight:normal;writing-mode:lr-tb;fill:#000000;fill-opacity:1;fill-rule:nonzero;stroke:none;font-family:Times New Roman;-inkscape-font-specification:Times-Roman">preceded by a dark circle. Data items common to multiple categories are identified by connecting lines</tspan><tspan
             x="-35.876366 -27.934366 -24.876368 -21.818367 -16.318367 -13.568367 -10.510367 -5.0103669 -0.126367 2.6236329 7.5076332 11.170633 14.833633 20.333633 28.275633 32.554634 35.304634 40.804634 46.304634 49.362633 54.862633 57.920631 60.978634 66.47863 71.97863 74.72863 79.612633 82.670631 85.420631 88.47863 93.97863 98.862633 101.61263 107.11263 111.99664 115.65963 120.54363 126.04363 129.10164 131.85164 137.35164 142.23563 145.89864 148.95663 154.45663 157.51463 160.57263 163.63063 169.13063 174.63063 177.38063 182.88063 186.54364 189.29364 192.35164 197.85164 202.73563 205.48563 210.98563 215.86963 218.92763 223.81163 226.56163 229.61963 232.67763 237.56163 246.11963 248.86963"
             y="77"
             id="tspan92"
             style="font-size:11px;font-variant:normal;font-weight:normal;writing-mode:lr-tb;fill:#000000;fill-opacity:1;fill-rule:nonzero;stroke:none;font-family:Times New Roman;-inkscape-font-specification:Times-Roman">with the arrows pointing at the parent definition of the data item. </tspan></text>
<text
           transform="matrix(1,0,0,-1,71,147.8)"
           id="text94"><tspan
             x="0 8.8959999 13.344 22.24 26.688 35.584 48.928001 60.48 64.928001 73.823997 79.152 83.599998 93.375999 103.152 112.048 118.272 127.168 131.616 141.392 150.28799 159.18401 168.08 172.528 176.976 186.752 192.08 196.528 208.08 219.632 229.408 233.856 245.408 254.304 263.20001 272.09601 278.32001 282.76801 292.54401 297.87201 302.32001 312.09601"
             y="0"
             id="tspan96"
             style="font-size:16px;font-style:oblique;font-variant:normal;font-weight:bold;writing-mode:lr-tb;fill:#000000;fill-opacity:1;fill-rule:nonzero;stroke:none;font-family:Helvetica CY;-inkscape-font-specification:Helvetica-BoldOblique">1.1.1 Dictionary Level of DDL Description</tspan></text>
</g><path
         d="m 570,720 4980,0 0,6480 -4980,0 0,-6480 z"
         inkscape:connector-curvature="0"
         id="path98"
         style="fill:none;stroke:#000000;stroke-width:6;stroke-linecap:butt;stroke-linejoin:round;stroke-miterlimit:10;stroke-opacity:1;stroke-dasharray:none" /><g
         transform="scale(10,10)"
         id="g100"><text
           transform="matrix(1,0,0,-1,298.889,46)"
           id="text102"><tspan
             x="0 2.664 4.888 9.3360004 11.56"
             y="0"
             id="tspan104"
             style="font-size:8px;font-variant:normal;font-weight:normal;writing-mode:lr-tb;fill:#000000;fill-opacity:1;fill-rule:nonzero;stroke:none;font-family:Helvetica CY;-inkscape-font-specification:Helvetica">- 1 -</tspan><tspan
             x="13.6207 20.2847 26.9487 32.724701 34.9487 39.8367 42.060699 47.396702 51.8447 54.068699 56.292702 62.068699 66.516701 69.180702 73.6287 75.852699 81.6287 86.076698 90.076698 94.524696 96.300697 100.7487 105.1967 109.6447 112.3087 116.3087 118.5327 126.0847 130.5327 133.1967 137.1967 141.1967 145.6447 150.0927 154.5407 156.76469 162.5407 166.98869 169.21271 173.66071 178.1087 180.77271 184.77271 186.9967 192.77271 197.2207 198.9967 202.9967 207.4447 210.1087 214.1087 215.8847 218.1087 222.1087 224.3327 228.7807 233.2287 237.6767 -227.88831 -222.1123 -220.3363 -216.3363 -214.1123 -212.3363 -207.88831 -203.44031 -198.99229 -196.32829 -192.32829 -190.10429 -184.7683 -182.5443 -179.88029 -175.4323 -171.4323 -169.2083 -164.7603 -162.0963"
             y="-700"
             id="tspan106"
             style="font-size:8px;font-variant:normal;font-weight:normal;writing-mode:lr-tb;fill:#000000;fill-opacity:1;fill-rule:nonzero;stroke:none;font-family:Helvetica CY;-inkscape-font-specification:Helvetica">mmCIF Software Developers Workshop/Rutgers University 1997Dictionary Structure</tspan></text>
</g></g></g></svg>